<svg viewBox="0 0 1240 638" fill="none" xmlns="http://www.w3.org/2000/svg">
<path d="M522.071 3L749.956 3C761.059 3 771.187 9.33917 776.039 19.3254L797.548 63.5893C803.405 75.6417 815.628 83.2924 829.028 83.2924L1208 83.2924C1224.02 83.2924 1237 96.2762 1237 112.292V606C1237 622.016 1224.02 635 1208 635H32C15.9837 635 3 622.016 3 606V169.037V112.292C3 96.2762 15.9837 83.2924 32 83.2924L446.437 83.2924C460.697 83.2924 473.531 74.6407 478.881 61.4217L495.189 21.1215C499.621 10.1686 510.256 3 522.071 3Z" fill="#FFD772" stroke="black" stroke-width="6"/>
<path d="M560.76 70H555.192L567.96 35.68H573.672L586.536 70H580.776L577.944 61.744H563.592L560.76 70ZM570.744 40.576L565.176 57.28H576.456L570.84 40.576H570.744ZM605.408 70H590.096V35.68H604.544C611.6 35.68 615.728 38.848 615.728 44.32C615.728 48.544 613.232 50.512 610.4 51.472V51.568C614 52.192 617.072 54.832 617.072 59.968C617.072 66.544 612.512 70 605.408 70ZM595.376 49.936H604.4C608.72 49.936 610.208 48.16 610.208 45.088C610.208 42.064 608.384 40.24 604.784 40.24H595.376V49.936ZM595.376 65.44H605.024C610.112 65.44 611.552 62.992 611.552 59.776C611.552 56.176 609.344 54.112 605.744 54.112H595.376V65.44ZM637.279 70.672C627.007 70.672 620.431 63.136 620.431 52.816C620.431 42.496 627.007 35.008 637.279 35.008C647.551 35.008 654.127 42.496 654.127 52.816C654.127 63.136 647.551 70.672 637.279 70.672ZM637.279 66.112C645.391 66.112 648.607 59.872 648.607 52.816C648.607 45.76 645.391 39.568 637.279 39.568C629.167 39.568 625.951 45.76 625.951 52.816C625.951 59.872 629.167 66.112 637.279 66.112ZM672.435 70.672C663.027 70.672 659.043 65.728 659.043 58.336V35.68H664.323V58.336C664.323 63.664 667.011 66.112 672.435 66.112C677.907 66.112 680.547 63.664 680.547 58.336V35.68H685.875V58.336C685.875 65.728 681.891 70.672 672.435 70.672ZM706.199 70H700.871V40.24H689.783V35.68H717.286V40.24H706.199V70Z" fill="black"/>
<mask id="path-3-outside-1_85_3" maskUnits="userSpaceOnUse" x="468" y="222" width="419" height="178" fill="black">
<rect fill="white" x="468" y="222" width="419" height="178"/>
<path d="M589.125 282.891C584.487 285.942 580.305 289.177 576.578 292.596C572.851 296.015 569.285 299.583 565.879 303.3C562.595 306.95 559.39 310.674 556.266 314.473C553.142 318.272 549.91 322.091 546.571 325.93C544.471 328.287 542.38 329.725 540.299 330.245C538.339 330.699 535.717 330.447 532.433 329.492C529.739 328.606 527.71 327.35 526.347 325.725C524.983 324.1 524.07 322.146 523.607 319.862C522.964 315.376 522.353 310.951 521.776 306.587C521.32 302.156 520.972 297.705 520.73 293.234C520.464 288.141 520.086 284.5 519.597 282.311C519.228 280.055 518.647 279.067 517.855 279.348C517.089 279.535 516.153 280.849 515.045 283.29C514.059 285.664 512.922 288.915 511.635 293.044C508.725 301.408 506.565 309.991 505.156 318.792C503.869 327.526 502.675 336.288 501.574 345.076C501.355 346.548 501.062 348.1 500.695 349.733C500.355 351.271 499.995 352.702 499.615 354.024C498.749 356.331 497.463 358.157 495.755 359.502C494.047 360.848 491.837 361.638 489.126 361.872C486.322 362.08 484.029 361.566 482.248 360.332C480.441 359.192 479.003 357.647 477.936 355.699C476.841 353.846 476.049 351.824 475.559 349.635C475.07 347.445 474.774 345.466 474.672 343.696C473.941 337.036 473.806 330.6 474.268 324.389C474.851 318.111 475.621 311.887 476.579 305.718C478.368 295.594 480.967 285.656 484.378 275.902C487.882 266.175 492.471 257.276 498.144 249.203C501.715 244.204 505.57 240.515 509.709 238.138C513.97 235.693 518.072 234.686 522.015 235.117C525.958 235.548 529.528 237.456 532.724 240.843C536.014 244.256 538.487 249.274 540.144 255.897C542.83 268.141 544.612 279.816 545.491 290.92C550.429 286.114 555.495 281.396 560.688 276.766C565.908 272.042 571.321 267.885 576.926 264.297C582.653 260.641 588.612 257.769 594.803 255.681C600.994 253.594 607.544 252.736 614.452 253.109C619.349 253.407 623.538 254.575 627.02 256.612C630.596 258.676 633.391 261.331 635.407 264.579C637.544 267.759 638.895 271.376 639.46 275.43C640.024 279.483 639.817 283.568 638.838 287.684C637.032 295.039 634.702 302.088 631.851 308.832C629.093 315.604 626.209 322.287 623.197 328.881C620.306 335.409 617.428 341.89 614.564 348.323C611.794 354.784 609.433 361.414 607.48 368.215C606.91 370.198 606.28 372.216 605.59 374.266C604.899 376.317 604.048 378.219 603.037 379.971C601.282 383.248 598.94 385.739 596.01 387.445C593.147 389.273 589.55 389.762 585.219 388.911C581.076 388.115 578.116 386.383 576.34 383.717C574.537 381.146 573.432 378.266 573.026 375.077C572.647 371.794 572.684 368.479 573.137 365.131C573.71 361.715 574.229 358.847 574.692 356.526C575.917 350.844 577.578 345.237 579.674 339.706C581.865 334.203 584.209 328.693 586.708 323.177C589.301 317.688 591.88 312.247 594.445 306.853C597.132 301.391 599.651 295.983 602.001 290.629C603.61 286.798 604.511 283.837 604.705 281.744C604.899 279.651 604.4 278.38 603.208 277.931C602.136 277.414 600.398 277.625 597.993 278.563C595.616 279.406 592.66 280.849 589.125 282.891Z"/>
<path d="M651.129 313.322C651.679 304.777 652.428 296.039 653.376 287.108C653.985 280.629 656.385 275.069 660.574 270.428C662.669 268.108 664.897 266.478 667.259 265.539C669.721 264.504 672.12 264.205 674.456 264.643C676.792 265.08 678.971 266.154 680.99 267.864C683.012 269.475 684.581 271.767 685.698 274.738C687.004 278.008 687.674 281.364 687.708 284.806C687.742 288.249 687.482 291.686 686.93 295.117C685.466 305.513 684.053 315.812 682.69 326.014C681.328 336.215 680.013 346.467 678.747 356.768C678.202 359.807 677.852 362.849 677.698 365.894C677.643 368.843 677.49 371.79 677.24 374.736C677.115 376.209 676.989 377.681 676.864 379.154C676.741 380.528 676.52 381.901 676.201 383.272C675.653 386.507 674.384 389.04 672.396 390.87C670.407 392.8 667.994 393.836 665.158 393.979C662.616 394.128 660.234 393.493 658.014 392.074C655.891 390.657 654.368 388.514 653.444 385.645C652.709 383.172 652.122 380.604 651.683 377.941C651.244 375.277 650.853 372.664 650.51 370.101C649.909 365.664 649.556 361.036 649.45 356.215C649.345 351.395 649.386 346.577 649.573 341.762C649.762 336.848 650 331.985 650.285 327.172C650.667 322.36 650.949 317.744 651.129 313.322Z"/>
<path d="M732.431 355.99C735.046 355.388 737.851 354.679 740.848 353.864C743.844 353.049 746.841 352.235 749.838 351.42C752.83 350.507 755.778 349.694 758.681 348.981C761.581 348.171 764.24 347.468 766.659 346.874C768.407 346.604 770.156 346.334 771.904 346.063C773.75 345.789 775.509 345.764 777.18 345.989C780.604 346.042 783.538 347.247 785.982 349.605C788.523 351.958 790.105 354.745 790.728 357.966C791.57 361.769 791.326 365.322 789.997 368.625C788.765 371.924 786.474 374.432 783.124 376.147C781.502 377.101 779.774 377.862 777.94 378.432C776.106 379.001 774.315 379.42 772.567 379.691C765.561 380.477 758.72 381.7 752.043 383.358C745.363 384.919 738.745 386.821 732.191 389.064C725.429 391.022 719.783 390.423 715.253 387.267C710.723 384.112 707.762 378.726 706.371 371.108C706.228 370.032 706.086 368.955 705.943 367.879C705.797 366.704 705.701 365.577 705.656 364.496C705.351 357.128 705.075 349.317 704.83 341.061C704.582 332.707 704.286 324.404 703.943 316.152C703.699 307.896 703.366 299.89 702.947 292.133C702.625 284.373 702.234 277.304 701.773 270.927C701.749 267.976 702.328 265.442 703.511 263.326C704.69 261.111 706.231 259.373 708.134 258.112C710.134 256.847 712.303 256.116 714.641 255.92C716.975 255.625 719.238 255.972 721.43 256.963C723.715 257.851 725.785 259.437 727.639 261.72C729.494 264.004 730.889 266.996 731.824 270.696C732.76 274.396 733.385 278.848 733.698 284.05C734.105 289.15 734.279 294.506 734.218 300.118C734.255 305.725 734.15 311.437 733.903 317.254C733.749 322.968 733.534 328.389 733.258 333.518C732.978 338.549 732.725 343.037 732.497 346.983C732.368 350.924 732.345 353.927 732.431 355.99Z"/>
<path d="M831.859 314.801C832.049 315.766 832.304 317.318 832.624 319.459C832.926 321.504 833.285 323.838 833.7 326.461C834.097 328.988 834.522 331.66 834.975 334.476C835.505 337.177 836.103 339.714 836.767 342.087C839.546 341.535 842.172 340.962 844.644 340.37C847.193 339.663 849.656 339.023 852.033 338.45C854.505 337.858 856.997 337.362 859.507 336.963C861.998 336.467 864.671 336.136 867.526 335.969C871.261 335.727 874.257 336.785 876.512 339.143C878.862 341.482 880.293 344.204 880.803 347.309C881.237 350.029 880.954 352.391 879.953 354.394C879.03 356.281 877.695 357.85 875.949 359.099C874.222 360.445 872.237 361.491 869.994 362.238C867.751 362.985 865.575 363.568 863.467 363.987C856.339 365.204 849.296 366.605 842.339 368.189C835.401 369.87 828.464 371.3 821.527 372.48C818.729 372.936 816.317 372.313 814.29 370.612C812.379 368.987 811.187 366.719 810.714 363.806C810.449 362.456 810.232 361.096 810.063 359.726C809.989 358.338 809.745 356.583 809.328 354.461C808.475 350.621 807.48 346.059 806.342 340.773C805.282 335.371 804.165 329.68 802.991 323.7C801.798 317.623 800.577 311.402 799.328 305.036C798.059 298.573 796.838 292.352 795.664 286.371C794.567 280.276 793.498 274.575 792.457 269.27C791.415 263.965 790.516 259.383 789.758 255.525C789.55 254.464 789.246 253.422 788.846 252.399C788.446 251.376 788.094 250.344 787.79 249.302C787.126 246.427 787.372 243.873 788.526 241.639C789.757 239.289 791.753 237.79 794.513 237.141C801.374 235.576 808.33 234.242 815.382 233.14C822.415 231.942 829.458 230.541 836.51 228.938C838.618 228.518 840.851 228.225 843.207 228.056C845.564 227.888 847.795 228.096 849.9 228.679C851.987 229.166 853.824 230.154 855.41 231.643C857.074 233.015 858.218 235.043 858.844 237.724C859.546 240.792 859.252 243.857 857.961 246.92C856.767 249.964 854.396 252.089 850.85 253.296C848.146 254.234 845.559 255 843.086 255.592C840.595 256.087 838.094 256.534 835.584 256.933C833.17 257.313 830.659 257.713 828.053 258.131C825.524 258.433 822.87 258.861 820.091 259.414C820.851 262.269 821.448 265.057 821.882 267.777C822.394 270.381 822.818 273.053 823.157 275.792C823.572 278.415 823.997 281.087 824.431 283.806C824.962 286.507 825.673 289.372 826.567 292.402C831.491 291.623 836.33 290.66 841.083 289.514C845.932 288.349 850.847 287.522 855.829 287.032C858.166 286.768 860.099 287.486 861.628 289.186C863.233 290.771 864.263 292.721 864.718 295.036C865.268 297.332 865.138 299.713 864.328 302.179C863.499 304.549 861.837 306.483 859.344 307.981C858.097 308.73 856.256 309.497 853.822 310.282C851.368 310.971 848.762 311.639 846.002 312.289C843.338 312.919 840.712 313.491 838.125 314.006C835.519 314.424 833.43 314.689 831.859 314.801Z"/>
</mask>
<path d="M589.125 282.891C584.487 285.942 580.305 289.177 576.578 292.596C572.851 296.015 569.285 299.583 565.879 303.3C562.595 306.95 559.39 310.674 556.266 314.473C553.142 318.272 549.91 322.091 546.571 325.93C544.471 328.287 542.38 329.725 540.299 330.245C538.339 330.699 535.717 330.447 532.433 329.492C529.739 328.606 527.71 327.35 526.347 325.725C524.983 324.1 524.07 322.146 523.607 319.862C522.964 315.376 522.353 310.951 521.776 306.587C521.32 302.156 520.972 297.705 520.73 293.234C520.464 288.141 520.086 284.5 519.597 282.311C519.228 280.055 518.647 279.067 517.855 279.348C517.089 279.535 516.153 280.849 515.045 283.29C514.059 285.664 512.922 288.915 511.635 293.044C508.725 301.408 506.565 309.991 505.156 318.792C503.869 327.526 502.675 336.288 501.574 345.076C501.355 346.548 501.062 348.1 500.695 349.733C500.355 351.271 499.995 352.702 499.615 354.024C498.749 356.331 497.463 358.157 495.755 359.502C494.047 360.848 491.837 361.638 489.126 361.872C486.322 362.08 484.029 361.566 482.248 360.332C480.441 359.192 479.003 357.647 477.936 355.699C476.841 353.846 476.049 351.824 475.559 349.635C475.07 347.445 474.774 345.466 474.672 343.696C473.941 337.036 473.806 330.6 474.268 324.389C474.851 318.111 475.621 311.887 476.579 305.718C478.368 295.594 480.967 285.656 484.378 275.902C487.882 266.175 492.471 257.276 498.144 249.203C501.715 244.204 505.57 240.515 509.709 238.138C513.97 235.693 518.072 234.686 522.015 235.117C525.958 235.548 529.528 237.456 532.724 240.843C536.014 244.256 538.487 249.274 540.144 255.897C542.83 268.141 544.612 279.816 545.491 290.92C550.429 286.114 555.495 281.396 560.688 276.766C565.908 272.042 571.321 267.885 576.926 264.297C582.653 260.641 588.612 257.769 594.803 255.681C600.994 253.594 607.544 252.736 614.452 253.109C619.349 253.407 623.538 254.575 627.02 256.612C630.596 258.676 633.391 261.331 635.407 264.579C637.544 267.759 638.895 271.376 639.46 275.43C640.024 279.483 639.817 283.568 638.838 287.684C637.032 295.039 634.702 302.088 631.851 308.832C629.093 315.604 626.209 322.287 623.197 328.881C620.306 335.409 617.428 341.89 614.564 348.323C611.794 354.784 609.433 361.414 607.48 368.215C606.91 370.198 606.28 372.216 605.59 374.266C604.899 376.317 604.048 378.219 603.037 379.971C601.282 383.248 598.94 385.739 596.01 387.445C593.147 389.273 589.55 389.762 585.219 388.911C581.076 388.115 578.116 386.383 576.34 383.717C574.537 381.146 573.432 378.266 573.026 375.077C572.647 371.794 572.684 368.479 573.137 365.131C573.71 361.715 574.229 358.847 574.692 356.526C575.917 350.844 577.578 345.237 579.674 339.706C581.865 334.203 584.209 328.693 586.708 323.177C589.301 317.688 591.88 312.247 594.445 306.853C597.132 301.391 599.651 295.983 602.001 290.629C603.61 286.798 604.511 283.837 604.705 281.744C604.899 279.651 604.4 278.38 603.208 277.931C602.136 277.414 600.398 277.625 597.993 278.563C595.616 279.406 592.66 280.849 589.125 282.891Z" stroke="black" stroke-width="12" mask="url(#path-3-outside-1_85_3)"/>
<path d="M651.129 313.322C651.679 304.777 652.428 296.039 653.376 287.108C653.985 280.629 656.385 275.069 660.574 270.428C662.669 268.108 664.897 266.478 667.259 265.539C669.721 264.504 672.12 264.205 674.456 264.643C676.792 265.08 678.971 266.154 680.99 267.864C683.012 269.475 684.581 271.767 685.698 274.738C687.004 278.008 687.674 281.364 687.708 284.806C687.742 288.249 687.482 291.686 686.93 295.117C685.466 305.513 684.053 315.812 682.69 326.014C681.328 336.215 680.013 346.467 678.747 356.768C678.202 359.807 677.852 362.849 677.698 365.894C677.643 368.843 677.49 371.79 677.24 374.736C677.115 376.209 676.989 377.681 676.864 379.154C676.741 380.528 676.52 381.901 676.201 383.272C675.653 386.507 674.384 389.04 672.396 390.87C670.407 392.8 667.994 393.836 665.158 393.979C662.616 394.128 660.234 393.493 658.014 392.074C655.891 390.657 654.368 388.514 653.444 385.645C652.709 383.172 652.122 380.604 651.683 377.941C651.244 375.277 650.853 372.664 650.51 370.101C649.909 365.664 649.556 361.036 649.45 356.215C649.345 351.395 649.386 346.577 649.573 341.762C649.762 336.848 650 331.985 650.285 327.172C650.667 322.36 650.949 317.744 651.129 313.322Z" stroke="black" stroke-width="12" mask="url(#path-3-outside-1_85_3)"/>
<path d="M732.431 355.99C735.046 355.388 737.851 354.679 740.848 353.864C743.844 353.049 746.841 352.235 749.838 351.42C752.83 350.507 755.778 349.694 758.681 348.981C761.581 348.171 764.24 347.468 766.659 346.874C768.407 346.604 770.156 346.334 771.904 346.063C773.75 345.789 775.509 345.764 777.18 345.989C780.604 346.042 783.538 347.247 785.982 349.605C788.523 351.958 790.105 354.745 790.728 357.966C791.57 361.769 791.326 365.322 789.997 368.625C788.765 371.924 786.474 374.432 783.124 376.147C781.502 377.101 779.774 377.862 777.94 378.432C776.106 379.001 774.315 379.42 772.567 379.691C765.561 380.477 758.72 381.7 752.043 383.358C745.363 384.919 738.745 386.821 732.191 389.064C725.429 391.022 719.783 390.423 715.253 387.267C710.723 384.112 707.762 378.726 706.371 371.108C706.228 370.032 706.086 368.955 705.943 367.879C705.797 366.704 705.701 365.577 705.656 364.496C705.351 357.128 705.075 349.317 704.83 341.061C704.582 332.707 704.286 324.404 703.943 316.152C703.699 307.896 703.366 299.89 702.947 292.133C702.625 284.373 702.234 277.304 701.773 270.927C701.749 267.976 702.328 265.442 703.511 263.326C704.69 261.111 706.231 259.373 708.134 258.112C710.134 256.847 712.303 256.116 714.641 255.92C716.975 255.625 719.238 255.972 721.43 256.963C723.715 257.851 725.785 259.437 727.639 261.72C729.494 264.004 730.889 266.996 731.824 270.696C732.76 274.396 733.385 278.848 733.698 284.05C734.105 289.15 734.279 294.506 734.218 300.118C734.255 305.725 734.15 311.437 733.903 317.254C733.749 322.968 733.534 328.389 733.258 333.518C732.978 338.549 732.725 343.037 732.497 346.983C732.368 350.924 732.345 353.927 732.431 355.99Z" stroke="black" stroke-width="12" mask="url(#path-3-outside-1_85_3)"/>
<path d="M831.859 314.801C832.049 315.766 832.304 317.318 832.624 319.459C832.926 321.504 833.285 323.838 833.7 326.461C834.097 328.988 834.522 331.66 834.975 334.476C835.505 337.177 836.103 339.714 836.767 342.087C839.546 341.535 842.172 340.962 844.644 340.37C847.193 339.663 849.656 339.023 852.033 338.45C854.505 337.858 856.997 337.362 859.507 336.963C861.998 336.467 864.671 336.136 867.526 335.969C871.261 335.727 874.257 336.785 876.512 339.143C878.862 341.482 880.293 344.204 880.803 347.309C881.237 350.029 880.954 352.391 879.953 354.394C879.03 356.281 877.695 357.85 875.949 359.099C874.222 360.445 872.237 361.491 869.994 362.238C867.751 362.985 865.575 363.568 863.467 363.987C856.339 365.204 849.296 366.605 842.339 368.189C835.401 369.87 828.464 371.3 821.527 372.48C818.729 372.936 816.317 372.313 814.29 370.612C812.379 368.987 811.187 366.719 810.714 363.806C810.449 362.456 810.232 361.096 810.063 359.726C809.989 358.338 809.745 356.583 809.328 354.461C808.475 350.621 807.48 346.059 806.342 340.773C805.282 335.371 804.165 329.68 802.991 323.7C801.798 317.623 800.577 311.402 799.328 305.036C798.059 298.573 796.838 292.352 795.664 286.371C794.567 280.276 793.498 274.575 792.457 269.27C791.415 263.965 790.516 259.383 789.758 255.525C789.55 254.464 789.246 253.422 788.846 252.399C788.446 251.376 788.094 250.344 787.79 249.302C787.126 246.427 787.372 243.873 788.526 241.639C789.757 239.289 791.753 237.79 794.513 237.141C801.374 235.576 808.33 234.242 815.382 233.14C822.415 231.942 829.458 230.541 836.51 228.938C838.618 228.518 840.851 228.225 843.207 228.056C845.564 227.888 847.795 228.096 849.9 228.679C851.987 229.166 853.824 230.154 855.41 231.643C857.074 233.015 858.218 235.043 858.844 237.724C859.546 240.792 859.252 243.857 857.961 246.92C856.767 249.964 854.396 252.089 850.85 253.296C848.146 254.234 845.559 255 843.086 255.592C840.595 256.087 838.094 256.534 835.584 256.933C833.17 257.313 830.659 257.713 828.053 258.131C825.524 258.433 822.87 258.861 820.091 259.414C820.851 262.269 821.448 265.057 821.882 267.777C822.394 270.381 822.818 273.053 823.157 275.792C823.572 278.415 823.997 281.087 824.431 283.806C824.962 286.507 825.673 289.372 826.567 292.402C831.491 291.623 836.33 290.66 841.083 289.514C845.932 288.349 850.847 287.522 855.829 287.032C858.166 286.768 860.099 287.486 861.628 289.186C863.233 290.771 864.263 292.721 864.718 295.036C865.268 297.332 865.138 299.713 864.328 302.179C863.499 304.549 861.837 306.483 859.344 307.981C858.097 308.73 856.256 309.497 853.822 310.282C851.368 310.971 848.762 311.639 846.002 312.289C843.338 312.919 840.712 313.491 838.125 314.006C835.519 314.424 833.43 314.689 831.859 314.801Z" stroke="black" stroke-width="12" mask="url(#path-3-outside-1_85_3)"/>
<path fill-rule="evenodd" clip-rule="evenodd" d="M403.2 488.227C401.094 497.646 396.232 505.745 388.48 512.582C380.942 519.229 373.123 521.376 364.737 519.527C353.624 517.076 345.695 511.182 340.622 501.79C335.515 492.335 334.26 481.166 337.2 468.019C339.094 459.549 343.975 451.227 352.173 443.071C360.06 435.348 369.114 429.289 379.36 424.889C387.765 437.519 394.262 449.119 398.886 459.694C403.723 470.756 404.993 480.206 403.2 488.227Z" stroke="black" stroke-width="6" stroke-miterlimit="10" stroke-linecap="round"/>
<mask id="path-5-outside-2_85_3" maskUnits="userSpaceOnUse" x="462" y="208" width="411" height="173" fill="black">
<rect fill="white" x="462" y="208" width="411" height="173"/>
<path d="M583.448 263.178C578.797 266.249 574.603 269.505 570.866 272.946C567.129 276.387 563.552 279.977 560.137 283.718C556.843 287.392 553.63 291.14 550.497 294.963C547.364 298.786 544.123 302.63 540.775 306.493C538.669 308.865 536.572 310.313 534.485 310.837C532.52 311.293 529.89 311.04 526.597 310.078C523.895 309.186 521.861 307.923 520.493 306.287C519.126 304.652 518.21 302.685 517.747 300.386C517.101 295.872 516.489 291.419 515.91 287.026C515.453 282.567 515.103 278.087 514.862 273.587C514.595 268.462 514.216 264.798 513.724 262.595C513.355 260.324 512.772 259.329 511.978 259.612C511.21 259.8 510.271 261.123 509.161 263.579C508.171 265.969 507.031 269.241 505.74 273.396C502.822 281.814 500.657 290.452 499.244 299.31C497.952 308.1 496.755 316.917 495.652 325.762C495.432 327.243 495.138 328.805 494.77 330.449C494.429 331.997 494.068 333.437 493.687 334.768C492.819 337.089 491.528 338.927 489.816 340.281C488.103 341.635 485.887 342.43 483.169 342.666C480.356 342.875 478.057 342.358 476.272 341.116C474.459 339.968 473.017 338.414 471.947 336.454C470.849 334.588 470.055 332.554 469.564 330.35C469.073 328.147 468.776 326.155 468.674 324.374C467.941 317.67 467.806 311.193 468.269 304.942C468.853 298.624 469.626 292.36 470.586 286.152C472.38 275.963 474.987 265.961 478.407 256.144C481.921 246.355 486.523 237.399 492.212 229.274C495.793 224.243 499.658 220.531 503.81 218.138C508.082 215.677 512.195 214.664 516.15 215.097C520.104 215.531 523.683 217.452 526.888 220.86C530.188 224.295 532.668 229.346 534.33 236.011C537.023 248.334 538.81 260.083 539.691 271.259C544.644 266.422 549.724 261.673 554.931 257.014C560.166 252.259 565.594 248.076 571.215 244.465C576.958 240.785 582.933 237.895 589.142 235.794C595.351 233.693 601.919 232.83 608.847 233.205C613.756 233.505 617.957 234.681 621.449 236.73C625.035 238.808 627.839 241.48 629.86 244.749C632.003 247.949 633.358 251.59 633.924 255.669C634.49 259.748 634.282 263.859 633.301 268.002C631.489 275.404 629.153 282.499 626.294 289.286C623.529 296.101 620.636 302.827 617.615 309.464C614.716 316.033 611.831 322.555 608.959 329.03C606.181 335.532 603.813 342.205 601.854 349.05C601.283 351.046 600.651 353.076 599.959 355.14C599.267 357.204 598.413 359.117 597.399 360.881C595.64 364.179 593.291 366.686 590.353 368.403C587.481 370.243 583.874 370.734 579.531 369.878C575.376 369.077 572.408 367.335 570.627 364.651C568.819 362.063 567.711 359.165 567.304 355.956C566.923 352.652 566.961 349.315 567.415 345.945C567.99 342.508 568.51 339.622 568.975 337.285C570.203 331.567 571.868 325.924 573.971 320.358C576.167 314.819 578.518 309.274 581.024 303.723C583.624 298.199 586.211 292.723 588.783 287.294C591.478 281.797 594.003 276.355 596.361 270.966C597.973 267.111 598.877 264.13 599.072 262.024C599.267 259.918 598.766 258.638 597.57 258.186C596.495 257.666 594.752 257.878 592.341 258.822C589.957 259.671 586.993 261.123 583.448 263.178Z"/>
<path d="M645.626 293.805C646.178 285.205 646.929 276.411 647.879 267.422C648.49 260.902 650.896 255.306 655.098 250.635C657.198 248.3 659.433 246.66 661.802 245.715C664.27 244.673 666.676 244.372 669.019 244.813C671.362 245.253 673.546 246.334 675.571 248.054C677.598 249.676 679.172 251.982 680.292 254.973C681.602 258.264 682.274 261.641 682.308 265.106C682.341 268.57 682.081 272.029 681.527 275.483C680.059 285.946 678.642 296.311 677.276 306.578C675.91 316.845 674.592 327.162 673.321 337.53C672.775 340.587 672.424 343.649 672.269 346.714C672.214 349.682 672.061 352.648 671.81 355.612C671.685 357.095 671.559 358.577 671.434 360.059C671.31 361.442 671.088 362.823 670.769 364.203C670.219 367.459 668.947 370.008 666.953 371.85C664.958 373.792 662.538 374.835 659.695 374.979C657.145 375.128 654.757 374.489 652.53 373.061C650.401 371.636 648.874 369.479 647.948 366.591C647.21 364.103 646.622 361.518 646.182 358.838C645.742 356.157 645.35 353.527 645.006 350.948C644.403 346.483 644.048 341.824 643.943 336.973C643.837 332.121 643.878 327.273 644.066 322.427C644.256 317.482 644.493 312.587 644.779 307.743C645.163 302.901 645.445 298.255 645.626 293.805Z"/>
<path d="M727.156 336.746C729.778 336.14 732.592 335.427 735.597 334.607C738.602 333.787 741.607 332.967 744.612 332.147C747.613 331.228 750.569 330.41 753.48 329.693C756.388 328.877 759.054 328.17 761.48 327.572C763.234 327.3 764.987 327.028 766.74 326.756C768.591 326.48 770.355 326.455 772.031 326.681C775.464 326.734 778.406 327.947 780.857 330.32C783.406 332.688 784.992 335.493 785.617 338.735C786.461 342.562 786.217 346.138 784.884 349.462C783.649 352.783 781.351 355.306 777.991 357.033C776.365 357.993 774.632 358.759 772.793 359.332C770.954 359.905 769.158 360.327 767.404 360.599C760.379 361.391 753.518 362.621 746.823 364.29C740.124 365.86 733.488 367.775 726.915 370.033C720.134 372.003 714.473 371.4 709.93 368.224C705.387 365.049 702.418 359.628 701.023 351.962C700.88 350.878 700.737 349.795 700.594 348.711C700.447 347.529 700.351 346.394 700.306 345.307C700 337.892 699.724 330.03 699.478 321.721C699.229 313.313 698.932 304.957 698.589 296.652C698.343 288.344 698.01 280.286 697.589 272.48C697.266 264.669 696.874 257.555 696.413 251.137C696.388 248.167 696.969 245.617 698.155 243.487C699.337 241.258 700.882 239.51 702.791 238.241C704.797 236.967 706.972 236.232 709.316 236.034C711.657 235.737 713.926 236.087 716.124 237.084C718.416 237.977 720.491 239.573 722.351 241.872C724.211 244.17 725.61 247.181 726.548 250.905C727.486 254.629 728.112 259.109 728.427 264.345C728.835 269.477 729.009 274.868 728.949 280.515C728.986 286.159 728.88 291.908 728.632 297.761C728.478 303.512 728.262 308.968 727.986 314.13C727.705 319.193 727.451 323.71 727.223 327.681C727.093 331.648 727.07 334.67 727.156 336.746Z"/>
<path d="M817.722 303.402C817.911 304.373 818.167 305.936 818.489 308.09C818.791 310.148 819.151 312.497 819.568 315.137C819.965 317.68 820.391 320.369 820.846 323.204C821.377 325.922 821.977 328.475 822.643 330.863C825.43 330.307 828.063 329.731 830.542 329.135C833.099 328.423 835.568 327.779 837.952 327.202C840.431 326.607 842.929 326.108 845.447 325.706C847.945 325.207 850.625 324.874 853.488 324.706C857.234 324.463 860.238 325.527 862.499 327.9C864.856 330.254 866.291 332.993 866.802 336.119C867.238 338.856 866.954 341.233 865.95 343.249C865.024 345.148 863.685 346.727 861.934 347.984C860.203 349.339 858.212 350.392 855.963 351.143C853.714 351.895 851.532 352.482 849.418 352.904C842.27 354.129 835.207 355.539 828.231 357.133C821.273 358.825 814.316 360.264 807.36 361.451C804.554 361.91 802.135 361.283 800.103 359.571C798.186 357.936 796.991 355.653 796.517 352.722C796.251 351.363 796.034 349.994 795.864 348.616C795.79 347.218 795.545 345.452 795.127 343.316C794.271 339.452 793.273 334.86 792.133 329.54C791.07 324.104 789.95 318.377 788.772 312.358C787.576 306.242 786.352 299.981 785.098 293.574C783.826 287.07 782.602 280.809 781.424 274.79C780.324 268.655 779.252 262.918 778.208 257.579C777.164 252.24 776.262 247.629 775.502 243.746C775.294 242.678 774.989 241.629 774.588 240.6C774.187 239.57 773.834 238.531 773.529 237.483C772.863 234.59 773.109 232.019 774.267 229.771C775.501 227.406 777.503 225.897 780.27 225.244C787.151 223.668 794.127 222.326 801.198 221.217C808.25 220.011 815.313 218.601 822.386 216.988C824.499 216.566 826.738 216.27 829.101 216.101C831.464 215.932 833.702 216.141 835.813 216.728C837.906 217.218 839.748 218.212 841.338 219.71C843.006 221.092 844.154 223.132 844.782 225.831C845.486 228.918 845.191 232.003 843.896 235.086C842.699 238.149 840.321 240.288 836.765 241.502C834.054 242.447 831.459 243.217 828.98 243.813C826.482 244.311 823.974 244.762 821.457 245.163C819.035 245.546 816.518 245.947 813.905 246.368C811.368 246.673 808.707 247.103 805.92 247.659C806.682 250.533 807.281 253.339 807.716 256.076C808.229 258.697 808.655 261.386 808.995 264.142C809.411 266.783 809.837 269.471 810.273 272.209C810.804 274.927 811.518 277.81 812.414 280.859C817.352 280.075 822.205 279.106 826.971 277.953C831.834 276.781 836.763 275.948 841.758 275.455C844.102 275.189 846.041 275.911 847.574 277.623C849.184 279.218 850.216 281.18 850.672 283.51C851.224 285.821 851.093 288.217 850.281 290.699C849.45 293.084 847.783 295.031 845.283 296.538C844.033 297.292 842.187 298.064 839.745 298.854C837.285 299.547 834.671 300.22 831.904 300.874C829.232 301.508 826.599 302.084 824.005 302.602C821.391 303.022 819.297 303.289 817.722 303.402Z"/>
</mask>
<path d="M583.448 263.178C578.797 266.249 574.603 269.505 570.866 272.946C567.129 276.387 563.552 279.977 560.137 283.718C556.843 287.392 553.63 291.14 550.497 294.963C547.364 298.786 544.123 302.63 540.775 306.493C538.669 308.865 536.572 310.313 534.485 310.837C532.52 311.293 529.89 311.04 526.597 310.078C523.895 309.186 521.861 307.923 520.493 306.287C519.126 304.652 518.21 302.685 517.747 300.386C517.101 295.872 516.489 291.419 515.91 287.026C515.453 282.567 515.103 278.087 514.862 273.587C514.595 268.462 514.216 264.798 513.724 262.595C513.355 260.324 512.772 259.329 511.978 259.612C511.21 259.8 510.271 261.123 509.161 263.579C508.171 265.969 507.031 269.241 505.74 273.396C502.822 281.814 500.657 290.452 499.244 299.31C497.952 308.1 496.755 316.917 495.652 325.762C495.432 327.243 495.138 328.805 494.77 330.449C494.429 331.997 494.068 333.437 493.687 334.768C492.819 337.089 491.528 338.927 489.816 340.281C488.103 341.635 485.887 342.43 483.169 342.666C480.356 342.875 478.057 342.358 476.272 341.116C474.459 339.968 473.017 338.414 471.947 336.454C470.849 334.588 470.055 332.554 469.564 330.35C469.073 328.147 468.776 326.155 468.674 324.374C467.941 317.67 467.806 311.193 468.269 304.942C468.853 298.624 469.626 292.36 470.586 286.152C472.38 275.963 474.987 265.961 478.407 256.144C481.921 246.355 486.523 237.399 492.212 229.274C495.793 224.243 499.658 220.531 503.81 218.138C508.082 215.677 512.195 214.664 516.15 215.097C520.104 215.531 523.683 217.452 526.888 220.86C530.188 224.295 532.668 229.346 534.33 236.011C537.023 248.334 538.81 260.083 539.691 271.259C544.644 266.422 549.724 261.673 554.931 257.014C560.166 252.259 565.594 248.076 571.215 244.465C576.958 240.785 582.933 237.895 589.142 235.794C595.351 233.693 601.919 232.83 608.847 233.205C613.756 233.505 617.957 234.681 621.449 236.73C625.035 238.808 627.839 241.48 629.86 244.749C632.003 247.949 633.358 251.59 633.924 255.669C634.49 259.748 634.282 263.859 633.301 268.002C631.489 275.404 629.153 282.499 626.294 289.286C623.529 296.101 620.636 302.827 617.615 309.464C614.716 316.033 611.831 322.555 608.959 329.03C606.181 335.532 603.813 342.205 601.854 349.05C601.283 351.046 600.651 353.076 599.959 355.14C599.267 357.204 598.413 359.117 597.399 360.881C595.64 364.179 593.291 366.686 590.353 368.403C587.481 370.243 583.874 370.734 579.531 369.878C575.376 369.077 572.408 367.335 570.627 364.651C568.819 362.063 567.711 359.165 567.304 355.956C566.923 352.652 566.961 349.315 567.415 345.945C567.99 342.508 568.51 339.622 568.975 337.285C570.203 331.567 571.868 325.924 573.971 320.358C576.167 314.819 578.518 309.274 581.024 303.723C583.624 298.199 586.211 292.723 588.783 287.294C591.478 281.797 594.003 276.355 596.361 270.966C597.973 267.111 598.877 264.13 599.072 262.024C599.267 259.918 598.766 258.638 597.57 258.186C596.495 257.666 594.752 257.878 592.341 258.822C589.957 259.671 586.993 261.123 583.448 263.178Z" fill="url(#paint0_linear_85_3)"/>
<path d="M645.626 293.805C646.178 285.205 646.929 276.411 647.879 267.422C648.49 260.902 650.896 255.306 655.098 250.635C657.198 248.3 659.433 246.66 661.802 245.715C664.27 244.673 666.676 244.372 669.019 244.813C671.362 245.253 673.546 246.334 675.571 248.054C677.598 249.676 679.172 251.982 680.292 254.973C681.602 258.264 682.274 261.641 682.308 265.106C682.341 268.57 682.081 272.029 681.527 275.483C680.059 285.946 678.642 296.311 677.276 306.578C675.91 316.845 674.592 327.162 673.321 337.53C672.775 340.587 672.424 343.649 672.269 346.714C672.214 349.682 672.061 352.648 671.81 355.612C671.685 357.095 671.559 358.577 671.434 360.059C671.31 361.442 671.088 362.823 670.769 364.203C670.219 367.459 668.947 370.008 666.953 371.85C664.958 373.792 662.538 374.835 659.695 374.979C657.145 375.128 654.757 374.489 652.53 373.061C650.401 371.636 648.874 369.479 647.948 366.591C647.21 364.103 646.622 361.518 646.182 358.838C645.742 356.157 645.35 353.527 645.006 350.948C644.403 346.483 644.048 341.824 643.943 336.973C643.837 332.121 643.878 327.273 644.066 322.427C644.256 317.482 644.493 312.587 644.779 307.743C645.163 302.901 645.445 298.255 645.626 293.805Z" fill="url(#paint1_linear_85_3)"/>
<path d="M727.156 336.746C729.778 336.14 732.592 335.427 735.597 334.607C738.602 333.787 741.607 332.967 744.612 332.147C747.613 331.228 750.569 330.41 753.48 329.693C756.388 328.877 759.054 328.17 761.48 327.572C763.234 327.3 764.987 327.028 766.74 326.756C768.591 326.48 770.355 326.455 772.031 326.681C775.464 326.734 778.406 327.947 780.857 330.32C783.406 332.688 784.992 335.493 785.617 338.735C786.461 342.562 786.217 346.138 784.884 349.462C783.649 352.783 781.351 355.306 777.991 357.033C776.365 357.993 774.632 358.759 772.793 359.332C770.954 359.905 769.158 360.327 767.404 360.599C760.379 361.391 753.518 362.621 746.823 364.29C740.124 365.86 733.488 367.775 726.915 370.033C720.134 372.003 714.473 371.4 709.93 368.224C705.387 365.049 702.418 359.628 701.023 351.962C700.88 350.878 700.737 349.795 700.594 348.711C700.447 347.529 700.351 346.394 700.306 345.307C700 337.892 699.724 330.03 699.478 321.721C699.229 313.313 698.932 304.957 698.589 296.652C698.343 288.344 698.01 280.286 697.589 272.48C697.266 264.669 696.874 257.555 696.413 251.137C696.388 248.167 696.969 245.617 698.155 243.487C699.337 241.258 700.882 239.51 702.791 238.241C704.797 236.967 706.972 236.232 709.316 236.034C711.657 235.737 713.926 236.087 716.124 237.084C718.416 237.977 720.491 239.573 722.351 241.872C724.211 244.17 725.61 247.181 726.548 250.905C727.486 254.629 728.112 259.109 728.427 264.345C728.835 269.477 729.009 274.868 728.949 280.515C728.986 286.159 728.88 291.908 728.632 297.761C728.478 303.512 728.262 308.968 727.986 314.13C727.705 319.193 727.451 323.71 727.223 327.681C727.093 331.648 727.07 334.67 727.156 336.746Z" fill="url(#paint2_linear_85_3)"/>
<path d="M817.722 303.402C817.911 304.373 818.167 305.936 818.489 308.09C818.791 310.148 819.151 312.497 819.568 315.137C819.965 317.68 820.391 320.369 820.846 323.204C821.377 325.922 821.977 328.475 822.643 330.863C825.43 330.307 828.063 329.731 830.542 329.135C833.099 328.423 835.568 327.779 837.952 327.202C840.431 326.607 842.929 326.108 845.447 325.706C847.945 325.207 850.625 324.874 853.488 324.706C857.234 324.463 860.238 325.527 862.499 327.9C864.856 330.254 866.291 332.993 866.802 336.119C867.238 338.856 866.954 341.233 865.95 343.249C865.024 345.148 863.685 346.727 861.934 347.984C860.203 349.339 858.212 350.392 855.963 351.143C853.714 351.895 851.532 352.482 849.418 352.904C842.27 354.129 835.207 355.539 828.231 357.133C821.273 358.825 814.316 360.264 807.36 361.451C804.554 361.91 802.135 361.283 800.103 359.571C798.186 357.936 796.991 355.653 796.517 352.722C796.251 351.363 796.034 349.994 795.864 348.616C795.79 347.218 795.545 345.452 795.127 343.316C794.271 339.452 793.273 334.86 792.133 329.54C791.07 324.104 789.95 318.377 788.772 312.358C787.576 306.242 786.352 299.981 785.098 293.574C783.826 287.07 782.602 280.809 781.424 274.79C780.324 268.655 779.252 262.918 778.208 257.579C777.164 252.24 776.262 247.629 775.502 243.746C775.294 242.678 774.989 241.629 774.588 240.6C774.187 239.57 773.834 238.531 773.529 237.483C772.863 234.59 773.109 232.019 774.267 229.771C775.501 227.406 777.503 225.897 780.27 225.244C787.151 223.668 794.127 222.326 801.198 221.217C808.25 220.011 815.313 218.601 822.386 216.988C824.499 216.566 826.738 216.27 829.101 216.101C831.464 215.932 833.702 216.141 835.813 216.728C837.906 217.218 839.748 218.212 841.338 219.71C843.006 221.092 844.154 223.132 844.782 225.831C845.486 228.918 845.191 232.003 843.896 235.086C842.699 238.149 840.321 240.288 836.765 241.502C834.054 242.447 831.459 243.217 828.98 243.813C826.482 244.311 823.974 244.762 821.457 245.163C819.035 245.546 816.518 245.947 813.905 246.368C811.368 246.673 808.707 247.103 805.92 247.659C806.682 250.533 807.281 253.339 807.716 256.076C808.229 258.697 808.655 261.386 808.995 264.142C809.411 266.783 809.837 269.471 810.273 272.209C810.804 274.927 811.518 277.81 812.414 280.859C817.352 280.075 822.205 279.106 826.971 277.953C831.834 276.781 836.763 275.948 841.758 275.455C844.102 275.189 846.041 275.911 847.574 277.623C849.184 279.218 850.216 281.18 850.672 283.51C851.224 285.821 851.093 288.217 850.281 290.699C849.45 293.084 847.783 295.031 845.283 296.538C844.033 297.292 842.187 298.064 839.745 298.854C837.285 299.547 834.671 300.22 831.904 300.874C829.232 301.508 826.599 302.084 824.005 302.602C821.391 303.022 819.297 303.289 817.722 303.402Z" fill="url(#paint3_linear_85_3)"/>
<path d="M583.448 263.178C578.797 266.249 574.603 269.505 570.866 272.946C567.129 276.387 563.552 279.977 560.137 283.718C556.843 287.392 553.63 291.14 550.497 294.963C547.364 298.786 544.123 302.63 540.775 306.493C538.669 308.865 536.572 310.313 534.485 310.837C532.52 311.293 529.89 311.04 526.597 310.078C523.895 309.186 521.861 307.923 520.493 306.287C519.126 304.652 518.21 302.685 517.747 300.386C517.101 295.872 516.489 291.419 515.91 287.026C515.453 282.567 515.103 278.087 514.862 273.587C514.595 268.462 514.216 264.798 513.724 262.595C513.355 260.324 512.772 259.329 511.978 259.612C511.21 259.8 510.271 261.123 509.161 263.579C508.171 265.969 507.031 269.241 505.74 273.396C502.822 281.814 500.657 290.452 499.244 299.31C497.952 308.1 496.755 316.917 495.652 325.762C495.432 327.243 495.138 328.805 494.77 330.449C494.429 331.997 494.068 333.437 493.687 334.768C492.819 337.089 491.528 338.927 489.816 340.281C488.103 341.635 485.887 342.43 483.169 342.666C480.356 342.875 478.057 342.358 476.272 341.116C474.459 339.968 473.017 338.414 471.947 336.454C470.849 334.588 470.055 332.554 469.564 330.35C469.073 328.147 468.776 326.155 468.674 324.374C467.941 317.67 467.806 311.193 468.269 304.942C468.853 298.624 469.626 292.36 470.586 286.152C472.38 275.963 474.987 265.961 478.407 256.144C481.921 246.355 486.523 237.399 492.212 229.274C495.793 224.243 499.658 220.531 503.81 218.138C508.082 215.677 512.195 214.664 516.15 215.097C520.104 215.531 523.683 217.452 526.888 220.86C530.188 224.295 532.668 229.346 534.33 236.011C537.023 248.334 538.81 260.083 539.691 271.259C544.644 266.422 549.724 261.673 554.931 257.014C560.166 252.259 565.594 248.076 571.215 244.465C576.958 240.785 582.933 237.895 589.142 235.794C595.351 233.693 601.919 232.83 608.847 233.205C613.756 233.505 617.957 234.681 621.449 236.73C625.035 238.808 627.839 241.48 629.86 244.749C632.003 247.949 633.358 251.59 633.924 255.669C634.49 259.748 634.282 263.859 633.301 268.002C631.489 275.404 629.153 282.499 626.294 289.286C623.529 296.101 620.636 302.827 617.615 309.464C614.716 316.033 611.831 322.555 608.959 329.03C606.181 335.532 603.813 342.205 601.854 349.05C601.283 351.046 600.651 353.076 599.959 355.14C599.267 357.204 598.413 359.117 597.399 360.881C595.64 364.179 593.291 366.686 590.353 368.403C587.481 370.243 583.874 370.734 579.531 369.878C575.376 369.077 572.408 367.335 570.627 364.651C568.819 362.063 567.711 359.165 567.304 355.956C566.923 352.652 566.961 349.315 567.415 345.945C567.99 342.508 568.51 339.622 568.975 337.285C570.203 331.567 571.868 325.924 573.971 320.358C576.167 314.819 578.518 309.274 581.024 303.723C583.624 298.199 586.211 292.723 588.783 287.294C591.478 281.797 594.003 276.355 596.361 270.966C597.973 267.111 598.877 264.13 599.072 262.024C599.267 259.918 598.766 258.638 597.57 258.186C596.495 257.666 594.752 257.878 592.341 258.822C589.957 259.671 586.993 261.123 583.448 263.178Z" stroke="black" stroke-width="12" mask="url(#path-5-outside-2_85_3)"/>
<path d="M645.626 293.805C646.178 285.205 646.929 276.411 647.879 267.422C648.49 260.902 650.896 255.306 655.098 250.635C657.198 248.3 659.433 246.66 661.802 245.715C664.27 244.673 666.676 244.372 669.019 244.813C671.362 245.253 673.546 246.334 675.571 248.054C677.598 249.676 679.172 251.982 680.292 254.973C681.602 258.264 682.274 261.641 682.308 265.106C682.341 268.57 682.081 272.029 681.527 275.483C680.059 285.946 678.642 296.311 677.276 306.578C675.91 316.845 674.592 327.162 673.321 337.53C672.775 340.587 672.424 343.649 672.269 346.714C672.214 349.682 672.061 352.648 671.81 355.612C671.685 357.095 671.559 358.577 671.434 360.059C671.31 361.442 671.088 362.823 670.769 364.203C670.219 367.459 668.947 370.008 666.953 371.85C664.958 373.792 662.538 374.835 659.695 374.979C657.145 375.128 654.757 374.489 652.53 373.061C650.401 371.636 648.874 369.479 647.948 366.591C647.21 364.103 646.622 361.518 646.182 358.838C645.742 356.157 645.35 353.527 645.006 350.948C644.403 346.483 644.048 341.824 643.943 336.973C643.837 332.121 643.878 327.273 644.066 322.427C644.256 317.482 644.493 312.587 644.779 307.743C645.163 302.901 645.445 298.255 645.626 293.805Z" stroke="black" stroke-width="12" mask="url(#path-5-outside-2_85_3)"/>
<path d="M727.156 336.746C729.778 336.14 732.592 335.427 735.597 334.607C738.602 333.787 741.607 332.967 744.612 332.147C747.613 331.228 750.569 330.41 753.48 329.693C756.388 328.877 759.054 328.17 761.48 327.572C763.234 327.3 764.987 327.028 766.74 326.756C768.591 326.48 770.355 326.455 772.031 326.681C775.464 326.734 778.406 327.947 780.857 330.32C783.406 332.688 784.992 335.493 785.617 338.735C786.461 342.562 786.217 346.138 784.884 349.462C783.649 352.783 781.351 355.306 777.991 357.033C776.365 357.993 774.632 358.759 772.793 359.332C770.954 359.905 769.158 360.327 767.404 360.599C760.379 361.391 753.518 362.621 746.823 364.29C740.124 365.86 733.488 367.775 726.915 370.033C720.134 372.003 714.473 371.4 709.93 368.224C705.387 365.049 702.418 359.628 701.023 351.962C700.88 350.878 700.737 349.795 700.594 348.711C700.447 347.529 700.351 346.394 700.306 345.307C700 337.892 699.724 330.03 699.478 321.721C699.229 313.313 698.932 304.957 698.589 296.652C698.343 288.344 698.01 280.286 697.589 272.48C697.266 264.669 696.874 257.555 696.413 251.137C696.388 248.167 696.969 245.617 698.155 243.487C699.337 241.258 700.882 239.51 702.791 238.241C704.797 236.967 706.972 236.232 709.316 236.034C711.657 235.737 713.926 236.087 716.124 237.084C718.416 237.977 720.491 239.573 722.351 241.872C724.211 244.17 725.61 247.181 726.548 250.905C727.486 254.629 728.112 259.109 728.427 264.345C728.835 269.477 729.009 274.868 728.949 280.515C728.986 286.159 728.88 291.908 728.632 297.761C728.478 303.512 728.262 308.968 727.986 314.13C727.705 319.193 727.451 323.71 727.223 327.681C727.093 331.648 727.07 334.67 727.156 336.746Z" stroke="black" stroke-width="12" mask="url(#path-5-outside-2_85_3)"/>
<path d="M817.722 303.402C817.911 304.373 818.167 305.936 818.489 308.09C818.791 310.148 819.151 312.497 819.568 315.137C819.965 317.68 820.391 320.369 820.846 323.204C821.377 325.922 821.977 328.475 822.643 330.863C825.43 330.307 828.063 329.731 830.542 329.135C833.099 328.423 835.568 327.779 837.952 327.202C840.431 326.607 842.929 326.108 845.447 325.706C847.945 325.207 850.625 324.874 853.488 324.706C857.234 324.463 860.238 325.527 862.499 327.9C864.856 330.254 866.291 332.993 866.802 336.119C867.238 338.856 866.954 341.233 865.95 343.249C865.024 345.148 863.685 346.727 861.934 347.984C860.203 349.339 858.212 350.392 855.963 351.143C853.714 351.895 851.532 352.482 849.418 352.904C842.27 354.129 835.207 355.539 828.231 357.133C821.273 358.825 814.316 360.264 807.36 361.451C804.554 361.91 802.135 361.283 800.103 359.571C798.186 357.936 796.991 355.653 796.517 352.722C796.251 351.363 796.034 349.994 795.864 348.616C795.79 347.218 795.545 345.452 795.127 343.316C794.271 339.452 793.273 334.86 792.133 329.54C791.07 324.104 789.95 318.377 788.772 312.358C787.576 306.242 786.352 299.981 785.098 293.574C783.826 287.07 782.602 280.809 781.424 274.79C780.324 268.655 779.252 262.918 778.208 257.579C777.164 252.24 776.262 247.629 775.502 243.746C775.294 242.678 774.989 241.629 774.588 240.6C774.187 239.57 773.834 238.531 773.529 237.483C772.863 234.59 773.109 232.019 774.267 229.771C775.501 227.406 777.503 225.897 780.27 225.244C787.151 223.668 794.127 222.326 801.198 221.217C808.25 220.011 815.313 218.601 822.386 216.988C824.499 216.566 826.738 216.27 829.101 216.101C831.464 215.932 833.702 216.141 835.813 216.728C837.906 217.218 839.748 218.212 841.338 219.71C843.006 221.092 844.154 223.132 844.782 225.831C845.486 228.918 845.191 232.003 843.896 235.086C842.699 238.149 840.321 240.288 836.765 241.502C834.054 242.447 831.459 243.217 828.98 243.813C826.482 244.311 823.974 244.762 821.457 245.163C819.035 245.546 816.518 245.947 813.905 246.368C811.368 246.673 808.707 247.103 805.92 247.659C806.682 250.533 807.281 253.339 807.716 256.076C808.229 258.697 808.655 261.386 808.995 264.142C809.411 266.783 809.837 269.471 810.273 272.209C810.804 274.927 811.518 277.81 812.414 280.859C817.352 280.075 822.205 279.106 826.971 277.953C831.834 276.781 836.763 275.948 841.758 275.455C844.102 275.189 846.041 275.911 847.574 277.623C849.184 279.218 850.216 281.18 850.672 283.51C851.224 285.821 851.093 288.217 850.281 290.699C849.45 293.084 847.783 295.031 845.283 296.538C844.033 297.292 842.187 298.064 839.745 298.854C837.285 299.547 834.671 300.22 831.904 300.874C829.232 301.508 826.599 302.084 824.005 302.602C821.391 303.022 819.297 303.289 817.722 303.402Z" stroke="black" stroke-width="12" mask="url(#path-5-outside-2_85_3)"/>
<mask id="path-6-outside-3_85_3" maskUnits="userSpaceOnUse" x="297" y="199" width="701" height="341" fill="black">
<rect fill="white" x="297" y="199" width="701" height="341"/>
<path fill-rule="evenodd" clip-rule="evenodd" d="M323.613 514.535L323.584 514.506C314.828 505.586 308.815 494.925 305.554 482.594C302.291 470.255 302.164 457.472 305.119 444.302C307.974 431.577 314.343 419.729 324.074 408.766L324.097 408.74L324.121 408.714C334.086 397.909 345.584 389.059 358.601 382.174L358.639 382.155L361.079 380.934L355.828 371.876L350.649 363.207L350.64 363.192C340.77 347.005 333.315 331.913 328.323 317.923C323.172 303.489 322.519 287.951 326.229 271.415C330.184 253.787 337.164 239.466 347.333 228.679C357.401 218 369.229 210.924 382.777 207.562C396.178 204.237 409.994 204.156 424.175 207.273C438.946 210.52 450.119 217.849 457.266 229.403C464.697 240.988 466.646 254.258 463.357 268.919C460.949 279.651 456.32 289.849 449.527 299.5C447.757 302.063 445.481 304.001 442.66 305.052C439.851 306.099 436.813 306.148 433.704 305.465C431.967 305.083 430.154 304.25 428.323 303.167C425.669 301.723 423.629 299.571 422.211 296.846L422.06 296.556L421.962 296.243C421.029 293.257 420.898 290.209 421.581 287.166C421.737 286.47 422.077 285.736 422.326 285.222C422.627 284.601 423.027 283.846 423.511 282.974C424.48 281.226 425.862 278.873 427.641 275.934C431.082 270.251 433.104 265.61 433.926 261.948C435.44 255.201 434.508 249.946 431.612 245.762C428.67 241.513 423.849 238.442 416.612 236.852C402.871 233.831 390.345 235.512 378.843 241.799C368.082 247.908 360.243 260.084 355.913 279.388C354.16 287.201 354.401 294.631 356.578 301.747C359.185 309.314 364.977 321.739 374.09 339.165L374.169 339.316L374.233 339.473C376.016 343.809 378.897 349.693 382.92 357.167L382.962 357.245L383 357.325C384.268 359.976 386.929 364.521 391.083 371.061C416.416 365.419 445.313 366.249 477.679 373.363C500.599 378.401 522.101 385.827 542.176 395.649C542.977 395.992 543.71 396.337 544.359 396.675C581.412 415.313 646.485 436.582 745.885 417.394C846.07 397.013 908.439 339.142 927.545 319.423C928.058 318.894 928.599 318.406 929.165 317.96C923.191 303.982 924.813 289.28 925.529 284.098C925.867 281.653 927.1 279.591 928.364 278.131C929.659 276.634 931.444 275.235 933.581 274.443C935.621 273.687 938.678 273.29 941.447 275.082C944.523 277.073 945.261 280.435 944.901 283.036C944.066 289.082 942.816 304.682 952.055 315.376C961.515 325.849 976.622 325.814 982.388 325.356C985.155 325.135 988.448 326.229 990.156 329.458C991.643 332.273 991.098 335.21 990.265 337.183C989.387 339.261 987.94 340.99 986.39 342.235C984.893 343.437 982.754 344.621 980.237 344.821C975.294 345.215 962.135 345.688 949.665 339.582C927.807 362.015 859.924 424.323 751.177 446.42L751.098 446.436L751.02 446.451C642.167 467.49 576.432 446.492 531.043 424.1C529.797 423.485 528.616 422.884 527.497 422.295C511.323 414.253 493.416 408.063 473.758 403.742C462.751 401.323 450.419 399.695 436.748 398.875L436.707 398.872L436.666 398.869C425.847 397.98 416.663 397.929 409.07 398.67C417.733 412.972 424.29 425.986 428.695 437.698C433.723 451.065 434.772 464.478 431.773 477.849C429.337 488.706 424.206 498.743 416.476 507.943C408.73 517.163 399.462 524.106 388.693 528.724L388.654 528.74L388.615 528.756C377.821 533.095 366.98 534.129 356.187 531.756C343.416 528.95 332.532 523.227 323.642 514.564L323.613 514.535ZM386.762 494.582C394.541 487.745 399.419 479.646 401.532 470.227C403.332 462.206 402.058 452.756 397.204 441.694C392.564 431.119 386.045 419.519 377.612 406.889C367.331 411.289 358.246 417.348 350.333 425.071C342.107 433.227 337.209 441.549 335.309 450.019C332.359 463.166 333.619 474.335 338.743 483.79C343.833 493.182 351.789 499.076 362.94 501.527C371.354 503.376 379.199 501.229 386.762 494.582Z"/>
</mask>
<path fill-rule="evenodd" clip-rule="evenodd" d="M323.613 514.535L323.584 514.506C314.828 505.586 308.815 494.925 305.554 482.594C302.291 470.255 302.164 457.472 305.119 444.302C307.974 431.577 314.343 419.729 324.074 408.766L324.097 408.74L324.121 408.714C334.086 397.909 345.584 389.059 358.601 382.174L358.639 382.155L361.079 380.934L355.828 371.876L350.649 363.207L350.64 363.192C340.77 347.005 333.315 331.913 328.323 317.923C323.172 303.489 322.519 287.951 326.229 271.415C330.184 253.787 337.164 239.466 347.333 228.679C357.401 218 369.229 210.924 382.777 207.562C396.178 204.237 409.994 204.156 424.175 207.273C438.946 210.52 450.119 217.849 457.266 229.403C464.697 240.988 466.646 254.258 463.357 268.919C460.949 279.651 456.32 289.849 449.527 299.5C447.757 302.063 445.481 304.001 442.66 305.052C439.851 306.099 436.813 306.148 433.704 305.465C431.967 305.083 430.154 304.25 428.323 303.167C425.669 301.723 423.629 299.571 422.211 296.846L422.06 296.556L421.962 296.243C421.029 293.257 420.898 290.209 421.581 287.166C421.737 286.47 422.077 285.736 422.326 285.222C422.627 284.601 423.027 283.846 423.511 282.974C424.48 281.226 425.862 278.873 427.641 275.934C431.082 270.251 433.104 265.61 433.926 261.948C435.44 255.201 434.508 249.946 431.612 245.762C428.67 241.513 423.849 238.442 416.612 236.852C402.871 233.831 390.345 235.512 378.843 241.799C368.082 247.908 360.243 260.084 355.913 279.388C354.16 287.201 354.401 294.631 356.578 301.747C359.185 309.314 364.977 321.739 374.09 339.165L374.169 339.316L374.233 339.473C376.016 343.809 378.897 349.693 382.92 357.167L382.962 357.245L383 357.325C384.268 359.976 386.929 364.521 391.083 371.061C416.416 365.419 445.313 366.249 477.679 373.363C500.599 378.401 522.101 385.827 542.176 395.649C542.977 395.992 543.71 396.337 544.359 396.675C581.412 415.313 646.485 436.582 745.885 417.394C846.07 397.013 908.439 339.142 927.545 319.423C928.058 318.894 928.599 318.406 929.165 317.96C923.191 303.982 924.813 289.28 925.529 284.098C925.867 281.653 927.1 279.591 928.364 278.131C929.659 276.634 931.444 275.235 933.581 274.443C935.621 273.687 938.678 273.29 941.447 275.082C944.523 277.073 945.261 280.435 944.901 283.036C944.066 289.082 942.816 304.682 952.055 315.376C961.515 325.849 976.622 325.814 982.388 325.356C985.155 325.135 988.448 326.229 990.156 329.458C991.643 332.273 991.098 335.21 990.265 337.183C989.387 339.261 987.94 340.99 986.39 342.235C984.893 343.437 982.754 344.621 980.237 344.821C975.294 345.215 962.135 345.688 949.665 339.582C927.807 362.015 859.924 424.323 751.177 446.42L751.098 446.436L751.02 446.451C642.167 467.49 576.432 446.492 531.043 424.1C529.797 423.485 528.616 422.884 527.497 422.295C511.323 414.253 493.416 408.063 473.758 403.742C462.751 401.323 450.419 399.695 436.748 398.875L436.707 398.872L436.666 398.869C425.847 397.98 416.663 397.929 409.07 398.67C417.733 412.972 424.29 425.986 428.695 437.698C433.723 451.065 434.772 464.478 431.773 477.849C429.337 488.706 424.206 498.743 416.476 507.943C408.73 517.163 399.462 524.106 388.693 528.724L388.654 528.74L388.615 528.756C377.821 533.095 366.98 534.129 356.187 531.756C343.416 528.95 332.532 523.227 323.642 514.564L323.613 514.535ZM386.762 494.582C394.541 487.745 399.419 479.646 401.532 470.227C403.332 462.206 402.058 452.756 397.204 441.694C392.564 431.119 386.045 419.519 377.612 406.889C367.331 411.289 358.246 417.348 350.333 425.071C342.107 433.227 337.209 441.549 335.309 450.019C332.359 463.166 333.619 474.335 338.743 483.79C343.833 493.182 351.789 499.076 362.94 501.527C371.354 503.376 379.199 501.229 386.762 494.582Z" fill="url(#paint4_angular_85_3)"/>
<path d="M323.584 514.506L327.867 510.303L327.866 510.303L323.584 514.506ZM323.613 514.535L319.331 518.738L319.377 518.785L319.425 518.832L323.613 514.535ZM305.554 482.594L311.354 481.06L311.354 481.06L305.554 482.594ZM305.119 444.302L310.974 445.615L310.974 445.615L305.119 444.302ZM324.074 408.766L319.588 404.782L319.587 404.783L324.074 408.766ZM324.097 408.74L319.686 404.673L319.648 404.714L319.611 404.756L324.097 408.74ZM324.121 408.714L319.71 404.647L319.71 404.647L324.121 408.714ZM358.601 382.174L355.797 376.87L355.796 376.87L358.601 382.174ZM358.639 382.155L355.955 376.788L355.895 376.818L355.835 376.85L358.639 382.155ZM361.079 380.934L363.762 386.301L369.47 383.447L366.27 377.926L361.079 380.934ZM355.828 371.876L361.019 368.868L360.999 368.833L360.979 368.799L355.828 371.876ZM350.649 363.207L355.8 360.13L355.785 360.106L355.771 360.082L350.649 363.207ZM350.64 363.192L345.517 366.316L345.518 366.317L350.64 363.192ZM328.323 317.923L322.672 319.94L322.672 319.94L328.323 317.923ZM326.229 271.415L332.083 272.728L332.083 272.728L326.229 271.415ZM347.333 228.679L351.699 232.795L351.699 232.795L347.333 228.679ZM382.777 207.562L384.222 213.386L384.222 213.386L382.777 207.562ZM424.175 207.273L425.463 201.413L425.463 201.413L424.175 207.273ZM457.266 229.403L452.164 232.559L452.189 232.601L452.216 232.642L457.266 229.403ZM463.357 268.919L457.502 267.605L457.502 267.605L463.357 268.919ZM449.527 299.5L444.621 296.046L444.605 296.068L444.59 296.09L449.527 299.5ZM442.66 305.052L444.755 310.675L444.755 310.675L442.66 305.052ZM433.704 305.465L432.416 311.325L432.416 311.325L433.704 305.465ZM428.323 303.167L431.375 298.002L431.284 297.948L431.191 297.897L428.323 303.167ZM422.211 296.846L427.534 294.076L427.534 294.076L422.211 296.846ZM422.06 296.556L416.333 298.346L416.492 298.854L416.738 299.326L422.06 296.556ZM421.962 296.243L427.689 294.453L427.689 294.453L421.962 296.243ZM421.581 287.166L427.435 288.479L427.435 288.479L421.581 287.166ZM422.326 285.222L416.927 282.604L416.927 282.604L422.326 285.222ZM423.511 282.974L418.263 280.064L418.263 280.064L423.511 282.974ZM427.641 275.934L432.774 279.041L432.774 279.041L427.641 275.934ZM433.926 261.948L439.78 263.261L439.78 263.261L433.926 261.948ZM431.612 245.762L436.545 242.347L436.545 242.347L431.612 245.762ZM416.612 236.852L415.324 242.712L415.324 242.712L416.612 236.852ZM378.843 241.799L375.966 236.535L375.923 236.558L375.882 236.581L378.843 241.799ZM355.913 279.388L350.058 278.075L350.058 278.075L355.913 279.388ZM356.578 301.747L350.841 303.503L350.871 303.603L350.905 303.702L356.578 301.747ZM374.09 339.165L379.407 336.385L379.407 336.385L374.09 339.165ZM374.169 339.316L379.718 337.034L379.613 336.779L379.486 336.535L374.169 339.316ZM374.233 339.473L368.684 341.754L368.684 341.754L374.233 339.473ZM382.92 357.167L388.204 354.324L388.204 354.324L382.92 357.167ZM382.962 357.245L388.375 354.657L388.314 354.528L388.246 354.402L382.962 357.245ZM383 357.325L388.414 354.737L388.414 354.737L383 357.325ZM391.083 371.061L386.018 374.278L388.276 377.833L392.387 376.917L391.083 371.061ZM477.679 373.363L478.967 367.503L478.967 367.503L477.679 373.363ZM542.176 395.649L539.539 401.038L539.673 401.104L539.81 401.162L542.176 395.649ZM544.359 396.675L541.588 401.997L541.625 402.016L541.663 402.035L544.359 396.675ZM745.885 417.394L747.022 423.285L747.051 423.279L747.081 423.273L745.885 417.394ZM927.545 319.423L923.236 315.247L923.236 315.247L927.545 319.423ZM929.165 317.96L932.883 322.669L936.486 319.824L934.682 315.601L929.165 317.96ZM925.529 284.098L931.473 284.919L931.473 284.919L925.529 284.098ZM928.364 278.131L932.901 282.057L932.901 282.057L928.364 278.131ZM933.581 274.443L931.496 268.817L931.496 268.817L933.581 274.443ZM941.447 275.082L938.186 280.119L938.186 280.119L941.447 275.082ZM944.901 283.036L938.958 282.215L938.958 282.215L944.901 283.036ZM952.055 315.376L947.514 319.299L947.558 319.349L947.602 319.398L952.055 315.376ZM982.388 325.356L982.863 331.337L982.863 331.337L982.388 325.356ZM990.156 329.458L995.46 326.654L995.46 326.654L990.156 329.458ZM990.265 337.183L984.738 334.848L984.738 334.848L990.265 337.183ZM986.39 342.235L982.632 337.557L982.632 337.557L986.39 342.235ZM980.237 344.821L980.713 350.802L980.713 350.802L980.237 344.821ZM949.665 339.582L952.303 334.193L948.4 332.282L945.368 335.394L949.665 339.582ZM751.177 446.42L752.371 452.3L752.372 452.3L751.177 446.42ZM751.098 446.436L752.238 452.327L752.265 452.321L752.293 452.316L751.098 446.436ZM751.02 446.451L752.158 452.342L752.159 452.342L751.02 446.451ZM531.043 424.1L533.698 418.719L533.698 418.719L531.043 424.1ZM527.497 422.295L530.291 416.985L530.23 416.953L530.168 416.922L527.497 422.295ZM473.758 403.742L472.47 409.602L472.47 409.602L473.758 403.742ZM436.748 398.875L436.385 404.864L436.388 404.864L436.748 398.875ZM436.707 398.872L436.218 404.852L436.281 404.857L436.344 404.861L436.707 398.872ZM436.666 398.869L436.175 404.849L436.178 404.849L436.666 398.869ZM409.07 398.67L408.488 392.698L398.999 393.624L403.938 401.778L409.07 398.67ZM428.695 437.698L423.079 439.81L423.079 439.81L428.695 437.698ZM431.773 477.849L425.918 476.536L425.918 476.536L431.773 477.849ZM416.476 507.943L411.882 504.084L411.882 504.084L416.476 507.943ZM388.693 528.724L391.056 534.239L391.057 534.238L388.693 528.724ZM388.654 528.74L390.895 534.306L390.957 534.281L391.017 534.255L388.654 528.74ZM388.615 528.756L390.853 534.323L390.856 534.322L388.615 528.756ZM356.187 531.756L357.475 525.896L357.475 525.896L356.187 531.756ZM323.642 514.564L319.454 518.861L319.455 518.861L323.642 514.564ZM401.532 470.227L395.678 468.914L395.678 468.914L401.532 470.227ZM386.762 494.582L390.723 499.088L390.723 499.088L386.762 494.582ZM397.204 441.694L402.699 439.284L402.699 439.284L397.204 441.694ZM377.612 406.889L382.602 403.557L379.834 399.411L375.251 401.373L377.612 406.889ZM350.333 425.071L346.142 420.777L346.125 420.794L346.108 420.81L350.333 425.071ZM335.309 450.019L341.163 451.332L341.163 451.332L335.309 450.019ZM338.743 483.79L344.018 480.931L344.018 480.931L338.743 483.79ZM362.94 501.527L364.228 495.666L364.228 495.666L362.94 501.527ZM319.302 518.709L319.331 518.738L327.895 510.333L327.867 510.303L319.302 518.709ZM299.753 484.128C303.274 497.44 309.799 509.027 319.302 518.709L327.866 510.303C319.858 502.144 314.356 492.411 311.354 481.06L299.753 484.128ZM299.265 442.988C296.114 457.034 296.227 470.796 299.753 484.128L311.354 481.06C308.354 469.714 308.215 457.911 310.974 445.615L299.265 442.988ZM319.587 404.783C309.281 416.394 302.372 429.136 299.265 442.988L310.974 445.615C313.575 434.018 319.406 423.064 328.561 412.749L319.587 404.783ZM319.611 404.756L319.588 404.782L328.56 412.751L328.583 412.724L319.611 404.756ZM319.71 404.647L319.686 404.673L328.508 412.807L328.532 412.782L319.71 404.647ZM355.796 376.87C342.179 384.072 330.137 393.34 319.71 404.647L328.532 412.782C338.034 402.477 348.989 394.045 361.406 387.478L355.796 376.87ZM355.835 376.85L355.797 376.87L361.405 387.479L361.443 387.459L355.835 376.85ZM358.395 375.568L355.955 376.788L361.322 387.521L363.762 386.301L358.395 375.568ZM350.637 374.885L355.888 383.943L366.27 377.926L361.019 368.868L350.637 374.885ZM345.498 366.284L350.678 374.954L360.979 368.799L355.8 360.13L345.498 366.284ZM345.518 366.317L345.527 366.331L355.771 360.082L355.762 360.068L345.518 366.317ZM322.672 319.94C327.835 334.408 335.492 349.874 345.517 366.316L355.763 360.069C346.049 344.136 338.796 329.417 333.974 315.907L322.672 319.94ZM320.374 270.102C316.448 287.603 317.094 304.309 322.672 319.94L333.974 315.907C329.25 302.668 328.591 288.298 332.083 272.728L320.374 270.102ZM342.967 224.563C331.893 236.31 324.506 251.687 320.374 270.102L332.083 272.728C335.862 255.887 342.434 242.623 351.699 232.795L342.967 224.563ZM381.332 201.739C366.597 205.395 353.774 213.101 342.967 224.563L351.699 232.795C361.028 222.9 371.86 216.453 384.222 213.386L381.332 201.739ZM425.463 201.413C410.435 198.11 395.682 198.178 381.332 201.739L384.222 213.386C396.674 210.296 409.553 210.202 422.887 213.133L425.463 201.413ZM462.369 226.246C454.238 213.103 441.561 204.951 425.463 201.413L422.887 213.133C436.33 216.088 445.999 222.595 452.164 232.559L462.369 226.246ZM469.211 270.232C472.805 254.213 470.72 239.265 462.316 226.163L452.216 232.642C458.673 242.71 460.487 254.302 457.502 267.605L469.211 270.232ZM454.434 302.953C461.642 292.713 466.617 281.796 469.211 270.232L457.502 267.605C455.281 277.507 450.999 286.985 444.621 296.046L454.434 302.953ZM444.755 310.675C448.915 309.125 452.119 306.305 454.464 302.909L444.59 296.09C443.396 297.82 442.047 298.878 440.566 299.43L444.755 310.675ZM432.416 311.325C436.381 312.196 440.63 312.211 444.755 310.675L440.566 299.43C439.071 299.986 437.246 300.1 434.992 299.605L432.416 311.325ZM425.27 308.333C427.375 309.577 429.809 310.752 432.416 311.325L434.992 299.605C434.125 299.414 432.932 298.922 431.375 298.002L425.27 308.333ZM416.889 299.616C418.818 303.323 421.679 306.383 425.454 308.438L431.191 297.897C429.659 297.064 428.44 295.818 427.534 294.076L416.889 299.616ZM416.738 299.326L416.889 299.616L427.534 294.076L427.382 293.786L416.738 299.326ZM416.236 298.034L416.333 298.346L427.787 294.765L427.689 294.453L416.236 298.034ZM415.726 285.852C414.811 289.933 414.99 294.051 416.236 298.034L427.689 294.453C427.067 292.464 426.985 290.486 427.435 288.479L415.726 285.852ZM416.927 282.604C416.686 283.103 416.052 284.402 415.726 285.852L427.435 288.479C427.423 288.534 427.416 288.551 427.425 288.524C427.433 288.498 427.45 288.451 427.479 288.38C427.54 288.231 427.619 288.059 427.725 287.84L416.927 282.604ZM418.263 280.064C417.755 280.981 417.296 281.843 416.927 282.604L427.725 287.84C427.958 287.359 428.299 286.71 428.758 285.884L418.263 280.064ZM422.509 272.826C420.715 275.789 419.288 278.217 418.263 280.064L428.758 285.884C429.673 284.234 431.009 281.957 432.774 279.041L422.509 272.826ZM428.071 260.635C427.45 263.404 425.786 267.413 422.509 272.826L432.774 279.041C436.378 273.089 438.759 267.816 439.78 263.261L428.071 260.635ZM426.679 249.178C428.421 251.694 429.303 255.146 428.071 260.635L439.78 263.261C441.577 255.255 440.595 248.197 436.545 242.347L426.679 249.178ZM415.324 242.712C421.5 244.069 424.816 246.487 426.679 249.178L436.545 242.347C432.524 236.539 426.199 232.816 417.9 230.992L415.324 242.712ZM381.721 247.064C391.871 241.516 402.906 239.982 415.324 242.712L417.9 230.992C402.837 227.681 388.819 229.509 375.966 236.535L381.721 247.064ZM361.767 280.701C365.903 262.266 373.093 251.963 381.805 247.017L375.882 236.581C363.072 243.853 354.584 257.902 350.058 278.075L361.767 280.701ZM362.316 299.992C360.461 293.931 360.228 287.561 361.767 280.701L350.058 278.075C348.092 286.84 348.341 295.331 350.841 303.503L362.316 299.992ZM379.407 336.385C370.297 318.963 364.696 306.891 362.251 299.793L350.905 303.702C353.674 311.737 359.658 324.515 368.773 341.946L379.407 336.385ZM379.486 336.535L379.407 336.385L368.773 341.946L368.852 342.096L379.486 336.535ZM379.783 337.191L379.718 337.034L368.62 341.597L368.684 341.754L379.783 337.191ZM388.204 354.324C384.218 346.918 381.449 341.245 379.783 337.191L368.684 341.754C370.583 346.373 373.577 352.468 377.637 360.011L388.204 354.324ZM388.246 354.402L388.204 354.324L377.637 360.011L377.679 360.089L388.246 354.402ZM388.414 354.737L388.375 354.657L377.549 359.833L377.587 359.913L388.414 354.737ZM396.147 367.844C391.99 361.299 389.508 357.027 388.414 354.737L377.587 359.913C379.027 362.925 381.868 367.744 386.018 374.278L396.147 367.844ZM478.967 367.503C445.99 360.255 416.178 359.325 389.778 365.204L392.387 376.917C416.654 371.513 444.636 372.244 476.391 379.223L478.967 367.503ZM544.813 390.259C524.287 380.217 502.33 372.638 478.967 367.503L476.391 379.223C498.868 384.164 519.916 391.437 539.539 401.038L544.813 390.259ZM547.13 391.353C546.326 390.934 545.455 390.527 544.542 390.135L539.81 401.162C540.499 401.458 541.094 401.739 541.588 401.997L547.13 391.353ZM744.747 411.502C646.799 430.411 583.068 409.429 547.055 391.315L541.663 402.035C579.756 421.196 646.171 442.754 747.022 423.285L744.747 411.502ZM923.236 315.247C904.536 334.547 843.196 391.475 744.689 411.514L747.081 423.273C848.944 402.551 912.341 343.737 931.854 323.598L923.236 315.247ZM925.447 313.25C924.674 313.86 923.935 314.526 923.236 315.247L931.854 323.598C932.18 323.262 932.524 322.952 932.883 322.669L925.447 313.25ZM919.586 283.276C918.842 288.658 916.996 304.754 923.647 320.318L934.682 315.601C929.386 303.21 930.784 289.901 931.473 284.919L919.586 283.276ZM923.827 274.205C922.06 276.247 920.129 279.349 919.586 283.276L931.473 284.919C931.606 283.957 932.141 282.935 932.901 282.057L923.827 274.205ZM931.496 268.817C928.249 270.021 925.659 272.088 923.826 274.205L932.901 282.057C933.659 281.181 934.64 280.45 935.666 280.07L931.496 268.817ZM944.707 270.045C939.748 266.836 934.512 267.7 931.496 268.817L935.666 280.07C936.128 279.898 936.645 279.795 937.108 279.806C937.525 279.815 937.864 279.91 938.186 280.119L944.707 270.045ZM950.845 283.857C951.421 279.691 950.299 273.665 944.707 270.045L938.186 280.119C938.548 280.353 938.723 280.61 938.836 280.915C938.974 281.287 939.02 281.765 938.958 282.215L950.845 283.857ZM956.595 311.454C953.016 307.311 951.307 302.018 950.655 296.73C950.006 291.46 950.463 286.622 950.845 283.857L938.958 282.215C938.504 285.496 937.918 291.481 938.745 298.197C939.57 304.894 941.855 312.748 947.514 319.299L956.595 311.454ZM981.912 319.374C979.374 319.576 974.794 319.677 969.889 318.604C964.991 317.532 960.14 315.375 956.507 311.354L947.602 319.398C953.43 325.85 960.862 328.912 967.324 330.326C973.779 331.739 979.636 331.593 982.863 331.337L981.912 319.374ZM995.46 326.654C992.363 320.797 986.434 319.015 981.912 319.374L982.863 331.337C983.317 331.301 983.774 331.383 984.118 331.544C984.403 331.678 984.646 331.875 984.851 332.263L995.46 326.654ZM995.792 339.518C997.011 336.632 998.107 331.66 995.46 326.654L984.851 332.263C985.029 332.599 985.104 332.956 985.086 333.391C985.066 333.865 984.935 334.382 984.738 334.848L995.792 339.518ZM990.147 346.913C992.349 345.144 994.47 342.647 995.792 339.518L984.738 334.848C984.304 335.876 983.531 336.835 982.632 337.557L990.147 346.913ZM980.713 350.802C984.803 350.477 988.055 348.594 990.147 346.913L982.632 337.557C981.732 338.281 980.704 338.765 979.762 338.84L980.713 350.802ZM947.026 344.97C960.968 351.797 975.448 351.221 980.713 350.802L979.762 338.84C975.139 339.208 963.302 339.578 952.303 334.193L947.026 344.97ZM752.372 452.3C862.784 429.865 931.692 366.625 953.962 343.769L945.368 335.394C923.921 357.405 857.063 418.782 749.982 440.54L752.372 452.3ZM752.293 452.316L752.371 452.3L749.982 440.54L749.904 440.556L752.293 452.316ZM752.159 452.342L752.238 452.327L749.959 440.545L749.88 440.56L752.159 452.342ZM528.389 429.481C574.821 452.388 641.883 473.656 752.158 452.342L749.881 440.56C642.451 461.324 578.042 440.596 533.698 418.719L528.389 429.481ZM524.703 427.605C525.871 428.219 527.099 428.845 528.389 429.481L533.698 418.719C532.495 418.126 531.36 417.548 530.291 416.985L524.703 427.605ZM472.47 409.602C491.7 413.829 509.135 419.866 524.826 427.668L530.168 416.922C513.51 408.64 495.132 402.297 475.046 397.882L472.47 409.602ZM436.388 404.864C449.808 405.669 461.823 407.262 472.47 409.602L475.046 397.882C463.679 395.383 451.03 393.721 437.107 392.885L436.388 404.864ZM436.344 404.861L436.385 404.864L437.111 392.886L437.07 392.883L436.344 404.861ZM436.178 404.849L436.218 404.852L437.195 392.892L437.155 392.889L436.178 404.849ZM409.653 404.641C416.783 403.946 425.588 403.979 436.175 404.849L437.158 392.889C426.105 391.981 416.544 391.912 408.488 392.698L409.653 404.641ZM434.311 435.586C429.74 423.431 422.995 410.077 414.202 395.561L403.938 401.778C412.472 415.867 418.841 428.542 423.079 439.81L434.311 435.586ZM437.627 479.162C440.896 464.592 439.728 449.989 434.311 435.586L423.079 439.81C427.717 452.141 428.648 464.365 425.918 476.536L437.627 479.162ZM421.069 511.803C429.357 501.939 434.962 491.044 437.627 479.162L425.918 476.536C423.712 486.368 419.054 495.547 411.882 504.084L421.069 511.803ZM391.057 534.238C402.717 529.239 412.741 521.716 421.069 511.803L411.882 504.084C404.719 512.609 396.206 518.974 386.328 523.209L391.057 534.238ZM391.017 534.255L391.056 534.239L386.33 523.209L386.291 523.225L391.017 534.255ZM390.856 534.322L390.895 534.306L386.413 523.175L386.373 523.191L390.856 534.322ZM354.898 537.616C366.95 540.265 379.019 539.08 390.853 534.323L386.377 523.189C376.623 527.11 367.009 527.992 357.475 525.896L354.898 537.616ZM319.455 518.861C329.198 528.357 341.108 534.585 354.899 537.616L357.475 525.896C345.724 523.314 335.865 518.098 327.83 510.267L319.455 518.861ZM319.425 518.832L319.454 518.861L327.83 510.267L327.801 510.239L319.425 518.832ZM395.678 468.914C393.859 477.02 389.686 484.024 382.801 490.075L390.723 499.088C399.396 491.466 404.98 482.271 407.387 471.54L395.678 468.914ZM391.71 444.105C396.232 454.41 397.112 462.52 395.678 468.914L407.387 471.54C409.552 461.892 407.884 451.101 402.699 439.284L391.71 444.105ZM372.622 410.221C380.915 422.641 387.245 433.929 391.71 444.105L402.699 439.284C397.883 428.308 391.176 416.398 382.602 403.557L372.622 410.221ZM354.524 429.365C361.902 422.163 370.366 416.517 379.973 412.405L375.251 401.373C364.297 406.062 354.59 412.532 346.142 420.777L354.524 429.365ZM341.163 451.332C342.754 444.243 346.93 436.895 354.558 429.332L346.108 420.81C337.284 429.56 331.664 438.854 329.454 448.706L341.163 451.332ZM344.018 480.931C339.717 472.994 338.465 463.36 341.163 451.332L329.454 448.706C326.254 462.972 327.521 475.675 333.468 486.648L344.018 480.931ZM364.228 495.666C354.679 493.568 348.23 488.704 344.018 480.931L333.468 486.648C339.435 497.66 348.899 504.584 361.652 507.387L364.228 495.666ZM382.801 490.075C376.484 495.627 370.545 497.055 364.228 495.666L361.652 507.387C372.164 509.697 381.914 506.831 390.723 499.088L382.801 490.075Z" fill="black" mask="url(#path-6-outside-3_85_3)"/>
<defs>
<linearGradient id="paint0_linear_85_3" x1="343.5" y1="375" x2="909.11" y2="235.755" gradientUnits="userSpaceOnUse">
<stop offset="0.03" stop-color="#F770DC"/>
<stop offset="0.15141" stop-color="#F9686B"/>
<stop offset="0.315" stop-color="#F9A15C"/>
<stop offset="0.488892" stop-color="#F5CB94"/>
<stop offset="0.654032" stop-color="#C9D6AD"/>
<stop offset="0.826352" stop-color="#B6ACE5"/>
<stop offset="1" stop-color="#C96FEF"/>
</linearGradient>
<linearGradient id="paint1_linear_85_3" x1="343.5" y1="375" x2="909.11" y2="235.755" gradientUnits="userSpaceOnUse">
<stop offset="0.03" stop-color="#F770DC"/>
<stop offset="0.15141" stop-color="#F9686B"/>
<stop offset="0.315" stop-color="#F9A15C"/>
<stop offset="0.488892" stop-color="#F5CB94"/>
<stop offset="0.654032" stop-color="#C9D6AD"/>
<stop offset="0.826352" stop-color="#B6ACE5"/>
<stop offset="1" stop-color="#C96FEF"/>
</linearGradient>
<linearGradient id="paint2_linear_85_3" x1="343.5" y1="375" x2="909.11" y2="235.755" gradientUnits="userSpaceOnUse">
<stop offset="0.03" stop-color="#F770DC"/>
<stop offset="0.15141" stop-color="#F9686B"/>
<stop offset="0.315" stop-color="#F9A15C"/>
<stop offset="0.488892" stop-color="#F5CB94"/>
<stop offset="0.654032" stop-color="#C9D6AD"/>
<stop offset="0.826352" stop-color="#B6ACE5"/>
<stop offset="1" stop-color="#C96FEF"/>
</linearGradient>
<linearGradient id="paint3_linear_85_3" x1="343.5" y1="375" x2="909.11" y2="235.755" gradientUnits="userSpaceOnUse">
<stop offset="0.03" stop-color="#F770DC"/>
<stop offset="0.15141" stop-color="#F9686B"/>
<stop offset="0.315" stop-color="#F9A15C"/>
<stop offset="0.488892" stop-color="#F5CB94"/>
<stop offset="0.654032" stop-color="#C9D6AD"/>
<stop offset="0.826352" stop-color="#B6ACE5"/>
<stop offset="1" stop-color="#C96FEF"/>
</linearGradient>
<radialGradient id="paint4_angular_85_3" cx="0" cy="0" r="1" gradientUnits="userSpaceOnUse" gradientTransform="translate(680.631 369) rotate(-156.292) scale(378.035 188.284)">
<stop offset="0.03" stop-color="#F770DC"/>
<stop offset="0.15141" stop-color="#F9686B"/>
<stop offset="0.315" stop-color="#F9A15C"/>
<stop offset="0.488892" stop-color="#F5CB94"/>
<stop offset="0.654032" stop-color="#C9D6AD"/>
<stop offset="0.826352" stop-color="#B6ACE5"/>
<stop offset="1" stop-color="#C96FEF"/>
</radialGradient>
</defs>
</svg>
