<svg  viewBox="0 0 1247 393" fill="none" xmlns="http://www.w3.org/2000/svg">
<path d="M177.901 51.041C98.2156 -45.698 0 16.7561 0 61.4971V393C2.5 393 1240 393 1247 393L1247 268.5C1247 220.336 1214.08 171.673 1162.2 171.673C1098.61 171.673 1063.81 220.406 1055.92 248.003C1055.58 249.192 1054.32 249.067 1054.29 247.83C1053.38 214.81 1043.8 154.456 952.414 154.456C846.435 154.456 825.436 278.702 846.435 301.178C824.436 282.198 776.597 272.709 737.943 289.191C698.417 306.045 681.993 331.795 674.274 359.958C674.013 360.909 672.64 360.985 672.26 360.076C655.279 319.374 601.217 293.687 556.715 297.174C476.538 303.454 457.538 352.103 455.582 375.629C455.481 376.837 451.967 377.748 451.375 376.691C441.971 359.914 418.156 329.012 361.791 329.012C314.719 329.012 285.105 362.745 272.008 379.83C271.296 380.76 269.833 379.961 270.271 378.874C282.494 348.561 302.439 295.731 276.978 245.737C247.98 188.798 191.985 172.233 177.901 179.808C193.839 171.236 233.269 118.257 177.901 51.041Z" fill="#FBD0F4"/>
</svg>
