<svg  viewBox="0 0 1266 395" fill="none" xmlns="http://www.w3.org/2000/svg">
<path d="M1085.24 59.8816C1166.15 -38.4506 1265.87 25.0321 1265.87 70.51V394C1265.87 396.246 128.068 394 0.00176977 394C0.000717465 285 -0.00193014 163 0.00142614 87C0.00184568 77.5 20.1984 25.0521 128.068 31.2522C196.961 35.212 234.893 110.313 235.566 134.814C235.593 135.794 236.981 136.442 237.747 135.829C257.758 119.812 331.799 105.725 387.691 168.431C446.067 233.923 427.793 291.292 406.473 314.138C428.808 294.846 477.38 285.2 516.626 301.954C556.78 319.095 573.451 345.288 581.283 373.935C581.543 374.886 582.917 374.962 583.295 374.052C600.516 332.653 655.429 306.523 700.629 310.068C782.213 316.466 801.41 366.121 803.324 389.974C803.421 391.181 806.914 392.092 807.504 391.034C816.998 374.014 841.153 342.43 898.538 342.43C946.42 342.43 976.511 376.847 989.77 394.183C990.481 395.113 991.942 394.313 991.504 393.226C979.098 362.432 958.768 308.663 984.649 257.785C1014.09 199.908 1070.94 183.069 1085.24 190.769C1069.06 182.056 1029.03 128.205 1085.24 59.8816Z" fill="#F4F2E3"/>
<path d="M1263 56.301C1263 56.301 1193.01 -63.6987 1087.38 56.4096C1032.05 119.332 1067.01 172.653 1084.61 185.523C1085.41 186.108 1085.08 187.523 1084.09 187.637C1064.62 189.878 1014.49 199.853 986.788 254.313C960.907 305.191 981.237 358.96 993.643 389.754C994.081 390.841 992.62 391.642 991.909 390.711C978.65 373.375 948.56 338.958 900.678 338.958C843.293 338.958 819.138 370.542 809.644 387.562C809.054 388.62 805.561 387.71 805.464 386.502C803.55 362.649 784.354 312.994 702.77 306.596C657.57 303.051 602.656 329.181 585.436 370.58C585.057 371.49 583.684 371.414 583.424 370.463C575.591 341.816 559.174 315.015 518.766 298.482C472.222 279.438 419.021 301.365 408.762 309.617C408.022 310.212 408.187 310.275 408.756 309.515C431.8 278.793 446.774 228.841 389.833 164.959C333.941 102.253 259.9 116.34 239.889 132.357C239.124 132.97 237.735 132.322 237.708 131.342C237.035 106.841 197.4 32.2608 128.507 28.301C20.6378 22.1009 5.88572 67.9001 3 79.3011" stroke="black" stroke-width="6" stroke-linecap="round"/>
</svg>
