<svg  viewBox="0 0 1266 643" fill="none" xmlns="http://www.w3.org/2000/svg">
<path d="M1085.24 51.8816C1166.15 -46.4506 1265.87 17.0321 1265.87 62.51L1265.87 641.5C1265.87 643.746 128.067 641.5 0.00142614 641.5C0.000373841 532.5 -0.00141235 155 0.00194393 79C0.00236347 69.5 20.1989 17.0521 128.068 23.2521C196.962 27.2119 234.894 102.313 235.566 126.814C235.593 127.794 236.982 128.442 237.747 127.829C257.758 111.812 331.799 97.7246 387.692 160.431C446.068 225.923 427.794 283.292 406.474 306.138C428.809 286.846 477.381 277.2 516.627 293.954C556.781 311.095 573.451 337.288 581.284 365.935C581.544 366.886 582.917 366.962 583.296 366.052C600.516 324.653 655.43 298.523 700.63 302.068C782.214 308.466 801.41 358.121 803.324 381.974C803.421 383.181 806.914 384.092 807.505 383.034C816.999 366.014 841.154 334.43 898.539 334.43C946.421 334.43 976.511 368.847 989.77 386.183C990.482 387.113 991.943 386.313 991.505 385.226C979.098 354.432 958.768 300.663 984.65 249.785C1014.09 191.908 1070.95 175.069 1085.24 182.769C1069.06 174.056 1029.03 120.205 1085.24 51.8816Z" fill="#F4F2E3"/>
</svg>
