<svg viewBox="0 0 1247 387" fill="none" xmlns="http://www.w3.org/2000/svg">
<path d="M177.901 53.041C98.2156 -43.698 0 18.7561 0 63.4971V387C2.5 387 1240 387 1247 387V270.5C1247 222.336 1214.08 173.673 1162.2 173.673C1098.61 173.673 1063.81 222.406 1055.92 250.003C1055.58 251.192 1054.32 251.067 1054.29 249.83C1053.38 216.81 1043.8 156.456 952.414 156.456C846.435 156.456 825.436 280.702 846.435 303.178C824.436 284.198 776.597 274.709 737.943 291.191C698.417 308.045 681.993 333.795 674.274 361.958C674.013 362.909 672.64 362.985 672.26 362.076C655.279 321.374 601.217 295.687 556.715 299.174C476.538 305.454 457.538 354.103 455.582 377.629C455.481 378.837 451.967 379.748 451.375 378.691C441.971 361.914 418.156 331.012 361.791 331.012C314.719 331.012 285.105 364.745 272.008 381.83C271.296 382.76 269.833 381.961 270.271 380.874C282.494 350.561 302.439 297.731 276.978 247.737C247.98 190.798 191.985 174.233 177.901 181.808C193.839 173.236 233.269 120.257 177.901 53.041Z" fill="currentColor"/>
<path d="M17.1646 27.9831C6.4906 38.8433 -0.000366211 51.6108 -0.000366211 63.4978L3.5 56C12.5 39 9.78564 41.1972 20.0173 30.7869C30.2158 20.4104 44.6656 11.6144 61.5787 7.14845C95.2755 -1.7494 138.968 6.49524 178.357 54.3132C205.69 87.4962 209.472 116.93 204.685 138.993C202.283 150.066 197.708 159.349 192.773 166.375C187.811 173.44 182.575 178.099 178.953 180.047L180.848 183.57C183.753 182.008 189.324 181.519 196.892 182.876C204.344 184.212 213.373 187.274 222.907 192.346C241.965 202.485 262.9 220.577 277.195 248.646C302.197 297.74 282.666 349.743 270.415 380.127C269.761 381.749 270.595 383.231 271.745 383.862C272.882 384.487 274.552 384.407 275.594 383.048C288.642 366.026 317.732 333.012 363.789 333.012C419.212 333.012 442.456 363.306 451.629 379.669C452.263 380.802 453.443 381.064 454.054 381.13C454.768 381.206 455.513 381.112 456.156 380.947C456.802 380.782 457.496 380.509 458.085 380.11C458.585 379.772 459.471 379.026 459.573 377.795C460.52 366.408 465.612 348.815 480.267 333.309C494.891 317.837 519.193 304.276 558.869 301.168C580.705 299.458 604.973 304.908 625.88 315.828C646.794 326.751 664.15 343.043 672.412 362.847C673.503 365.461 677.422 365.327 678.201 362.488C685.779 334.84 701.827 309.618 740.725 293.031C759.662 284.957 780.91 283.224 800.16 285.868C819.439 288.517 836.499 295.524 847.126 304.693L849.894 301.813C847.612 299.371 845.753 295.362 844.563 289.989C843.381 284.65 842.898 278.135 843.228 270.862C843.887 256.316 847.792 238.936 855.616 222.238C871.245 188.886 902.382 158.457 954.412 158.457C999.623 158.457 1024.19 173.354 1037.66 191.935C1051.22 210.646 1053.83 233.478 1054.28 249.886C1054.32 251.157 1055.1 252.644 1056.78 252.817C1058.4 252.984 1059.49 251.757 1059.84 250.553C1067.56 223.547 1101.75 175.673 1164.2 175.673C1201.07 175.673 1222.13 196.958 1233.84 219.585C1242.39 236.118 1242.5 254 1247 272C1247 271 1247 263.806 1247 264C1247 254 1245.5 232 1237.39 217.748C1225.23 194.244 1203.02 171.673 1164.2 171.673C1103.85 171.673 1068.98 214.78 1058 243.458C1057.02 227.46 1053.47 206.926 1040.9 189.587C1026.51 169.737 1000.59 154.457 954.412 154.457C900.462 154.457 868.11 186.151 851.994 220.541C843.947 237.714 839.915 255.609 839.232 270.681C838.89 278.217 839.383 285.095 840.658 290.854C841.067 292.702 841.561 294.452 842.142 296.083C831.118 289.133 816.533 284.08 800.705 281.906C780.872 279.181 758.873 280.944 739.156 289.352C700.179 305.972 683.208 331.218 675.057 358.915C665.984 339.117 648.394 323.074 627.731 312.282C606.236 301.055 581.223 295.405 558.557 297.18C518.057 300.353 492.771 314.257 477.36 330.561C462.215 346.585 456.761 364.767 455.636 376.909C455.618 376.917 455.6 376.925 455.581 376.934C455.457 376.986 455.316 377.034 455.166 377.072C455.036 377.105 454.91 377.129 454.795 377.142C444.943 359.836 420.469 329.012 363.789 329.012C320.302 329.012 291.494 357.19 276.658 375.264C288.83 344.232 304.948 294.328 280.759 246.83C266.056 217.96 244.495 199.3 224.785 188.815C214.935 183.575 205.512 180.358 197.598 178.939C194.162 178.323 190.938 178.033 188.052 178.091C190.685 175.569 193.428 172.403 196.047 168.674C201.257 161.255 206.068 151.485 208.594 139.841C213.665 116.467 209.478 85.8033 181.444 51.77C141.147 2.84907 95.8898 -6.04871 60.5575 3.28101C42.9561 7.9288 27.8716 17.0891 17.1646 27.9831Z" fill="black"/>
</svg>
