<svg viewBox="0 0 1267 417" fill="none" xmlns="http://www.w3.org/2000/svg">
<path d="M1085.39 51.8816C1166.29 -46.4506 1266 17.0321 1266 62.51C1266 400.5 1266.17 417 1266 417H0.0159954C0.0165113 412.5 -9.02489e-05 417 0.0126051 77C0 76.922 0.0159468 76.5763 0 76.5C0.0237565 66.826 20.3388 17.0525 128.208 23.2525C197.102 27.2124 235.034 102.313 235.707 126.814C235.734 127.794 237.122 128.442 237.888 127.829C257.898 111.812 331.94 97.7246 387.832 160.431C446.208 225.923 427.934 283.292 406.614 306.138C428.949 286.846 477.521 277.2 516.768 293.954C556.922 311.095 573.592 337.288 581.425 365.935C581.685 366.886 583.058 366.962 583.437 366.052C600.657 324.653 655.571 298.523 700.771 302.068C782.355 308.466 801.552 358.121 803.466 381.974C803.563 383.181 807.056 384.092 807.646 383.034C817.14 366.014 841.295 334.43 898.68 334.43C946.562 334.43 976.653 368.847 989.912 386.183C990.624 387.113 992.085 386.313 991.647 385.226C979.24 354.432 958.91 300.663 984.792 249.785C1014.23 191.908 1071.09 175.069 1085.39 182.769C1069.2 174.056 1029.17 120.205 1085.39 51.8816Z" fill="#F4F2E3"/>
<path d="M1249.6 28.4349C1260.43 39.4705 1266.52 50.5 1266.02 68.5L1262.02 56C1260.02 48.5 1257.14 41.8223 1246.74 31.2371C1236.38 20.6856 1221.71 11.7421 1204.53 7.20125C1170.31 -1.84614 1125.93 6.53856 1085.93 55.153C1058.18 88.8895 1054.33 118.819 1059.2 141.256C1061.64 152.517 1066.28 161.957 1071.3 169.102C1076.34 176.286 1081.66 181.026 1085.34 183.009L1083.44 186.531C1080.48 184.938 1074.82 184.443 1067.13 185.822C1059.56 187.181 1050.39 190.295 1040.71 195.452C1021.36 205.76 1000.1 224.155 985.578 252.692C960.154 302.671 980.071 355.613 992.506 386.479C993.159 388.099 992.328 389.582 991.178 390.214C990.04 390.84 988.369 390.76 987.327 389.399C974.115 372.124 944.549 338.431 897.684 338.431C841.247 338.431 817.661 369.4 808.397 386.009C807.765 387.141 806.59 387.408 805.977 387.474C805.262 387.551 804.518 387.456 803.877 387.291C803.234 387.126 802.542 386.851 801.955 386.451C801.454 386.11 800.575 385.363 800.476 384.134C799.549 372.583 794.418 354.658 779.542 338.847C764.699 323.07 739.997 309.229 699.619 306.063C677.435 304.323 652.779 309.869 631.543 320.979C610.299 332.093 592.67 348.669 584.288 368.821C583.199 371.438 579.276 371.304 578.5 368.463C570.808 340.331 554.512 314.667 514.987 297.794C495.754 289.584 474.175 287.822 454.626 290.511C435.049 293.204 417.721 300.328 406.926 309.653L404.156 306.775C424.737 284.72 443.066 228.521 385.344 163.762C357.768 132.825 325.776 120.878 298.244 118.603C270.581 116.316 247.63 123.797 238.142 131.391C236.988 132.315 235.582 132.153 234.68 131.732C233.777 131.311 232.752 130.341 232.712 128.869C232.554 123.124 230.175 114.116 225.494 103.671C220.834 93.275 213.967 81.6176 204.994 70.5936C187.032 48.5273 160.798 29.1871 127.098 27.2501C73.4735 24.168 41.46 35.2234 23.1508 47.9063C13.9892 54.2527 8.3553 60.8464 5.0166 66.5C4.1495 67.9683 2.0166 70.5 0.0172075 78.8954C0.0166016 77.5 -0.14114 73.3121 0.516158 71C1.0166 68.5 2.19461 64.5845 4.01616 61.5C7.66327 55.3242 11.2609 51.2766 20.873 44.6182C40.1112 31.2917 73.0824 20.1389 127.327 23.2567C162.521 25.2796 189.7 45.4695 208.096 68.0684C217.301 79.3771 224.349 91.3361 229.144 102.036C233.618 112.017 236.195 121.047 236.648 127.497C247.645 119.391 271.109 112.346 298.574 114.616C327.038 116.969 360.013 129.332 388.33 161.101C440.072 219.151 432.461 271.295 414.937 299.205C425.723 293.045 439.373 288.571 454.081 286.548C474.214 283.779 496.544 285.572 516.557 294.115C556.159 311.021 573.378 336.707 581.642 364.882C590.838 344.74 608.699 328.416 629.689 317.435C651.514 306.016 676.916 300.27 699.932 302.075C741.137 305.306 766.826 319.492 782.456 336.106C797.82 352.436 803.312 370.951 804.416 383.259C804.432 383.266 804.448 383.273 804.464 383.28C804.516 383.302 804.571 383.323 804.628 383.343C804.706 383.371 804.788 383.395 804.873 383.417C804.997 383.449 805.117 383.472 805.227 383.485C815.17 365.931 839.987 334.431 897.684 334.431C941.946 334.431 971.227 363.222 986.251 381.585C973.884 350.055 957.413 299.238 982.013 250.878C996.938 221.539 1018.82 202.576 1038.83 191.921C1048.83 186.596 1058.39 183.327 1066.43 181.885C1069.95 181.253 1073.25 180.959 1076.2 181.026C1073.51 178.455 1070.7 175.217 1068.02 171.4C1062.73 163.862 1057.85 153.935 1055.29 142.104C1050.14 118.356 1054.39 87.1983 1082.85 52.6115C1123.75 2.89377 1169.69 -6.14628 1205.55 3.3341C1223.42 8.05713 1238.73 17.3656 1249.6 28.4349Z" fill="black"/>
</svg>
