<svg  viewBox="0 0 218 218" fill="none" xmlns="http://www.w3.org/2000/svg">
<path d="M50.8726 197.043C2.24787 164.941 -11.1461 99.4983 20.9564 50.8736C53.0588 2.24884 118.501 -11.1451 167.126 20.9574C215.751 53.0598 229.145 118.502 197.042 167.127C164.94 215.752 99.4973 229.146 50.8726 197.043Z" fill="#D2B6F0" stroke="black" stroke-width="5"/>
<path d="M179.739 100.902L179.491 92.1373L202.362 91.4914L202.608 100.192C202.787 106.525 198.801 110.479 191.444 110.687C184.087 110.895 179.918 107.235 179.739 100.902ZM182.629 95.5701L182.771 100.592C182.921 105.902 186.926 107.165 191.341 107.041C195.755 106.916 199.714 105.428 199.564 100.118L199.423 95.0958L182.629 95.5701Z" fill="black"/>
<path d="M179.477 118.139L179.567 114.62L202.439 115.206L202.349 118.725L179.477 118.139Z" fill="black"/>
<path d="M176.466 130.195C177.609 124.517 181.359 121.127 186.46 121.892L185.741 125.468C182.679 125.113 180.28 126.491 179.434 130.695C178.708 134.302 180.055 135.716 182.094 136.126C184.949 136.701 185.799 134.587 187.655 130.717C189.303 127.393 191.209 123.762 195.475 124.62C199.365 125.403 200.987 128.863 200.014 133.694C198.985 138.808 195.712 141.609 191.125 141.045L191.845 137.469C194.619 137.635 196.403 136.395 197.059 133.132C197.627 130.309 196.883 128.657 194.938 128.266C192.428 127.761 191.421 130.006 190.119 132.747C188.15 136.855 186.294 140.725 181.557 139.772C177.698 138.995 175.336 135.811 176.466 130.195Z" fill="black"/>
<path d="M168.65 148.263C172.229 142.841 178.705 142.094 184.446 145.884C190.214 149.692 192.053 155.968 188.474 161.389C185.318 166.169 180.317 167.123 176.198 165.056L178.226 161.985C180.324 162.872 183.557 163.319 185.972 159.661C188.758 155.441 186.237 151.476 182.445 148.973C178.626 146.452 173.99 145.691 171.204 149.911C168.771 153.596 170.364 156.527 172.564 158.247L170.537 161.319C166.573 158.088 165.476 153.069 168.65 148.263Z" fill="black"/>
<path d="M155.546 163.992C161.085 159.965 167.585 161.45 171.631 167.015C175.677 172.579 175.067 179.195 169.528 183.222C163.989 187.249 157.508 185.79 153.462 180.225C149.416 174.66 150.007 168.019 155.546 163.992ZM157.334 166.45C152.96 169.631 153.672 174.256 156.438 178.061C159.204 181.865 163.366 183.943 167.74 180.763C172.114 177.583 171.421 172.983 168.654 169.179C165.888 165.374 161.708 163.27 157.334 166.45Z" fill="black"/>
<path d="M141.757 172.776L144.927 171.245L154.88 191.847L146.293 195.995C141.74 198.194 138.261 197.245 136.424 193.442C135.157 190.82 135.823 188.152 137.849 186.534L137.821 186.477C132.606 187.894 130.439 178.919 129.148 179.116L129.051 178.915L132.451 177.272C133.79 177.691 135.311 185.841 140.353 183.405L145.655 180.844L141.757 172.776ZM146.977 183.581L142.252 185.864C139.342 187.27 138.369 189.303 139.511 191.666C140.583 193.885 142.435 194.483 145.605 192.951L150.388 190.641L146.977 183.581Z" fill="black"/>
<path d="M116.913 182.054L125.301 179.501L131.964 201.389L123.637 203.924C117.576 205.769 112.71 202.969 110.566 195.928C108.423 188.887 110.852 183.899 116.913 182.054ZM122.819 183.434L118.013 184.897C112.931 186.444 112.77 190.641 114.056 194.865C115.342 199.09 117.823 202.516 122.905 200.969L127.711 199.506L122.819 183.434Z" fill="black"/>
</svg>
