<svg  viewBox="0 0 1268 719" fill="none" xmlns="http://www.w3.org/2000/svg">
<path d="M0 551V341.165C30.2812 339.085 90.4693 355.847 88.9726 439.532C87.4759 523.216 29.0339 548.712 0 551Z" fill="#F4F2E3"/>
<path d="M1268 210.045V44.0454C1237.03 42.6689 1206 72.6454 1206 128.045C1206 204.474 1238.3 208.531 1268 210.045Z" fill="#F4F2E3"/>
<mask id="path-3-inside-1_36_184" fill="white">
<path fill-rule="evenodd" clip-rule="evenodd" d="M536 512.663C528.366 523.169 515.981 530 502 530C478.804 530 460 511.196 460 488C460 464.804 478.804 446 502 446C515.981 446 528.366 452.831 536 463.337C543.634 452.831 556.019 446 570 446C585.631 446 599.268 454.539 606.5 467.207C613.732 454.539 627.369 446 643 446C657.29 446 669.913 453.137 677.5 464.04C685.087 453.137 697.71 446 712 446C727.631 446 741.268 454.539 748.5 467.207C755.732 454.539 769.369 446 785 446C799.938 446 813.054 453.798 820.5 465.546C827.946 453.798 841.062 446 856 446C871.278 446 884.651 454.157 892 466.354C899.349 454.157 912.722 446 928 446C942.609 446 955.476 453.459 963 464.775C970.524 453.459 983.391 446 998 446C1021.2 446 1040 464.804 1040 488C1040 511.196 1021.2 530 998 530C983.391 530 970.524 522.541 963 511.225C955.476 522.541 942.609 530 928 530C912.722 530 899.349 521.843 892 509.646C884.651 521.843 871.278 530 856 530C841.062 530 827.946 522.202 820.5 510.454C813.054 522.202 799.938 530 785 530C769.369 530 755.732 521.461 748.5 508.793C741.268 521.461 727.631 530 712 530C697.71 530 685.087 522.863 677.5 511.96C669.913 522.863 657.29 530 643 530C627.369 530 613.732 521.461 606.5 508.793C599.268 521.461 585.631 530 570 530C556.019 530 543.634 523.169 536 512.663Z"/>
</mask>
<path fill-rule="evenodd" clip-rule="evenodd" d="M536 512.663C528.366 523.169 515.981 530 502 530C478.804 530 460 511.196 460 488C460 464.804 478.804 446 502 446C515.981 446 528.366 452.831 536 463.337C543.634 452.831 556.019 446 570 446C585.631 446 599.268 454.539 606.5 467.207C613.732 454.539 627.369 446 643 446C657.29 446 669.913 453.137 677.5 464.04C685.087 453.137 697.71 446 712 446C727.631 446 741.268 454.539 748.5 467.207C755.732 454.539 769.369 446 785 446C799.938 446 813.054 453.798 820.5 465.546C827.946 453.798 841.062 446 856 446C871.278 446 884.651 454.157 892 466.354C899.349 454.157 912.722 446 928 446C942.609 446 955.476 453.459 963 464.775C970.524 453.459 983.391 446 998 446C1021.2 446 1040 464.804 1040 488C1040 511.196 1021.2 530 998 530C983.391 530 970.524 522.541 963 511.225C955.476 522.541 942.609 530 928 530C912.722 530 899.349 521.843 892 509.646C884.651 521.843 871.278 530 856 530C841.062 530 827.946 522.202 820.5 510.454C813.054 522.202 799.938 530 785 530C769.369 530 755.732 521.461 748.5 508.793C741.268 521.461 727.631 530 712 530C697.71 530 685.087 522.863 677.5 511.96C669.913 522.863 657.29 530 643 530C627.369 530 613.732 521.461 606.5 508.793C599.268 521.461 585.631 530 570 530C556.019 530 543.634 523.169 536 512.663Z" fill="#F4F2E3"/>
<path d="M536 512.663L540.045 509.724L536 504.157L531.955 509.724L536 512.663ZM536 463.337L531.955 466.276L536 471.843L540.045 466.276L536 463.337ZM606.5 467.207L602.158 469.686L606.5 477.292L610.842 469.686L606.5 467.207ZM677.5 464.04L673.396 466.896L677.5 472.795L681.604 466.896L677.5 464.04ZM748.5 467.207L744.158 469.686L748.5 477.292L752.842 469.686L748.5 467.207ZM820.5 465.546L816.277 468.222L820.5 474.885L824.723 468.222L820.5 465.546ZM892 466.354L887.717 468.935L892 476.042L896.283 468.935L892 466.354ZM963 464.775L958.836 467.544L963 473.806L967.164 467.544L963 464.775ZM963 511.225L967.164 508.456L963 502.194L958.836 508.456L963 511.225ZM892 509.646L896.283 507.065L892 499.958L887.717 507.065L892 509.646ZM820.5 510.454L824.723 507.778L820.5 501.115L816.277 507.778L820.5 510.454ZM748.5 508.793L752.842 506.314L748.5 498.708L744.158 506.314L748.5 508.793ZM677.5 511.96L681.604 509.104L677.5 503.205L673.396 509.104L677.5 511.96ZM606.5 508.793L610.842 506.314L606.5 498.708L602.158 506.314L606.5 508.793ZM502 535C517.649 535 531.51 527.347 540.045 515.602L531.955 509.724C525.221 518.991 514.313 525 502 525V535ZM455 488C455 513.957 476.043 535 502 535V525C481.565 525 465 508.435 465 488H455ZM502 441C476.043 441 455 462.043 455 488H465C465 467.565 481.565 451 502 451V441ZM540.045 460.398C531.51 448.653 517.649 441 502 441V451C514.313 451 525.221 457.009 531.955 466.276L540.045 460.398ZM570 441C554.351 441 540.49 448.653 531.955 460.398L540.045 466.276C546.779 457.009 557.687 451 570 451V441ZM610.842 464.728C602.757 450.565 587.498 441 570 441V451C583.764 451 595.779 458.513 602.158 469.686L610.842 464.728ZM643 441C625.502 441 610.243 450.565 602.158 464.728L610.842 469.686C617.221 458.513 629.236 451 643 451V441ZM681.604 461.185C673.123 448.995 658.996 441 643 441V451C655.585 451 666.704 457.278 673.396 466.896L681.604 461.185ZM712 441C696.004 441 681.877 448.995 673.396 461.185L681.604 466.896C688.296 457.278 699.415 451 712 451V441ZM752.842 464.728C744.757 450.565 729.498 441 712 441V451C725.764 451 737.779 458.513 744.158 469.686L752.842 464.728ZM785 441C767.502 441 752.243 450.565 744.158 464.728L752.842 469.686C759.221 458.513 771.236 451 785 451V441ZM824.723 462.869C816.399 449.736 801.721 441 785 441V451C798.154 451 809.709 457.861 816.277 468.222L824.723 462.869ZM856 441C839.279 441 824.601 449.736 816.277 462.869L824.723 468.222C831.291 457.861 842.846 451 856 451V441ZM896.283 463.774C888.066 450.138 873.103 441 856 441V451C869.453 451 881.235 458.177 887.717 468.935L896.283 463.774ZM896.283 468.935C902.765 458.177 914.547 451 928 451V441C910.897 441 895.934 450.138 887.717 463.774L896.283 468.935ZM928 451C940.865 451 952.199 457.562 958.836 467.544L967.164 462.007C958.752 449.356 944.353 441 928 441V451ZM998 441C981.647 441 967.248 449.356 958.836 462.007L967.164 467.544C973.801 457.562 985.135 451 998 451V441ZM1045 488C1045 462.043 1023.96 441 998 441V451C1018.43 451 1035 467.565 1035 488H1045ZM998 535C1023.96 535 1045 513.957 1045 488H1035C1035 508.435 1018.43 525 998 525V535ZM958.836 513.993C967.248 526.644 981.647 535 998 535V525C985.135 525 973.801 518.438 967.164 508.456L958.836 513.993ZM958.836 508.456C952.199 518.438 940.865 525 928 525V535C944.353 535 958.752 526.644 967.164 513.993L958.836 508.456ZM928 525C914.547 525 902.765 517.823 896.283 507.065L887.717 512.226C895.934 525.862 910.897 535 928 535V525ZM856 535C873.103 535 888.066 525.862 896.283 512.226L887.717 507.065C881.235 517.823 869.453 525 856 525V535ZM816.277 513.131C824.601 526.264 839.279 535 856 535V525C842.846 525 831.291 518.139 824.723 507.778L816.277 513.131ZM785 535C801.721 535 816.399 526.264 824.723 513.131L816.277 507.778C809.709 518.139 798.154 525 785 525V535ZM744.158 511.272C752.243 525.435 767.502 535 785 535V525C771.236 525 759.221 517.487 752.842 506.314L744.158 511.272ZM712 535C729.498 535 744.757 525.435 752.842 511.272L744.158 506.314C737.779 517.487 725.764 525 712 525V535ZM673.396 514.815C681.877 527.005 696.004 535 712 535V525C699.415 525 688.296 518.722 681.604 509.104L673.396 514.815ZM643 535C658.996 535 673.123 527.005 681.604 514.815L673.396 509.104C666.704 518.722 655.585 525 643 525V535ZM602.158 511.272C610.243 525.435 625.502 535 643 535V525C629.236 525 617.221 517.487 610.842 506.314L602.158 511.272ZM570 535C587.498 535 602.757 525.435 610.842 511.272L602.158 506.314C595.779 517.487 583.764 525 570 525V535ZM531.955 515.602C540.49 527.347 554.351 535 570 535V525C557.687 525 546.779 518.991 540.045 509.724L531.955 515.602Z" fill="black" mask="url(#path-3-inside-1_36_184)"/>
<path d="M504.416 505.32H499.088V475.56H488V471H515.504V475.56H504.416V505.32Z" fill="black"/>
<path d="M787.416 505.32H782.088V475.56H771V471H798.504V475.56H787.416V505.32Z" fill="black"/>
<path d="M642.456 505.664C632.568 505.664 627 498.176 627 487.808C627 477.488 633.288 470 643.08 470C651.96 470 656.664 474.752 657.768 481.28H652.248C651.336 476.96 648.12 474.56 643.032 474.56C635.448 474.56 632.52 481.376 632.52 487.808C632.52 494.288 634.728 501.104 642.744 501.104C648.408 501.104 652.92 497.168 652.968 491.456H642.84V487.04H658.344V504.992H654.696L653.4 500.24H653.304C650.904 503.744 647.688 505.664 642.456 505.664Z" fill="black"/>
<path d="M724.768 505.32H700V471H724.288V475.56H705.28V485.304H721.936V489.864H705.28V500.76H724.768V505.32Z" fill="black"/>
<path d="M940.768 505.32H916V471H940.288V475.56H921.28V485.304H937.936V489.864H921.28V500.76H940.768V505.32Z" fill="black"/>
<path d="M990.28 505.32H985V471H999.304C1006.89 471 1010.97 474.552 1010.97 480.888C1010.97 485.256 1008.33 488.424 1004.54 489.288V489.384C1012.5 490.872 1009.58 504.408 1011.45 504.984V505.32H1005.78C1004.25 503.88 1007.51 491.88 999.112 491.88H990.28V505.32ZM990.28 487.32H998.152C1003 487.32 1005.64 485.208 1005.64 481.272C1005.64 477.576 1003.53 475.56 998.248 475.56H990.28V487.32Z" fill="black"/>
<path d="M847.28 505.32H842V471H847.28V485.352H864.128V471H869.456V505.32H864.128V489.912H847.28V505.32Z" fill="black"/>
<path d="M569.848 505.664C559.576 505.664 553 498.128 553 487.808C553 477.488 559.576 470 569.848 470C580.12 470 586.696 477.488 586.696 487.808C586.696 498.128 580.12 505.664 569.848 505.664ZM569.848 501.104C577.96 501.104 581.176 494.864 581.176 487.808C581.176 480.752 577.96 474.56 569.848 474.56C561.736 474.56 558.52 480.752 558.52 487.808C558.52 494.864 561.736 501.104 569.848 501.104Z" fill="black"/>
<path d="M1032.79 76.5498C1034.76 73.486 1039.24 73.486 1041.21 76.5498L1051.29 92.2455C1051.97 93.2997 1053.01 94.0612 1054.23 94.3794L1072.27 99.1172C1075.79 100.042 1077.17 104.301 1074.87 107.119L1063.06 121.558C1062.26 122.527 1061.86 123.759 1061.93 125.01L1063 143.634C1063.21 147.269 1059.59 149.902 1056.2 148.58L1038.82 141.807C1037.65 141.352 1036.35 141.352 1035.18 141.807L1017.8 148.58C1014.41 149.902 1010.79 147.269 1011 143.634L1012.07 125.01C1012.14 123.759 1011.74 122.527 1010.94 121.558L999.132 107.119C996.826 104.301 998.21 100.042 1001.73 99.1172L1019.77 94.3794C1020.99 94.0612 1022.03 93.2997 1022.71 92.2455L1032.79 76.5498Z" fill="#F4F2E3"/>
<path d="M219 103L220.584 115.416L233 117L220.584 118.584L219 131L217.416 118.584L205 117L217.416 115.416L219 103Z" fill="#F4F2E3"/>
<path d="M209.016 461.552C209.313 459.222 212.687 459.222 212.984 461.552L215.895 484.374C216.011 485.278 216.722 485.989 217.626 486.105L240.448 489.016C242.778 489.313 242.778 492.687 240.448 492.984L217.626 495.895C216.722 496.011 216.011 496.722 215.895 497.626L212.984 520.448C212.687 522.778 209.313 522.778 209.016 520.448L206.105 497.626C205.989 496.722 205.278 496.011 204.374 495.895L181.552 492.984C179.222 492.687 179.222 489.313 181.552 489.016L204.374 486.105C205.278 485.989 205.989 485.278 206.105 484.374L209.016 461.552Z" fill="#F4F2E3"/>
<path d="M1156.79 512.55C1158.76 509.486 1163.24 509.486 1165.21 512.55L1175.29 528.246C1175.97 529.3 1177.01 530.061 1178.23 530.379L1196.27 535.117C1199.79 536.042 1201.17 540.301 1198.87 543.119L1187.06 557.558C1186.26 558.527 1185.86 559.759 1185.93 561.01L1187 579.634C1187.21 583.269 1183.59 585.902 1180.2 584.58L1162.82 577.807C1161.65 577.352 1160.35 577.352 1159.18 577.807L1141.8 584.58C1138.41 585.902 1134.79 583.269 1135 579.634L1136.07 561.01C1136.14 559.759 1135.74 558.527 1134.94 557.558L1123.13 543.119C1120.83 540.301 1122.21 536.042 1125.73 535.117L1143.77 530.379C1144.99 530.061 1146.03 529.3 1146.71 528.246L1156.79 512.55Z" fill="#F4F2E3"/>
<path d="M111.793 226.55C113.761 223.486 118.239 223.486 120.207 226.55L130.288 242.246C130.965 243.3 132.014 244.061 133.225 244.379L151.268 249.117C154.79 250.042 156.174 254.301 153.868 257.119L142.056 271.558C141.263 272.527 140.862 273.759 140.934 275.01L142.004 293.634C142.213 297.269 138.59 299.902 135.197 298.58L117.815 291.807C116.648 291.352 115.352 291.352 114.185 291.807L96.803 298.58C93.4101 299.902 89.7872 297.269 89.996 293.634L91.0657 275.01C91.1376 273.759 90.7372 272.527 89.9438 271.558L78.1317 257.119C75.8259 254.301 77.2097 250.042 80.7317 249.117L98.7745 244.379C99.9864 244.061 101.035 243.3 101.712 242.246L111.793 226.55Z" fill="#F4F2E3"/>
<path d="M1118.48 291L1119.1 292.925H1121.12L1119.49 294.115L1120.11 296.04L1118.48 294.85L1116.84 296.04L1117.46 294.115L1115.83 292.925H1117.85L1118.48 291Z" fill="#F4F2E3"/>
<path d="M1118.48 318.96L1119.1 320.885H1121.12L1119.49 322.075L1120.11 324L1118.48 322.81L1116.84 324L1117.46 322.075L1115.83 320.885H1117.85L1118.48 318.96Z" fill="#F4F2E3"/>
<path d="M1132.35 304.831L1132.98 306.756H1135L1133.36 307.946L1133.99 309.871L1132.35 308.681L1130.71 309.871L1131.34 307.946L1129.7 306.756H1131.73L1132.35 304.831Z" fill="#F4F2E3"/>
<path d="M1128.57 295.577L1129.2 297.502H1131.22L1129.58 298.692L1130.21 300.617L1128.57 299.427L1126.93 300.617L1127.56 298.692L1125.92 297.502H1127.95L1128.57 295.577Z" fill="#F4F2E3"/>
<path d="M1108.38 295.577L1109 297.502H1111.03L1109.39 298.692L1110.02 300.617L1108.38 299.427L1106.74 300.617L1107.37 298.692L1105.73 297.502H1107.75L1108.38 295.577Z" fill="#F4F2E3"/>
<path d="M1128.57 314.98L1129.2 316.905H1131.22L1129.58 318.095L1130.21 320.02L1128.57 318.83L1126.93 320.02L1127.56 318.095L1125.92 316.905H1127.95L1128.57 314.98Z" fill="#F4F2E3"/>
<path d="M1108.38 314.98L1109 316.905H1111.03L1109.39 318.095L1110.02 320.02L1108.38 318.83L1106.74 320.02L1107.37 318.095L1105.73 316.905H1107.75L1108.38 314.98Z" fill="#F4F2E3"/>
<path d="M1104.65 304.831L1105.27 306.756H1107.3L1105.66 307.946L1106.29 309.871L1104.65 308.681L1103.01 309.871L1103.64 307.946L1102 306.756H1104.02L1104.65 304.831Z" fill="#F4F2E3"/>
<path d="M89.4751 25L90.1004 26.9251H92.124L90.4869 28.1149L91.1122 30.04L89.4751 28.8502L87.8381 30.04L88.4634 28.1149L86.8263 26.9251H88.8498L89.4751 25Z" fill="#F4F2E3"/>
<path d="M89.4751 52.96L90.1004 54.8851H92.124L90.4869 56.0749L91.1122 58L89.4751 56.8102L87.8381 58L88.4634 56.0749L86.8263 54.8851H88.8498L89.4751 52.96Z" fill="#F4F2E3"/>
<path d="M103.351 38.8307L103.976 40.7559H106L104.363 41.9456L104.988 43.8708L103.351 42.681L101.714 43.8708L102.339 41.9456L100.702 40.7559H102.726L103.351 38.8307Z" fill="#F4F2E3"/>
<path d="M99.5713 29.5771L100.197 31.5022H102.22L100.583 32.692L101.208 34.6171L99.5713 33.4273L97.9342 34.6171L98.5595 32.692L96.9225 31.5022H98.946L99.5713 29.5771Z" fill="#F4F2E3"/>
<path d="M79.379 29.5771L80.0043 31.5022H82.0278L80.3907 32.692L81.016 34.6171L79.379 33.4273L77.7419 34.6171L78.3672 32.692L76.7301 31.5022H78.7536L79.379 29.5771Z" fill="#F4F2E3"/>
<path d="M99.5713 48.9799L100.197 50.905H102.22L100.583 52.0948L101.208 54.0199L99.5713 52.8301L97.9342 54.0199L98.5595 52.0948L96.9225 50.905H98.946L99.5713 48.9799Z" fill="#F4F2E3"/>
<path d="M79.379 48.9799L80.0043 50.905H82.0278L80.3907 52.0948L81.016 54.0199L79.379 52.8301L77.7419 54.0199L78.3672 52.0948L76.7301 50.905H78.7536L79.379 48.9799Z" fill="#F4F2E3"/>
<path d="M75.6488 38.8307L76.2741 40.7559H78.2977L76.6606 41.9456L77.2859 43.8708L75.6488 42.681L74.0118 43.8708L74.6371 41.9456L73 40.7559H75.0235L75.6488 38.8307Z" fill="#F4F2E3"/>
<path d="M841.475 27L842.1 28.9251H844.124L842.487 30.1149L843.112 32.04L841.475 30.8502L839.838 32.04L840.463 30.1149L838.826 28.9251H840.85L841.475 27Z" fill="#F4F2E3"/>
<path d="M841.475 54.96L842.1 56.8851H844.124L842.487 58.0749L843.112 60L841.475 58.8102L839.838 60L840.463 58.0749L838.826 56.8851H840.85L841.475 54.96Z" fill="#F4F2E3"/>
<path d="M855.351 40.8307L855.976 42.7559H858L856.363 43.9456L856.988 45.8708L855.351 44.681L853.714 45.8708L854.339 43.9456L852.702 42.7559H854.726L855.351 40.8307Z" fill="#F4F2E3"/>
<path d="M851.571 31.5771L852.197 33.5022H854.22L852.583 34.692L853.208 36.6171L851.571 35.4273L849.934 36.6171L850.56 34.692L848.922 33.5022H850.946L851.571 31.5771Z" fill="#F4F2E3"/>
<path d="M831.379 31.5771L832.004 33.5022H834.028L832.391 34.692L833.016 36.6171L831.379 35.4273L829.742 36.6171L830.367 34.692L828.73 33.5022H830.754L831.379 31.5771Z" fill="#F4F2E3"/>
<path d="M851.571 50.9799L852.197 52.905H854.22L852.583 54.0948L853.208 56.0199L851.571 54.8301L849.934 56.0199L850.56 54.0948L848.922 52.905H850.946L851.571 50.9799Z" fill="#F4F2E3"/>
<path d="M831.379 50.9799L832.004 52.905H834.028L832.391 54.0948L833.016 56.0199L831.379 54.8301L829.742 56.0199L830.367 54.0948L828.73 52.905H830.754L831.379 50.9799Z" fill="#F4F2E3"/>
<path d="M827.649 40.8307L828.274 42.7559H830.298L828.661 43.9456L829.286 45.8708L827.649 44.681L826.012 45.8708L826.637 43.9456L825 42.7559H827.024L827.649 40.8307Z" fill="#F4F2E3"/>
<path d="M277.475 127L278.1 128.925H280.124L278.487 130.115L279.112 132.04L277.475 130.85L275.838 132.04L276.463 130.115L274.826 128.925H276.85L277.475 127Z" fill="#F4F2E3"/>
<path d="M277.475 154.96L278.1 156.885H280.124L278.487 158.075L279.112 160L277.475 158.81L275.838 160L276.463 158.075L274.826 156.885H276.85L277.475 154.96Z" fill="#F4F2E3"/>
<path d="M291.351 140.831L291.976 142.756H294L292.363 143.946L292.988 145.871L291.351 144.681L289.714 145.871L290.339 143.946L288.702 142.756H290.726L291.351 140.831Z" fill="#F4F2E3"/>
<path d="M287.571 131.577L288.197 133.502H290.22L288.583 134.692L289.208 136.617L287.571 135.427L285.934 136.617L286.56 134.692L284.922 133.502H286.946L287.571 131.577Z" fill="#F4F2E3"/>
<path d="M267.379 131.577L268.004 133.502H270.028L268.391 134.692L269.016 136.617L267.379 135.427L265.742 136.617L266.367 134.692L264.73 133.502H266.754L267.379 131.577Z" fill="#F4F2E3"/>
<path d="M287.571 150.98L288.197 152.905H290.22L288.583 154.095L289.208 156.02L287.571 154.83L285.934 156.02L286.56 154.095L284.922 152.905H286.946L287.571 150.98Z" fill="#F4F2E3"/>
<path d="M267.379 150.98L268.004 152.905H270.028L268.391 154.095L269.016 156.02L267.379 154.83L265.742 156.02L266.367 154.095L264.73 152.905H266.754L267.379 150.98Z" fill="#F4F2E3"/>
<path d="M263.649 140.831L264.274 142.756H266.298L264.661 143.946L265.286 145.871L263.649 144.681L262.012 145.871L262.637 143.946L261 142.756H263.024L263.649 140.831Z" fill="#F4F2E3"/>
<path d="M1053.48 626L1054.1 627.925H1056.12L1054.49 629.115L1055.11 631.04L1053.48 629.85L1051.84 631.04L1052.46 629.115L1050.83 627.925H1052.85L1053.48 626Z" fill="#F4F2E3"/>
<path d="M1053.48 653.96L1054.1 655.885H1056.12L1054.49 657.075L1055.11 659L1053.48 657.81L1051.84 659L1052.46 657.075L1050.83 655.885H1052.85L1053.48 653.96Z" fill="#F4F2E3"/>
<path d="M1067.35 639.831L1067.98 641.756H1070L1068.36 642.946L1068.99 644.871L1067.35 643.681L1065.71 644.871L1066.34 642.946L1064.7 641.756H1066.73L1067.35 639.831Z" fill="#F4F2E3"/>
<path d="M1063.57 630.577L1064.2 632.502H1066.22L1064.58 633.692L1065.21 635.617L1063.57 634.427L1061.93 635.617L1062.56 633.692L1060.92 632.502H1062.95L1063.57 630.577Z" fill="#F4F2E3"/>
<path d="M1043.38 630.577L1044 632.502H1046.03L1044.39 633.692L1045.02 635.617L1043.38 634.427L1041.74 635.617L1042.37 633.692L1040.73 632.502H1042.75L1043.38 630.577Z" fill="#F4F2E3"/>
<path d="M1063.57 649.98L1064.2 651.905H1066.22L1064.58 653.095L1065.21 655.02L1063.57 653.83L1061.93 655.02L1062.56 653.095L1060.92 651.905H1062.95L1063.57 649.98Z" fill="#F4F2E3"/>
<path d="M1043.38 649.98L1044 651.905H1046.03L1044.39 653.095L1045.02 655.02L1043.38 653.83L1041.74 655.02L1042.37 653.095L1040.73 651.905H1042.75L1043.38 649.98Z" fill="#F4F2E3"/>
<path d="M1039.65 639.831L1040.27 641.756H1042.3L1040.66 642.946L1041.29 644.871L1039.65 643.681L1038.01 644.871L1038.64 642.946L1037 641.756H1039.02L1039.65 639.831Z" fill="#F4F2E3"/>
<circle cx="209.5" cy="179.5" r="13.5" fill="#F4F2E3"/>
<circle cx="902.5" cy="13.5" r="13.5" fill="#F4F2E3"/>
<path d="M733.525 686L732.9 687.925H730.876L732.513 689.115L731.888 691.04L733.525 689.85L735.162 691.04L734.537 689.115L736.174 687.925H734.15L733.525 686Z" fill="#F4F2E3"/>
<path d="M733.525 713.96L732.9 715.885H730.876L732.513 717.075L731.888 719L733.525 717.81L735.162 719L734.537 717.075L736.174 715.885H734.15L733.525 713.96Z" fill="#F4F2E3"/>
<path d="M719.649 699.831L719.024 701.756H717L718.637 702.946L718.012 704.871L719.649 703.681L721.286 704.871L720.661 702.946L722.298 701.756H720.274L719.649 699.831Z" fill="#F4F2E3"/>
<path d="M723.429 690.577L722.803 692.502H720.78L722.417 693.692L721.792 695.617L723.429 694.427L725.066 695.617L724.44 693.692L726.078 692.502H724.054L723.429 690.577Z" fill="#F4F2E3"/>
<path d="M743.621 690.577L742.996 692.502H740.972L742.609 693.692L741.984 695.617L743.621 694.427L745.258 695.617L744.633 693.692L746.27 692.502H744.246L743.621 690.577Z" fill="#F4F2E3"/>
<path d="M723.429 709.98L722.803 711.905H720.78L722.417 713.095L721.792 715.02L723.429 713.83L725.066 715.02L724.44 713.095L726.078 711.905H724.054L723.429 709.98Z" fill="#F4F2E3"/>
<path d="M743.621 709.98L742.996 711.905H740.972L742.609 713.095L741.984 715.02L743.621 713.83L745.258 715.02L744.633 713.095L746.27 711.905H744.246L743.621 709.98Z" fill="#F4F2E3"/>
<path d="M747.351 699.831L746.726 701.756H744.702L746.339 702.946L745.714 704.871L747.351 703.681L748.988 704.871L748.363 702.946L750 701.756H747.976L747.351 699.831Z" fill="#F4F2E3"/>
<circle cx="13.5" cy="13.5" r="13.5" transform="matrix(-1 0 0 1 686 659)" fill="#F4F2E3"/>
<path d="M1147 220L1148.58 232.416L1161 234L1148.58 235.584L1147 248L1145.42 235.584L1133 234L1145.42 232.416L1147 220Z" fill="#F4F2E3"/>
<path d="M734 626L735.584 638.416L748 640L735.584 641.584L734 654L732.416 641.584L720 640L732.416 638.416L734 626Z" fill="#F4F2E3"/>
<path d="M446 672L447.584 684.416L460 686L447.584 687.584L446 700L444.416 687.584L432 686L444.416 684.416L446 672Z" fill="#F4F2E3"/>
<path d="M432 16L433.584 28.4161L446 30L433.584 31.5839L432 44L430.416 31.5839L418 30L430.416 28.4161L432 16Z" fill="#F4F2E3"/>
<circle cx="1186.5" cy="293.5" r="13.5" fill="#F4F2E3"/>
<circle cx="1069.5" cy="564.5" r="13.5" fill="#F4F2E3"/>
<path d="M250.459 544L251.501 547.209H254.873L252.145 549.191L253.187 552.4L250.459 550.417L247.73 552.4L248.772 549.191L246.044 547.209H249.416L250.459 544Z" fill="#F4F2E3"/>
<path d="M250.459 590.6L251.501 593.809H254.873L252.145 595.791L253.187 599L250.459 597.017L247.73 599L248.772 595.791L246.044 593.809H249.416L250.459 590.6Z" fill="#F4F2E3"/>
<path d="M273.585 567.051L274.627 570.26H278L275.272 572.243L276.314 575.451L273.585 573.468L270.857 575.451L271.899 572.243L269.171 570.26H272.543L273.585 567.051Z" fill="#F4F2E3"/>
<path d="M267.286 551.628L268.328 554.837H271.7L268.972 556.82L270.014 560.028L267.286 558.046L264.557 560.028L265.599 556.82L262.871 554.837H266.243L267.286 551.628Z" fill="#F4F2E3"/>
<path d="M233.632 551.628L234.674 554.837H238.046L235.318 556.82L236.36 560.028L233.632 558.046L230.903 560.028L231.945 556.82L229.217 554.837H232.589L233.632 551.628Z" fill="#F4F2E3"/>
<path d="M267.286 583.967L268.328 587.175H271.7L268.972 589.158L270.014 592.367L267.286 590.384L264.557 592.367L265.599 589.158L262.871 587.175H266.243L267.286 583.967Z" fill="#F4F2E3"/>
<path d="M233.632 583.967L234.674 587.175H238.046L235.318 589.158L236.36 592.367L233.632 590.384L230.903 592.367L231.945 589.158L229.217 587.175H232.589L233.632 583.967Z" fill="#F4F2E3"/>
<path d="M227.415 567.051L228.457 570.26H231.829L229.101 572.243L230.143 575.451L227.415 573.468L224.686 575.451L225.728 572.243L223 570.26H226.373L227.415 567.051Z" fill="#F4F2E3"/>
<circle cx="352.5" cy="566.5" r="13.5" fill="#F4F2E3"/>
<mask id="path-35-outside-2_36_184" maskUnits="userSpaceOnUse" x="481" y="183" width="411" height="173" fill="black">
<rect fill="white" x="481" y="183" width="411" height="173"/>
<path d="M602.448 238.178C597.797 241.249 593.603 244.505 589.866 247.946C586.129 251.387 582.552 254.977 579.137 258.718C575.843 262.392 572.63 266.14 569.497 269.963C566.364 273.786 563.123 277.63 559.775 281.493C557.669 283.865 555.572 285.313 553.485 285.837C551.52 286.293 548.89 286.04 545.597 285.078C542.895 284.186 540.861 282.923 539.493 281.287C538.126 279.652 537.21 277.685 536.747 275.386C536.101 270.872 535.489 266.419 534.91 262.026C534.453 257.567 534.103 253.087 533.862 248.587C533.595 243.462 533.216 239.798 532.724 237.595C532.355 235.324 531.772 234.329 530.978 234.612C530.21 234.8 529.271 236.123 528.161 238.579C527.171 240.969 526.031 244.241 524.74 248.396C521.822 256.814 519.657 265.452 518.244 274.31C516.952 283.1 515.755 291.917 514.652 300.762C514.432 302.243 514.138 303.805 513.77 305.449C513.429 306.997 513.068 308.437 512.687 309.768C511.819 312.089 510.528 313.927 508.816 315.281C507.103 316.635 504.887 317.43 502.169 317.666C499.356 317.875 497.057 317.358 495.272 316.116C493.459 314.968 492.017 313.414 490.947 311.454C489.849 309.588 489.055 307.554 488.564 305.35C488.073 303.147 487.776 301.155 487.674 299.374C486.941 292.67 486.806 286.193 487.269 279.942C487.853 273.624 488.626 267.36 489.586 261.152C491.38 250.963 493.987 240.961 497.407 231.144C500.921 221.355 505.523 212.399 511.212 204.274C514.793 199.243 518.658 195.531 522.81 193.138C527.082 190.677 531.195 189.664 535.15 190.097C539.104 190.531 542.683 192.452 545.888 195.86C549.188 199.295 551.668 204.346 553.33 211.011C556.023 223.334 557.81 235.083 558.691 246.259C563.644 241.422 568.724 236.673 573.931 232.014C579.166 227.259 584.594 223.076 590.215 219.465C595.958 215.785 601.933 212.895 608.142 210.794C614.351 208.693 620.919 207.83 627.847 208.205C632.756 208.505 636.957 209.681 640.449 211.73C644.035 213.808 646.839 216.48 648.86 219.749C651.003 222.949 652.358 226.59 652.924 230.669C653.49 234.748 653.282 238.859 652.301 243.002C650.489 250.404 648.153 257.499 645.294 264.286C642.529 271.101 639.636 277.827 636.615 284.464C633.716 291.033 630.831 297.555 627.959 304.03C625.181 310.532 622.813 317.205 620.854 324.05C620.283 326.046 619.651 328.076 618.959 330.14C618.267 332.204 617.413 334.117 616.399 335.881C614.64 339.179 612.291 341.686 609.353 343.403C606.481 345.243 602.874 345.734 598.531 344.878C594.376 344.077 591.408 342.335 589.627 339.651C587.819 337.063 586.711 334.165 586.304 330.956C585.923 327.652 585.961 324.315 586.415 320.945C586.99 317.508 587.51 314.622 587.975 312.285C589.203 306.567 590.868 300.924 592.971 295.358C595.167 289.819 597.518 284.274 600.024 278.723C602.624 273.199 605.211 267.723 607.783 262.294C610.478 256.797 613.003 251.355 615.361 245.966C616.973 242.111 617.877 239.13 618.072 237.024C618.267 234.918 617.766 233.638 616.57 233.186C615.495 232.666 613.752 232.878 611.341 233.822C608.957 234.671 605.993 236.123 602.448 238.178Z"/>
<path d="M664.626 268.805C665.178 260.205 665.929 251.411 666.879 242.422C667.49 235.902 669.896 230.306 674.098 225.635C676.198 223.3 678.433 221.66 680.802 220.715C683.27 219.673 685.676 219.372 688.019 219.813C690.362 220.253 692.546 221.334 694.571 223.054C696.598 224.676 698.172 226.982 699.292 229.973C700.602 233.264 701.274 236.641 701.308 240.106C701.341 243.57 701.081 247.029 700.527 250.483C699.059 260.946 697.642 271.311 696.276 281.578C694.91 291.845 693.592 302.162 692.321 312.53C691.775 315.587 691.424 318.649 691.269 321.714C691.214 324.682 691.061 327.648 690.81 330.612C690.685 332.095 690.559 333.577 690.434 335.059C690.31 336.442 690.088 337.823 689.769 339.203C689.219 342.459 687.947 345.008 685.953 346.85C683.958 348.792 681.538 349.835 678.695 349.979C676.145 350.128 673.757 349.489 671.53 348.061C669.401 346.636 667.874 344.479 666.948 341.591C666.21 339.103 665.622 336.518 665.182 333.838C664.742 331.157 664.35 328.527 664.006 325.948C663.403 321.483 663.048 316.824 662.943 311.973C662.837 307.121 662.878 302.273 663.066 297.427C663.256 292.482 663.493 287.587 663.779 282.743C664.163 277.901 664.445 273.255 664.626 268.805Z"/>
<path d="M746.156 311.746C748.778 311.14 751.592 310.427 754.597 309.607C757.602 308.787 760.607 307.967 763.612 307.147C766.613 306.228 769.569 305.41 772.48 304.693C775.388 303.877 778.054 303.17 780.48 302.572C782.234 302.3 783.987 302.028 785.74 301.756C787.591 301.48 789.355 301.455 791.031 301.681C794.464 301.734 797.406 302.947 799.857 305.32C802.406 307.688 803.992 310.493 804.617 313.735C805.461 317.562 805.217 321.138 803.884 324.462C802.649 327.783 800.351 330.306 796.991 332.033C795.365 332.993 793.632 333.759 791.793 334.332C789.954 334.905 788.158 335.327 786.404 335.599C779.379 336.391 772.518 337.621 765.823 339.29C759.124 340.86 752.488 342.775 745.915 345.033C739.134 347.003 733.473 346.4 728.93 343.224C724.387 340.049 721.418 334.628 720.023 326.962C719.88 325.878 719.737 324.795 719.594 323.711C719.447 322.529 719.351 321.394 719.306 320.307C719 312.892 718.724 305.03 718.478 296.721C718.229 288.313 717.932 279.957 717.589 271.652C717.343 263.344 717.01 255.286 716.589 247.48C716.266 239.669 715.874 232.555 715.413 226.137C715.388 223.167 715.969 220.617 717.155 218.487C718.337 216.258 719.882 214.51 721.791 213.241C723.797 211.967 725.972 211.232 728.316 211.034C730.657 210.737 732.926 211.087 735.124 212.084C737.416 212.977 739.491 214.573 741.351 216.872C743.211 219.17 744.61 222.181 745.548 225.905C746.486 229.629 747.112 234.109 747.427 239.345C747.835 244.477 748.009 249.868 747.949 255.515C747.986 261.159 747.88 266.908 747.632 272.761C747.478 278.512 747.262 283.968 746.986 289.13C746.705 294.193 746.451 298.71 746.223 302.681C746.093 306.648 746.07 309.67 746.156 311.746Z"/>
<path d="M836.722 278.402C836.911 279.373 837.167 280.936 837.489 283.09C837.791 285.148 838.151 287.497 838.568 290.137C838.965 292.68 839.391 295.369 839.846 298.204C840.377 300.922 840.977 303.475 841.643 305.863C844.43 305.307 847.063 304.731 849.542 304.135C852.099 303.423 854.568 302.779 856.952 302.202C859.431 301.607 861.929 301.108 864.447 300.706C866.945 300.207 869.625 299.874 872.488 299.706C876.234 299.463 879.238 300.527 881.499 302.9C883.856 305.254 885.291 307.993 885.802 311.119C886.238 313.856 885.954 316.233 884.95 318.249C884.024 320.148 882.685 321.727 880.934 322.984C879.203 324.339 877.212 325.392 874.963 326.143C872.714 326.895 870.532 327.482 868.418 327.904C861.27 329.129 854.207 330.539 847.231 332.133C840.273 333.825 833.316 335.264 826.36 336.451C823.554 336.91 821.135 336.283 819.103 334.571C817.186 332.936 815.991 330.653 815.517 327.722C815.251 326.363 815.034 324.994 814.864 323.616C814.79 322.218 814.545 320.452 814.127 318.316C813.271 314.452 812.273 309.86 811.133 304.54C810.07 299.104 808.95 293.377 807.772 287.358C806.576 281.242 805.352 274.981 804.098 268.574C802.826 262.07 801.602 255.809 800.424 249.79C799.324 243.655 798.252 237.918 797.208 232.579C796.164 227.24 795.262 222.629 794.502 218.746C794.294 217.678 793.989 216.629 793.588 215.6C793.187 214.57 792.834 213.531 792.529 212.483C791.863 209.59 792.109 207.019 793.267 204.771C794.501 202.406 796.503 200.897 799.27 200.244C806.151 198.668 813.127 197.326 820.198 196.217C827.25 195.011 834.313 193.601 841.386 191.988C843.499 191.566 845.738 191.27 848.101 191.101C850.464 190.932 852.702 191.141 854.813 191.728C856.906 192.218 858.748 193.212 860.338 194.71C862.006 196.092 863.154 198.132 863.782 200.831C864.486 203.918 864.191 207.003 862.896 210.086C861.699 213.149 859.321 215.288 855.765 216.502C853.054 217.447 850.459 218.217 847.98 218.813C845.482 219.311 842.974 219.762 840.457 220.163C838.035 220.546 835.518 220.947 832.905 221.368C830.368 221.673 827.707 222.103 824.92 222.659C825.682 225.533 826.281 228.339 826.716 231.076C827.229 233.697 827.655 236.386 827.995 239.142C828.411 241.783 828.837 244.471 829.273 247.209C829.804 249.927 830.518 252.81 831.414 255.859C836.352 255.075 841.205 254.106 845.971 252.953C850.834 251.781 855.763 250.948 860.758 250.455C863.102 250.189 865.041 250.911 866.574 252.623C868.184 254.218 869.216 256.18 869.672 258.51C870.224 260.821 870.093 263.217 869.281 265.699C868.45 268.084 866.783 270.031 864.283 271.538C863.033 272.292 861.187 273.064 858.745 273.854C856.285 274.547 853.671 275.22 850.904 275.874C848.232 276.508 845.599 277.084 843.005 277.602C840.391 278.022 838.297 278.289 836.722 278.402Z"/>
</mask>
<path d="M602.448 238.178C597.797 241.249 593.603 244.505 589.866 247.946C586.129 251.387 582.552 254.977 579.137 258.718C575.843 262.392 572.63 266.14 569.497 269.963C566.364 273.786 563.123 277.63 559.775 281.493C557.669 283.865 555.572 285.313 553.485 285.837C551.52 286.293 548.89 286.04 545.597 285.078C542.895 284.186 540.861 282.923 539.493 281.287C538.126 279.652 537.21 277.685 536.747 275.386C536.101 270.872 535.489 266.419 534.91 262.026C534.453 257.567 534.103 253.087 533.862 248.587C533.595 243.462 533.216 239.798 532.724 237.595C532.355 235.324 531.772 234.329 530.978 234.612C530.21 234.8 529.271 236.123 528.161 238.579C527.171 240.969 526.031 244.241 524.74 248.396C521.822 256.814 519.657 265.452 518.244 274.31C516.952 283.1 515.755 291.917 514.652 300.762C514.432 302.243 514.138 303.805 513.77 305.449C513.429 306.997 513.068 308.437 512.687 309.768C511.819 312.089 510.528 313.927 508.816 315.281C507.103 316.635 504.887 317.43 502.169 317.666C499.356 317.875 497.057 317.358 495.272 316.116C493.459 314.968 492.017 313.414 490.947 311.454C489.849 309.588 489.055 307.554 488.564 305.35C488.073 303.147 487.776 301.155 487.674 299.374C486.941 292.67 486.806 286.193 487.269 279.942C487.853 273.624 488.626 267.36 489.586 261.152C491.38 250.963 493.987 240.961 497.407 231.144C500.921 221.355 505.523 212.399 511.212 204.274C514.793 199.243 518.658 195.531 522.81 193.138C527.082 190.677 531.195 189.664 535.15 190.097C539.104 190.531 542.683 192.452 545.888 195.86C549.188 199.295 551.668 204.346 553.33 211.011C556.023 223.334 557.81 235.083 558.691 246.259C563.644 241.422 568.724 236.673 573.931 232.014C579.166 227.259 584.594 223.076 590.215 219.465C595.958 215.785 601.933 212.895 608.142 210.794C614.351 208.693 620.919 207.83 627.847 208.205C632.756 208.505 636.957 209.681 640.449 211.73C644.035 213.808 646.839 216.48 648.86 219.749C651.003 222.949 652.358 226.59 652.924 230.669C653.49 234.748 653.282 238.859 652.301 243.002C650.489 250.404 648.153 257.499 645.294 264.286C642.529 271.101 639.636 277.827 636.615 284.464C633.716 291.033 630.831 297.555 627.959 304.03C625.181 310.532 622.813 317.205 620.854 324.05C620.283 326.046 619.651 328.076 618.959 330.14C618.267 332.204 617.413 334.117 616.399 335.881C614.64 339.179 612.291 341.686 609.353 343.403C606.481 345.243 602.874 345.734 598.531 344.878C594.376 344.077 591.408 342.335 589.627 339.651C587.819 337.063 586.711 334.165 586.304 330.956C585.923 327.652 585.961 324.315 586.415 320.945C586.99 317.508 587.51 314.622 587.975 312.285C589.203 306.567 590.868 300.924 592.971 295.358C595.167 289.819 597.518 284.274 600.024 278.723C602.624 273.199 605.211 267.723 607.783 262.294C610.478 256.797 613.003 251.355 615.361 245.966C616.973 242.111 617.877 239.13 618.072 237.024C618.267 234.918 617.766 233.638 616.57 233.186C615.495 232.666 613.752 232.878 611.341 233.822C608.957 234.671 605.993 236.123 602.448 238.178Z" fill="url(#paint0_linear_36_184)"/>
<path d="M664.626 268.805C665.178 260.205 665.929 251.411 666.879 242.422C667.49 235.902 669.896 230.306 674.098 225.635C676.198 223.3 678.433 221.66 680.802 220.715C683.27 219.673 685.676 219.372 688.019 219.813C690.362 220.253 692.546 221.334 694.571 223.054C696.598 224.676 698.172 226.982 699.292 229.973C700.602 233.264 701.274 236.641 701.308 240.106C701.341 243.57 701.081 247.029 700.527 250.483C699.059 260.946 697.642 271.311 696.276 281.578C694.91 291.845 693.592 302.162 692.321 312.53C691.775 315.587 691.424 318.649 691.269 321.714C691.214 324.682 691.061 327.648 690.81 330.612C690.685 332.095 690.559 333.577 690.434 335.059C690.31 336.442 690.088 337.823 689.769 339.203C689.219 342.459 687.947 345.008 685.953 346.85C683.958 348.792 681.538 349.835 678.695 349.979C676.145 350.128 673.757 349.489 671.53 348.061C669.401 346.636 667.874 344.479 666.948 341.591C666.21 339.103 665.622 336.518 665.182 333.838C664.742 331.157 664.35 328.527 664.006 325.948C663.403 321.483 663.048 316.824 662.943 311.973C662.837 307.121 662.878 302.273 663.066 297.427C663.256 292.482 663.493 287.587 663.779 282.743C664.163 277.901 664.445 273.255 664.626 268.805Z" fill="url(#paint1_linear_36_184)"/>
<path d="M746.156 311.746C748.778 311.14 751.592 310.427 754.597 309.607C757.602 308.787 760.607 307.967 763.612 307.147C766.613 306.228 769.569 305.41 772.48 304.693C775.388 303.877 778.054 303.17 780.48 302.572C782.234 302.3 783.987 302.028 785.74 301.756C787.591 301.48 789.355 301.455 791.031 301.681C794.464 301.734 797.406 302.947 799.857 305.32C802.406 307.688 803.992 310.493 804.617 313.735C805.461 317.562 805.217 321.138 803.884 324.462C802.649 327.783 800.351 330.306 796.991 332.033C795.365 332.993 793.632 333.759 791.793 334.332C789.954 334.905 788.158 335.327 786.404 335.599C779.379 336.391 772.518 337.621 765.823 339.29C759.124 340.86 752.488 342.775 745.915 345.033C739.134 347.003 733.473 346.4 728.93 343.224C724.387 340.049 721.418 334.628 720.023 326.962C719.88 325.878 719.737 324.795 719.594 323.711C719.447 322.529 719.351 321.394 719.306 320.307C719 312.892 718.724 305.03 718.478 296.721C718.229 288.313 717.932 279.957 717.589 271.652C717.343 263.344 717.01 255.286 716.589 247.48C716.266 239.669 715.874 232.555 715.413 226.137C715.388 223.167 715.969 220.617 717.155 218.487C718.337 216.258 719.882 214.51 721.791 213.241C723.797 211.967 725.972 211.232 728.316 211.034C730.657 210.737 732.926 211.087 735.124 212.084C737.416 212.977 739.491 214.573 741.351 216.872C743.211 219.17 744.61 222.181 745.548 225.905C746.486 229.629 747.112 234.109 747.427 239.345C747.835 244.477 748.009 249.868 747.949 255.515C747.986 261.159 747.88 266.908 747.632 272.761C747.478 278.512 747.262 283.968 746.986 289.13C746.705 294.193 746.451 298.71 746.223 302.681C746.093 306.648 746.07 309.67 746.156 311.746Z" fill="url(#paint2_linear_36_184)"/>
<path d="M836.722 278.402C836.911 279.373 837.167 280.936 837.489 283.09C837.791 285.148 838.151 287.497 838.568 290.137C838.965 292.68 839.391 295.369 839.846 298.204C840.377 300.922 840.977 303.475 841.643 305.863C844.43 305.307 847.063 304.731 849.542 304.135C852.099 303.423 854.568 302.779 856.952 302.202C859.431 301.607 861.929 301.108 864.447 300.706C866.945 300.207 869.625 299.874 872.488 299.706C876.234 299.463 879.238 300.527 881.499 302.9C883.856 305.254 885.291 307.993 885.802 311.119C886.238 313.856 885.954 316.233 884.95 318.249C884.024 320.148 882.685 321.727 880.934 322.984C879.203 324.339 877.212 325.392 874.963 326.143C872.714 326.895 870.532 327.482 868.418 327.904C861.27 329.129 854.207 330.539 847.231 332.133C840.273 333.825 833.316 335.264 826.36 336.451C823.554 336.91 821.135 336.283 819.103 334.571C817.186 332.936 815.991 330.653 815.517 327.722C815.251 326.363 815.034 324.994 814.864 323.616C814.79 322.218 814.545 320.452 814.127 318.316C813.271 314.452 812.273 309.86 811.133 304.54C810.07 299.104 808.95 293.377 807.772 287.358C806.576 281.242 805.352 274.981 804.098 268.574C802.826 262.07 801.602 255.809 800.424 249.79C799.324 243.655 798.252 237.918 797.208 232.579C796.164 227.24 795.262 222.629 794.502 218.746C794.294 217.678 793.989 216.629 793.588 215.6C793.187 214.57 792.834 213.531 792.529 212.483C791.863 209.59 792.109 207.019 793.267 204.771C794.501 202.406 796.503 200.897 799.27 200.244C806.151 198.668 813.127 197.326 820.198 196.217C827.25 195.011 834.313 193.601 841.386 191.988C843.499 191.566 845.738 191.27 848.101 191.101C850.464 190.932 852.702 191.141 854.813 191.728C856.906 192.218 858.748 193.212 860.338 194.71C862.006 196.092 863.154 198.132 863.782 200.831C864.486 203.918 864.191 207.003 862.896 210.086C861.699 213.149 859.321 215.288 855.765 216.502C853.054 217.447 850.459 218.217 847.98 218.813C845.482 219.311 842.974 219.762 840.457 220.163C838.035 220.546 835.518 220.947 832.905 221.368C830.368 221.673 827.707 222.103 824.92 222.659C825.682 225.533 826.281 228.339 826.716 231.076C827.229 233.697 827.655 236.386 827.995 239.142C828.411 241.783 828.837 244.471 829.273 247.209C829.804 249.927 830.518 252.81 831.414 255.859C836.352 255.075 841.205 254.106 845.971 252.953C850.834 251.781 855.763 250.948 860.758 250.455C863.102 250.189 865.041 250.911 866.574 252.623C868.184 254.218 869.216 256.18 869.672 258.51C870.224 260.821 870.093 263.217 869.281 265.699C868.45 268.084 866.783 270.031 864.283 271.538C863.033 272.292 861.187 273.064 858.745 273.854C856.285 274.547 853.671 275.22 850.904 275.874C848.232 276.508 845.599 277.084 843.005 277.602C840.391 278.022 838.297 278.289 836.722 278.402Z" fill="url(#paint3_linear_36_184)"/>
<path d="M602.448 238.178C597.797 241.249 593.603 244.505 589.866 247.946C586.129 251.387 582.552 254.977 579.137 258.718C575.843 262.392 572.63 266.14 569.497 269.963C566.364 273.786 563.123 277.63 559.775 281.493C557.669 283.865 555.572 285.313 553.485 285.837C551.52 286.293 548.89 286.04 545.597 285.078C542.895 284.186 540.861 282.923 539.493 281.287C538.126 279.652 537.21 277.685 536.747 275.386C536.101 270.872 535.489 266.419 534.91 262.026C534.453 257.567 534.103 253.087 533.862 248.587C533.595 243.462 533.216 239.798 532.724 237.595C532.355 235.324 531.772 234.329 530.978 234.612C530.21 234.8 529.271 236.123 528.161 238.579C527.171 240.969 526.031 244.241 524.74 248.396C521.822 256.814 519.657 265.452 518.244 274.31C516.952 283.1 515.755 291.917 514.652 300.762C514.432 302.243 514.138 303.805 513.77 305.449C513.429 306.997 513.068 308.437 512.687 309.768C511.819 312.089 510.528 313.927 508.816 315.281C507.103 316.635 504.887 317.43 502.169 317.666C499.356 317.875 497.057 317.358 495.272 316.116C493.459 314.968 492.017 313.414 490.947 311.454C489.849 309.588 489.055 307.554 488.564 305.35C488.073 303.147 487.776 301.155 487.674 299.374C486.941 292.67 486.806 286.193 487.269 279.942C487.853 273.624 488.626 267.36 489.586 261.152C491.38 250.963 493.987 240.961 497.407 231.144C500.921 221.355 505.523 212.399 511.212 204.274C514.793 199.243 518.658 195.531 522.81 193.138C527.082 190.677 531.195 189.664 535.15 190.097C539.104 190.531 542.683 192.452 545.888 195.86C549.188 199.295 551.668 204.346 553.33 211.011C556.023 223.334 557.81 235.083 558.691 246.259C563.644 241.422 568.724 236.673 573.931 232.014C579.166 227.259 584.594 223.076 590.215 219.465C595.958 215.785 601.933 212.895 608.142 210.794C614.351 208.693 620.919 207.83 627.847 208.205C632.756 208.505 636.957 209.681 640.449 211.73C644.035 213.808 646.839 216.48 648.86 219.749C651.003 222.949 652.358 226.59 652.924 230.669C653.49 234.748 653.282 238.859 652.301 243.002C650.489 250.404 648.153 257.499 645.294 264.286C642.529 271.101 639.636 277.827 636.615 284.464C633.716 291.033 630.831 297.555 627.959 304.03C625.181 310.532 622.813 317.205 620.854 324.05C620.283 326.046 619.651 328.076 618.959 330.14C618.267 332.204 617.413 334.117 616.399 335.881C614.64 339.179 612.291 341.686 609.353 343.403C606.481 345.243 602.874 345.734 598.531 344.878C594.376 344.077 591.408 342.335 589.627 339.651C587.819 337.063 586.711 334.165 586.304 330.956C585.923 327.652 585.961 324.315 586.415 320.945C586.99 317.508 587.51 314.622 587.975 312.285C589.203 306.567 590.868 300.924 592.971 295.358C595.167 289.819 597.518 284.274 600.024 278.723C602.624 273.199 605.211 267.723 607.783 262.294C610.478 256.797 613.003 251.355 615.361 245.966C616.973 242.111 617.877 239.13 618.072 237.024C618.267 234.918 617.766 233.638 616.57 233.186C615.495 232.666 613.752 232.878 611.341 233.822C608.957 234.671 605.993 236.123 602.448 238.178Z" stroke="black" stroke-width="12" mask="url(#path-35-outside-2_36_184)"/>
<path d="M664.626 268.805C665.178 260.205 665.929 251.411 666.879 242.422C667.49 235.902 669.896 230.306 674.098 225.635C676.198 223.3 678.433 221.66 680.802 220.715C683.27 219.673 685.676 219.372 688.019 219.813C690.362 220.253 692.546 221.334 694.571 223.054C696.598 224.676 698.172 226.982 699.292 229.973C700.602 233.264 701.274 236.641 701.308 240.106C701.341 243.57 701.081 247.029 700.527 250.483C699.059 260.946 697.642 271.311 696.276 281.578C694.91 291.845 693.592 302.162 692.321 312.53C691.775 315.587 691.424 318.649 691.269 321.714C691.214 324.682 691.061 327.648 690.81 330.612C690.685 332.095 690.559 333.577 690.434 335.059C690.31 336.442 690.088 337.823 689.769 339.203C689.219 342.459 687.947 345.008 685.953 346.85C683.958 348.792 681.538 349.835 678.695 349.979C676.145 350.128 673.757 349.489 671.53 348.061C669.401 346.636 667.874 344.479 666.948 341.591C666.21 339.103 665.622 336.518 665.182 333.838C664.742 331.157 664.35 328.527 664.006 325.948C663.403 321.483 663.048 316.824 662.943 311.973C662.837 307.121 662.878 302.273 663.066 297.427C663.256 292.482 663.493 287.587 663.779 282.743C664.163 277.901 664.445 273.255 664.626 268.805Z" stroke="black" stroke-width="12" mask="url(#path-35-outside-2_36_184)"/>
<path d="M746.156 311.746C748.778 311.14 751.592 310.427 754.597 309.607C757.602 308.787 760.607 307.967 763.612 307.147C766.613 306.228 769.569 305.41 772.48 304.693C775.388 303.877 778.054 303.17 780.48 302.572C782.234 302.3 783.987 302.028 785.74 301.756C787.591 301.48 789.355 301.455 791.031 301.681C794.464 301.734 797.406 302.947 799.857 305.32C802.406 307.688 803.992 310.493 804.617 313.735C805.461 317.562 805.217 321.138 803.884 324.462C802.649 327.783 800.351 330.306 796.991 332.033C795.365 332.993 793.632 333.759 791.793 334.332C789.954 334.905 788.158 335.327 786.404 335.599C779.379 336.391 772.518 337.621 765.823 339.29C759.124 340.86 752.488 342.775 745.915 345.033C739.134 347.003 733.473 346.4 728.93 343.224C724.387 340.049 721.418 334.628 720.023 326.962C719.88 325.878 719.737 324.795 719.594 323.711C719.447 322.529 719.351 321.394 719.306 320.307C719 312.892 718.724 305.03 718.478 296.721C718.229 288.313 717.932 279.957 717.589 271.652C717.343 263.344 717.01 255.286 716.589 247.48C716.266 239.669 715.874 232.555 715.413 226.137C715.388 223.167 715.969 220.617 717.155 218.487C718.337 216.258 719.882 214.51 721.791 213.241C723.797 211.967 725.972 211.232 728.316 211.034C730.657 210.737 732.926 211.087 735.124 212.084C737.416 212.977 739.491 214.573 741.351 216.872C743.211 219.17 744.61 222.181 745.548 225.905C746.486 229.629 747.112 234.109 747.427 239.345C747.835 244.477 748.009 249.868 747.949 255.515C747.986 261.159 747.88 266.908 747.632 272.761C747.478 278.512 747.262 283.968 746.986 289.13C746.705 294.193 746.451 298.71 746.223 302.681C746.093 306.648 746.07 309.67 746.156 311.746Z" stroke="black" stroke-width="12" mask="url(#path-35-outside-2_36_184)"/>
<path d="M836.722 278.402C836.911 279.373 837.167 280.936 837.489 283.09C837.791 285.148 838.151 287.497 838.568 290.137C838.965 292.68 839.391 295.369 839.846 298.204C840.377 300.922 840.977 303.475 841.643 305.863C844.43 305.307 847.063 304.731 849.542 304.135C852.099 303.423 854.568 302.779 856.952 302.202C859.431 301.607 861.929 301.108 864.447 300.706C866.945 300.207 869.625 299.874 872.488 299.706C876.234 299.463 879.238 300.527 881.499 302.9C883.856 305.254 885.291 307.993 885.802 311.119C886.238 313.856 885.954 316.233 884.95 318.249C884.024 320.148 882.685 321.727 880.934 322.984C879.203 324.339 877.212 325.392 874.963 326.143C872.714 326.895 870.532 327.482 868.418 327.904C861.27 329.129 854.207 330.539 847.231 332.133C840.273 333.825 833.316 335.264 826.36 336.451C823.554 336.91 821.135 336.283 819.103 334.571C817.186 332.936 815.991 330.653 815.517 327.722C815.251 326.363 815.034 324.994 814.864 323.616C814.79 322.218 814.545 320.452 814.127 318.316C813.271 314.452 812.273 309.86 811.133 304.54C810.07 299.104 808.95 293.377 807.772 287.358C806.576 281.242 805.352 274.981 804.098 268.574C802.826 262.07 801.602 255.809 800.424 249.79C799.324 243.655 798.252 237.918 797.208 232.579C796.164 227.24 795.262 222.629 794.502 218.746C794.294 217.678 793.989 216.629 793.588 215.6C793.187 214.57 792.834 213.531 792.529 212.483C791.863 209.59 792.109 207.019 793.267 204.771C794.501 202.406 796.503 200.897 799.27 200.244C806.151 198.668 813.127 197.326 820.198 196.217C827.25 195.011 834.313 193.601 841.386 191.988C843.499 191.566 845.738 191.27 848.101 191.101C850.464 190.932 852.702 191.141 854.813 191.728C856.906 192.218 858.748 193.212 860.338 194.71C862.006 196.092 863.154 198.132 863.782 200.831C864.486 203.918 864.191 207.003 862.896 210.086C861.699 213.149 859.321 215.288 855.765 216.502C853.054 217.447 850.459 218.217 847.98 218.813C845.482 219.311 842.974 219.762 840.457 220.163C838.035 220.546 835.518 220.947 832.905 221.368C830.368 221.673 827.707 222.103 824.92 222.659C825.682 225.533 826.281 228.339 826.716 231.076C827.229 233.697 827.655 236.386 827.995 239.142C828.411 241.783 828.837 244.471 829.273 247.209C829.804 249.927 830.518 252.81 831.414 255.859C836.352 255.075 841.205 254.106 845.971 252.953C850.834 251.781 855.763 250.948 860.758 250.455C863.102 250.189 865.041 250.911 866.574 252.623C868.184 254.218 869.216 256.18 869.672 258.51C870.224 260.821 870.093 263.217 869.281 265.699C868.45 268.084 866.783 270.031 864.283 271.538C863.033 272.292 861.187 273.064 858.745 273.854C856.285 274.547 853.671 275.22 850.904 275.874C848.232 276.508 845.599 277.084 843.005 277.602C840.391 278.022 838.297 278.289 836.722 278.402Z" stroke="black" stroke-width="12" mask="url(#path-35-outside-2_36_184)"/>
<mask id="path-36-outside-3_36_184" maskUnits="userSpaceOnUse" x="310" y="174" width="701" height="341" fill="black">
<rect fill="white" x="310" y="174" width="701" height="341"/>
<path fill-rule="evenodd" clip-rule="evenodd" d="M336.613 489.535L336.584 489.506C327.828 480.586 321.815 469.925 318.554 457.594C315.291 445.255 315.164 432.472 318.119 419.302C320.974 406.577 327.343 394.729 337.074 383.766L337.097 383.74L337.121 383.714C347.086 372.909 358.584 364.059 371.601 357.174L371.639 357.155L374.079 355.934L368.828 346.876L363.649 338.207L363.64 338.192C353.77 322.005 346.315 306.913 341.323 292.923C336.172 278.489 335.519 262.951 339.229 246.415C343.184 228.787 350.164 214.466 360.333 203.679C370.401 193 382.229 185.924 395.777 182.562C409.178 179.237 422.994 179.156 437.175 182.273C451.946 185.52 463.119 192.849 470.266 204.403C477.697 215.988 479.646 229.258 476.357 243.919C473.949 254.651 469.32 264.849 462.527 274.5C460.757 277.063 458.481 279.001 455.66 280.052C452.851 281.099 449.813 281.148 446.704 280.465C444.967 280.083 443.154 279.25 441.323 278.167C438.669 276.723 436.629 274.571 435.211 271.846L435.06 271.556L434.962 271.243C434.029 268.257 433.898 265.209 434.581 262.166C434.737 261.47 435.077 260.736 435.326 260.222C435.627 259.601 436.027 258.846 436.511 257.974C437.48 256.226 438.862 253.873 440.641 250.934C444.082 245.251 446.104 240.61 446.926 236.948C448.44 230.201 447.508 224.946 444.612 220.762C441.67 216.513 436.849 213.442 429.612 211.852C415.871 208.831 403.345 210.512 391.843 216.799C381.082 222.908 373.243 235.084 368.913 254.388C367.16 262.201 367.401 269.631 369.578 276.747C372.185 284.314 377.977 296.739 387.09 314.165L387.169 314.316L387.233 314.473C389.016 318.809 391.897 324.693 395.92 332.167L395.962 332.245L396 332.325C397.268 334.976 399.929 339.521 404.083 346.061C429.416 340.419 458.313 341.249 490.679 348.363C513.599 353.401 535.101 360.827 555.176 370.649C555.977 370.992 556.71 371.337 557.359 371.675C594.412 390.313 659.485 411.582 758.885 392.394C859.07 372.013 921.439 314.142 940.545 294.423C941.058 293.894 941.599 293.406 942.165 292.959C936.191 278.982 937.813 264.279 938.53 259.098C938.867 256.653 940.101 254.591 941.364 253.131C942.659 251.634 944.445 250.235 946.581 249.443C948.622 248.687 951.678 248.29 954.447 250.082C957.524 252.073 958.261 255.435 957.902 258.036C957.066 264.082 955.817 279.682 965.055 290.376C974.515 300.849 989.622 300.814 995.388 300.356C998.155 300.135 1001.45 301.229 1003.16 304.458C1004.64 307.273 1004.1 310.21 1003.27 312.183C1002.39 314.261 1000.94 315.99 999.39 317.235C997.893 318.437 995.754 319.621 993.238 319.821C988.294 320.215 975.135 320.688 962.665 314.582C940.807 337.015 872.924 399.323 764.177 421.42L764.098 421.436L764.02 421.451C655.167 442.49 589.432 421.492 544.043 399.1C542.797 398.485 541.616 397.884 540.497 397.295C524.323 389.253 506.416 383.063 486.758 378.742C475.751 376.323 463.419 374.695 449.748 373.875L449.707 373.872L449.666 373.869C438.847 372.98 429.663 372.929 422.07 373.67C430.733 387.972 437.29 400.986 441.695 412.698C446.723 426.065 447.772 439.478 444.773 452.849C442.337 463.706 437.206 473.743 429.476 482.943C421.73 492.163 412.462 499.106 401.693 503.724L401.654 503.74L401.615 503.756C390.821 508.095 379.98 509.129 369.187 506.756C356.416 503.95 345.532 498.227 336.642 489.564L336.613 489.535ZM399.762 469.582C407.541 462.745 412.419 454.646 414.532 445.227C416.332 437.206 415.058 427.756 410.204 416.694C405.564 406.119 399.045 394.519 390.612 381.889C380.331 386.289 371.246 392.348 363.333 400.071C355.107 408.227 350.209 416.549 348.309 425.019C345.359 438.166 346.619 449.335 351.743 458.79C356.833 468.182 364.789 474.076 375.94 476.527C384.354 478.376 392.199 476.229 399.762 469.582Z"/>
</mask>
<path fill-rule="evenodd" clip-rule="evenodd" d="M336.613 489.535L336.584 489.506C327.828 480.586 321.815 469.925 318.554 457.594C315.291 445.255 315.164 432.472 318.119 419.302C320.974 406.577 327.343 394.729 337.074 383.766L337.097 383.74L337.121 383.714C347.086 372.909 358.584 364.059 371.601 357.174L371.639 357.155L374.079 355.934L368.828 346.876L363.649 338.207L363.64 338.192C353.77 322.005 346.315 306.913 341.323 292.923C336.172 278.489 335.519 262.951 339.229 246.415C343.184 228.787 350.164 214.466 360.333 203.679C370.401 193 382.229 185.924 395.777 182.562C409.178 179.237 422.994 179.156 437.175 182.273C451.946 185.52 463.119 192.849 470.266 204.403C477.697 215.988 479.646 229.258 476.357 243.919C473.949 254.651 469.32 264.849 462.527 274.5C460.757 277.063 458.481 279.001 455.66 280.052C452.851 281.099 449.813 281.148 446.704 280.465C444.967 280.083 443.154 279.25 441.323 278.167C438.669 276.723 436.629 274.571 435.211 271.846L435.06 271.556L434.962 271.243C434.029 268.257 433.898 265.209 434.581 262.166C434.737 261.47 435.077 260.736 435.326 260.222C435.627 259.601 436.027 258.846 436.511 257.974C437.48 256.226 438.862 253.873 440.641 250.934C444.082 245.251 446.104 240.61 446.926 236.948C448.44 230.201 447.508 224.946 444.612 220.762C441.67 216.513 436.849 213.442 429.612 211.852C415.871 208.831 403.345 210.512 391.843 216.799C381.082 222.908 373.243 235.084 368.913 254.388C367.16 262.201 367.401 269.631 369.578 276.747C372.185 284.314 377.977 296.739 387.09 314.165L387.169 314.316L387.233 314.473C389.016 318.809 391.897 324.693 395.92 332.167L395.962 332.245L396 332.325C397.268 334.976 399.929 339.521 404.083 346.061C429.416 340.419 458.313 341.249 490.679 348.363C513.599 353.401 535.101 360.827 555.176 370.649C555.977 370.992 556.71 371.337 557.359 371.675C594.412 390.313 659.485 411.582 758.885 392.394C859.07 372.013 921.439 314.142 940.545 294.423C941.058 293.894 941.599 293.406 942.165 292.959C936.191 278.982 937.813 264.279 938.53 259.098C938.867 256.653 940.101 254.591 941.364 253.131C942.659 251.634 944.445 250.235 946.581 249.443C948.622 248.687 951.678 248.29 954.447 250.082C957.524 252.073 958.261 255.435 957.902 258.036C957.066 264.082 955.817 279.682 965.055 290.376C974.515 300.849 989.622 300.814 995.388 300.356C998.155 300.135 1001.45 301.229 1003.16 304.458C1004.64 307.273 1004.1 310.21 1003.27 312.183C1002.39 314.261 1000.94 315.99 999.39 317.235C997.893 318.437 995.754 319.621 993.238 319.821C988.294 320.215 975.135 320.688 962.665 314.582C940.807 337.015 872.924 399.323 764.177 421.42L764.098 421.436L764.02 421.451C655.167 442.49 589.432 421.492 544.043 399.1C542.797 398.485 541.616 397.884 540.497 397.295C524.323 389.253 506.416 383.063 486.758 378.742C475.751 376.323 463.419 374.695 449.748 373.875L449.707 373.872L449.666 373.869C438.847 372.98 429.663 372.929 422.07 373.67C430.733 387.972 437.29 400.986 441.695 412.698C446.723 426.065 447.772 439.478 444.773 452.849C442.337 463.706 437.206 473.743 429.476 482.943C421.73 492.163 412.462 499.106 401.693 503.724L401.654 503.74L401.615 503.756C390.821 508.095 379.98 509.129 369.187 506.756C356.416 503.95 345.532 498.227 336.642 489.564L336.613 489.535ZM399.762 469.582C407.541 462.745 412.419 454.646 414.532 445.227C416.332 437.206 415.058 427.756 410.204 416.694C405.564 406.119 399.045 394.519 390.612 381.889C380.331 386.289 371.246 392.348 363.333 400.071C355.107 408.227 350.209 416.549 348.309 425.019C345.359 438.166 346.619 449.335 351.743 458.79C356.833 468.182 364.789 474.076 375.94 476.527C384.354 478.376 392.199 476.229 399.762 469.582Z" fill="url(#paint4_linear_36_184)"/>
<path d="M336.584 489.506L340.867 485.303L340.866 485.303L336.584 489.506ZM336.613 489.535L332.331 493.738L332.377 493.785L332.425 493.832L336.613 489.535ZM318.554 457.594L324.354 456.06L324.354 456.06L318.554 457.594ZM318.119 419.302L323.974 420.615L323.974 420.615L318.119 419.302ZM337.074 383.766L332.588 379.782L332.587 379.783L337.074 383.766ZM337.097 383.74L332.686 379.673L332.648 379.714L332.611 379.756L337.097 383.74ZM337.121 383.714L332.71 379.647L332.71 379.647L337.121 383.714ZM371.601 357.174L368.797 351.87L368.796 351.87L371.601 357.174ZM371.639 357.155L368.955 351.788L368.895 351.818L368.835 351.85L371.639 357.155ZM374.079 355.934L376.762 361.301L382.47 358.447L379.27 352.926L374.079 355.934ZM368.828 346.876L374.019 343.868L373.999 343.833L373.979 343.799L368.828 346.876ZM363.649 338.207L368.8 335.13L368.785 335.106L368.771 335.082L363.649 338.207ZM363.64 338.192L358.517 341.316L358.518 341.317L363.64 338.192ZM341.323 292.923L335.672 294.94L335.672 294.94L341.323 292.923ZM339.229 246.415L345.083 247.728L345.083 247.728L339.229 246.415ZM360.333 203.679L364.699 207.795L364.699 207.795L360.333 203.679ZM395.777 182.562L397.222 188.386L397.222 188.386L395.777 182.562ZM437.175 182.273L438.463 176.413L438.463 176.413L437.175 182.273ZM470.266 204.403L465.164 207.559L465.189 207.601L465.216 207.642L470.266 204.403ZM476.357 243.919L470.502 242.605L470.502 242.605L476.357 243.919ZM462.527 274.5L457.621 271.046L457.605 271.068L457.59 271.09L462.527 274.5ZM455.66 280.052L457.755 285.675L457.755 285.675L455.66 280.052ZM446.704 280.465L445.416 286.325L445.416 286.325L446.704 280.465ZM441.323 278.167L444.375 273.002L444.284 272.948L444.191 272.897L441.323 278.167ZM435.211 271.846L440.534 269.076L440.534 269.076L435.211 271.846ZM435.06 271.556L429.333 273.346L429.492 273.854L429.738 274.326L435.06 271.556ZM434.962 271.243L440.689 269.453L440.689 269.453L434.962 271.243ZM434.581 262.166L440.435 263.479L440.435 263.479L434.581 262.166ZM435.326 260.222L429.927 257.604L429.927 257.604L435.326 260.222ZM436.511 257.974L431.263 255.064L431.263 255.064L436.511 257.974ZM440.641 250.934L445.774 254.041L445.774 254.041L440.641 250.934ZM446.926 236.948L452.78 238.261L452.78 238.261L446.926 236.948ZM444.612 220.762L449.545 217.347L449.545 217.347L444.612 220.762ZM429.612 211.852L428.324 217.712L428.324 217.712L429.612 211.852ZM391.843 216.799L388.966 211.535L388.923 211.558L388.882 211.581L391.843 216.799ZM368.913 254.388L363.058 253.075L363.058 253.075L368.913 254.388ZM369.578 276.747L363.841 278.503L363.871 278.603L363.905 278.702L369.578 276.747ZM387.09 314.165L392.407 311.385L392.407 311.385L387.09 314.165ZM387.169 314.316L392.718 312.034L392.613 311.779L392.486 311.535L387.169 314.316ZM387.233 314.473L381.684 316.754L381.684 316.754L387.233 314.473ZM395.92 332.167L401.204 329.324L401.204 329.324L395.92 332.167ZM395.962 332.245L401.375 329.657L401.314 329.528L401.246 329.402L395.962 332.245ZM396 332.325L401.414 329.737L401.414 329.737L396 332.325ZM404.083 346.061L399.018 349.278L401.276 352.833L405.387 351.917L404.083 346.061ZM490.679 348.363L491.967 342.503L491.967 342.503L490.679 348.363ZM555.176 370.649L552.539 376.038L552.673 376.104L552.81 376.162L555.176 370.649ZM557.359 371.675L554.588 376.997L554.625 377.016L554.663 377.035L557.359 371.675ZM758.885 392.394L760.022 398.285L760.051 398.279L760.081 398.273L758.885 392.394ZM940.545 294.423L944.854 298.598L944.855 298.598L940.545 294.423ZM942.165 292.959L945.883 297.669L949.487 294.823L947.682 290.601L942.165 292.959ZM938.53 259.098L944.473 259.919L944.473 259.919L938.53 259.098ZM941.364 253.131L945.901 257.057L945.901 257.057L941.364 253.131ZM946.581 249.443L944.497 243.817L944.497 243.817L946.581 249.443ZM954.447 250.082L951.187 255.119L951.187 255.119L954.447 250.082ZM957.902 258.036L951.958 257.215L951.958 257.215L957.902 258.036ZM965.055 290.376L960.515 294.299L960.558 294.349L960.603 294.398L965.055 290.376ZM995.388 300.356L994.912 294.374L994.912 294.374L995.388 300.356ZM1003.16 304.458L1008.46 301.654L1008.46 301.654L1003.16 304.458ZM1003.27 312.183L997.738 309.848L997.738 309.848L1003.27 312.183ZM999.39 317.235L1003.15 321.913L1003.15 321.913L999.39 317.235ZM993.238 319.821L993.714 325.802L993.714 325.802L993.238 319.821ZM962.665 314.582L965.304 309.193L961.4 307.282L958.368 310.394L962.665 314.582ZM764.177 421.42L765.371 427.3L765.372 427.3L764.177 421.42ZM764.098 421.436L765.238 427.327L765.265 427.321L765.293 427.316L764.098 421.436ZM764.02 421.451L765.158 427.342L765.159 427.342L764.02 421.451ZM544.043 399.1L546.698 393.719L546.698 393.719L544.043 399.1ZM540.497 397.295L543.291 391.985L543.23 391.953L543.168 391.922L540.497 397.295ZM486.758 378.742L485.47 384.602L485.47 384.602L486.758 378.742ZM449.748 373.875L449.385 379.864L449.388 379.864L449.748 373.875ZM449.707 373.872L449.218 379.852L449.281 379.857L449.344 379.861L449.707 373.872ZM449.666 373.869L449.175 379.849L449.178 379.849L449.666 373.869ZM422.07 373.67L421.488 367.698L411.999 368.624L416.938 376.778L422.07 373.67ZM441.695 412.698L436.079 414.81L436.079 414.81L441.695 412.698ZM444.773 452.849L438.918 451.536L438.918 451.536L444.773 452.849ZM429.476 482.943L424.882 479.084L424.882 479.084L429.476 482.943ZM401.693 503.724L404.056 509.239L404.057 509.238L401.693 503.724ZM401.654 503.74L403.895 509.306L403.957 509.281L404.017 509.255L401.654 503.74ZM401.615 503.756L403.853 509.323L403.856 509.322L401.615 503.756ZM369.187 506.756L370.475 500.896L370.475 500.896L369.187 506.756ZM336.642 489.564L332.454 493.861L332.455 493.861L336.642 489.564ZM414.532 445.227L408.678 443.914L408.678 443.914L414.532 445.227ZM399.762 469.582L403.723 474.088L403.723 474.088L399.762 469.582ZM410.204 416.694L415.699 414.284L415.699 414.284L410.204 416.694ZM390.612 381.889L395.602 378.557L392.834 374.411L388.251 376.373L390.612 381.889ZM363.333 400.071L359.142 395.777L359.125 395.794L359.108 395.81L363.333 400.071ZM348.309 425.019L354.163 426.332L354.163 426.332L348.309 425.019ZM351.743 458.79L357.018 455.931L357.018 455.931L351.743 458.79ZM375.94 476.527L377.228 470.666L377.228 470.666L375.94 476.527ZM332.302 493.709L332.331 493.738L340.895 485.333L340.867 485.303L332.302 493.709ZM312.753 459.128C316.274 472.44 322.799 484.027 332.302 493.709L340.866 485.303C332.858 477.144 327.356 467.411 324.354 456.06L312.753 459.128ZM312.265 417.988C309.114 432.034 309.227 445.796 312.753 459.128L324.354 456.06C321.354 444.714 321.215 432.911 323.974 420.615L312.265 417.988ZM332.587 379.783C322.281 391.394 315.372 404.136 312.265 417.988L323.974 420.615C326.575 409.018 332.406 398.064 341.561 387.749L332.587 379.783ZM332.611 379.756L332.588 379.782L341.56 387.751L341.583 387.724L332.611 379.756ZM332.71 379.647L332.686 379.673L341.508 387.807L341.532 387.782L332.71 379.647ZM368.796 351.87C355.179 359.072 343.137 368.34 332.71 379.647L341.532 387.782C351.034 377.477 361.989 369.045 374.406 362.478L368.796 351.87ZM368.835 351.85L368.797 351.87L374.405 362.479L374.443 362.459L368.835 351.85ZM371.395 350.568L368.955 351.788L374.322 362.521L376.762 361.301L371.395 350.568ZM363.637 349.885L368.888 358.943L379.27 352.926L374.019 343.868L363.637 349.885ZM358.498 341.284L363.678 349.954L373.979 343.799L368.8 335.13L358.498 341.284ZM358.518 341.317L358.527 341.331L368.771 335.082L368.762 335.068L358.518 341.317ZM335.672 294.94C340.835 309.408 348.492 324.874 358.517 341.316L368.763 335.069C359.049 319.136 351.796 304.417 346.974 290.907L335.672 294.94ZM333.374 245.102C329.448 262.603 330.094 279.309 335.672 294.94L346.974 290.907C342.25 277.668 341.591 263.298 345.083 247.728L333.374 245.102ZM355.967 199.563C344.893 211.31 337.506 226.687 333.374 245.102L345.083 247.728C348.862 230.887 355.434 217.623 364.699 207.795L355.967 199.563ZM394.332 176.739C379.597 180.395 366.774 188.101 355.967 199.563L364.699 207.795C374.028 197.9 384.86 191.453 397.222 188.386L394.332 176.739ZM438.463 176.413C423.435 173.11 408.682 173.178 394.332 176.739L397.222 188.386C409.674 185.296 422.553 185.202 435.887 188.133L438.463 176.413ZM475.369 201.246C467.238 188.103 454.561 179.951 438.463 176.413L435.887 188.133C449.33 191.088 458.999 197.595 465.164 207.559L475.369 201.246ZM482.211 245.232C485.805 229.213 483.72 214.265 475.316 201.163L465.216 207.642C471.673 217.71 473.487 229.302 470.502 242.605L482.211 245.232ZM467.434 277.953C474.642 267.713 479.617 256.796 482.211 245.232L470.502 242.605C468.281 252.507 463.999 261.985 457.621 271.046L467.434 277.953ZM457.755 285.675C461.915 284.125 465.119 281.305 467.464 277.909L457.59 271.09C456.396 272.82 455.047 273.878 453.566 274.43L457.755 285.675ZM445.416 286.325C449.381 287.196 453.63 287.211 457.755 285.675L453.566 274.43C452.071 274.986 450.246 275.1 447.992 274.605L445.416 286.325ZM438.27 283.333C440.375 284.577 442.809 285.752 445.416 286.325L447.992 274.605C447.125 274.414 445.932 273.922 444.375 273.002L438.27 283.333ZM429.889 274.616C431.818 278.323 434.679 281.383 438.454 283.438L444.191 272.897C442.659 272.064 441.44 270.818 440.534 269.076L429.889 274.616ZM429.738 274.326L429.889 274.616L440.534 269.076L440.382 268.786L429.738 274.326ZM429.236 273.034L429.333 273.346L440.787 269.765L440.689 269.453L429.236 273.034ZM428.726 260.852C427.811 264.933 427.99 269.051 429.236 273.034L440.689 269.453C440.067 267.464 439.985 265.486 440.435 263.479L428.726 260.852ZM429.927 257.604C429.686 258.103 429.052 259.402 428.726 260.852L440.435 263.479C440.423 263.534 440.416 263.551 440.425 263.524C440.433 263.498 440.45 263.451 440.479 263.38C440.54 263.231 440.619 263.059 440.725 262.84L429.927 257.604ZM431.263 255.064C430.755 255.981 430.296 256.843 429.927 257.604L440.725 262.84C440.958 262.359 441.299 261.71 441.758 260.884L431.263 255.064ZM435.509 247.826C433.715 250.789 432.288 253.217 431.263 255.064L441.758 260.884C442.673 259.234 444.009 256.957 445.774 254.041L435.509 247.826ZM441.071 235.635C440.45 238.404 438.786 242.413 435.509 247.826L445.774 254.041C449.378 248.089 451.759 242.816 452.78 238.261L441.071 235.635ZM439.679 224.178C441.421 226.694 442.303 230.146 441.071 235.635L452.78 238.261C454.577 230.255 453.595 223.197 449.545 217.347L439.679 224.178ZM428.324 217.712C434.5 219.069 437.816 221.487 439.679 224.178L449.545 217.347C445.524 211.539 439.199 207.816 430.9 205.992L428.324 217.712ZM394.721 222.064C404.871 216.516 415.906 214.982 428.324 217.712L430.9 205.992C415.837 202.681 401.819 204.509 388.966 211.535L394.721 222.064ZM374.767 255.701C378.903 237.266 386.093 226.963 394.805 222.017L388.882 211.581C376.072 218.853 367.584 232.902 363.058 253.075L374.767 255.701ZM375.316 274.992C373.461 268.931 373.228 262.561 374.767 255.701L363.058 253.075C361.092 261.84 361.341 270.331 363.841 278.503L375.316 274.992ZM392.407 311.385C383.297 293.963 377.696 281.891 375.251 274.793L363.905 278.702C366.674 286.737 372.658 299.515 381.773 316.946L392.407 311.385ZM392.486 311.535L392.407 311.385L381.773 316.946L381.852 317.096L392.486 311.535ZM392.783 312.191L392.718 312.034L381.62 316.597L381.684 316.754L392.783 312.191ZM401.204 329.324C397.218 321.918 394.449 316.245 392.783 312.191L381.684 316.754C383.583 321.373 386.577 327.468 390.637 335.011L401.204 329.324ZM401.246 329.402L401.204 329.324L390.637 335.011L390.679 335.089L401.246 329.402ZM401.414 329.737L401.375 329.657L390.549 334.833L390.587 334.913L401.414 329.737ZM409.147 342.844C404.99 336.299 402.508 332.027 401.414 329.737L390.587 334.913C392.027 337.925 394.868 342.744 399.018 349.278L409.147 342.844ZM491.967 342.503C458.99 335.255 429.178 334.325 402.778 340.204L405.387 351.917C429.654 346.513 457.636 347.244 489.391 354.223L491.967 342.503ZM557.813 365.259C537.287 355.217 515.33 347.638 491.967 342.503L489.391 354.223C511.868 359.164 532.916 366.437 552.539 376.038L557.813 365.259ZM560.13 366.353C559.326 365.934 558.455 365.527 557.542 365.135L552.81 376.162C553.499 376.458 554.094 376.739 554.588 376.997L560.13 366.353ZM757.747 386.502C659.799 405.411 596.068 384.429 560.055 366.315L554.663 377.035C592.756 396.196 659.171 417.754 760.022 398.285L757.747 386.502ZM936.236 290.247C917.536 309.547 856.196 366.475 757.689 386.514L760.081 398.273C861.944 377.551 925.341 318.737 944.854 298.598L936.236 290.247ZM938.447 288.25C937.675 288.86 936.936 289.526 936.236 290.247L944.855 298.598C945.18 298.262 945.523 297.952 945.883 297.669L938.447 288.25ZM932.586 258.276C931.842 263.658 929.996 279.754 936.648 295.317L947.682 290.601C942.386 278.21 943.784 264.901 944.473 259.919L932.586 258.276ZM936.827 249.205C935.06 251.247 933.129 254.349 932.586 258.276L944.473 259.919C944.606 258.957 945.141 257.935 945.901 257.057L936.827 249.205ZM944.497 243.817C941.249 245.021 938.659 247.088 936.827 249.205L945.901 257.057C946.659 256.181 947.64 255.45 948.666 255.07L944.497 243.817ZM957.707 245.045C952.749 241.836 947.512 242.7 944.497 243.817L948.666 255.07C949.129 254.898 949.645 254.795 950.109 254.806C950.526 254.815 950.864 254.91 951.187 255.119L957.707 245.045ZM963.845 258.857C964.421 254.691 963.299 248.665 957.707 245.045L951.187 255.119C951.549 255.353 951.723 255.61 951.836 255.915C951.974 256.286 952.02 256.765 951.958 257.215L963.845 258.857ZM969.595 286.454C966.016 282.311 964.307 277.018 963.656 271.73C963.007 266.46 963.463 261.622 963.845 258.857L951.958 257.215C951.505 260.496 950.918 266.481 951.746 273.197C952.57 279.894 954.855 287.748 960.515 294.299L969.595 286.454ZM994.912 294.374C992.374 294.576 987.794 294.677 982.89 293.604C977.992 292.532 973.14 290.375 969.507 286.354L960.603 294.398C966.43 300.85 973.862 303.912 980.324 305.326C986.78 306.739 992.636 306.593 995.864 306.337L994.912 294.374ZM1008.46 301.654C1005.36 295.797 999.434 294.015 994.912 294.374L995.864 306.337C996.318 306.301 996.775 306.383 997.118 306.544C997.403 306.678 997.647 306.875 997.851 307.263L1008.46 301.654ZM1008.79 314.518C1010.01 311.632 1011.11 306.66 1008.46 301.654L997.851 307.263C998.029 307.599 998.104 307.956 998.086 308.391C998.067 308.865 997.935 309.382 997.738 309.848L1008.79 314.518ZM1003.15 321.913C1005.35 320.144 1007.47 317.647 1008.79 314.518L997.738 309.848C997.304 310.875 996.531 311.835 995.633 312.557L1003.15 321.913ZM993.714 325.802C997.804 325.477 1001.06 323.594 1003.15 321.913L995.633 312.557C994.732 313.281 993.705 313.765 992.762 313.84L993.714 325.802ZM960.026 319.97C973.968 326.797 988.448 326.221 993.714 325.802L992.762 313.84C988.139 314.208 976.302 314.578 965.304 309.193L960.026 319.97ZM765.372 427.3C875.784 404.865 944.692 341.625 966.962 318.769L958.368 310.394C936.921 332.405 870.063 393.782 762.982 415.54L765.372 427.3ZM765.293 427.316L765.371 427.3L762.982 415.54L762.904 415.556L765.293 427.316ZM765.159 427.342L765.238 427.327L762.959 415.545L762.88 415.56L765.159 427.342ZM541.389 404.481C587.821 427.388 654.883 448.656 765.158 427.342L762.881 415.56C655.451 436.324 591.042 415.596 546.698 393.719L541.389 404.481ZM537.703 402.605C538.871 403.219 540.099 403.845 541.389 404.481L546.698 393.719C545.495 393.126 544.36 392.548 543.291 391.985L537.703 402.605ZM485.47 384.602C504.7 388.829 522.135 394.866 537.826 402.668L543.168 391.922C526.51 383.64 508.132 377.297 488.046 372.882L485.47 384.602ZM449.388 379.864C462.808 380.669 474.823 382.262 485.47 384.602L488.046 372.882C476.679 370.383 464.03 368.721 450.107 367.885L449.388 379.864ZM449.344 379.861L449.385 379.864L450.111 367.886L450.07 367.883L449.344 379.861ZM449.178 379.849L449.218 379.852L450.195 367.892L450.155 367.889L449.178 379.849ZM422.653 379.641C429.783 378.946 438.588 378.979 449.175 379.849L450.158 367.889C439.105 366.981 429.544 366.912 421.488 367.698L422.653 379.641ZM447.311 410.586C442.74 398.431 435.995 385.077 427.202 370.561L416.938 376.778C425.472 390.867 431.841 403.542 436.079 414.81L447.311 410.586ZM450.627 454.162C453.896 439.592 452.728 424.989 447.311 410.586L436.079 414.81C440.717 427.141 441.648 439.365 438.918 451.536L450.627 454.162ZM434.069 486.803C442.357 476.939 447.962 466.044 450.627 454.162L438.918 451.536C436.712 461.368 432.054 470.547 424.882 479.084L434.069 486.803ZM404.057 509.238C415.717 504.239 425.741 496.716 434.069 486.803L424.882 479.084C417.719 487.609 409.206 493.974 399.328 498.209L404.057 509.238ZM404.017 509.255L404.056 509.239L399.33 498.209L399.291 498.225L404.017 509.255ZM403.856 509.322L403.895 509.306L399.413 498.175L399.373 498.191L403.856 509.322ZM367.898 512.616C379.95 515.265 392.019 514.08 403.853 509.323L399.377 498.189C389.623 502.11 380.009 502.992 370.475 500.896L367.898 512.616ZM332.455 493.861C342.198 503.357 354.108 509.585 367.899 512.616L370.475 500.896C358.724 498.314 348.865 493.098 340.83 485.267L332.455 493.861ZM332.425 493.832L332.454 493.861L340.83 485.267L340.801 485.239L332.425 493.832ZM408.678 443.914C406.859 452.02 402.686 459.024 395.801 465.075L403.723 474.088C412.396 466.466 417.98 457.271 420.387 446.54L408.678 443.914ZM404.71 419.105C409.232 429.41 410.112 437.52 408.678 443.914L420.387 446.54C422.552 436.892 420.884 426.101 415.699 414.284L404.71 419.105ZM385.622 385.221C393.915 397.641 400.245 408.929 404.71 419.105L415.699 414.284C410.883 403.308 404.176 391.398 395.602 378.557L385.622 385.221ZM367.524 404.365C374.902 397.163 383.366 391.517 392.973 387.405L388.251 376.373C377.297 381.062 367.59 387.532 359.142 395.777L367.524 404.365ZM354.163 426.332C355.754 419.243 359.93 411.895 367.558 404.332L359.108 395.81C350.284 404.56 344.664 413.854 342.454 423.706L354.163 426.332ZM357.018 455.931C352.717 447.994 351.465 438.36 354.163 426.332L342.454 423.706C339.254 437.972 340.521 450.675 346.468 461.648L357.018 455.931ZM377.228 470.666C367.679 468.568 361.23 463.704 357.018 455.931L346.468 461.648C352.435 472.66 361.899 479.584 374.652 482.387L377.228 470.666ZM395.801 465.075C389.484 470.627 383.545 472.055 377.228 470.666L374.652 482.387C385.164 484.697 394.914 481.831 403.723 474.088L395.801 465.075Z" fill="black" mask="url(#path-36-outside-3_36_184)"/>
<rect x="474" y="84" width="169" height="66" rx="33" fill="black"/>
<path d="M533.733 135H508.757V97.1658H514.578V129.973H533.733V135ZM560.786 120.925C560.786 121.665 560.786 122.459 560.733 122.882H539.99C540.096 127.38 542.742 131.561 548.086 131.561C552.848 131.561 554.7 128.491 555.177 126.692H560.468C559.039 131.878 555.071 135.794 547.98 135.794C539.408 135.794 534.646 129.708 534.646 121.454C534.646 112.987 539.725 107.167 547.98 107.167C556.182 107.167 560.786 112.564 560.786 120.925ZM539.99 118.808H555.388C555.388 114.575 552.425 111.4 547.821 111.4C543.482 111.4 540.308 114.363 539.99 118.808ZM574.701 131.031C575.6 131.031 576.024 130.978 576.923 130.82V135C575.6 135.265 574.754 135.317 573.642 135.317C569.198 135.317 566.499 133.624 566.499 127.38V112.299H562.583V108.013H566.499V99.3353H571.685V108.013H576.87V112.299H571.685V127.539C571.685 130.396 572.478 131.031 574.701 131.031ZM580.709 110.13V107.22C582.614 106.69 583.461 105.632 583.461 102.933H580.709V97.1658H586.424V102.933C586.424 106.373 584.942 109.072 580.709 110.13ZM599.624 135.741C591.422 135.741 587.348 131.508 587.189 126.004H592.428C592.639 129.126 594.544 131.561 599.571 131.561C604.122 131.561 605.339 129.55 605.339 127.592C605.339 124.205 601.741 123.835 598.248 123.094C593.539 121.983 588.142 120.607 588.142 114.998C588.142 110.342 591.898 107.22 598.407 107.22C605.815 107.22 609.36 111.188 609.731 115.845H604.492C604.122 113.781 603.011 111.4 598.513 111.4C595.02 111.4 593.539 112.776 593.539 114.786C593.539 117.591 596.555 117.856 600.365 118.702C605.339 119.866 610.736 121.295 610.736 127.327C610.736 132.566 606.715 135.741 599.624 135.741Z" fill="white"/>
<defs>
<linearGradient id="paint0_linear_36_184" x1="515.5" y1="212" x2="883.043" y2="320.515" gradientUnits="userSpaceOnUse">
<stop offset="0.114477" stop-color="#FDA966"/>
<stop offset="0.3289" stop-color="#FA686B"/>
<stop offset="0.48233" stop-color="#F65279"/>
<stop offset="0.543657" stop-color="#C96FEF"/>
<stop offset="0.714962" stop-color="#B6ACE5"/>
<stop offset="0.851593" stop-color="#F3CD96"/>
<stop offset="0.988225" stop-color="#C9D6AD"/>
</linearGradient>
<linearGradient id="paint1_linear_36_184" x1="515.5" y1="212" x2="883.043" y2="320.515" gradientUnits="userSpaceOnUse">
<stop offset="0.114477" stop-color="#FDA966"/>
<stop offset="0.3289" stop-color="#FA686B"/>
<stop offset="0.48233" stop-color="#F65279"/>
<stop offset="0.543657" stop-color="#C96FEF"/>
<stop offset="0.714962" stop-color="#B6ACE5"/>
<stop offset="0.851593" stop-color="#F3CD96"/>
<stop offset="0.988225" stop-color="#C9D6AD"/>
</linearGradient>
<linearGradient id="paint2_linear_36_184" x1="515.5" y1="212" x2="883.043" y2="320.515" gradientUnits="userSpaceOnUse">
<stop offset="0.114477" stop-color="#FDA966"/>
<stop offset="0.3289" stop-color="#FA686B"/>
<stop offset="0.48233" stop-color="#F65279"/>
<stop offset="0.543657" stop-color="#C96FEF"/>
<stop offset="0.714962" stop-color="#B6ACE5"/>
<stop offset="0.851593" stop-color="#F3CD96"/>
<stop offset="0.988225" stop-color="#C9D6AD"/>
</linearGradient>
<linearGradient id="paint3_linear_36_184" x1="515.5" y1="212" x2="883.043" y2="320.515" gradientUnits="userSpaceOnUse">
<stop offset="0.114477" stop-color="#FDA966"/>
<stop offset="0.3289" stop-color="#FA686B"/>
<stop offset="0.48233" stop-color="#F65279"/>
<stop offset="0.543657" stop-color="#C96FEF"/>
<stop offset="0.714962" stop-color="#B6ACE5"/>
<stop offset="0.851593" stop-color="#F3CD96"/>
<stop offset="0.988225" stop-color="#C9D6AD"/>
</linearGradient>
<linearGradient id="paint4_linear_36_184" x1="295.5" y1="200.5" x2="1344.02" y2="26.2167" gradientUnits="userSpaceOnUse">
<stop offset="0.00690657" stop-color="#FB68A6"/>
<stop offset="0.0942852" stop-color="#D38FF0"/>
<stop offset="0.200031" stop-color="#ABB3E0"/>
<stop offset="0.344429" stop-color="#C9D6AD"/>
<stop offset="0.466257" stop-color="#F5CB94"/>
<stop offset="0.648183" stop-color="#F9A15C"/>
</linearGradient>
</defs>
</svg>
