<svg  viewBox="0 0 1269 930" fill="none" xmlns="http://www.w3.org/2000/svg">
<rect  fill="#599CFF"/>
<circle cx="636.5" cy="412.5" r="254" fill="#F798C0" stroke="black" stroke-width="5"/>
<mask id="path-2-inside-1_43_2538" fill="white">
<path fill-rule="evenodd" clip-rule="evenodd" d="M536 572.663C528.366 583.169 515.981 590 502 590C478.804 590 460 571.196 460 548C460 524.804 478.804 506 502 506C515.981 506 528.366 512.831 536 523.337C543.634 512.831 556.019 506 570 506C585.631 506 599.268 514.539 606.5 527.207C613.732 514.539 627.369 506 643 506C657.29 506 669.913 513.137 677.5 524.04C685.087 513.137 697.71 506 712 506C727.631 506 741.268 514.539 748.5 527.207C755.732 514.539 769.369 506 785 506C799.938 506 813.054 513.798 820.5 525.546C827.946 513.798 841.062 506 856 506C871.278 506 884.651 514.157 892 526.354C899.349 514.157 912.722 506 928 506C942.609 506 955.476 513.459 963 524.775C970.524 513.459 983.391 506 998 506C1021.2 506 1040 524.804 1040 548C1040 571.196 1021.2 590 998 590C983.391 590 970.524 582.541 963 571.225C955.476 582.541 942.609 590 928 590C912.722 590 899.349 581.843 892 569.646C884.651 581.843 871.278 590 856 590C841.062 590 827.946 582.202 820.5 570.454C813.054 582.202 799.938 590 785 590C769.369 590 755.732 581.461 748.5 568.793C741.268 581.461 727.631 590 712 590C697.71 590 685.087 582.863 677.5 571.96C669.913 582.863 657.29 590 643 590C627.369 590 613.732 581.461 606.5 568.793C599.268 581.461 585.631 590 570 590C556.019 590 543.634 583.169 536 572.663Z"/>
</mask>
<path fill-rule="evenodd" clip-rule="evenodd" d="M536 572.663C528.366 583.169 515.981 590 502 590C478.804 590 460 571.196 460 548C460 524.804 478.804 506 502 506C515.981 506 528.366 512.831 536 523.337C543.634 512.831 556.019 506 570 506C585.631 506 599.268 514.539 606.5 527.207C613.732 514.539 627.369 506 643 506C657.29 506 669.913 513.137 677.5 524.04C685.087 513.137 697.71 506 712 506C727.631 506 741.268 514.539 748.5 527.207C755.732 514.539 769.369 506 785 506C799.938 506 813.054 513.798 820.5 525.546C827.946 513.798 841.062 506 856 506C871.278 506 884.651 514.157 892 526.354C899.349 514.157 912.722 506 928 506C942.609 506 955.476 513.459 963 524.775C970.524 513.459 983.391 506 998 506C1021.2 506 1040 524.804 1040 548C1040 571.196 1021.2 590 998 590C983.391 590 970.524 582.541 963 571.225C955.476 582.541 942.609 590 928 590C912.722 590 899.349 581.843 892 569.646C884.651 581.843 871.278 590 856 590C841.062 590 827.946 582.202 820.5 570.454C813.054 582.202 799.938 590 785 590C769.369 590 755.732 581.461 748.5 568.793C741.268 581.461 727.631 590 712 590C697.71 590 685.087 582.863 677.5 571.96C669.913 582.863 657.29 590 643 590C627.369 590 613.732 581.461 606.5 568.793C599.268 581.461 585.631 590 570 590C556.019 590 543.634 583.169 536 572.663Z" fill="#F4FBA8"/>
<path d="M536 572.663L540.045 569.724L536 564.157L531.955 569.724L536 572.663ZM536 523.337L531.955 526.276L536 531.843L540.045 526.276L536 523.337ZM606.5 527.207L602.158 529.686L606.5 537.292L610.842 529.686L606.5 527.207ZM677.5 524.04L673.396 526.896L677.5 532.795L681.604 526.896L677.5 524.04ZM748.5 527.207L744.158 529.686L748.5 537.292L752.842 529.686L748.5 527.207ZM820.5 525.546L816.277 528.222L820.5 534.885L824.723 528.222L820.5 525.546ZM892 526.354L887.717 528.935L892 536.042L896.283 528.935L892 526.354ZM963 524.775L958.836 527.544L963 533.806L967.164 527.544L963 524.775ZM963 571.225L967.164 568.456L963 562.194L958.836 568.456L963 571.225ZM892 569.646L896.283 567.065L892 559.958L887.717 567.065L892 569.646ZM820.5 570.454L824.723 567.778L820.5 561.115L816.277 567.778L820.5 570.454ZM748.5 568.793L752.842 566.314L748.5 558.708L744.158 566.314L748.5 568.793ZM677.5 571.96L681.604 569.104L677.5 563.205L673.396 569.104L677.5 571.96ZM606.5 568.793L610.842 566.314L606.5 558.708L602.158 566.314L606.5 568.793ZM502 595C517.649 595 531.51 587.347 540.045 575.602L531.955 569.724C525.221 578.991 514.313 585 502 585V595ZM455 548C455 573.957 476.043 595 502 595V585C481.565 585 465 568.435 465 548H455ZM502 501C476.043 501 455 522.043 455 548H465C465 527.565 481.565 511 502 511V501ZM540.045 520.398C531.51 508.653 517.649 501 502 501V511C514.313 511 525.221 517.009 531.955 526.276L540.045 520.398ZM570 501C554.351 501 540.49 508.653 531.955 520.398L540.045 526.276C546.779 517.009 557.687 511 570 511V501ZM610.842 524.728C602.757 510.565 587.498 501 570 501V511C583.764 511 595.779 518.513 602.158 529.686L610.842 524.728ZM643 501C625.502 501 610.243 510.565 602.158 524.728L610.842 529.686C617.221 518.513 629.236 511 643 511V501ZM681.604 521.185C673.123 508.995 658.996 501 643 501V511C655.585 511 666.704 517.278 673.396 526.896L681.604 521.185ZM712 501C696.004 501 681.877 508.995 673.396 521.185L681.604 526.896C688.296 517.278 699.415 511 712 511V501ZM752.842 524.728C744.757 510.565 729.498 501 712 501V511C725.764 511 737.779 518.513 744.158 529.686L752.842 524.728ZM785 501C767.502 501 752.243 510.565 744.158 524.728L752.842 529.686C759.221 518.513 771.236 511 785 511V501ZM824.723 522.869C816.399 509.736 801.721 501 785 501V511C798.154 511 809.709 517.861 816.277 528.222L824.723 522.869ZM856 501C839.279 501 824.601 509.736 816.277 522.869L824.723 528.222C831.291 517.861 842.846 511 856 511V501ZM896.283 523.774C888.066 510.138 873.103 501 856 501V511C869.453 511 881.235 518.177 887.717 528.935L896.283 523.774ZM896.283 528.935C902.765 518.177 914.547 511 928 511V501C910.897 501 895.934 510.138 887.717 523.774L896.283 528.935ZM928 511C940.865 511 952.199 517.562 958.836 527.544L967.164 522.007C958.752 509.356 944.353 501 928 501V511ZM998 501C981.647 501 967.248 509.356 958.836 522.007L967.164 527.544C973.801 517.562 985.135 511 998 511V501ZM1045 548C1045 522.043 1023.96 501 998 501V511C1018.43 511 1035 527.565 1035 548H1045ZM998 595C1023.96 595 1045 573.957 1045 548H1035C1035 568.435 1018.43 585 998 585V595ZM958.836 573.993C967.248 586.644 981.647 595 998 595V585C985.135 585 973.801 578.438 967.164 568.456L958.836 573.993ZM958.836 568.456C952.199 578.438 940.865 585 928 585V595C944.353 595 958.752 586.644 967.164 573.993L958.836 568.456ZM928 585C914.547 585 902.765 577.823 896.283 567.065L887.717 572.226C895.934 585.862 910.897 595 928 595V585ZM856 595C873.103 595 888.066 585.862 896.283 572.226L887.717 567.065C881.235 577.823 869.453 585 856 585V595ZM816.277 573.131C824.601 586.264 839.279 595 856 595V585C842.846 585 831.291 578.139 824.723 567.778L816.277 573.131ZM785 595C801.721 595 816.399 586.264 824.723 573.131L816.277 567.778C809.709 578.139 798.154 585 785 585V595ZM744.158 571.272C752.243 585.435 767.502 595 785 595V585C771.236 585 759.221 577.487 752.842 566.314L744.158 571.272ZM712 595C729.498 595 744.757 585.435 752.842 571.272L744.158 566.314C737.779 577.487 725.764 585 712 585V595ZM673.396 574.815C681.877 587.005 696.004 595 712 595V585C699.415 585 688.296 578.722 681.604 569.104L673.396 574.815ZM643 595C658.996 595 673.123 587.005 681.604 574.815L673.396 569.104C666.704 578.722 655.585 585 643 585V595ZM602.158 571.272C610.243 585.435 625.502 595 643 595V585C629.236 585 617.221 577.487 610.842 566.314L602.158 571.272ZM570 595C587.498 595 602.757 585.435 610.842 571.272L602.158 566.314C595.779 577.487 583.764 585 570 585V595ZM531.955 575.602C540.49 587.347 554.351 595 570 595V585C557.687 585 546.779 578.991 540.045 569.724L531.955 575.602Z" fill="black" mask="url(#path-2-inside-1_43_2538)"/>
<path d="M504.416 565.32H499.088V535.56H488V531H515.504V535.56H504.416V565.32Z" fill="black"/>
<path d="M787.416 565.32H782.088V535.56H771V531H798.504V535.56H787.416V565.32Z" fill="black"/>
<path d="M642.456 565.664C632.568 565.664 627 558.176 627 547.808C627 537.488 633.288 530 643.08 530C651.96 530 656.664 534.752 657.768 541.28H652.248C651.336 536.96 648.12 534.56 643.032 534.56C635.448 534.56 632.52 541.376 632.52 547.808C632.52 554.288 634.728 561.104 642.744 561.104C648.408 561.104 652.92 557.168 652.968 551.456H642.84V547.04H658.344V564.992H654.696L653.4 560.24H653.304C650.904 563.744 647.688 565.664 642.456 565.664Z" fill="black"/>
<path d="M724.768 565.32H700V531H724.288V535.56H705.28V545.304H721.936V549.864H705.28V560.76H724.768V565.32Z" fill="black"/>
<path d="M940.768 565.32H916V531H940.288V535.56H921.28V545.304H937.936V549.864H921.28V560.76H940.768V565.32Z" fill="black"/>
<path d="M990.28 565.32H985V531H999.304C1006.89 531 1010.97 534.552 1010.97 540.888C1010.97 545.256 1008.33 548.424 1004.54 549.288V549.384C1012.5 550.872 1009.58 564.408 1011.45 564.984V565.32H1005.78C1004.25 563.88 1007.51 551.88 999.112 551.88H990.28V565.32ZM990.28 547.32H998.152C1003 547.32 1005.64 545.208 1005.64 541.272C1005.64 537.576 1003.53 535.56 998.248 535.56H990.28V547.32Z" fill="black"/>
<path d="M847.28 565.32H842V531H847.28V545.352H864.128V531H869.456V565.32H864.128V549.912H847.28V565.32Z" fill="black"/>
<path d="M569.848 565.664C559.576 565.664 553 558.128 553 547.808C553 537.488 559.576 530 569.848 530C580.12 530 586.696 537.488 586.696 547.808C586.696 558.128 580.12 565.664 569.848 565.664ZM569.848 561.104C577.96 561.104 581.176 554.864 581.176 547.808C581.176 540.752 577.96 534.56 569.848 534.56C561.736 534.56 558.52 540.752 558.52 547.808C558.52 554.864 561.736 561.104 569.848 561.104Z" fill="black"/>
<path d="M1069.79 82.5498C1071.76 79.486 1076.24 79.486 1078.21 82.5498L1088.29 98.2455C1088.97 99.2997 1090.01 100.061 1091.23 100.379L1109.27 105.117C1112.79 106.042 1114.17 110.301 1111.87 113.119L1100.06 127.558C1099.26 128.527 1098.86 129.759 1098.93 131.01L1100 149.634C1100.21 153.269 1096.59 155.902 1093.2 154.58L1075.82 147.807C1074.65 147.352 1073.35 147.352 1072.18 147.807L1054.8 154.58C1051.41 155.902 1047.79 153.269 1048 149.634L1049.07 131.01C1049.14 129.759 1048.74 128.527 1047.94 127.558L1036.13 113.119C1033.83 110.301 1035.21 106.042 1038.73 105.117L1056.77 100.379C1057.99 100.061 1059.03 99.2997 1059.71 98.2455L1069.79 82.5498Z" fill="#F4F2E3"/>
<path d="M237 90L238.584 102.416L251 104L238.584 105.584L237 118L235.416 105.584L223 104L235.416 102.416L237 90Z" fill="#F4F2E3"/>
<path d="M915 630L916.584 642.416L929 644L916.584 645.584L915 658L913.416 645.584L901 644L913.416 642.416L915 630Z" fill="#F4F2E3"/>
<path d="M232.016 490.552C232.313 488.222 235.687 488.222 235.984 490.552L238.895 513.374C239.011 514.278 239.722 514.989 240.626 515.105L263.448 518.016C265.778 518.313 265.778 521.687 263.448 521.984L240.626 524.895C239.722 525.011 239.011 525.722 238.895 526.626L235.984 549.448C235.687 551.778 232.313 551.778 232.016 549.448L229.105 526.626C228.989 525.722 228.278 525.011 227.374 524.895L204.552 521.984C202.222 521.687 202.222 518.313 204.552 518.016L227.374 515.105C228.278 514.989 228.989 514.278 229.105 513.374L232.016 490.552Z" fill="#F4F2E3"/>
<path d="M752.793 711.55C754.761 708.486 759.239 708.486 761.207 711.55L771.288 727.246C771.965 728.3 773.014 729.061 774.225 729.379L792.268 734.117C795.79 735.042 797.174 739.301 794.868 742.119L783.056 756.558C782.263 757.527 781.862 758.759 781.934 760.01L783.004 778.634C783.213 782.269 779.59 784.902 776.197 783.58L758.815 776.807C757.648 776.352 756.352 776.352 755.185 776.807L737.803 783.58C734.41 784.902 730.787 782.269 730.996 778.634L732.066 760.01C732.138 758.759 731.737 757.527 730.944 756.558L719.132 742.119C716.826 739.301 718.21 735.042 721.732 734.117L739.775 729.379C740.986 729.061 742.035 728.3 742.712 727.246L752.793 711.55Z" fill="#F4F2E3"/>
<path d="M134.793 255.55C136.761 252.486 141.239 252.486 143.207 255.55L153.288 271.246C153.965 272.3 155.014 273.061 156.225 273.379L174.268 278.117C177.79 279.042 179.174 283.301 176.868 286.119L165.056 300.558C164.263 301.527 163.862 302.759 163.934 304.01L165.004 322.634C165.213 326.269 161.59 328.902 158.197 327.58L140.815 320.807C139.648 320.352 138.352 320.352 137.185 320.807L119.803 327.58C116.41 328.902 112.787 326.269 112.996 322.634L114.066 304.01C114.138 302.759 113.737 301.527 112.944 300.558L101.132 286.119C98.8259 283.301 100.21 279.042 103.732 278.117L121.775 273.379C122.986 273.061 124.035 272.3 124.712 271.246L134.793 255.55Z" fill="#F4F2E3"/>
<path d="M1141.48 320L1142.1 321.925H1144.12L1142.49 323.115L1143.11 325.04L1141.48 323.85L1139.84 325.04L1140.46 323.115L1138.83 321.925H1140.85L1141.48 320Z" fill="white"/>
<path d="M1141.48 347.96L1142.1 349.885H1144.12L1142.49 351.075L1143.11 353L1141.48 351.81L1139.84 353L1140.46 351.075L1138.83 349.885H1140.85L1141.48 347.96Z" fill="white"/>
<path d="M1155.35 333.831L1155.98 335.756H1158L1156.36 336.946L1156.99 338.871L1155.35 337.681L1153.71 338.871L1154.34 336.946L1152.7 335.756H1154.73L1155.35 333.831Z" fill="white"/>
<path d="M1151.57 324.577L1152.2 326.502H1154.22L1152.58 327.692L1153.21 329.617L1151.57 328.427L1149.93 329.617L1150.56 327.692L1148.92 326.502H1150.95L1151.57 324.577Z" fill="white"/>
<path d="M1131.38 324.577L1132 326.502H1134.03L1132.39 327.692L1133.02 329.617L1131.38 328.427L1129.74 329.617L1130.37 327.692L1128.73 326.502H1130.75L1131.38 324.577Z" fill="white"/>
<path d="M1151.57 343.98L1152.2 345.905H1154.22L1152.58 347.095L1153.21 349.02L1151.57 347.83L1149.93 349.02L1150.56 347.095L1148.92 345.905H1150.95L1151.57 343.98Z" fill="white"/>
<path d="M1131.38 343.98L1132 345.905H1134.03L1132.39 347.095L1133.02 349.02L1131.38 347.83L1129.74 349.02L1130.37 347.095L1128.73 345.905H1130.75L1131.38 343.98Z" fill="white"/>
<path d="M1127.65 333.831L1128.27 335.756H1130.3L1128.66 336.946L1129.29 338.871L1127.65 337.681L1126.01 338.871L1126.64 336.946L1125 335.756H1127.02L1127.65 333.831Z" fill="white"/>
<path d="M85.4751 123L86.1004 124.925H88.124L86.4869 126.115L87.1122 128.04L85.4751 126.85L83.8381 128.04L84.4634 126.115L82.8263 124.925H84.8498L85.4751 123Z" fill="white"/>
<path d="M85.4751 150.96L86.1004 152.885H88.124L86.4869 154.075L87.1122 156L85.4751 154.81L83.8381 156L84.4634 154.075L82.8263 152.885H84.8498L85.4751 150.96Z" fill="white"/>
<path d="M99.3512 136.831L99.9765 138.756H102L100.363 139.946L100.988 141.871L99.3512 140.681L97.7141 141.871L98.3394 139.946L96.7023 138.756H98.7259L99.3512 136.831Z" fill="white"/>
<path d="M95.5713 127.577L96.1966 129.502H98.2201L96.5831 130.692L97.2084 132.617L95.5713 131.427L93.9342 132.617L94.5595 130.692L92.9225 129.502H94.946L95.5713 127.577Z" fill="white"/>
<path d="M75.379 127.577L76.0043 129.502H78.0278L76.3907 130.692L77.016 132.617L75.379 131.427L73.7419 132.617L74.3672 130.692L72.7301 129.502H74.7536L75.379 127.577Z" fill="white"/>
<path d="M95.5713 146.98L96.1966 148.905H98.2201L96.5831 150.095L97.2084 152.02L95.5713 150.83L93.9342 152.02L94.5595 150.095L92.9225 148.905H94.946L95.5713 146.98Z" fill="white"/>
<path d="M75.379 146.98L76.0043 148.905H78.0278L76.3907 150.095L77.016 152.02L75.379 150.83L73.7419 152.02L74.3672 150.095L72.7301 148.905H74.7536L75.379 146.98Z" fill="white"/>
<path d="M71.6488 136.831L72.2741 138.756H74.2977L72.6606 139.946L73.2859 141.871L71.6488 140.681L70.0118 141.871L70.6371 139.946L69 138.756H71.0235L71.6488 136.831Z" fill="white"/>
<path d="M849.475 78L850.1 79.9251H852.124L850.487 81.1149L851.112 83.04L849.475 81.8502L847.838 83.04L848.463 81.1149L846.826 79.9251H848.85L849.475 78Z" fill="white"/>
<path d="M849.475 105.96L850.1 107.885H852.124L850.487 109.075L851.112 111L849.475 109.81L847.838 111L848.463 109.075L846.826 107.885H848.85L849.475 105.96Z" fill="white"/>
<path d="M863.351 91.8307L863.976 93.7559H866L864.363 94.9456L864.988 96.8708L863.351 95.681L861.714 96.8708L862.339 94.9456L860.702 93.7559H862.726L863.351 91.8307Z" fill="white"/>
<path d="M859.571 82.5771L860.197 84.5022H862.22L860.583 85.692L861.208 87.6171L859.571 86.4273L857.934 87.6171L858.56 85.692L856.922 84.5022H858.946L859.571 82.5771Z" fill="white"/>
<path d="M839.379 82.5771L840.004 84.5022H842.028L840.391 85.692L841.016 87.6171L839.379 86.4273L837.742 87.6171L838.367 85.692L836.73 84.5022H838.754L839.379 82.5771Z" fill="white"/>
<path d="M859.571 101.98L860.197 103.905H862.22L860.583 105.095L861.208 107.02L859.571 105.83L857.934 107.02L858.56 105.095L856.922 103.905H858.946L859.571 101.98Z" fill="white"/>
<path d="M839.379 101.98L840.004 103.905H842.028L840.391 105.095L841.016 107.02L839.379 105.83L837.742 107.02L838.367 105.095L836.73 103.905H838.754L839.379 101.98Z" fill="white"/>
<path d="M835.649 91.8307L836.274 93.7559H838.298L836.661 94.9456L837.286 96.8708L835.649 95.681L834.012 96.8708L834.637 94.9456L833 93.7559H835.024L835.649 91.8307Z" fill="white"/>
<path d="M295.475 114L296.1 115.925H298.124L296.487 117.115L297.112 119.04L295.475 117.85L293.838 119.04L294.463 117.115L292.826 115.925H294.85L295.475 114Z" fill="white"/>
<path d="M295.475 141.96L296.1 143.885H298.124L296.487 145.075L297.112 147L295.475 145.81L293.838 147L294.463 145.075L292.826 143.885H294.85L295.475 141.96Z" fill="white"/>
<path d="M309.351 127.831L309.976 129.756H312L310.363 130.946L310.988 132.871L309.351 131.681L307.714 132.871L308.339 130.946L306.702 129.756H308.726L309.351 127.831Z" fill="white"/>
<path d="M305.571 118.577L306.197 120.502H308.22L306.583 121.692L307.208 123.617L305.571 122.427L303.934 123.617L304.56 121.692L302.922 120.502H304.946L305.571 118.577Z" fill="white"/>
<path d="M285.379 118.577L286.004 120.502H288.028L286.391 121.692L287.016 123.617L285.379 122.427L283.742 123.617L284.367 121.692L282.73 120.502H284.754L285.379 118.577Z" fill="white"/>
<path d="M305.571 137.98L306.197 139.905H308.22L306.583 141.095L307.208 143.02L305.571 141.83L303.934 143.02L304.56 141.095L302.922 139.905H304.946L305.571 137.98Z" fill="white"/>
<path d="M285.379 137.98L286.004 139.905H288.028L286.391 141.095L287.016 143.02L285.379 141.83L283.742 143.02L284.367 141.095L282.73 139.905H284.754L285.379 137.98Z" fill="white"/>
<path d="M281.649 127.831L282.274 129.756H284.298L282.661 130.946L283.286 132.871L281.649 131.681L280.012 132.871L280.637 130.946L279 129.756H281.024L281.649 127.831Z" fill="white"/>
<path d="M503.475 675L504.1 676.925H506.124L504.487 678.115L505.112 680.04L503.475 678.85L501.838 680.04L502.463 678.115L500.826 676.925H502.85L503.475 675Z" fill="white"/>
<path d="M503.475 702.96L504.1 704.885H506.124L504.487 706.075L505.112 708L503.475 706.81L501.838 708L502.463 706.075L500.826 704.885H502.85L503.475 702.96Z" fill="white"/>
<path d="M517.351 688.831L517.976 690.756H520L518.363 691.946L518.988 693.871L517.351 692.681L515.714 693.871L516.339 691.946L514.702 690.756H516.726L517.351 688.831Z" fill="white"/>
<path d="M513.571 679.577L514.197 681.502H516.22L514.583 682.692L515.208 684.617L513.571 683.427L511.934 684.617L512.56 682.692L510.922 681.502H512.946L513.571 679.577Z" fill="white"/>
<path d="M493.379 679.577L494.004 681.502H496.028L494.391 682.692L495.016 684.617L493.379 683.427L491.742 684.617L492.367 682.692L490.73 681.502H492.754L493.379 679.577Z" fill="white"/>
<path d="M513.571 698.98L514.197 700.905H516.22L514.583 702.095L515.208 704.02L513.571 702.83L511.934 704.02L512.56 702.095L510.922 700.905H512.946L513.571 698.98Z" fill="white"/>
<path d="M493.379 698.98L494.004 700.905H496.028L494.391 702.095L495.016 704.02L493.379 702.83L491.742 704.02L492.367 702.095L490.73 700.905H492.754L493.379 698.98Z" fill="white"/>
<path d="M489.649 688.831L490.274 690.756H492.298L490.661 691.946L491.286 693.871L489.649 692.681L488.012 693.871L488.637 691.946L487 690.756H489.024L489.649 688.831Z" fill="white"/>
<circle cx="227.5" cy="166.5" r="13.5" fill="#F4F2E3"/>
<circle cx="928.5" cy="136.5" r="13.5" fill="#F4F2E3"/>
<path d="M1170 249L1171.58 261.416L1184 263L1171.58 264.584L1170 277L1168.42 264.584L1156 263L1168.42 261.416L1170 249Z" fill="#F4F2E3"/>
<circle cx="1209.5" cy="322.5" r="13.5" fill="#F4F2E3"/>
<circle cx="879.5" cy="704.5" r="13.5" fill="#F4F2E3"/>
<rect x="469.5" y="150.5" width="174" height="71" rx="35.5" fill="#FFC875" stroke="#050505" stroke-width="5"/>
<path d="M531.733 203H506.757V165.166H512.578V197.973H531.733V203ZM558.786 188.925C558.786 189.665 558.786 190.459 558.733 190.882H537.99C538.096 195.38 540.742 199.561 546.086 199.561C550.848 199.561 552.7 196.491 553.177 194.692H558.468C557.039 199.878 553.071 203.794 545.98 203.794C537.408 203.794 532.646 197.708 532.646 189.454C532.646 180.987 537.725 175.167 545.98 175.167C554.182 175.167 558.786 180.564 558.786 188.925ZM537.99 186.808H553.388C553.388 182.575 550.425 179.4 545.821 179.4C541.482 179.4 538.308 182.363 537.99 186.808ZM572.701 199.031C573.6 199.031 574.024 198.978 574.923 198.82V203C573.6 203.265 572.754 203.317 571.642 203.317C567.198 203.317 564.499 201.624 564.499 195.38V180.299H560.583V176.013H564.499V167.335H569.685V176.013H574.87V180.299H569.685V195.539C569.685 198.396 570.478 199.031 572.701 199.031ZM578.709 178.13V175.22C580.614 174.69 581.461 173.632 581.461 170.933H578.709V165.166H584.424V170.933C584.424 174.373 582.942 177.072 578.709 178.13ZM597.624 203.741C589.422 203.741 585.348 199.508 585.189 194.004H590.428C590.639 197.126 592.544 199.561 597.571 199.561C602.122 199.561 603.339 197.55 603.339 195.592C603.339 192.205 599.741 191.835 596.248 191.094C591.539 189.983 586.142 188.607 586.142 182.998C586.142 178.342 589.898 175.22 596.407 175.22C603.815 175.22 607.36 179.188 607.731 183.845H602.492C602.122 181.781 601.011 179.4 596.513 179.4C593.02 179.4 591.539 180.776 591.539 182.786C591.539 185.591 594.555 185.856 598.365 186.702C603.339 187.866 608.736 189.295 608.736 195.327C608.736 200.566 604.715 203.741 597.624 203.741Z" fill="#050505"/>
<path d="M1087.04 564.882C1168.07 466.549 1268 532.522 1268 578C1268 915.99 1268 930 1268 930H-0.000862855C0 899.5 -0.0128164 930 -0.000101823 590C15.5 530 104.615 534.887 128.403 536.253C197.401 540.212 235.391 615.313 236.065 639.814C236.092 640.794 237.483 641.442 238.249 640.829C258.29 624.812 332.444 610.725 388.422 673.431C446.886 738.923 428.585 796.292 407.232 819.139C429.601 799.846 478.247 790.2 517.553 806.954C557.768 824.095 574.464 850.288 582.308 878.935C582.569 879.886 583.944 879.962 584.324 879.052C601.57 837.653 656.568 811.523 701.837 815.068C783.545 821.466 802.77 871.121 804.688 894.974C804.785 896.182 808.283 897.093 808.874 896.034C818.383 879.014 842.574 847.431 900.047 847.431C948.002 847.431 978.138 881.847 991.417 899.183C992.13 900.114 993.593 899.313 993.155 898.226C980.729 867.432 960.368 813.663 986.289 762.785C1015.78 704.908 1072.72 688.069 1087.04 695.769C1070.83 687.056 1030.74 633.205 1087.04 564.882Z" fill="#F4F2E3"/>
<path d="M1251.6 538.435C1262.43 549.471 1268.5 560 1268 578L1264.02 566C1262.02 558.5 1259.14 551.822 1248.74 541.237C1238.38 530.686 1223.71 521.742 1206.53 517.201C1172.31 508.154 1127.93 516.539 1087.93 565.153C1060.18 598.889 1056.33 628.819 1061.2 651.256C1063.64 662.517 1068.28 671.957 1073.3 679.102C1078.34 686.286 1083.66 691.026 1087.34 693.009L1085.44 696.531C1082.48 694.938 1076.82 694.443 1069.13 695.822C1061.56 697.181 1052.39 700.295 1042.71 705.452C1023.36 715.76 1002.1 734.155 987.578 762.692C962.154 812.671 982.07 865.613 994.506 896.479C995.158 898.099 994.328 899.582 993.178 900.214C992.04 900.84 990.368 900.76 989.327 899.399C976.115 882.124 946.549 848.431 899.684 848.431C843.247 848.431 819.661 879.4 810.397 896.009C809.765 897.141 808.589 897.408 807.976 897.474C807.262 897.551 806.518 897.456 805.877 897.291C805.233 897.126 804.542 896.851 803.954 896.451C803.454 896.11 802.575 895.363 802.476 894.134C801.549 882.583 796.418 864.658 781.542 848.847C766.699 833.07 741.997 819.229 701.619 816.063C679.435 814.323 654.779 819.869 633.543 830.979C612.299 842.093 594.67 858.669 586.287 878.821C585.198 881.438 581.276 881.304 580.499 878.463C572.808 850.331 556.512 824.667 516.986 807.794C497.754 799.584 476.175 797.822 456.626 800.511C437.048 803.204 419.721 810.328 408.926 819.653L406.156 816.775C426.737 794.72 445.066 738.521 387.344 673.762C359.768 642.825 327.776 630.878 300.244 628.603C272.581 626.316 249.63 633.797 240.142 641.391C238.988 642.315 237.582 642.153 236.68 641.732C235.777 641.311 234.752 640.341 234.712 638.869C234.554 633.124 232.174 624.116 227.494 613.671C222.834 603.275 215.967 591.618 206.994 580.594C189.032 558.527 162.798 539.187 129.098 537.25C75.4734 534.168 43.4599 545.223 25.1506 557.906C15.9891 564.253 10.4218 570.886 7.01649 576.5C5.5 579 4 580.5 0 588.5C1.5 581 0.5 584.5 2 580.5C2 580.5 4.19449 574.585 6.01605 571.5C9.66315 565.324 13.2608 561.277 22.8729 554.618C42.1111 541.292 75.0823 530.139 129.327 533.257C164.521 535.28 191.7 555.469 210.096 578.068C219.301 589.377 226.349 601.336 231.144 612.036C235.617 622.017 238.194 631.047 238.648 637.497C249.645 629.391 273.109 622.346 300.573 624.616C329.038 626.969 362.013 639.332 390.33 671.101C442.072 729.151 434.461 781.295 416.937 809.205C427.723 803.045 441.373 798.571 456.081 796.548C476.213 793.779 498.543 795.572 518.557 804.115C558.159 821.021 575.378 846.707 583.642 874.882C592.838 854.74 610.699 838.416 631.688 827.435C653.514 816.016 678.915 810.27 701.932 812.075C743.137 815.306 768.826 829.492 784.455 846.106C799.819 862.436 805.312 880.951 806.416 893.259C806.431 893.266 806.447 893.273 806.464 893.28C806.516 893.302 806.571 893.323 806.628 893.343C806.706 893.371 806.788 893.395 806.872 893.417C806.997 893.449 807.117 893.472 807.227 893.485C817.17 875.931 841.987 844.431 899.684 844.431C943.945 844.431 973.227 873.222 988.251 891.585C975.884 860.055 959.412 809.238 984.013 760.878C998.938 731.539 1020.82 712.576 1040.83 701.921C1050.83 696.596 1060.39 693.327 1068.43 691.885C1071.95 691.253 1075.25 690.959 1078.2 691.026C1075.51 688.455 1072.7 685.217 1070.02 681.4C1064.73 673.862 1059.85 663.935 1057.29 652.104C1052.14 628.356 1056.39 597.198 1084.85 562.612C1125.75 512.894 1171.69 503.854 1207.55 513.334C1225.42 518.057 1240.73 527.366 1251.6 538.435Z" fill="black"/>
<mask id="path-32-outside-2_43_2538" maskUnits="userSpaceOnUse" x="462" y="237" width="411" height="173" fill="black">
<rect fill="white" x="462" y="237" width="411" height="173"/>
<path d="M583.448 292.178C578.797 295.249 574.603 298.505 570.866 301.946C567.129 305.387 563.552 308.977 560.137 312.718C556.843 316.392 553.63 320.14 550.497 323.963C547.364 327.786 544.123 331.63 540.775 335.493C538.669 337.865 536.572 339.313 534.485 339.837C532.52 340.293 529.89 340.04 526.597 339.078C523.895 338.186 521.861 336.923 520.493 335.287C519.126 333.652 518.21 331.685 517.747 329.386C517.101 324.872 516.489 320.419 515.91 316.026C515.453 311.567 515.103 307.087 514.862 302.587C514.595 297.462 514.216 293.798 513.724 291.595C513.355 289.324 512.772 288.329 511.978 288.612C511.21 288.8 510.271 290.123 509.161 292.579C508.171 294.969 507.031 298.241 505.74 302.396C502.822 310.814 500.657 319.452 499.244 328.31C497.952 337.1 496.755 345.917 495.652 354.762C495.432 356.243 495.138 357.805 494.77 359.449C494.429 360.997 494.068 362.437 493.687 363.768C492.819 366.089 491.528 367.927 489.816 369.281C488.103 370.635 485.887 371.43 483.169 371.666C480.356 371.875 478.057 371.358 476.272 370.116C474.459 368.968 473.017 367.414 471.947 365.454C470.849 363.588 470.055 361.554 469.564 359.35C469.073 357.147 468.776 355.155 468.674 353.374C467.941 346.67 467.806 340.193 468.269 333.942C468.853 327.624 469.626 321.36 470.586 315.152C472.38 304.963 474.987 294.961 478.407 285.144C481.921 275.355 486.523 266.399 492.212 258.274C495.793 253.243 499.658 249.531 503.81 247.138C508.082 244.677 512.195 243.664 516.15 244.097C520.104 244.531 523.683 246.452 526.888 249.86C530.188 253.295 532.668 258.346 534.33 265.011C537.023 277.334 538.81 289.083 539.691 300.259C544.644 295.422 549.724 290.673 554.931 286.014C560.166 281.259 565.594 277.076 571.215 273.465C576.958 269.785 582.933 266.895 589.142 264.794C595.351 262.693 601.919 261.83 608.847 262.205C613.756 262.505 617.957 263.681 621.449 265.73C625.035 267.808 627.839 270.48 629.86 273.749C632.003 276.949 633.358 280.59 633.924 284.669C634.49 288.748 634.282 292.859 633.301 297.002C631.489 304.404 629.153 311.499 626.294 318.286C623.529 325.101 620.636 331.827 617.615 338.464C614.716 345.033 611.831 351.555 608.959 358.03C606.181 364.532 603.813 371.205 601.854 378.05C601.283 380.046 600.651 382.076 599.959 384.14C599.267 386.204 598.413 388.117 597.399 389.881C595.64 393.179 593.291 395.686 590.353 397.403C587.481 399.243 583.874 399.734 579.531 398.878C575.376 398.077 572.408 396.335 570.627 393.651C568.819 391.063 567.711 388.165 567.304 384.956C566.923 381.652 566.961 378.315 567.415 374.945C567.99 371.508 568.51 368.622 568.975 366.285C570.203 360.567 571.868 354.924 573.971 349.358C576.167 343.819 578.518 338.274 581.024 332.723C583.624 327.199 586.211 321.723 588.783 316.294C591.478 310.797 594.003 305.355 596.361 299.966C597.973 296.111 598.877 293.13 599.072 291.024C599.267 288.918 598.766 287.638 597.57 287.186C596.495 286.666 594.752 286.878 592.341 287.822C589.957 288.671 586.993 290.123 583.448 292.178Z"/>
<path d="M645.626 322.805C646.178 314.205 646.929 305.411 647.879 296.422C648.49 289.902 650.896 284.306 655.098 279.635C657.198 277.3 659.433 275.66 661.802 274.715C664.27 273.673 666.676 273.372 669.019 273.813C671.362 274.253 673.546 275.334 675.571 277.054C677.598 278.676 679.172 280.982 680.292 283.973C681.602 287.264 682.274 290.641 682.308 294.106C682.341 297.57 682.081 301.029 681.527 304.483C680.059 314.946 678.642 325.311 677.276 335.578C675.91 345.845 674.592 356.162 673.321 366.53C672.775 369.587 672.424 372.649 672.269 375.714C672.214 378.682 672.061 381.648 671.81 384.612C671.685 386.095 671.559 387.577 671.434 389.059C671.31 390.442 671.088 391.823 670.769 393.203C670.219 396.459 668.947 399.008 666.953 400.85C664.958 402.792 662.538 403.835 659.695 403.979C657.145 404.128 654.757 403.489 652.53 402.061C650.401 400.636 648.874 398.479 647.948 395.591C647.21 393.103 646.622 390.518 646.182 387.838C645.742 385.157 645.35 382.527 645.006 379.948C644.403 375.483 644.048 370.824 643.943 365.973C643.837 361.121 643.878 356.273 644.066 351.427C644.256 346.482 644.493 341.587 644.779 336.743C645.163 331.901 645.445 327.255 645.626 322.805Z"/>
<path d="M727.156 365.746C729.778 365.14 732.592 364.427 735.597 363.607C738.602 362.787 741.607 361.967 744.612 361.147C747.613 360.228 750.569 359.41 753.48 358.693C756.388 357.877 759.054 357.17 761.48 356.572C763.234 356.3 764.987 356.028 766.74 355.756C768.591 355.48 770.355 355.455 772.031 355.681C775.464 355.734 778.406 356.947 780.857 359.32C783.406 361.688 784.992 364.493 785.617 367.735C786.461 371.562 786.217 375.138 784.884 378.462C783.649 381.783 781.351 384.306 777.991 386.033C776.365 386.993 774.632 387.759 772.793 388.332C770.954 388.905 769.158 389.327 767.404 389.599C760.379 390.391 753.518 391.621 746.823 393.29C740.124 394.86 733.488 396.775 726.915 399.033C720.134 401.003 714.473 400.4 709.93 397.224C705.387 394.049 702.418 388.628 701.023 380.962C700.88 379.878 700.737 378.795 700.594 377.711C700.447 376.529 700.351 375.394 700.306 374.307C700 366.892 699.724 359.03 699.478 350.721C699.229 342.313 698.932 333.957 698.589 325.652C698.343 317.344 698.01 309.286 697.589 301.48C697.266 293.669 696.874 286.555 696.413 280.137C696.388 277.167 696.969 274.617 698.155 272.487C699.337 270.258 700.882 268.51 702.791 267.241C704.797 265.967 706.972 265.232 709.316 265.034C711.657 264.737 713.926 265.087 716.124 266.084C718.416 266.977 720.491 268.573 722.351 270.872C724.211 273.17 725.61 276.181 726.548 279.905C727.486 283.629 728.112 288.109 728.427 293.345C728.835 298.477 729.009 303.868 728.949 309.515C728.986 315.159 728.88 320.908 728.632 326.761C728.478 332.512 728.262 337.968 727.986 343.13C727.705 348.193 727.451 352.71 727.223 356.681C727.093 360.648 727.07 363.67 727.156 365.746Z"/>
<path d="M817.722 332.402C817.911 333.373 818.167 334.936 818.489 337.09C818.791 339.148 819.151 341.497 819.568 344.137C819.965 346.68 820.391 349.369 820.846 352.204C821.377 354.922 821.977 357.475 822.643 359.863C825.43 359.307 828.063 358.731 830.542 358.135C833.099 357.423 835.568 356.779 837.952 356.202C840.431 355.607 842.929 355.108 845.447 354.706C847.945 354.207 850.625 353.874 853.488 353.706C857.234 353.463 860.238 354.527 862.499 356.9C864.856 359.254 866.291 361.993 866.802 365.119C867.238 367.856 866.954 370.233 865.95 372.249C865.024 374.148 863.685 375.727 861.934 376.984C860.203 378.339 858.212 379.392 855.963 380.143C853.714 380.895 851.532 381.482 849.418 381.904C842.27 383.129 835.207 384.539 828.231 386.133C821.273 387.825 814.316 389.264 807.36 390.451C804.554 390.91 802.135 390.283 800.103 388.571C798.186 386.936 796.991 384.653 796.517 381.722C796.251 380.363 796.034 378.994 795.864 377.616C795.79 376.218 795.545 374.452 795.127 372.316C794.271 368.452 793.273 363.86 792.133 358.54C791.07 353.104 789.95 347.377 788.772 341.358C787.576 335.242 786.352 328.981 785.098 322.574C783.826 316.07 782.602 309.809 781.424 303.79C780.324 297.655 779.252 291.918 778.208 286.579C777.164 281.24 776.262 276.629 775.502 272.746C775.294 271.678 774.989 270.629 774.588 269.6C774.187 268.57 773.834 267.531 773.529 266.483C772.863 263.59 773.109 261.019 774.267 258.771C775.501 256.406 777.503 254.897 780.27 254.244C787.151 252.668 794.127 251.326 801.198 250.217C808.25 249.011 815.313 247.601 822.386 245.988C824.499 245.566 826.738 245.27 829.101 245.101C831.464 244.932 833.702 245.141 835.813 245.728C837.906 246.218 839.748 247.212 841.338 248.71C843.006 250.092 844.154 252.132 844.782 254.831C845.486 257.918 845.191 261.003 843.896 264.086C842.699 267.149 840.321 269.288 836.765 270.502C834.054 271.447 831.459 272.217 828.98 272.813C826.482 273.311 823.974 273.762 821.457 274.163C819.035 274.546 816.518 274.947 813.905 275.368C811.368 275.673 808.707 276.103 805.92 276.659C806.682 279.533 807.281 282.339 807.716 285.076C808.229 287.697 808.655 290.386 808.995 293.142C809.411 295.783 809.837 298.471 810.273 301.209C810.804 303.927 811.518 306.81 812.414 309.859C817.352 309.075 822.205 308.106 826.971 306.953C831.834 305.781 836.763 304.948 841.758 304.455C844.102 304.189 846.041 304.911 847.574 306.623C849.184 308.218 850.216 310.18 850.672 312.51C851.224 314.821 851.093 317.217 850.281 319.699C849.45 322.084 847.783 324.031 845.283 325.538C844.033 326.292 842.187 327.064 839.745 327.854C837.285 328.547 834.671 329.22 831.904 329.874C829.232 330.508 826.599 331.084 824.005 331.602C821.391 332.022 819.297 332.289 817.722 332.402Z"/>
</mask>
<path d="M583.448 292.178C578.797 295.249 574.603 298.505 570.866 301.946C567.129 305.387 563.552 308.977 560.137 312.718C556.843 316.392 553.63 320.14 550.497 323.963C547.364 327.786 544.123 331.63 540.775 335.493C538.669 337.865 536.572 339.313 534.485 339.837C532.52 340.293 529.89 340.04 526.597 339.078C523.895 338.186 521.861 336.923 520.493 335.287C519.126 333.652 518.21 331.685 517.747 329.386C517.101 324.872 516.489 320.419 515.91 316.026C515.453 311.567 515.103 307.087 514.862 302.587C514.595 297.462 514.216 293.798 513.724 291.595C513.355 289.324 512.772 288.329 511.978 288.612C511.21 288.8 510.271 290.123 509.161 292.579C508.171 294.969 507.031 298.241 505.74 302.396C502.822 310.814 500.657 319.452 499.244 328.31C497.952 337.1 496.755 345.917 495.652 354.762C495.432 356.243 495.138 357.805 494.77 359.449C494.429 360.997 494.068 362.437 493.687 363.768C492.819 366.089 491.528 367.927 489.816 369.281C488.103 370.635 485.887 371.43 483.169 371.666C480.356 371.875 478.057 371.358 476.272 370.116C474.459 368.968 473.017 367.414 471.947 365.454C470.849 363.588 470.055 361.554 469.564 359.35C469.073 357.147 468.776 355.155 468.674 353.374C467.941 346.67 467.806 340.193 468.269 333.942C468.853 327.624 469.626 321.36 470.586 315.152C472.38 304.963 474.987 294.961 478.407 285.144C481.921 275.355 486.523 266.399 492.212 258.274C495.793 253.243 499.658 249.531 503.81 247.138C508.082 244.677 512.195 243.664 516.15 244.097C520.104 244.531 523.683 246.452 526.888 249.86C530.188 253.295 532.668 258.346 534.33 265.011C537.023 277.334 538.81 289.083 539.691 300.259C544.644 295.422 549.724 290.673 554.931 286.014C560.166 281.259 565.594 277.076 571.215 273.465C576.958 269.785 582.933 266.895 589.142 264.794C595.351 262.693 601.919 261.83 608.847 262.205C613.756 262.505 617.957 263.681 621.449 265.73C625.035 267.808 627.839 270.48 629.86 273.749C632.003 276.949 633.358 280.59 633.924 284.669C634.49 288.748 634.282 292.859 633.301 297.002C631.489 304.404 629.153 311.499 626.294 318.286C623.529 325.101 620.636 331.827 617.615 338.464C614.716 345.033 611.831 351.555 608.959 358.03C606.181 364.532 603.813 371.205 601.854 378.05C601.283 380.046 600.651 382.076 599.959 384.14C599.267 386.204 598.413 388.117 597.399 389.881C595.64 393.179 593.291 395.686 590.353 397.403C587.481 399.243 583.874 399.734 579.531 398.878C575.376 398.077 572.408 396.335 570.627 393.651C568.819 391.063 567.711 388.165 567.304 384.956C566.923 381.652 566.961 378.315 567.415 374.945C567.99 371.508 568.51 368.622 568.975 366.285C570.203 360.567 571.868 354.924 573.971 349.358C576.167 343.819 578.518 338.274 581.024 332.723C583.624 327.199 586.211 321.723 588.783 316.294C591.478 310.797 594.003 305.355 596.361 299.966C597.973 296.111 598.877 293.13 599.072 291.024C599.267 288.918 598.766 287.638 597.57 287.186C596.495 286.666 594.752 286.878 592.341 287.822C589.957 288.671 586.993 290.123 583.448 292.178Z" fill="#F4F2E3"/>
<path d="M645.626 322.805C646.178 314.205 646.929 305.411 647.879 296.422C648.49 289.902 650.896 284.306 655.098 279.635C657.198 277.3 659.433 275.66 661.802 274.715C664.27 273.673 666.676 273.372 669.019 273.813C671.362 274.253 673.546 275.334 675.571 277.054C677.598 278.676 679.172 280.982 680.292 283.973C681.602 287.264 682.274 290.641 682.308 294.106C682.341 297.57 682.081 301.029 681.527 304.483C680.059 314.946 678.642 325.311 677.276 335.578C675.91 345.845 674.592 356.162 673.321 366.53C672.775 369.587 672.424 372.649 672.269 375.714C672.214 378.682 672.061 381.648 671.81 384.612C671.685 386.095 671.559 387.577 671.434 389.059C671.31 390.442 671.088 391.823 670.769 393.203C670.219 396.459 668.947 399.008 666.953 400.85C664.958 402.792 662.538 403.835 659.695 403.979C657.145 404.128 654.757 403.489 652.53 402.061C650.401 400.636 648.874 398.479 647.948 395.591C647.21 393.103 646.622 390.518 646.182 387.838C645.742 385.157 645.35 382.527 645.006 379.948C644.403 375.483 644.048 370.824 643.943 365.973C643.837 361.121 643.878 356.273 644.066 351.427C644.256 346.482 644.493 341.587 644.779 336.743C645.163 331.901 645.445 327.255 645.626 322.805Z" fill="#F4F2E3"/>
<path d="M727.156 365.746C729.778 365.14 732.592 364.427 735.597 363.607C738.602 362.787 741.607 361.967 744.612 361.147C747.613 360.228 750.569 359.41 753.48 358.693C756.388 357.877 759.054 357.17 761.48 356.572C763.234 356.3 764.987 356.028 766.74 355.756C768.591 355.48 770.355 355.455 772.031 355.681C775.464 355.734 778.406 356.947 780.857 359.32C783.406 361.688 784.992 364.493 785.617 367.735C786.461 371.562 786.217 375.138 784.884 378.462C783.649 381.783 781.351 384.306 777.991 386.033C776.365 386.993 774.632 387.759 772.793 388.332C770.954 388.905 769.158 389.327 767.404 389.599C760.379 390.391 753.518 391.621 746.823 393.29C740.124 394.86 733.488 396.775 726.915 399.033C720.134 401.003 714.473 400.4 709.93 397.224C705.387 394.049 702.418 388.628 701.023 380.962C700.88 379.878 700.737 378.795 700.594 377.711C700.447 376.529 700.351 375.394 700.306 374.307C700 366.892 699.724 359.03 699.478 350.721C699.229 342.313 698.932 333.957 698.589 325.652C698.343 317.344 698.01 309.286 697.589 301.48C697.266 293.669 696.874 286.555 696.413 280.137C696.388 277.167 696.969 274.617 698.155 272.487C699.337 270.258 700.882 268.51 702.791 267.241C704.797 265.967 706.972 265.232 709.316 265.034C711.657 264.737 713.926 265.087 716.124 266.084C718.416 266.977 720.491 268.573 722.351 270.872C724.211 273.17 725.61 276.181 726.548 279.905C727.486 283.629 728.112 288.109 728.427 293.345C728.835 298.477 729.009 303.868 728.949 309.515C728.986 315.159 728.88 320.908 728.632 326.761C728.478 332.512 728.262 337.968 727.986 343.13C727.705 348.193 727.451 352.71 727.223 356.681C727.093 360.648 727.07 363.67 727.156 365.746Z" fill="#F4F2E3"/>
<path d="M817.722 332.402C817.911 333.373 818.167 334.936 818.489 337.09C818.791 339.148 819.151 341.497 819.568 344.137C819.965 346.68 820.391 349.369 820.846 352.204C821.377 354.922 821.977 357.475 822.643 359.863C825.43 359.307 828.063 358.731 830.542 358.135C833.099 357.423 835.568 356.779 837.952 356.202C840.431 355.607 842.929 355.108 845.447 354.706C847.945 354.207 850.625 353.874 853.488 353.706C857.234 353.463 860.238 354.527 862.499 356.9C864.856 359.254 866.291 361.993 866.802 365.119C867.238 367.856 866.954 370.233 865.95 372.249C865.024 374.148 863.685 375.727 861.934 376.984C860.203 378.339 858.212 379.392 855.963 380.143C853.714 380.895 851.532 381.482 849.418 381.904C842.27 383.129 835.207 384.539 828.231 386.133C821.273 387.825 814.316 389.264 807.36 390.451C804.554 390.91 802.135 390.283 800.103 388.571C798.186 386.936 796.991 384.653 796.517 381.722C796.251 380.363 796.034 378.994 795.864 377.616C795.79 376.218 795.545 374.452 795.127 372.316C794.271 368.452 793.273 363.86 792.133 358.54C791.07 353.104 789.95 347.377 788.772 341.358C787.576 335.242 786.352 328.981 785.098 322.574C783.826 316.07 782.602 309.809 781.424 303.79C780.324 297.655 779.252 291.918 778.208 286.579C777.164 281.24 776.262 276.629 775.502 272.746C775.294 271.678 774.989 270.629 774.588 269.6C774.187 268.57 773.834 267.531 773.529 266.483C772.863 263.59 773.109 261.019 774.267 258.771C775.501 256.406 777.503 254.897 780.27 254.244C787.151 252.668 794.127 251.326 801.198 250.217C808.25 249.011 815.313 247.601 822.386 245.988C824.499 245.566 826.738 245.27 829.101 245.101C831.464 244.932 833.702 245.141 835.813 245.728C837.906 246.218 839.748 247.212 841.338 248.71C843.006 250.092 844.154 252.132 844.782 254.831C845.486 257.918 845.191 261.003 843.896 264.086C842.699 267.149 840.321 269.288 836.765 270.502C834.054 271.447 831.459 272.217 828.98 272.813C826.482 273.311 823.974 273.762 821.457 274.163C819.035 274.546 816.518 274.947 813.905 275.368C811.368 275.673 808.707 276.103 805.92 276.659C806.682 279.533 807.281 282.339 807.716 285.076C808.229 287.697 808.655 290.386 808.995 293.142C809.411 295.783 809.837 298.471 810.273 301.209C810.804 303.927 811.518 306.81 812.414 309.859C817.352 309.075 822.205 308.106 826.971 306.953C831.834 305.781 836.763 304.948 841.758 304.455C844.102 304.189 846.041 304.911 847.574 306.623C849.184 308.218 850.216 310.18 850.672 312.51C851.224 314.821 851.093 317.217 850.281 319.699C849.45 322.084 847.783 324.031 845.283 325.538C844.033 326.292 842.187 327.064 839.745 327.854C837.285 328.547 834.671 329.22 831.904 329.874C829.232 330.508 826.599 331.084 824.005 331.602C821.391 332.022 819.297 332.289 817.722 332.402Z" fill="#F4F2E3"/>
<path d="M583.448 292.178C578.797 295.249 574.603 298.505 570.866 301.946C567.129 305.387 563.552 308.977 560.137 312.718C556.843 316.392 553.63 320.14 550.497 323.963C547.364 327.786 544.123 331.63 540.775 335.493C538.669 337.865 536.572 339.313 534.485 339.837C532.52 340.293 529.89 340.04 526.597 339.078C523.895 338.186 521.861 336.923 520.493 335.287C519.126 333.652 518.21 331.685 517.747 329.386C517.101 324.872 516.489 320.419 515.91 316.026C515.453 311.567 515.103 307.087 514.862 302.587C514.595 297.462 514.216 293.798 513.724 291.595C513.355 289.324 512.772 288.329 511.978 288.612C511.21 288.8 510.271 290.123 509.161 292.579C508.171 294.969 507.031 298.241 505.74 302.396C502.822 310.814 500.657 319.452 499.244 328.31C497.952 337.1 496.755 345.917 495.652 354.762C495.432 356.243 495.138 357.805 494.77 359.449C494.429 360.997 494.068 362.437 493.687 363.768C492.819 366.089 491.528 367.927 489.816 369.281C488.103 370.635 485.887 371.43 483.169 371.666C480.356 371.875 478.057 371.358 476.272 370.116C474.459 368.968 473.017 367.414 471.947 365.454C470.849 363.588 470.055 361.554 469.564 359.35C469.073 357.147 468.776 355.155 468.674 353.374C467.941 346.67 467.806 340.193 468.269 333.942C468.853 327.624 469.626 321.36 470.586 315.152C472.38 304.963 474.987 294.961 478.407 285.144C481.921 275.355 486.523 266.399 492.212 258.274C495.793 253.243 499.658 249.531 503.81 247.138C508.082 244.677 512.195 243.664 516.15 244.097C520.104 244.531 523.683 246.452 526.888 249.86C530.188 253.295 532.668 258.346 534.33 265.011C537.023 277.334 538.81 289.083 539.691 300.259C544.644 295.422 549.724 290.673 554.931 286.014C560.166 281.259 565.594 277.076 571.215 273.465C576.958 269.785 582.933 266.895 589.142 264.794C595.351 262.693 601.919 261.83 608.847 262.205C613.756 262.505 617.957 263.681 621.449 265.73C625.035 267.808 627.839 270.48 629.86 273.749C632.003 276.949 633.358 280.59 633.924 284.669C634.49 288.748 634.282 292.859 633.301 297.002C631.489 304.404 629.153 311.499 626.294 318.286C623.529 325.101 620.636 331.827 617.615 338.464C614.716 345.033 611.831 351.555 608.959 358.03C606.181 364.532 603.813 371.205 601.854 378.05C601.283 380.046 600.651 382.076 599.959 384.14C599.267 386.204 598.413 388.117 597.399 389.881C595.64 393.179 593.291 395.686 590.353 397.403C587.481 399.243 583.874 399.734 579.531 398.878C575.376 398.077 572.408 396.335 570.627 393.651C568.819 391.063 567.711 388.165 567.304 384.956C566.923 381.652 566.961 378.315 567.415 374.945C567.99 371.508 568.51 368.622 568.975 366.285C570.203 360.567 571.868 354.924 573.971 349.358C576.167 343.819 578.518 338.274 581.024 332.723C583.624 327.199 586.211 321.723 588.783 316.294C591.478 310.797 594.003 305.355 596.361 299.966C597.973 296.111 598.877 293.13 599.072 291.024C599.267 288.918 598.766 287.638 597.57 287.186C596.495 286.666 594.752 286.878 592.341 287.822C589.957 288.671 586.993 290.123 583.448 292.178Z" stroke="black" stroke-width="12" mask="url(#path-32-outside-2_43_2538)"/>
<path d="M645.626 322.805C646.178 314.205 646.929 305.411 647.879 296.422C648.49 289.902 650.896 284.306 655.098 279.635C657.198 277.3 659.433 275.66 661.802 274.715C664.27 273.673 666.676 273.372 669.019 273.813C671.362 274.253 673.546 275.334 675.571 277.054C677.598 278.676 679.172 280.982 680.292 283.973C681.602 287.264 682.274 290.641 682.308 294.106C682.341 297.57 682.081 301.029 681.527 304.483C680.059 314.946 678.642 325.311 677.276 335.578C675.91 345.845 674.592 356.162 673.321 366.53C672.775 369.587 672.424 372.649 672.269 375.714C672.214 378.682 672.061 381.648 671.81 384.612C671.685 386.095 671.559 387.577 671.434 389.059C671.31 390.442 671.088 391.823 670.769 393.203C670.219 396.459 668.947 399.008 666.953 400.85C664.958 402.792 662.538 403.835 659.695 403.979C657.145 404.128 654.757 403.489 652.53 402.061C650.401 400.636 648.874 398.479 647.948 395.591C647.21 393.103 646.622 390.518 646.182 387.838C645.742 385.157 645.35 382.527 645.006 379.948C644.403 375.483 644.048 370.824 643.943 365.973C643.837 361.121 643.878 356.273 644.066 351.427C644.256 346.482 644.493 341.587 644.779 336.743C645.163 331.901 645.445 327.255 645.626 322.805Z" stroke="black" stroke-width="12" mask="url(#path-32-outside-2_43_2538)"/>
<path d="M727.156 365.746C729.778 365.14 732.592 364.427 735.597 363.607C738.602 362.787 741.607 361.967 744.612 361.147C747.613 360.228 750.569 359.41 753.48 358.693C756.388 357.877 759.054 357.17 761.48 356.572C763.234 356.3 764.987 356.028 766.74 355.756C768.591 355.48 770.355 355.455 772.031 355.681C775.464 355.734 778.406 356.947 780.857 359.32C783.406 361.688 784.992 364.493 785.617 367.735C786.461 371.562 786.217 375.138 784.884 378.462C783.649 381.783 781.351 384.306 777.991 386.033C776.365 386.993 774.632 387.759 772.793 388.332C770.954 388.905 769.158 389.327 767.404 389.599C760.379 390.391 753.518 391.621 746.823 393.29C740.124 394.86 733.488 396.775 726.915 399.033C720.134 401.003 714.473 400.4 709.93 397.224C705.387 394.049 702.418 388.628 701.023 380.962C700.88 379.878 700.737 378.795 700.594 377.711C700.447 376.529 700.351 375.394 700.306 374.307C700 366.892 699.724 359.03 699.478 350.721C699.229 342.313 698.932 333.957 698.589 325.652C698.343 317.344 698.01 309.286 697.589 301.48C697.266 293.669 696.874 286.555 696.413 280.137C696.388 277.167 696.969 274.617 698.155 272.487C699.337 270.258 700.882 268.51 702.791 267.241C704.797 265.967 706.972 265.232 709.316 265.034C711.657 264.737 713.926 265.087 716.124 266.084C718.416 266.977 720.491 268.573 722.351 270.872C724.211 273.17 725.61 276.181 726.548 279.905C727.486 283.629 728.112 288.109 728.427 293.345C728.835 298.477 729.009 303.868 728.949 309.515C728.986 315.159 728.88 320.908 728.632 326.761C728.478 332.512 728.262 337.968 727.986 343.13C727.705 348.193 727.451 352.71 727.223 356.681C727.093 360.648 727.07 363.67 727.156 365.746Z" stroke="black" stroke-width="12" mask="url(#path-32-outside-2_43_2538)"/>
<path d="M817.722 332.402C817.911 333.373 818.167 334.936 818.489 337.09C818.791 339.148 819.151 341.497 819.568 344.137C819.965 346.68 820.391 349.369 820.846 352.204C821.377 354.922 821.977 357.475 822.643 359.863C825.43 359.307 828.063 358.731 830.542 358.135C833.099 357.423 835.568 356.779 837.952 356.202C840.431 355.607 842.929 355.108 845.447 354.706C847.945 354.207 850.625 353.874 853.488 353.706C857.234 353.463 860.238 354.527 862.499 356.9C864.856 359.254 866.291 361.993 866.802 365.119C867.238 367.856 866.954 370.233 865.95 372.249C865.024 374.148 863.685 375.727 861.934 376.984C860.203 378.339 858.212 379.392 855.963 380.143C853.714 380.895 851.532 381.482 849.418 381.904C842.27 383.129 835.207 384.539 828.231 386.133C821.273 387.825 814.316 389.264 807.36 390.451C804.554 390.91 802.135 390.283 800.103 388.571C798.186 386.936 796.991 384.653 796.517 381.722C796.251 380.363 796.034 378.994 795.864 377.616C795.79 376.218 795.545 374.452 795.127 372.316C794.271 368.452 793.273 363.86 792.133 358.54C791.07 353.104 789.95 347.377 788.772 341.358C787.576 335.242 786.352 328.981 785.098 322.574C783.826 316.07 782.602 309.809 781.424 303.79C780.324 297.655 779.252 291.918 778.208 286.579C777.164 281.24 776.262 276.629 775.502 272.746C775.294 271.678 774.989 270.629 774.588 269.6C774.187 268.57 773.834 267.531 773.529 266.483C772.863 263.59 773.109 261.019 774.267 258.771C775.501 256.406 777.503 254.897 780.27 254.244C787.151 252.668 794.127 251.326 801.198 250.217C808.25 249.011 815.313 247.601 822.386 245.988C824.499 245.566 826.738 245.27 829.101 245.101C831.464 244.932 833.702 245.141 835.813 245.728C837.906 246.218 839.748 247.212 841.338 248.71C843.006 250.092 844.154 252.132 844.782 254.831C845.486 257.918 845.191 261.003 843.896 264.086C842.699 267.149 840.321 269.288 836.765 270.502C834.054 271.447 831.459 272.217 828.98 272.813C826.482 273.311 823.974 273.762 821.457 274.163C819.035 274.546 816.518 274.947 813.905 275.368C811.368 275.673 808.707 276.103 805.92 276.659C806.682 279.533 807.281 282.339 807.716 285.076C808.229 287.697 808.655 290.386 808.995 293.142C809.411 295.783 809.837 298.471 810.273 301.209C810.804 303.927 811.518 306.81 812.414 309.859C817.352 309.075 822.205 308.106 826.971 306.953C831.834 305.781 836.763 304.948 841.758 304.455C844.102 304.189 846.041 304.911 847.574 306.623C849.184 308.218 850.216 310.18 850.672 312.51C851.224 314.821 851.093 317.217 850.281 319.699C849.45 322.084 847.783 324.031 845.283 325.538C844.033 326.292 842.187 327.064 839.745 327.854C837.285 328.547 834.671 329.22 831.904 329.874C829.232 330.508 826.599 331.084 824.005 331.602C821.391 332.022 819.297 332.289 817.722 332.402Z" stroke="black" stroke-width="12" mask="url(#path-32-outside-2_43_2538)"/>
<mask id="path-33-outside-3_43_2538" maskUnits="userSpaceOnUse" x="291" y="228" width="701" height="341" fill="black">
<rect fill="white" x="291" y="228" width="701" height="341"/>
<path fill-rule="evenodd" clip-rule="evenodd" d="M317.613 543.535L317.584 543.506C308.828 534.586 302.815 523.925 299.554 511.594C296.291 499.255 296.164 486.472 299.119 473.302C301.974 460.577 308.343 448.729 318.074 437.766L318.097 437.74L318.121 437.714C328.086 426.909 339.584 418.059 352.601 411.174L352.639 411.155L355.079 409.934L349.828 400.876L344.649 392.207L344.64 392.192C334.77 376.005 327.315 360.913 322.323 346.923C317.172 332.489 316.519 316.951 320.229 300.415C324.184 282.787 331.164 268.466 341.333 257.679C351.401 247 363.229 239.924 376.777 236.562C390.178 233.237 403.994 233.156 418.175 236.273C432.946 239.52 444.119 246.849 451.266 258.403C458.697 269.988 460.646 283.258 457.357 297.919C454.949 308.651 450.32 318.849 443.527 328.5C441.757 331.063 439.481 333.001 436.66 334.052C433.851 335.099 430.813 335.148 427.704 334.465C425.967 334.083 424.154 333.25 422.323 332.167C419.669 330.723 417.629 328.571 416.211 325.846L416.06 325.556L415.962 325.243C415.029 322.257 414.898 319.209 415.581 316.166C415.737 315.47 416.077 314.736 416.326 314.222C416.627 313.601 417.027 312.846 417.511 311.974C418.48 310.226 419.862 307.873 421.641 304.934C425.082 299.251 427.104 294.61 427.926 290.948C429.44 284.201 428.508 278.946 425.612 274.762C422.67 270.513 417.849 267.442 410.612 265.852C396.871 262.831 384.345 264.512 372.843 270.799C362.082 276.908 354.243 289.084 349.913 308.388C348.16 316.201 348.401 323.631 350.578 330.747C353.185 338.314 358.977 350.739 368.09 368.165L368.169 368.316L368.233 368.473C370.016 372.809 372.897 378.693 376.92 386.167L376.962 386.245L377 386.325C378.268 388.976 380.929 393.521 385.083 400.061C410.416 394.419 439.313 395.249 471.679 402.363C494.599 407.401 516.101 414.827 536.176 424.649C536.977 424.992 537.71 425.337 538.359 425.675C575.412 444.313 640.485 465.582 739.885 446.394C840.07 426.013 902.439 368.142 921.545 348.423C922.058 347.894 922.599 347.406 923.165 346.959C917.191 332.982 918.813 318.279 919.53 313.098C919.867 310.653 921.101 308.591 922.364 307.131C923.659 305.634 925.445 304.235 927.581 303.443C929.622 302.687 932.678 302.29 935.447 304.082C938.524 306.073 939.261 309.435 938.902 312.036C938.066 318.082 936.817 333.682 946.055 344.376C955.515 354.849 970.622 354.814 976.388 354.356C979.155 354.135 982.449 355.229 984.156 358.458C985.644 361.273 985.099 364.21 984.265 366.183C983.387 368.261 981.94 369.99 980.39 371.235C978.893 372.437 976.754 373.621 974.238 373.821C969.294 374.215 956.135 374.688 943.665 368.582C921.807 391.015 853.924 453.323 745.177 475.42L745.098 475.436L745.02 475.451C636.167 496.49 570.432 475.492 525.043 453.1C523.797 452.485 522.616 451.884 521.497 451.295C505.323 443.253 487.416 437.063 467.758 432.742C456.751 430.323 444.419 428.695 430.748 427.875L430.707 427.872L430.666 427.869C419.847 426.98 410.663 426.929 403.07 427.67C411.733 441.972 418.29 454.986 422.695 466.698C427.723 480.065 428.772 493.478 425.773 506.849C423.337 517.706 418.206 527.743 410.476 536.943C402.73 546.163 393.462 553.106 382.693 557.724L382.654 557.74L382.615 557.756C371.821 562.095 360.98 563.129 350.187 560.756C337.416 557.95 326.532 552.227 317.642 543.564L317.613 543.535ZM380.762 523.582C388.541 516.745 393.419 508.646 395.532 499.227C397.332 491.206 396.058 481.756 391.204 470.694C386.564 460.119 380.045 448.519 371.612 435.889C361.331 440.289 352.246 446.348 344.333 454.071C336.107 462.227 331.209 470.549 329.309 479.019C326.359 492.166 327.619 503.335 332.743 512.79C337.833 522.182 345.789 528.076 356.94 530.527C365.354 532.376 373.199 530.229 380.762 523.582Z"/>
</mask>
<path fill-rule="evenodd" clip-rule="evenodd" d="M317.613 543.535L317.584 543.506C308.828 534.586 302.815 523.925 299.554 511.594C296.291 499.255 296.164 486.472 299.119 473.302C301.974 460.577 308.343 448.729 318.074 437.766L318.097 437.74L318.121 437.714C328.086 426.909 339.584 418.059 352.601 411.174L352.639 411.155L355.079 409.934L349.828 400.876L344.649 392.207L344.64 392.192C334.77 376.005 327.315 360.913 322.323 346.923C317.172 332.489 316.519 316.951 320.229 300.415C324.184 282.787 331.164 268.466 341.333 257.679C351.401 247 363.229 239.924 376.777 236.562C390.178 233.237 403.994 233.156 418.175 236.273C432.946 239.52 444.119 246.849 451.266 258.403C458.697 269.988 460.646 283.258 457.357 297.919C454.949 308.651 450.32 318.849 443.527 328.5C441.757 331.063 439.481 333.001 436.66 334.052C433.851 335.099 430.813 335.148 427.704 334.465C425.967 334.083 424.154 333.25 422.323 332.167C419.669 330.723 417.629 328.571 416.211 325.846L416.06 325.556L415.962 325.243C415.029 322.257 414.898 319.209 415.581 316.166C415.737 315.47 416.077 314.736 416.326 314.222C416.627 313.601 417.027 312.846 417.511 311.974C418.48 310.226 419.862 307.873 421.641 304.934C425.082 299.251 427.104 294.61 427.926 290.948C429.44 284.201 428.508 278.946 425.612 274.762C422.67 270.513 417.849 267.442 410.612 265.852C396.871 262.831 384.345 264.512 372.843 270.799C362.082 276.908 354.243 289.084 349.913 308.388C348.16 316.201 348.401 323.631 350.578 330.747C353.185 338.314 358.977 350.739 368.09 368.165L368.169 368.316L368.233 368.473C370.016 372.809 372.897 378.693 376.92 386.167L376.962 386.245L377 386.325C378.268 388.976 380.929 393.521 385.083 400.061C410.416 394.419 439.313 395.249 471.679 402.363C494.599 407.401 516.101 414.827 536.176 424.649C536.977 424.992 537.71 425.337 538.359 425.675C575.412 444.313 640.485 465.582 739.885 446.394C840.07 426.013 902.439 368.142 921.545 348.423C922.058 347.894 922.599 347.406 923.165 346.959C917.191 332.982 918.813 318.279 919.53 313.098C919.867 310.653 921.101 308.591 922.364 307.131C923.659 305.634 925.445 304.235 927.581 303.443C929.622 302.687 932.678 302.29 935.447 304.082C938.524 306.073 939.261 309.435 938.902 312.036C938.066 318.082 936.817 333.682 946.055 344.376C955.515 354.849 970.622 354.814 976.388 354.356C979.155 354.135 982.449 355.229 984.156 358.458C985.644 361.273 985.099 364.21 984.265 366.183C983.387 368.261 981.94 369.99 980.39 371.235C978.893 372.437 976.754 373.621 974.238 373.821C969.294 374.215 956.135 374.688 943.665 368.582C921.807 391.015 853.924 453.323 745.177 475.42L745.098 475.436L745.02 475.451C636.167 496.49 570.432 475.492 525.043 453.1C523.797 452.485 522.616 451.884 521.497 451.295C505.323 443.253 487.416 437.063 467.758 432.742C456.751 430.323 444.419 428.695 430.748 427.875L430.707 427.872L430.666 427.869C419.847 426.98 410.663 426.929 403.07 427.67C411.733 441.972 418.29 454.986 422.695 466.698C427.723 480.065 428.772 493.478 425.773 506.849C423.337 517.706 418.206 527.743 410.476 536.943C402.73 546.163 393.462 553.106 382.693 557.724L382.654 557.74L382.615 557.756C371.821 562.095 360.98 563.129 350.187 560.756C337.416 557.95 326.532 552.227 317.642 543.564L317.613 543.535ZM380.762 523.582C388.541 516.745 393.419 508.646 395.532 499.227C397.332 491.206 396.058 481.756 391.204 470.694C386.564 460.119 380.045 448.519 371.612 435.889C361.331 440.289 352.246 446.348 344.333 454.071C336.107 462.227 331.209 470.549 329.309 479.019C326.359 492.166 327.619 503.335 332.743 512.79C337.833 522.182 345.789 528.076 356.94 530.527C365.354 532.376 373.199 530.229 380.762 523.582Z" fill="#F4F2E3"/>
<path d="M317.584 543.506L321.867 539.303L321.866 539.303L317.584 543.506ZM317.613 543.535L313.331 547.738L313.377 547.785L313.425 547.832L317.613 543.535ZM299.554 511.594L305.354 510.06L305.354 510.06L299.554 511.594ZM299.119 473.302L304.974 474.615L304.974 474.615L299.119 473.302ZM318.074 437.766L313.588 433.782L313.587 433.783L318.074 437.766ZM318.097 437.74L313.686 433.673L313.648 433.714L313.611 433.756L318.097 437.74ZM318.121 437.714L313.71 433.647L313.71 433.647L318.121 437.714ZM352.601 411.174L349.797 405.87L349.796 405.87L352.601 411.174ZM352.639 411.155L349.955 405.788L349.895 405.818L349.835 405.85L352.639 411.155ZM355.079 409.934L357.762 415.301L363.47 412.447L360.27 406.926L355.079 409.934ZM349.828 400.876L355.019 397.868L354.999 397.833L354.979 397.799L349.828 400.876ZM344.649 392.207L349.8 389.13L349.785 389.106L349.771 389.082L344.649 392.207ZM344.64 392.192L339.517 395.316L339.518 395.317L344.64 392.192ZM322.323 346.923L316.672 348.94L316.672 348.94L322.323 346.923ZM320.229 300.415L326.083 301.728L326.083 301.728L320.229 300.415ZM341.333 257.679L345.699 261.795L345.699 261.795L341.333 257.679ZM376.777 236.562L378.222 242.386L378.222 242.386L376.777 236.562ZM418.175 236.273L419.463 230.413L419.463 230.413L418.175 236.273ZM451.266 258.403L446.164 261.559L446.189 261.601L446.216 261.642L451.266 258.403ZM457.357 297.919L451.502 296.605L451.502 296.605L457.357 297.919ZM443.527 328.5L438.621 325.046L438.605 325.068L438.59 325.09L443.527 328.5ZM436.66 334.052L438.755 339.675L438.755 339.675L436.66 334.052ZM427.704 334.465L426.416 340.325L426.416 340.325L427.704 334.465ZM422.323 332.167L425.375 327.002L425.284 326.948L425.191 326.897L422.323 332.167ZM416.211 325.846L421.534 323.076L421.534 323.076L416.211 325.846ZM416.06 325.556L410.333 327.346L410.492 327.854L410.738 328.326L416.06 325.556ZM415.962 325.243L421.689 323.453L421.689 323.453L415.962 325.243ZM415.581 316.166L421.435 317.479L421.435 317.479L415.581 316.166ZM416.326 314.222L410.927 311.604L410.927 311.604L416.326 314.222ZM417.511 311.974L412.263 309.064L412.263 309.064L417.511 311.974ZM421.641 304.934L426.774 308.041L426.774 308.041L421.641 304.934ZM427.926 290.948L433.78 292.261L433.78 292.261L427.926 290.948ZM425.612 274.762L430.545 271.347L430.545 271.347L425.612 274.762ZM410.612 265.852L409.324 271.712L409.324 271.712L410.612 265.852ZM372.843 270.799L369.966 265.535L369.923 265.558L369.882 265.581L372.843 270.799ZM349.913 308.388L344.058 307.075L344.058 307.075L349.913 308.388ZM350.578 330.747L344.841 332.503L344.871 332.603L344.905 332.702L350.578 330.747ZM368.09 368.165L373.407 365.385L373.407 365.385L368.09 368.165ZM368.169 368.316L373.718 366.034L373.613 365.779L373.486 365.535L368.169 368.316ZM368.233 368.473L362.684 370.754L362.684 370.754L368.233 368.473ZM376.92 386.167L382.204 383.324L382.204 383.324L376.92 386.167ZM376.962 386.245L382.375 383.657L382.314 383.528L382.246 383.402L376.962 386.245ZM377 386.325L382.414 383.737L382.414 383.737L377 386.325ZM385.083 400.061L380.018 403.278L382.276 406.833L386.387 405.917L385.083 400.061ZM471.679 402.363L472.967 396.503L472.967 396.503L471.679 402.363ZM536.176 424.649L533.539 430.038L533.673 430.104L533.81 430.162L536.176 424.649ZM538.359 425.675L535.588 430.997L535.625 431.016L535.663 431.035L538.359 425.675ZM739.885 446.394L741.022 452.285L741.051 452.279L741.081 452.273L739.885 446.394ZM921.545 348.423L925.854 352.598L925.855 352.598L921.545 348.423ZM923.165 346.959L926.883 351.669L930.487 348.823L928.682 344.601L923.165 346.959ZM919.53 313.098L925.473 313.919L925.473 313.919L919.53 313.098ZM922.364 307.131L926.901 311.057L926.901 311.057L922.364 307.131ZM927.581 303.443L925.497 297.817L925.497 297.817L927.581 303.443ZM935.447 304.082L932.187 309.119L932.187 309.119L935.447 304.082ZM938.902 312.036L932.958 311.215L932.958 311.215L938.902 312.036ZM946.055 344.376L941.515 348.299L941.558 348.349L941.603 348.398L946.055 344.376ZM976.388 354.356L975.912 348.374L975.912 348.374L976.388 354.356ZM984.156 358.458L989.46 355.654L989.46 355.654L984.156 358.458ZM984.265 366.183L978.738 363.848L978.738 363.848L984.265 366.183ZM980.39 371.235L984.148 375.913L984.148 375.913L980.39 371.235ZM974.238 373.821L974.714 379.802L974.714 379.802L974.238 373.821ZM943.665 368.582L946.304 363.193L942.4 361.282L939.368 364.394L943.665 368.582ZM745.177 475.42L746.371 481.3L746.372 481.3L745.177 475.42ZM745.098 475.436L746.238 481.327L746.265 481.321L746.293 481.316L745.098 475.436ZM745.02 475.451L746.158 481.342L746.159 481.342L745.02 475.451ZM525.043 453.1L527.698 447.719L527.698 447.719L525.043 453.1ZM521.497 451.295L524.291 445.985L524.23 445.953L524.168 445.922L521.497 451.295ZM467.758 432.742L466.47 438.602L466.47 438.602L467.758 432.742ZM430.748 427.875L430.385 433.864L430.388 433.864L430.748 427.875ZM430.707 427.872L430.218 433.852L430.281 433.857L430.344 433.861L430.707 427.872ZM430.666 427.869L430.175 433.849L430.178 433.849L430.666 427.869ZM403.07 427.67L402.488 421.698L392.999 422.624L397.938 430.778L403.07 427.67ZM422.695 466.698L417.079 468.81L417.079 468.81L422.695 466.698ZM425.773 506.849L419.918 505.536L419.918 505.536L425.773 506.849ZM410.476 536.943L405.882 533.084L405.882 533.084L410.476 536.943ZM382.693 557.724L385.056 563.239L385.057 563.238L382.693 557.724ZM382.654 557.74L384.895 563.306L384.957 563.281L385.017 563.255L382.654 557.74ZM382.615 557.756L384.853 563.323L384.856 563.322L382.615 557.756ZM350.187 560.756L351.475 554.896L351.475 554.896L350.187 560.756ZM317.642 543.564L313.454 547.861L313.455 547.861L317.642 543.564ZM395.532 499.227L389.678 497.914L389.678 497.914L395.532 499.227ZM380.762 523.582L384.723 528.088L384.723 528.088L380.762 523.582ZM391.204 470.694L396.699 468.284L396.699 468.284L391.204 470.694ZM371.612 435.889L376.602 432.557L373.834 428.411L369.251 430.373L371.612 435.889ZM344.333 454.071L340.142 449.777L340.125 449.794L340.108 449.81L344.333 454.071ZM329.309 479.019L335.163 480.332L335.163 480.332L329.309 479.019ZM332.743 512.79L338.018 509.931L338.018 509.931L332.743 512.79ZM356.94 530.527L358.228 524.666L358.228 524.666L356.94 530.527ZM313.302 547.709L313.331 547.738L321.895 539.333L321.867 539.303L313.302 547.709ZM293.753 513.128C297.274 526.44 303.799 538.027 313.302 547.709L321.866 539.303C313.858 531.144 308.356 521.411 305.354 510.06L293.753 513.128ZM293.265 471.988C290.114 486.034 290.227 499.796 293.753 513.128L305.354 510.06C302.354 498.714 302.215 486.911 304.974 474.615L293.265 471.988ZM313.587 433.783C303.281 445.394 296.372 458.136 293.265 471.988L304.974 474.615C307.575 463.018 313.406 452.064 322.561 441.749L313.587 433.783ZM313.611 433.756L313.588 433.782L322.56 441.751L322.583 441.724L313.611 433.756ZM313.71 433.647L313.686 433.673L322.508 441.807L322.532 441.782L313.71 433.647ZM349.796 405.87C336.179 413.072 324.137 422.34 313.71 433.647L322.532 441.782C332.034 431.477 342.989 423.045 355.406 416.478L349.796 405.87ZM349.835 405.85L349.797 405.87L355.405 416.479L355.443 416.459L349.835 405.85ZM352.395 404.568L349.955 405.788L355.322 416.521L357.762 415.301L352.395 404.568ZM344.637 403.885L349.888 412.943L360.27 406.926L355.019 397.868L344.637 403.885ZM339.498 395.284L344.678 403.954L354.979 397.799L349.8 389.13L339.498 395.284ZM339.518 395.317L339.527 395.331L349.771 389.082L349.762 389.068L339.518 395.317ZM316.672 348.94C321.835 363.408 329.492 378.874 339.517 395.316L349.763 389.069C340.049 373.136 332.796 358.417 327.974 344.907L316.672 348.94ZM314.374 299.102C310.448 316.603 311.094 333.309 316.672 348.94L327.974 344.907C323.25 331.668 322.591 317.298 326.083 301.728L314.374 299.102ZM336.967 253.563C325.893 265.31 318.506 280.687 314.374 299.102L326.083 301.728C329.862 284.887 336.434 271.623 345.699 261.795L336.967 253.563ZM375.332 230.739C360.597 234.395 347.774 242.101 336.967 253.563L345.699 261.795C355.028 251.9 365.86 245.453 378.222 242.386L375.332 230.739ZM419.463 230.413C404.435 227.11 389.682 227.178 375.332 230.739L378.222 242.386C390.674 239.296 403.553 239.202 416.887 242.133L419.463 230.413ZM456.369 255.246C448.238 242.103 435.561 233.951 419.463 230.413L416.887 242.133C430.33 245.088 439.999 251.595 446.164 261.559L456.369 255.246ZM463.211 299.232C466.805 283.213 464.72 268.265 456.316 255.163L446.216 261.642C452.673 271.71 454.487 283.302 451.502 296.605L463.211 299.232ZM448.434 331.953C455.642 321.713 460.617 310.796 463.211 299.232L451.502 296.605C449.281 306.507 444.999 315.985 438.621 325.046L448.434 331.953ZM438.755 339.675C442.915 338.125 446.119 335.305 448.464 331.909L438.59 325.09C437.396 326.82 436.047 327.878 434.566 328.43L438.755 339.675ZM426.416 340.325C430.381 341.196 434.63 341.211 438.755 339.675L434.566 328.43C433.071 328.986 431.246 329.1 428.992 328.605L426.416 340.325ZM419.27 337.333C421.375 338.577 423.809 339.752 426.416 340.325L428.992 328.605C428.125 328.414 426.932 327.922 425.375 327.002L419.27 337.333ZM410.889 328.616C412.818 332.323 415.679 335.383 419.454 337.438L425.191 326.897C423.659 326.064 422.44 324.818 421.534 323.076L410.889 328.616ZM410.738 328.326L410.889 328.616L421.534 323.076L421.382 322.786L410.738 328.326ZM410.236 327.034L410.333 327.346L421.787 323.765L421.689 323.453L410.236 327.034ZM409.726 314.852C408.811 318.933 408.99 323.051 410.236 327.034L421.689 323.453C421.067 321.464 420.985 319.486 421.435 317.479L409.726 314.852ZM410.927 311.604C410.686 312.103 410.052 313.402 409.726 314.852L421.435 317.479C421.423 317.534 421.416 317.551 421.425 317.524C421.433 317.498 421.45 317.451 421.479 317.38C421.54 317.231 421.619 317.059 421.725 316.84L410.927 311.604ZM412.263 309.064C411.755 309.981 411.296 310.843 410.927 311.604L421.725 316.84C421.958 316.359 422.299 315.71 422.758 314.884L412.263 309.064ZM416.509 301.826C414.715 304.789 413.288 307.217 412.263 309.064L422.758 314.884C423.673 313.234 425.009 310.957 426.774 308.041L416.509 301.826ZM422.071 289.635C421.45 292.404 419.786 296.413 416.509 301.826L426.774 308.041C430.378 302.089 432.759 296.816 433.78 292.261L422.071 289.635ZM420.679 278.178C422.421 280.694 423.303 284.146 422.071 289.635L433.78 292.261C435.577 284.255 434.595 277.197 430.545 271.347L420.679 278.178ZM409.324 271.712C415.5 273.069 418.816 275.487 420.679 278.178L430.545 271.347C426.524 265.539 420.199 261.816 411.9 259.992L409.324 271.712ZM375.721 276.064C385.871 270.516 396.906 268.982 409.324 271.712L411.9 259.992C396.837 256.681 382.819 258.509 369.966 265.535L375.721 276.064ZM355.767 309.701C359.903 291.266 367.093 280.963 375.805 276.017L369.882 265.581C357.072 272.853 348.584 286.902 344.058 307.075L355.767 309.701ZM356.316 328.992C354.461 322.931 354.228 316.561 355.767 309.701L344.058 307.075C342.092 315.84 342.341 324.331 344.841 332.503L356.316 328.992ZM373.407 365.385C364.297 347.963 358.696 335.891 356.251 328.793L344.905 332.702C347.674 340.737 353.658 353.515 362.773 370.946L373.407 365.385ZM373.486 365.535L373.407 365.385L362.773 370.946L362.852 371.096L373.486 365.535ZM373.783 366.191L373.718 366.034L362.62 370.597L362.684 370.754L373.783 366.191ZM382.204 383.324C378.218 375.918 375.449 370.245 373.783 366.191L362.684 370.754C364.583 375.373 367.577 381.468 371.637 389.011L382.204 383.324ZM382.246 383.402L382.204 383.324L371.637 389.011L371.679 389.089L382.246 383.402ZM382.414 383.737L382.375 383.657L371.549 388.833L371.587 388.913L382.414 383.737ZM390.147 396.844C385.99 390.299 383.508 386.027 382.414 383.737L371.587 388.913C373.027 391.925 375.868 396.744 380.018 403.278L390.147 396.844ZM472.967 396.503C439.99 389.255 410.178 388.325 383.778 394.204L386.387 405.917C410.654 400.513 438.636 401.244 470.391 408.223L472.967 396.503ZM538.813 419.259C518.287 409.217 496.33 401.638 472.967 396.503L470.391 408.223C492.868 413.164 513.916 420.437 533.539 430.038L538.813 419.259ZM541.13 420.353C540.326 419.934 539.455 419.527 538.542 419.135L533.81 430.162C534.499 430.458 535.094 430.739 535.588 430.997L541.13 420.353ZM738.747 440.502C640.799 459.411 577.068 438.429 541.055 420.315L535.663 431.035C573.756 450.196 640.171 471.754 741.022 452.285L738.747 440.502ZM917.236 344.247C898.536 363.547 837.196 420.475 738.689 440.514L741.081 452.273C842.944 431.551 906.341 372.737 925.854 352.598L917.236 344.247ZM919.447 342.25C918.675 342.86 917.936 343.526 917.236 344.247L925.855 352.598C926.18 352.262 926.523 351.952 926.883 351.669L919.447 342.25ZM913.586 312.276C912.842 317.658 910.996 333.754 917.648 349.317L928.682 344.601C923.386 332.21 924.784 318.901 925.473 313.919L913.586 312.276ZM917.827 303.205C916.06 305.247 914.129 308.349 913.586 312.276L925.473 313.919C925.606 312.957 926.141 311.935 926.901 311.057L917.827 303.205ZM925.497 297.817C922.249 299.021 919.659 301.088 917.827 303.205L926.901 311.057C927.659 310.181 928.64 309.45 929.666 309.07L925.497 297.817ZM938.707 299.045C933.749 295.836 928.512 296.7 925.497 297.817L929.666 309.07C930.129 308.898 930.645 308.795 931.109 308.806C931.526 308.815 931.864 308.91 932.187 309.119L938.707 299.045ZM944.845 312.857C945.421 308.691 944.299 302.665 938.707 299.045L932.187 309.119C932.549 309.353 932.723 309.61 932.836 309.915C932.974 310.286 933.02 310.765 932.958 311.215L944.845 312.857ZM950.595 340.454C947.016 336.311 945.307 331.018 944.656 325.73C944.007 320.46 944.463 315.622 944.845 312.857L932.958 311.215C932.505 314.496 931.918 320.481 932.746 327.197C933.57 333.894 935.855 341.748 941.515 348.299L950.595 340.454ZM975.912 348.374C973.374 348.576 968.794 348.677 963.89 347.604C958.992 346.532 954.14 344.375 950.507 340.354L941.603 348.398C947.43 354.85 954.862 357.912 961.324 359.326C967.78 360.739 973.636 360.593 976.864 360.337L975.912 348.374ZM989.46 355.654C986.363 349.797 980.434 348.015 975.912 348.374L976.864 360.337C977.318 360.301 977.775 360.383 978.118 360.544C978.403 360.678 978.647 360.875 978.851 361.263L989.46 355.654ZM989.792 368.518C991.012 365.632 992.107 360.66 989.46 355.654L978.851 361.263C979.029 361.599 979.104 361.956 979.086 362.391C979.067 362.865 978.935 363.382 978.738 363.848L989.792 368.518ZM984.148 375.913C986.349 374.144 988.47 371.647 989.792 368.518L978.738 363.848C978.304 364.875 977.531 365.835 976.633 366.557L984.148 375.913ZM974.714 379.802C978.804 379.477 982.055 377.594 984.148 375.913L976.633 366.557C975.732 367.281 974.705 367.765 973.762 367.84L974.714 379.802ZM941.026 373.97C954.968 380.797 969.448 380.221 974.714 379.802L973.762 367.84C969.139 368.208 957.302 368.578 946.304 363.193L941.026 373.97ZM746.372 481.3C856.784 458.865 925.692 395.625 947.962 372.769L939.368 364.394C917.921 386.405 851.063 447.782 743.982 469.54L746.372 481.3ZM746.293 481.316L746.371 481.3L743.982 469.54L743.904 469.556L746.293 481.316ZM746.159 481.342L746.238 481.327L743.959 469.545L743.88 469.56L746.159 481.342ZM522.389 458.481C568.821 481.388 635.883 502.656 746.158 481.342L743.881 469.56C636.451 490.324 572.042 469.596 527.698 447.719L522.389 458.481ZM518.703 456.605C519.871 457.219 521.099 457.845 522.389 458.481L527.698 447.719C526.495 447.126 525.36 446.548 524.291 445.985L518.703 456.605ZM466.47 438.602C485.7 442.829 503.135 448.866 518.826 456.668L524.168 445.922C507.51 437.64 489.132 431.297 469.046 426.882L466.47 438.602ZM430.388 433.864C443.808 434.669 455.823 436.262 466.47 438.602L469.046 426.882C457.679 424.383 445.03 422.721 431.107 421.885L430.388 433.864ZM430.344 433.861L430.385 433.864L431.111 421.886L431.07 421.883L430.344 433.861ZM430.178 433.849L430.218 433.852L431.195 421.892L431.155 421.889L430.178 433.849ZM403.653 433.641C410.783 432.946 419.588 432.979 430.175 433.849L431.158 421.889C420.105 420.981 410.544 420.912 402.488 421.698L403.653 433.641ZM428.311 464.586C423.74 452.431 416.995 439.077 408.202 424.561L397.938 430.778C406.472 444.867 412.841 457.542 417.079 468.81L428.311 464.586ZM431.627 508.162C434.896 493.592 433.728 478.989 428.311 464.586L417.079 468.81C421.717 481.141 422.648 493.365 419.918 505.536L431.627 508.162ZM415.069 540.803C423.357 530.939 428.962 520.044 431.627 508.162L419.918 505.536C417.712 515.368 413.054 524.547 405.882 533.084L415.069 540.803ZM385.057 563.238C396.717 558.239 406.741 550.716 415.069 540.803L405.882 533.084C398.719 541.609 390.206 547.974 380.328 552.209L385.057 563.238ZM385.017 563.255L385.056 563.239L380.33 552.209L380.291 552.225L385.017 563.255ZM384.856 563.322L384.895 563.306L380.413 552.175L380.373 552.191L384.856 563.322ZM348.898 566.616C360.95 569.265 373.019 568.08 384.853 563.323L380.377 552.189C370.623 556.11 361.009 556.992 351.475 554.896L348.898 566.616ZM313.455 547.861C323.198 557.357 335.108 563.585 348.899 566.616L351.475 554.896C339.724 552.314 329.865 547.098 321.83 539.267L313.455 547.861ZM313.425 547.832L313.454 547.861L321.83 539.267L321.801 539.239L313.425 547.832ZM389.678 497.914C387.859 506.02 383.686 513.024 376.801 519.075L384.723 528.088C393.396 520.466 398.98 511.271 401.387 500.54L389.678 497.914ZM385.71 473.105C390.232 483.41 391.112 491.52 389.678 497.914L401.387 500.54C403.552 490.892 401.884 480.101 396.699 468.284L385.71 473.105ZM366.622 439.221C374.915 451.641 381.245 462.929 385.71 473.105L396.699 468.284C391.883 457.308 385.176 445.398 376.602 432.557L366.622 439.221ZM348.524 458.365C355.902 451.163 364.366 445.517 373.973 441.405L369.251 430.373C358.297 435.062 348.59 441.532 340.142 449.777L348.524 458.365ZM335.163 480.332C336.754 473.243 340.93 465.895 348.558 458.332L340.108 449.81C331.284 458.56 325.664 467.854 323.454 477.706L335.163 480.332ZM338.018 509.931C333.717 501.994 332.465 492.36 335.163 480.332L323.454 477.706C320.254 491.972 321.521 504.675 327.468 515.648L338.018 509.931ZM358.228 524.666C348.679 522.568 342.23 517.704 338.018 509.931L327.468 515.648C333.435 526.66 342.899 533.584 355.652 536.387L358.228 524.666ZM376.801 519.075C370.484 524.627 364.545 526.055 358.228 524.666L355.652 536.387C366.164 538.697 375.914 535.831 384.723 528.088L376.801 519.075Z" fill="black" mask="url(#path-33-outside-3_43_2538)"/>
<path d="M0 524V314.165C30.2812 312.085 90.4693 328.847 88.9726 412.532C87.4759 496.216 29.0339 521.712 0 524Z" fill="#F4F2E3"/>
<path d="M1268 272.045V106.045C1237.03 104.669 1206 134.645 1206 190.045C1206 266.474 1238.3 270.531 1268 272.045Z" fill="#F4F2E3"/>
</svg>
