<svg viewBox="0 0 1268 1024" fill="none" xmlns="http://www.w3.org/2000/svg">
<path d="M0 636V426.165C30.2812 424.085 90.4693 440.847 88.9726 524.532C87.4759 608.216 29.0339 633.712 0 636Z" fill="#F4F2E3"/>
<path d="M1268 295.045V129.045C1237.03 127.669 1206 157.645 1206 213.045C1206 289.474 1238.3 293.531 1268 295.045Z" fill="#F4F2E3"/>
<path d="M1085.37 687.882C1166.28 589.549 1266 653.032 1266 698.51V1022C1266 1024.25 128.196 1022 0.129883 1022V712.895C0.129883 712.817 0.146203 712.576 0.130257 712.5C0.130676 703 20.3265 653.052 128.196 659.252C197.089 663.212 235.021 738.313 235.694 762.814C235.721 763.794 237.11 764.442 237.875 763.829C257.886 747.812 331.927 733.725 387.82 796.431C446.196 861.923 427.921 919.292 406.601 942.138C428.937 922.846 477.508 913.2 516.755 929.954C556.908 947.095 573.579 973.288 581.412 1001.93C581.672 1002.89 583.045 1002.96 583.424 1002.05C600.644 960.653 655.558 934.523 700.758 938.068C782.342 944.466 801.538 994.121 803.452 1017.97C803.549 1019.18 807.042 1020.09 807.633 1019.03C817.127 1002.01 841.282 970.43 898.667 970.43C946.549 970.43 976.639 1004.85 989.898 1022.18C990.61 1023.11 992.071 1022.31 991.633 1021.23C979.226 990.432 958.896 936.663 984.778 885.785C1014.22 827.908 1071.07 811.069 1085.37 818.769C1069.19 810.056 1029.16 756.205 1085.37 687.882Z" fill="#F4F2E3"/>
<path d="M1263 686C1263 686 1193.01 566.001 1087.38 686.109C1032.05 749.031 1067.01 802.352 1084.61 815.222C1085.41 815.807 1085.08 817.223 1084.09 817.336C1064.62 819.577 1014.49 829.552 986.788 884.012C960.907 934.89 981.237 988.659 993.643 1019.45C994.081 1020.54 992.62 1021.34 991.909 1020.41C978.65 1003.07 948.56 968.658 900.678 968.658C843.293 968.658 819.138 1000.24 809.644 1017.26C809.054 1018.32 805.561 1017.41 805.464 1016.2C803.55 992.348 784.354 942.694 702.77 936.295C657.57 932.75 602.656 958.88 585.436 1000.28C585.057 1001.19 583.684 1001.11 583.424 1000.16C575.591 971.516 559.174 944.714 518.766 928.181C472.222 909.137 419.021 931.064 408.762 939.316C408.022 939.911 408.187 939.974 408.756 939.215C431.8 908.492 446.774 858.541 389.833 794.658C333.941 731.952 259.9 746.039 239.889 762.056C239.124 762.669 237.735 762.021 237.708 761.041C237.035 736.54 197.4 661.96 128.507 658C20.6378 651.8 5.88572 697.599 3 709" stroke="black" stroke-width="6" stroke-linecap="round"/>
<mask id="path-5-outside-1_31_413" maskUnits="userSpaceOnUse" x="465" y="248" width="411" height="173" fill="black">
<rect fill="white" x="465" y="248" width="411" height="173"/>
<path d="M586.448 303.178C581.797 306.249 577.603 309.505 573.866 312.946C570.129 316.387 566.552 319.977 563.137 323.718C559.843 327.392 556.63 331.14 553.497 334.963C550.364 338.786 547.123 342.63 543.775 346.493C541.669 348.865 539.572 350.313 537.485 350.837C535.52 351.293 532.89 351.04 529.597 350.078C526.895 349.186 524.861 347.923 523.493 346.287C522.126 344.652 521.21 342.685 520.747 340.386C520.101 335.872 519.489 331.419 518.91 327.026C518.453 322.567 518.103 318.087 517.862 313.587C517.595 308.462 517.216 304.798 516.724 302.595C516.355 300.324 515.772 299.329 514.978 299.612C514.21 299.8 513.271 301.123 512.161 303.579C511.171 305.969 510.031 309.241 508.74 313.396C505.822 321.814 503.657 330.452 502.244 339.31C500.952 348.1 499.755 356.917 498.652 365.762C498.432 367.243 498.138 368.805 497.77 370.449C497.429 371.997 497.068 373.437 496.687 374.768C495.819 377.089 494.528 378.927 492.816 380.281C491.103 381.635 488.887 382.43 486.169 382.666C483.356 382.875 481.057 382.358 479.272 381.116C477.459 379.968 476.017 378.414 474.947 376.454C473.849 374.588 473.055 372.554 472.564 370.35C472.073 368.147 471.776 366.155 471.674 364.374C470.941 357.67 470.806 351.193 471.269 344.942C471.853 338.624 472.626 332.36 473.586 326.152C475.38 315.963 477.987 305.961 481.407 296.144C484.921 286.355 489.523 277.399 495.212 269.274C498.793 264.243 502.658 260.531 506.81 258.138C511.082 255.677 515.195 254.664 519.15 255.097C523.104 255.531 526.683 257.452 529.888 260.86C533.188 264.295 535.668 269.346 537.33 276.011C540.023 288.334 541.81 300.083 542.691 311.259C547.644 306.422 552.724 301.673 557.931 297.014C563.166 292.259 568.594 288.076 574.215 284.465C579.958 280.785 585.933 277.895 592.142 275.794C598.351 273.693 604.919 272.83 611.847 273.205C616.756 273.505 620.957 274.681 624.449 276.73C628.035 278.808 630.839 281.48 632.86 284.749C635.003 287.949 636.358 291.59 636.924 295.669C637.49 299.748 637.282 303.859 636.301 308.002C634.489 315.404 632.153 322.499 629.294 329.286C626.529 336.101 623.636 342.827 620.615 349.464C617.716 356.033 614.831 362.555 611.959 369.03C609.181 375.532 606.813 382.205 604.854 389.05C604.283 391.046 603.651 393.076 602.959 395.14C602.267 397.204 601.413 399.117 600.399 400.881C598.64 404.179 596.291 406.686 593.353 408.403C590.481 410.243 586.874 410.734 582.531 409.878C578.376 409.077 575.408 407.335 573.627 404.651C571.819 402.063 570.711 399.165 570.304 395.956C569.923 392.652 569.961 389.315 570.415 385.945C570.99 382.508 571.51 379.622 571.975 377.285C573.203 371.567 574.868 365.924 576.971 360.358C579.167 354.819 581.518 349.274 584.024 343.723C586.624 338.199 589.211 332.723 591.783 327.294C594.478 321.797 597.003 316.355 599.361 310.966C600.973 307.111 601.877 304.13 602.072 302.024C602.267 299.918 601.766 298.638 600.57 298.186C599.495 297.666 597.752 297.878 595.341 298.822C592.957 299.671 589.993 301.123 586.448 303.178Z"/>
<path d="M648.626 333.805C649.178 325.205 649.929 316.411 650.879 307.422C651.49 300.902 653.896 295.306 658.098 290.635C660.198 288.3 662.433 286.66 664.802 285.715C667.27 284.673 669.676 284.372 672.019 284.813C674.362 285.253 676.546 286.334 678.571 288.054C680.598 289.676 682.172 291.982 683.292 294.973C684.602 298.264 685.274 301.641 685.308 305.106C685.341 308.57 685.081 312.029 684.527 315.483C683.059 325.946 681.642 336.311 680.276 346.578C678.91 356.845 677.592 367.162 676.321 377.53C675.775 380.587 675.424 383.649 675.269 386.714C675.214 389.682 675.061 392.648 674.81 395.612C674.685 397.095 674.559 398.577 674.434 400.059C674.31 401.442 674.088 402.823 673.769 404.203C673.219 407.459 671.947 410.008 669.953 411.85C667.958 413.792 665.538 414.835 662.695 414.979C660.145 415.128 657.757 414.489 655.53 413.061C653.401 411.636 651.874 409.479 650.948 406.591C650.21 404.103 649.622 401.518 649.182 398.838C648.742 396.157 648.35 393.527 648.006 390.948C647.403 386.483 647.048 381.824 646.943 376.973C646.837 372.121 646.878 367.273 647.066 362.427C647.256 357.482 647.493 352.587 647.779 347.743C648.163 342.901 648.445 338.255 648.626 333.805Z"/>
<path d="M730.156 376.746C732.778 376.14 735.592 375.427 738.597 374.607C741.602 373.787 744.607 372.967 747.612 372.147C750.613 371.228 753.569 370.41 756.48 369.693C759.388 368.877 762.054 368.17 764.48 367.572C766.234 367.3 767.987 367.028 769.74 366.756C771.591 366.48 773.355 366.455 775.031 366.681C778.464 366.734 781.406 367.947 783.857 370.32C786.406 372.688 787.992 375.493 788.617 378.735C789.461 382.562 789.217 386.138 787.884 389.462C786.649 392.783 784.351 395.306 780.991 397.033C779.365 397.993 777.632 398.759 775.793 399.332C773.954 399.905 772.158 400.327 770.404 400.599C763.379 401.391 756.518 402.621 749.823 404.29C743.124 405.86 736.488 407.775 729.915 410.033C723.134 412.003 717.473 411.4 712.93 408.224C708.387 405.049 705.418 399.628 704.023 391.962C703.88 390.878 703.737 389.795 703.594 388.711C703.447 387.529 703.351 386.394 703.306 385.307C703 377.892 702.724 370.03 702.478 361.721C702.229 353.313 701.932 344.957 701.589 336.652C701.343 328.344 701.01 320.286 700.589 312.48C700.266 304.669 699.874 297.555 699.413 291.137C699.388 288.167 699.969 285.617 701.155 283.487C702.337 281.258 703.882 279.51 705.791 278.241C707.797 276.967 709.972 276.232 712.316 276.034C714.657 275.737 716.926 276.087 719.124 277.084C721.416 277.977 723.491 279.573 725.351 281.872C727.211 284.17 728.61 287.181 729.548 290.905C730.486 294.629 731.112 299.109 731.427 304.345C731.835 309.477 732.009 314.868 731.949 320.515C731.986 326.159 731.88 331.908 731.632 337.761C731.478 343.512 731.262 348.968 730.986 354.13C730.705 359.193 730.451 363.71 730.223 367.681C730.093 371.648 730.07 374.67 730.156 376.746Z"/>
<path d="M820.722 343.402C820.911 344.373 821.167 345.936 821.489 348.09C821.791 350.148 822.151 352.497 822.568 355.137C822.965 357.68 823.391 360.369 823.846 363.204C824.377 365.922 824.977 368.475 825.643 370.863C828.43 370.307 831.063 369.731 833.542 369.135C836.099 368.423 838.568 367.779 840.952 367.202C843.431 366.607 845.929 366.108 848.447 365.706C850.945 365.207 853.625 364.874 856.488 364.706C860.234 364.463 863.238 365.527 865.499 367.9C867.856 370.254 869.291 372.993 869.802 376.119C870.238 378.856 869.954 381.233 868.95 383.249C868.024 385.148 866.685 386.727 864.934 387.984C863.203 389.339 861.212 390.392 858.963 391.143C856.714 391.895 854.532 392.482 852.418 392.904C845.27 394.129 838.207 395.539 831.231 397.133C824.273 398.825 817.316 400.264 810.36 401.451C807.554 401.91 805.135 401.283 803.103 399.571C801.186 397.936 799.991 395.653 799.517 392.722C799.251 391.363 799.034 389.994 798.864 388.616C798.79 387.218 798.545 385.452 798.127 383.316C797.271 379.452 796.273 374.86 795.133 369.54C794.07 364.104 792.95 358.377 791.772 352.358C790.576 346.242 789.352 339.981 788.098 333.574C786.826 327.07 785.602 320.809 784.424 314.79C783.324 308.655 782.252 302.918 781.208 297.579C780.164 292.24 779.262 287.629 778.502 283.746C778.294 282.678 777.989 281.629 777.588 280.6C777.187 279.57 776.834 278.531 776.529 277.483C775.863 274.59 776.109 272.019 777.267 269.771C778.501 267.406 780.503 265.897 783.27 265.244C790.151 263.668 797.127 262.326 804.198 261.217C811.25 260.011 818.313 258.601 825.386 256.988C827.499 256.566 829.738 256.27 832.101 256.101C834.464 255.932 836.702 256.141 838.813 256.728C840.906 257.218 842.748 258.212 844.338 259.71C846.006 261.092 847.154 263.132 847.782 265.831C848.486 268.918 848.191 272.003 846.896 275.086C845.699 278.149 843.321 280.288 839.765 281.502C837.054 282.447 834.459 283.217 831.98 283.813C829.482 284.311 826.974 284.762 824.457 285.163C822.035 285.546 819.518 285.947 816.905 286.368C814.368 286.673 811.707 287.103 808.92 287.659C809.682 290.533 810.281 293.339 810.716 296.076C811.229 298.697 811.655 301.386 811.995 304.142C812.411 306.783 812.837 309.471 813.273 312.209C813.804 314.927 814.518 317.81 815.414 320.859C820.352 320.075 825.205 319.106 829.971 317.953C834.834 316.781 839.763 315.948 844.758 315.455C847.102 315.189 849.041 315.911 850.574 317.623C852.184 319.218 853.216 321.18 853.672 323.51C854.224 325.821 854.093 328.217 853.281 330.699C852.45 333.084 850.783 335.031 848.283 336.538C847.033 337.292 845.187 338.064 842.745 338.854C840.285 339.547 837.671 340.22 834.904 340.874C832.232 341.508 829.599 342.084 827.005 342.602C824.391 343.022 822.297 343.289 820.722 343.402Z"/>
</mask>
<path d="M586.448 303.178C581.797 306.249 577.603 309.505 573.866 312.946C570.129 316.387 566.552 319.977 563.137 323.718C559.843 327.392 556.63 331.14 553.497 334.963C550.364 338.786 547.123 342.63 543.775 346.493C541.669 348.865 539.572 350.313 537.485 350.837C535.52 351.293 532.89 351.04 529.597 350.078C526.895 349.186 524.861 347.923 523.493 346.287C522.126 344.652 521.21 342.685 520.747 340.386C520.101 335.872 519.489 331.419 518.91 327.026C518.453 322.567 518.103 318.087 517.862 313.587C517.595 308.462 517.216 304.798 516.724 302.595C516.355 300.324 515.772 299.329 514.978 299.612C514.21 299.8 513.271 301.123 512.161 303.579C511.171 305.969 510.031 309.241 508.74 313.396C505.822 321.814 503.657 330.452 502.244 339.31C500.952 348.1 499.755 356.917 498.652 365.762C498.432 367.243 498.138 368.805 497.77 370.449C497.429 371.997 497.068 373.437 496.687 374.768C495.819 377.089 494.528 378.927 492.816 380.281C491.103 381.635 488.887 382.43 486.169 382.666C483.356 382.875 481.057 382.358 479.272 381.116C477.459 379.968 476.017 378.414 474.947 376.454C473.849 374.588 473.055 372.554 472.564 370.35C472.073 368.147 471.776 366.155 471.674 364.374C470.941 357.67 470.806 351.193 471.269 344.942C471.853 338.624 472.626 332.36 473.586 326.152C475.38 315.963 477.987 305.961 481.407 296.144C484.921 286.355 489.523 277.399 495.212 269.274C498.793 264.243 502.658 260.531 506.81 258.138C511.082 255.677 515.195 254.664 519.15 255.097C523.104 255.531 526.683 257.452 529.888 260.86C533.188 264.295 535.668 269.346 537.33 276.011C540.023 288.334 541.81 300.083 542.691 311.259C547.644 306.422 552.724 301.673 557.931 297.014C563.166 292.259 568.594 288.076 574.215 284.465C579.958 280.785 585.933 277.895 592.142 275.794C598.351 273.693 604.919 272.83 611.847 273.205C616.756 273.505 620.957 274.681 624.449 276.73C628.035 278.808 630.839 281.48 632.86 284.749C635.003 287.949 636.358 291.59 636.924 295.669C637.49 299.748 637.282 303.859 636.301 308.002C634.489 315.404 632.153 322.499 629.294 329.286C626.529 336.101 623.636 342.827 620.615 349.464C617.716 356.033 614.831 362.555 611.959 369.03C609.181 375.532 606.813 382.205 604.854 389.05C604.283 391.046 603.651 393.076 602.959 395.14C602.267 397.204 601.413 399.117 600.399 400.881C598.64 404.179 596.291 406.686 593.353 408.403C590.481 410.243 586.874 410.734 582.531 409.878C578.376 409.077 575.408 407.335 573.627 404.651C571.819 402.063 570.711 399.165 570.304 395.956C569.923 392.652 569.961 389.315 570.415 385.945C570.99 382.508 571.51 379.622 571.975 377.285C573.203 371.567 574.868 365.924 576.971 360.358C579.167 354.819 581.518 349.274 584.024 343.723C586.624 338.199 589.211 332.723 591.783 327.294C594.478 321.797 597.003 316.355 599.361 310.966C600.973 307.111 601.877 304.13 602.072 302.024C602.267 299.918 601.766 298.638 600.57 298.186C599.495 297.666 597.752 297.878 595.341 298.822C592.957 299.671 589.993 301.123 586.448 303.178Z" fill="#F4F2E3"/>
<path d="M648.626 333.805C649.178 325.205 649.929 316.411 650.879 307.422C651.49 300.902 653.896 295.306 658.098 290.635C660.198 288.3 662.433 286.66 664.802 285.715C667.27 284.673 669.676 284.372 672.019 284.813C674.362 285.253 676.546 286.334 678.571 288.054C680.598 289.676 682.172 291.982 683.292 294.973C684.602 298.264 685.274 301.641 685.308 305.106C685.341 308.57 685.081 312.029 684.527 315.483C683.059 325.946 681.642 336.311 680.276 346.578C678.91 356.845 677.592 367.162 676.321 377.53C675.775 380.587 675.424 383.649 675.269 386.714C675.214 389.682 675.061 392.648 674.81 395.612C674.685 397.095 674.559 398.577 674.434 400.059C674.31 401.442 674.088 402.823 673.769 404.203C673.219 407.459 671.947 410.008 669.953 411.85C667.958 413.792 665.538 414.835 662.695 414.979C660.145 415.128 657.757 414.489 655.53 413.061C653.401 411.636 651.874 409.479 650.948 406.591C650.21 404.103 649.622 401.518 649.182 398.838C648.742 396.157 648.35 393.527 648.006 390.948C647.403 386.483 647.048 381.824 646.943 376.973C646.837 372.121 646.878 367.273 647.066 362.427C647.256 357.482 647.493 352.587 647.779 347.743C648.163 342.901 648.445 338.255 648.626 333.805Z" fill="#F4F2E3"/>
<path d="M730.156 376.746C732.778 376.14 735.592 375.427 738.597 374.607C741.602 373.787 744.607 372.967 747.612 372.147C750.613 371.228 753.569 370.41 756.48 369.693C759.388 368.877 762.054 368.17 764.48 367.572C766.234 367.3 767.987 367.028 769.74 366.756C771.591 366.48 773.355 366.455 775.031 366.681C778.464 366.734 781.406 367.947 783.857 370.32C786.406 372.688 787.992 375.493 788.617 378.735C789.461 382.562 789.217 386.138 787.884 389.462C786.649 392.783 784.351 395.306 780.991 397.033C779.365 397.993 777.632 398.759 775.793 399.332C773.954 399.905 772.158 400.327 770.404 400.599C763.379 401.391 756.518 402.621 749.823 404.29C743.124 405.86 736.488 407.775 729.915 410.033C723.134 412.003 717.473 411.4 712.93 408.224C708.387 405.049 705.418 399.628 704.023 391.962C703.88 390.878 703.737 389.795 703.594 388.711C703.447 387.529 703.351 386.394 703.306 385.307C703 377.892 702.724 370.03 702.478 361.721C702.229 353.313 701.932 344.957 701.589 336.652C701.343 328.344 701.01 320.286 700.589 312.48C700.266 304.669 699.874 297.555 699.413 291.137C699.388 288.167 699.969 285.617 701.155 283.487C702.337 281.258 703.882 279.51 705.791 278.241C707.797 276.967 709.972 276.232 712.316 276.034C714.657 275.737 716.926 276.087 719.124 277.084C721.416 277.977 723.491 279.573 725.351 281.872C727.211 284.17 728.61 287.181 729.548 290.905C730.486 294.629 731.112 299.109 731.427 304.345C731.835 309.477 732.009 314.868 731.949 320.515C731.986 326.159 731.88 331.908 731.632 337.761C731.478 343.512 731.262 348.968 730.986 354.13C730.705 359.193 730.451 363.71 730.223 367.681C730.093 371.648 730.07 374.67 730.156 376.746Z" fill="#F4F2E3"/>
<path d="M820.722 343.402C820.911 344.373 821.167 345.936 821.489 348.09C821.791 350.148 822.151 352.497 822.568 355.137C822.965 357.68 823.391 360.369 823.846 363.204C824.377 365.922 824.977 368.475 825.643 370.863C828.43 370.307 831.063 369.731 833.542 369.135C836.099 368.423 838.568 367.779 840.952 367.202C843.431 366.607 845.929 366.108 848.447 365.706C850.945 365.207 853.625 364.874 856.488 364.706C860.234 364.463 863.238 365.527 865.499 367.9C867.856 370.254 869.291 372.993 869.802 376.119C870.238 378.856 869.954 381.233 868.95 383.249C868.024 385.148 866.685 386.727 864.934 387.984C863.203 389.339 861.212 390.392 858.963 391.143C856.714 391.895 854.532 392.482 852.418 392.904C845.27 394.129 838.207 395.539 831.231 397.133C824.273 398.825 817.316 400.264 810.36 401.451C807.554 401.91 805.135 401.283 803.103 399.571C801.186 397.936 799.991 395.653 799.517 392.722C799.251 391.363 799.034 389.994 798.864 388.616C798.79 387.218 798.545 385.452 798.127 383.316C797.271 379.452 796.273 374.86 795.133 369.54C794.07 364.104 792.95 358.377 791.772 352.358C790.576 346.242 789.352 339.981 788.098 333.574C786.826 327.07 785.602 320.809 784.424 314.79C783.324 308.655 782.252 302.918 781.208 297.579C780.164 292.24 779.262 287.629 778.502 283.746C778.294 282.678 777.989 281.629 777.588 280.6C777.187 279.57 776.834 278.531 776.529 277.483C775.863 274.59 776.109 272.019 777.267 269.771C778.501 267.406 780.503 265.897 783.27 265.244C790.151 263.668 797.127 262.326 804.198 261.217C811.25 260.011 818.313 258.601 825.386 256.988C827.499 256.566 829.738 256.27 832.101 256.101C834.464 255.932 836.702 256.141 838.813 256.728C840.906 257.218 842.748 258.212 844.338 259.71C846.006 261.092 847.154 263.132 847.782 265.831C848.486 268.918 848.191 272.003 846.896 275.086C845.699 278.149 843.321 280.288 839.765 281.502C837.054 282.447 834.459 283.217 831.98 283.813C829.482 284.311 826.974 284.762 824.457 285.163C822.035 285.546 819.518 285.947 816.905 286.368C814.368 286.673 811.707 287.103 808.92 287.659C809.682 290.533 810.281 293.339 810.716 296.076C811.229 298.697 811.655 301.386 811.995 304.142C812.411 306.783 812.837 309.471 813.273 312.209C813.804 314.927 814.518 317.81 815.414 320.859C820.352 320.075 825.205 319.106 829.971 317.953C834.834 316.781 839.763 315.948 844.758 315.455C847.102 315.189 849.041 315.911 850.574 317.623C852.184 319.218 853.216 321.18 853.672 323.51C854.224 325.821 854.093 328.217 853.281 330.699C852.45 333.084 850.783 335.031 848.283 336.538C847.033 337.292 845.187 338.064 842.745 338.854C840.285 339.547 837.671 340.22 834.904 340.874C832.232 341.508 829.599 342.084 827.005 342.602C824.391 343.022 822.297 343.289 820.722 343.402Z" fill="#F4F2E3"/>
<path d="M586.448 303.178C581.797 306.249 577.603 309.505 573.866 312.946C570.129 316.387 566.552 319.977 563.137 323.718C559.843 327.392 556.63 331.14 553.497 334.963C550.364 338.786 547.123 342.63 543.775 346.493C541.669 348.865 539.572 350.313 537.485 350.837C535.52 351.293 532.89 351.04 529.597 350.078C526.895 349.186 524.861 347.923 523.493 346.287C522.126 344.652 521.21 342.685 520.747 340.386C520.101 335.872 519.489 331.419 518.91 327.026C518.453 322.567 518.103 318.087 517.862 313.587C517.595 308.462 517.216 304.798 516.724 302.595C516.355 300.324 515.772 299.329 514.978 299.612C514.21 299.8 513.271 301.123 512.161 303.579C511.171 305.969 510.031 309.241 508.74 313.396C505.822 321.814 503.657 330.452 502.244 339.31C500.952 348.1 499.755 356.917 498.652 365.762C498.432 367.243 498.138 368.805 497.77 370.449C497.429 371.997 497.068 373.437 496.687 374.768C495.819 377.089 494.528 378.927 492.816 380.281C491.103 381.635 488.887 382.43 486.169 382.666C483.356 382.875 481.057 382.358 479.272 381.116C477.459 379.968 476.017 378.414 474.947 376.454C473.849 374.588 473.055 372.554 472.564 370.35C472.073 368.147 471.776 366.155 471.674 364.374C470.941 357.67 470.806 351.193 471.269 344.942C471.853 338.624 472.626 332.36 473.586 326.152C475.38 315.963 477.987 305.961 481.407 296.144C484.921 286.355 489.523 277.399 495.212 269.274C498.793 264.243 502.658 260.531 506.81 258.138C511.082 255.677 515.195 254.664 519.15 255.097C523.104 255.531 526.683 257.452 529.888 260.86C533.188 264.295 535.668 269.346 537.33 276.011C540.023 288.334 541.81 300.083 542.691 311.259C547.644 306.422 552.724 301.673 557.931 297.014C563.166 292.259 568.594 288.076 574.215 284.465C579.958 280.785 585.933 277.895 592.142 275.794C598.351 273.693 604.919 272.83 611.847 273.205C616.756 273.505 620.957 274.681 624.449 276.73C628.035 278.808 630.839 281.48 632.86 284.749C635.003 287.949 636.358 291.59 636.924 295.669C637.49 299.748 637.282 303.859 636.301 308.002C634.489 315.404 632.153 322.499 629.294 329.286C626.529 336.101 623.636 342.827 620.615 349.464C617.716 356.033 614.831 362.555 611.959 369.03C609.181 375.532 606.813 382.205 604.854 389.05C604.283 391.046 603.651 393.076 602.959 395.14C602.267 397.204 601.413 399.117 600.399 400.881C598.64 404.179 596.291 406.686 593.353 408.403C590.481 410.243 586.874 410.734 582.531 409.878C578.376 409.077 575.408 407.335 573.627 404.651C571.819 402.063 570.711 399.165 570.304 395.956C569.923 392.652 569.961 389.315 570.415 385.945C570.99 382.508 571.51 379.622 571.975 377.285C573.203 371.567 574.868 365.924 576.971 360.358C579.167 354.819 581.518 349.274 584.024 343.723C586.624 338.199 589.211 332.723 591.783 327.294C594.478 321.797 597.003 316.355 599.361 310.966C600.973 307.111 601.877 304.13 602.072 302.024C602.267 299.918 601.766 298.638 600.57 298.186C599.495 297.666 597.752 297.878 595.341 298.822C592.957 299.671 589.993 301.123 586.448 303.178Z" stroke="black" stroke-width="12" mask="url(#path-5-outside-1_31_413)"/>
<path d="M648.626 333.805C649.178 325.205 649.929 316.411 650.879 307.422C651.49 300.902 653.896 295.306 658.098 290.635C660.198 288.3 662.433 286.66 664.802 285.715C667.27 284.673 669.676 284.372 672.019 284.813C674.362 285.253 676.546 286.334 678.571 288.054C680.598 289.676 682.172 291.982 683.292 294.973C684.602 298.264 685.274 301.641 685.308 305.106C685.341 308.57 685.081 312.029 684.527 315.483C683.059 325.946 681.642 336.311 680.276 346.578C678.91 356.845 677.592 367.162 676.321 377.53C675.775 380.587 675.424 383.649 675.269 386.714C675.214 389.682 675.061 392.648 674.81 395.612C674.685 397.095 674.559 398.577 674.434 400.059C674.31 401.442 674.088 402.823 673.769 404.203C673.219 407.459 671.947 410.008 669.953 411.85C667.958 413.792 665.538 414.835 662.695 414.979C660.145 415.128 657.757 414.489 655.53 413.061C653.401 411.636 651.874 409.479 650.948 406.591C650.21 404.103 649.622 401.518 649.182 398.838C648.742 396.157 648.35 393.527 648.006 390.948C647.403 386.483 647.048 381.824 646.943 376.973C646.837 372.121 646.878 367.273 647.066 362.427C647.256 357.482 647.493 352.587 647.779 347.743C648.163 342.901 648.445 338.255 648.626 333.805Z" stroke="black" stroke-width="12" mask="url(#path-5-outside-1_31_413)"/>
<path d="M730.156 376.746C732.778 376.14 735.592 375.427 738.597 374.607C741.602 373.787 744.607 372.967 747.612 372.147C750.613 371.228 753.569 370.41 756.48 369.693C759.388 368.877 762.054 368.17 764.48 367.572C766.234 367.3 767.987 367.028 769.74 366.756C771.591 366.48 773.355 366.455 775.031 366.681C778.464 366.734 781.406 367.947 783.857 370.32C786.406 372.688 787.992 375.493 788.617 378.735C789.461 382.562 789.217 386.138 787.884 389.462C786.649 392.783 784.351 395.306 780.991 397.033C779.365 397.993 777.632 398.759 775.793 399.332C773.954 399.905 772.158 400.327 770.404 400.599C763.379 401.391 756.518 402.621 749.823 404.29C743.124 405.86 736.488 407.775 729.915 410.033C723.134 412.003 717.473 411.4 712.93 408.224C708.387 405.049 705.418 399.628 704.023 391.962C703.88 390.878 703.737 389.795 703.594 388.711C703.447 387.529 703.351 386.394 703.306 385.307C703 377.892 702.724 370.03 702.478 361.721C702.229 353.313 701.932 344.957 701.589 336.652C701.343 328.344 701.01 320.286 700.589 312.48C700.266 304.669 699.874 297.555 699.413 291.137C699.388 288.167 699.969 285.617 701.155 283.487C702.337 281.258 703.882 279.51 705.791 278.241C707.797 276.967 709.972 276.232 712.316 276.034C714.657 275.737 716.926 276.087 719.124 277.084C721.416 277.977 723.491 279.573 725.351 281.872C727.211 284.17 728.61 287.181 729.548 290.905C730.486 294.629 731.112 299.109 731.427 304.345C731.835 309.477 732.009 314.868 731.949 320.515C731.986 326.159 731.88 331.908 731.632 337.761C731.478 343.512 731.262 348.968 730.986 354.13C730.705 359.193 730.451 363.71 730.223 367.681C730.093 371.648 730.07 374.67 730.156 376.746Z" stroke="black" stroke-width="12" mask="url(#path-5-outside-1_31_413)"/>
<path d="M820.722 343.402C820.911 344.373 821.167 345.936 821.489 348.09C821.791 350.148 822.151 352.497 822.568 355.137C822.965 357.68 823.391 360.369 823.846 363.204C824.377 365.922 824.977 368.475 825.643 370.863C828.43 370.307 831.063 369.731 833.542 369.135C836.099 368.423 838.568 367.779 840.952 367.202C843.431 366.607 845.929 366.108 848.447 365.706C850.945 365.207 853.625 364.874 856.488 364.706C860.234 364.463 863.238 365.527 865.499 367.9C867.856 370.254 869.291 372.993 869.802 376.119C870.238 378.856 869.954 381.233 868.95 383.249C868.024 385.148 866.685 386.727 864.934 387.984C863.203 389.339 861.212 390.392 858.963 391.143C856.714 391.895 854.532 392.482 852.418 392.904C845.27 394.129 838.207 395.539 831.231 397.133C824.273 398.825 817.316 400.264 810.36 401.451C807.554 401.91 805.135 401.283 803.103 399.571C801.186 397.936 799.991 395.653 799.517 392.722C799.251 391.363 799.034 389.994 798.864 388.616C798.79 387.218 798.545 385.452 798.127 383.316C797.271 379.452 796.273 374.86 795.133 369.54C794.07 364.104 792.95 358.377 791.772 352.358C790.576 346.242 789.352 339.981 788.098 333.574C786.826 327.07 785.602 320.809 784.424 314.79C783.324 308.655 782.252 302.918 781.208 297.579C780.164 292.24 779.262 287.629 778.502 283.746C778.294 282.678 777.989 281.629 777.588 280.6C777.187 279.57 776.834 278.531 776.529 277.483C775.863 274.59 776.109 272.019 777.267 269.771C778.501 267.406 780.503 265.897 783.27 265.244C790.151 263.668 797.127 262.326 804.198 261.217C811.25 260.011 818.313 258.601 825.386 256.988C827.499 256.566 829.738 256.27 832.101 256.101C834.464 255.932 836.702 256.141 838.813 256.728C840.906 257.218 842.748 258.212 844.338 259.71C846.006 261.092 847.154 263.132 847.782 265.831C848.486 268.918 848.191 272.003 846.896 275.086C845.699 278.149 843.321 280.288 839.765 281.502C837.054 282.447 834.459 283.217 831.98 283.813C829.482 284.311 826.974 284.762 824.457 285.163C822.035 285.546 819.518 285.947 816.905 286.368C814.368 286.673 811.707 287.103 808.92 287.659C809.682 290.533 810.281 293.339 810.716 296.076C811.229 298.697 811.655 301.386 811.995 304.142C812.411 306.783 812.837 309.471 813.273 312.209C813.804 314.927 814.518 317.81 815.414 320.859C820.352 320.075 825.205 319.106 829.971 317.953C834.834 316.781 839.763 315.948 844.758 315.455C847.102 315.189 849.041 315.911 850.574 317.623C852.184 319.218 853.216 321.18 853.672 323.51C854.224 325.821 854.093 328.217 853.281 330.699C852.45 333.084 850.783 335.031 848.283 336.538C847.033 337.292 845.187 338.064 842.745 338.854C840.285 339.547 837.671 340.22 834.904 340.874C832.232 341.508 829.599 342.084 827.005 342.602C824.391 343.022 822.297 343.289 820.722 343.402Z" stroke="black" stroke-width="12" mask="url(#path-5-outside-1_31_413)"/>
<mask id="path-6-outside-2_31_413" maskUnits="userSpaceOnUse" x="298" y="239" width="701" height="341" fill="black">
<rect fill="white" x="298" y="239" width="701" height="341"/>
<path fill-rule="evenodd" clip-rule="evenodd" d="M324.613 554.535L324.584 554.506C315.828 545.586 309.815 534.925 306.554 522.594C303.291 510.255 303.164 497.472 306.119 484.302C308.974 471.577 315.343 459.729 325.074 448.766L325.097 448.74L325.121 448.714C335.086 437.909 346.584 429.059 359.601 422.174L359.639 422.155L362.079 420.934L356.828 411.876L351.649 403.207L351.64 403.192C341.77 387.005 334.315 371.913 329.323 357.923C324.172 343.489 323.519 327.951 327.229 311.415C331.184 293.787 338.164 279.466 348.333 268.679C358.401 258 370.229 250.924 383.777 247.562C397.178 244.237 410.994 244.156 425.175 247.273C439.946 250.52 451.119 257.849 458.266 269.403C465.697 280.988 467.646 294.258 464.357 308.919C461.949 319.651 457.32 329.849 450.527 339.5C448.757 342.063 446.481 344.001 443.66 345.052C440.851 346.099 437.813 346.148 434.704 345.465C432.967 345.083 431.154 344.25 429.323 343.167C426.669 341.723 424.629 339.571 423.211 336.846L423.06 336.556L422.962 336.243C422.029 333.257 421.898 330.209 422.581 327.166C422.737 326.47 423.077 325.736 423.326 325.222C423.627 324.601 424.027 323.846 424.511 322.974C425.48 321.226 426.862 318.873 428.641 315.934C432.082 310.251 434.104 305.61 434.926 301.948C436.44 295.201 435.508 289.946 432.612 285.762C429.67 281.513 424.849 278.442 417.612 276.852C403.871 273.831 391.345 275.512 379.843 281.799C369.082 287.908 361.243 300.084 356.913 319.388C355.16 327.201 355.401 334.631 357.578 341.747C360.185 349.314 365.977 361.739 375.09 379.165L375.169 379.316L375.233 379.473C377.016 383.809 379.897 389.693 383.92 397.167L383.962 397.245L384 397.325C385.268 399.976 387.929 404.521 392.083 411.061C417.416 405.419 446.313 406.249 478.679 413.363C501.599 418.401 523.101 425.827 543.176 435.649C543.977 435.992 544.71 436.337 545.359 436.675C582.412 455.313 647.485 476.582 746.885 457.394C847.07 437.013 909.439 379.142 928.545 359.423C929.058 358.894 929.599 358.406 930.165 357.959C924.191 343.982 925.813 329.279 926.53 324.098C926.867 321.653 928.101 319.591 929.364 318.131C930.659 316.634 932.445 315.235 934.581 314.443C936.622 313.687 939.678 313.29 942.447 315.082C945.524 317.073 946.261 320.435 945.902 323.036C945.066 329.082 943.817 344.682 953.055 355.376C962.515 365.849 977.622 365.814 983.388 365.356C986.155 365.135 989.449 366.229 991.156 369.458C992.644 372.273 992.099 375.21 991.265 377.183C990.387 379.261 988.94 380.99 987.39 382.235C985.893 383.437 983.754 384.621 981.238 384.821C976.294 385.215 963.135 385.688 950.665 379.582C928.807 402.015 860.924 464.323 752.177 486.42L752.098 486.436L752.02 486.451C643.167 507.49 577.432 486.492 532.043 464.1C530.797 463.485 529.616 462.884 528.497 462.295C512.323 454.253 494.416 448.063 474.758 443.742C463.751 441.323 451.419 439.695 437.748 438.875L437.707 438.872L437.666 438.869C426.847 437.98 417.663 437.929 410.07 438.67C418.733 452.972 425.29 465.986 429.695 477.698C434.723 491.065 435.772 504.478 432.773 517.849C430.337 528.706 425.206 538.743 417.476 547.943C409.73 557.163 400.462 564.106 389.693 568.724L389.654 568.74L389.615 568.756C378.821 573.095 367.98 574.129 357.187 571.756C344.416 568.95 333.532 563.227 324.642 554.564L324.613 554.535ZM387.762 534.582C395.541 527.745 400.419 519.646 402.532 510.227C404.332 502.206 403.058 492.756 398.204 481.694C393.564 471.119 387.045 459.519 378.612 446.889C368.331 451.289 359.246 457.348 351.333 465.071C343.107 473.227 338.209 481.549 336.309 490.019C333.359 503.166 334.619 514.335 339.743 523.79C344.833 533.182 352.789 539.076 363.94 541.527C372.354 543.376 380.199 541.229 387.762 534.582Z"/>
</mask>
<path fill-rule="evenodd" clip-rule="evenodd" d="M324.613 554.535L324.584 554.506C315.828 545.586 309.815 534.925 306.554 522.594C303.291 510.255 303.164 497.472 306.119 484.302C308.974 471.577 315.343 459.729 325.074 448.766L325.097 448.74L325.121 448.714C335.086 437.909 346.584 429.059 359.601 422.174L359.639 422.155L362.079 420.934L356.828 411.876L351.649 403.207L351.64 403.192C341.77 387.005 334.315 371.913 329.323 357.923C324.172 343.489 323.519 327.951 327.229 311.415C331.184 293.787 338.164 279.466 348.333 268.679C358.401 258 370.229 250.924 383.777 247.562C397.178 244.237 410.994 244.156 425.175 247.273C439.946 250.52 451.119 257.849 458.266 269.403C465.697 280.988 467.646 294.258 464.357 308.919C461.949 319.651 457.32 329.849 450.527 339.5C448.757 342.063 446.481 344.001 443.66 345.052C440.851 346.099 437.813 346.148 434.704 345.465C432.967 345.083 431.154 344.25 429.323 343.167C426.669 341.723 424.629 339.571 423.211 336.846L423.06 336.556L422.962 336.243C422.029 333.257 421.898 330.209 422.581 327.166C422.737 326.47 423.077 325.736 423.326 325.222C423.627 324.601 424.027 323.846 424.511 322.974C425.48 321.226 426.862 318.873 428.641 315.934C432.082 310.251 434.104 305.61 434.926 301.948C436.44 295.201 435.508 289.946 432.612 285.762C429.67 281.513 424.849 278.442 417.612 276.852C403.871 273.831 391.345 275.512 379.843 281.799C369.082 287.908 361.243 300.084 356.913 319.388C355.16 327.201 355.401 334.631 357.578 341.747C360.185 349.314 365.977 361.739 375.09 379.165L375.169 379.316L375.233 379.473C377.016 383.809 379.897 389.693 383.92 397.167L383.962 397.245L384 397.325C385.268 399.976 387.929 404.521 392.083 411.061C417.416 405.419 446.313 406.249 478.679 413.363C501.599 418.401 523.101 425.827 543.176 435.649C543.977 435.992 544.71 436.337 545.359 436.675C582.412 455.313 647.485 476.582 746.885 457.394C847.07 437.013 909.439 379.142 928.545 359.423C929.058 358.894 929.599 358.406 930.165 357.959C924.191 343.982 925.813 329.279 926.53 324.098C926.867 321.653 928.101 319.591 929.364 318.131C930.659 316.634 932.445 315.235 934.581 314.443C936.622 313.687 939.678 313.29 942.447 315.082C945.524 317.073 946.261 320.435 945.902 323.036C945.066 329.082 943.817 344.682 953.055 355.376C962.515 365.849 977.622 365.814 983.388 365.356C986.155 365.135 989.449 366.229 991.156 369.458C992.644 372.273 992.099 375.21 991.265 377.183C990.387 379.261 988.94 380.99 987.39 382.235C985.893 383.437 983.754 384.621 981.238 384.821C976.294 385.215 963.135 385.688 950.665 379.582C928.807 402.015 860.924 464.323 752.177 486.42L752.098 486.436L752.02 486.451C643.167 507.49 577.432 486.492 532.043 464.1C530.797 463.485 529.616 462.884 528.497 462.295C512.323 454.253 494.416 448.063 474.758 443.742C463.751 441.323 451.419 439.695 437.748 438.875L437.707 438.872L437.666 438.869C426.847 437.98 417.663 437.929 410.07 438.67C418.733 452.972 425.29 465.986 429.695 477.698C434.723 491.065 435.772 504.478 432.773 517.849C430.337 528.706 425.206 538.743 417.476 547.943C409.73 557.163 400.462 564.106 389.693 568.724L389.654 568.74L389.615 568.756C378.821 573.095 367.98 574.129 357.187 571.756C344.416 568.95 333.532 563.227 324.642 554.564L324.613 554.535ZM387.762 534.582C395.541 527.745 400.419 519.646 402.532 510.227C404.332 502.206 403.058 492.756 398.204 481.694C393.564 471.119 387.045 459.519 378.612 446.889C368.331 451.289 359.246 457.348 351.333 465.071C343.107 473.227 338.209 481.549 336.309 490.019C333.359 503.166 334.619 514.335 339.743 523.79C344.833 533.182 352.789 539.076 363.94 541.527C372.354 543.376 380.199 541.229 387.762 534.582Z" fill="#F4F2E3"/>
<path d="M324.584 554.506L328.867 550.303L328.866 550.303L324.584 554.506ZM324.613 554.535L320.331 558.738L320.377 558.785L320.425 558.832L324.613 554.535ZM306.554 522.594L312.354 521.06L312.354 521.06L306.554 522.594ZM306.119 484.302L311.974 485.615L311.974 485.615L306.119 484.302ZM325.074 448.766L320.588 444.782L320.587 444.783L325.074 448.766ZM325.097 448.74L320.686 444.673L320.648 444.714L320.611 444.756L325.097 448.74ZM325.121 448.714L320.71 444.647L320.71 444.647L325.121 448.714ZM359.601 422.174L356.797 416.87L356.796 416.87L359.601 422.174ZM359.639 422.155L356.955 416.788L356.895 416.818L356.835 416.85L359.639 422.155ZM362.079 420.934L364.762 426.301L370.47 423.447L367.27 417.926L362.079 420.934ZM356.828 411.876L362.019 408.868L361.999 408.833L361.979 408.799L356.828 411.876ZM351.649 403.207L356.8 400.13L356.785 400.106L356.771 400.082L351.649 403.207ZM351.64 403.192L346.517 406.316L346.518 406.317L351.64 403.192ZM329.323 357.923L323.672 359.94L323.672 359.94L329.323 357.923ZM327.229 311.415L333.083 312.728L333.083 312.728L327.229 311.415ZM348.333 268.679L352.699 272.795L352.699 272.795L348.333 268.679ZM383.777 247.562L385.222 253.386L385.222 253.386L383.777 247.562ZM425.175 247.273L426.463 241.413L426.463 241.413L425.175 247.273ZM458.266 269.403L453.164 272.559L453.189 272.601L453.216 272.642L458.266 269.403ZM464.357 308.919L458.502 307.605L458.502 307.605L464.357 308.919ZM450.527 339.5L445.621 336.046L445.605 336.068L445.59 336.09L450.527 339.5ZM443.66 345.052L445.755 350.675L445.755 350.675L443.66 345.052ZM434.704 345.465L433.416 351.325L433.416 351.325L434.704 345.465ZM429.323 343.167L432.375 338.002L432.284 337.948L432.191 337.897L429.323 343.167ZM423.211 336.846L428.534 334.076L428.534 334.076L423.211 336.846ZM423.06 336.556L417.333 338.346L417.492 338.854L417.738 339.326L423.06 336.556ZM422.962 336.243L428.689 334.453L428.689 334.453L422.962 336.243ZM422.581 327.166L428.435 328.479L428.435 328.479L422.581 327.166ZM423.326 325.222L417.927 322.604L417.927 322.604L423.326 325.222ZM424.511 322.974L419.263 320.064L419.263 320.064L424.511 322.974ZM428.641 315.934L433.774 319.041L433.774 319.041L428.641 315.934ZM434.926 301.948L440.78 303.261L440.78 303.261L434.926 301.948ZM432.612 285.762L437.545 282.347L437.545 282.347L432.612 285.762ZM417.612 276.852L416.324 282.712L416.324 282.712L417.612 276.852ZM379.843 281.799L376.966 276.535L376.923 276.558L376.882 276.581L379.843 281.799ZM356.913 319.388L351.058 318.075L351.058 318.075L356.913 319.388ZM357.578 341.747L351.841 343.503L351.871 343.603L351.905 343.702L357.578 341.747ZM375.09 379.165L380.407 376.385L380.407 376.385L375.09 379.165ZM375.169 379.316L380.718 377.034L380.613 376.779L380.486 376.535L375.169 379.316ZM375.233 379.473L369.684 381.754L369.684 381.754L375.233 379.473ZM383.92 397.167L389.204 394.324L389.204 394.324L383.92 397.167ZM383.962 397.245L389.375 394.657L389.314 394.528L389.246 394.402L383.962 397.245ZM384 397.325L389.414 394.737L389.414 394.737L384 397.325ZM392.083 411.061L387.018 414.278L389.276 417.833L393.387 416.917L392.083 411.061ZM478.679 413.363L479.967 407.503L479.967 407.503L478.679 413.363ZM543.176 435.649L540.539 441.038L540.673 441.104L540.81 441.162L543.176 435.649ZM545.359 436.675L542.588 441.997L542.625 442.016L542.663 442.035L545.359 436.675ZM746.885 457.394L748.022 463.285L748.051 463.279L748.081 463.273L746.885 457.394ZM928.545 359.423L932.854 363.598L932.855 363.598L928.545 359.423ZM930.165 357.959L933.883 362.669L937.487 359.823L935.682 355.601L930.165 357.959ZM926.53 324.098L932.473 324.919L932.473 324.919L926.53 324.098ZM929.364 318.131L933.901 322.057L933.901 322.057L929.364 318.131ZM934.581 314.443L932.497 308.817L932.497 308.817L934.581 314.443ZM942.447 315.082L939.187 320.119L939.187 320.119L942.447 315.082ZM945.902 323.036L939.958 322.215L939.958 322.215L945.902 323.036ZM953.055 355.376L948.515 359.299L948.558 359.349L948.603 359.398L953.055 355.376ZM983.388 365.356L982.912 359.374L982.912 359.374L983.388 365.356ZM991.156 369.458L996.46 366.654L996.46 366.654L991.156 369.458ZM991.265 377.183L985.738 374.848L985.738 374.848L991.265 377.183ZM987.39 382.235L991.148 386.913L991.148 386.913L987.39 382.235ZM981.238 384.821L981.714 390.802L981.714 390.802L981.238 384.821ZM950.665 379.582L953.304 374.193L949.4 372.282L946.368 375.394L950.665 379.582ZM752.177 486.42L753.371 492.3L753.372 492.3L752.177 486.42ZM752.098 486.436L753.238 492.327L753.265 492.321L753.293 492.316L752.098 486.436ZM752.02 486.451L753.158 492.342L753.159 492.342L752.02 486.451ZM532.043 464.1L534.698 458.719L534.698 458.719L532.043 464.1ZM528.497 462.295L531.291 456.985L531.23 456.953L531.168 456.922L528.497 462.295ZM474.758 443.742L473.47 449.602L473.47 449.602L474.758 443.742ZM437.748 438.875L437.385 444.864L437.388 444.864L437.748 438.875ZM437.707 438.872L437.218 444.852L437.281 444.857L437.344 444.861L437.707 438.872ZM437.666 438.869L437.175 444.849L437.178 444.849L437.666 438.869ZM410.07 438.67L409.488 432.698L399.999 433.624L404.938 441.778L410.07 438.67ZM429.695 477.698L424.079 479.81L424.079 479.81L429.695 477.698ZM432.773 517.849L426.918 516.536L426.918 516.536L432.773 517.849ZM417.476 547.943L412.882 544.084L412.882 544.084L417.476 547.943ZM389.693 568.724L392.056 574.239L392.057 574.238L389.693 568.724ZM389.654 568.74L391.895 574.306L391.957 574.281L392.017 574.255L389.654 568.74ZM389.615 568.756L391.853 574.323L391.856 574.322L389.615 568.756ZM357.187 571.756L358.475 565.896L358.475 565.896L357.187 571.756ZM324.642 554.564L320.454 558.861L320.455 558.861L324.642 554.564ZM402.532 510.227L396.678 508.914L396.678 508.914L402.532 510.227ZM387.762 534.582L391.723 539.088L391.723 539.088L387.762 534.582ZM398.204 481.694L403.699 479.284L403.699 479.284L398.204 481.694ZM378.612 446.889L383.602 443.557L380.834 439.411L376.251 441.373L378.612 446.889ZM351.333 465.071L347.142 460.777L347.125 460.794L347.108 460.81L351.333 465.071ZM336.309 490.019L342.163 491.332L342.163 491.332L336.309 490.019ZM339.743 523.79L345.018 520.931L345.018 520.931L339.743 523.79ZM363.94 541.527L365.228 535.666L365.228 535.666L363.94 541.527ZM320.302 558.709L320.331 558.738L328.895 550.333L328.867 550.303L320.302 558.709ZM300.753 524.128C304.274 537.44 310.799 549.027 320.302 558.709L328.866 550.303C320.858 542.144 315.356 532.411 312.354 521.06L300.753 524.128ZM300.265 482.988C297.114 497.034 297.227 510.796 300.753 524.128L312.354 521.06C309.354 509.714 309.215 497.911 311.974 485.615L300.265 482.988ZM320.587 444.783C310.281 456.394 303.372 469.136 300.265 482.988L311.974 485.615C314.575 474.018 320.406 463.064 329.561 452.749L320.587 444.783ZM320.611 444.756L320.588 444.782L329.56 452.751L329.583 452.724L320.611 444.756ZM320.71 444.647L320.686 444.673L329.508 452.807L329.532 452.782L320.71 444.647ZM356.796 416.87C343.179 424.072 331.137 433.34 320.71 444.647L329.532 452.782C339.034 442.477 349.989 434.045 362.406 427.478L356.796 416.87ZM356.835 416.85L356.797 416.87L362.405 427.479L362.443 427.459L356.835 416.85ZM359.395 415.568L356.955 416.788L362.322 427.521L364.762 426.301L359.395 415.568ZM351.637 414.885L356.888 423.943L367.27 417.926L362.019 408.868L351.637 414.885ZM346.498 406.284L351.678 414.954L361.979 408.799L356.8 400.13L346.498 406.284ZM346.518 406.317L346.527 406.331L356.771 400.082L356.762 400.068L346.518 406.317ZM323.672 359.94C328.835 374.408 336.492 389.874 346.517 406.316L356.763 400.069C347.049 384.136 339.796 369.417 334.974 355.907L323.672 359.94ZM321.374 310.102C317.448 327.603 318.094 344.309 323.672 359.94L334.974 355.907C330.25 342.668 329.591 328.298 333.083 312.728L321.374 310.102ZM343.967 264.563C332.893 276.31 325.506 291.687 321.374 310.102L333.083 312.728C336.862 295.887 343.434 282.623 352.699 272.795L343.967 264.563ZM382.332 241.739C367.597 245.395 354.774 253.101 343.967 264.563L352.699 272.795C362.028 262.9 372.86 256.453 385.222 253.386L382.332 241.739ZM426.463 241.413C411.435 238.11 396.682 238.178 382.332 241.739L385.222 253.386C397.674 250.296 410.553 250.202 423.887 253.133L426.463 241.413ZM463.369 266.246C455.238 253.103 442.561 244.951 426.463 241.413L423.887 253.133C437.33 256.088 446.999 262.595 453.164 272.559L463.369 266.246ZM470.211 310.232C473.805 294.213 471.72 279.265 463.316 266.163L453.216 272.642C459.673 282.71 461.487 294.302 458.502 307.605L470.211 310.232ZM455.434 342.953C462.642 332.713 467.617 321.796 470.211 310.232L458.502 307.605C456.281 317.507 451.999 326.985 445.621 336.046L455.434 342.953ZM445.755 350.675C449.915 349.125 453.119 346.305 455.464 342.909L445.59 336.09C444.396 337.82 443.047 338.878 441.566 339.43L445.755 350.675ZM433.416 351.325C437.381 352.196 441.63 352.211 445.755 350.675L441.566 339.43C440.071 339.986 438.246 340.1 435.992 339.605L433.416 351.325ZM426.27 348.333C428.375 349.577 430.809 350.752 433.416 351.325L435.992 339.605C435.125 339.414 433.932 338.922 432.375 338.002L426.27 348.333ZM417.889 339.616C419.818 343.323 422.679 346.383 426.454 348.438L432.191 337.897C430.659 337.064 429.44 335.818 428.534 334.076L417.889 339.616ZM417.738 339.326L417.889 339.616L428.534 334.076L428.382 333.786L417.738 339.326ZM417.236 338.034L417.333 338.346L428.787 334.765L428.689 334.453L417.236 338.034ZM416.726 325.852C415.811 329.933 415.99 334.051 417.236 338.034L428.689 334.453C428.067 332.464 427.985 330.486 428.435 328.479L416.726 325.852ZM417.927 322.604C417.686 323.103 417.052 324.402 416.726 325.852L428.435 328.479C428.423 328.534 428.416 328.551 428.425 328.524C428.433 328.498 428.45 328.451 428.479 328.38C428.54 328.231 428.619 328.059 428.725 327.84L417.927 322.604ZM419.263 320.064C418.755 320.981 418.296 321.843 417.927 322.604L428.725 327.84C428.958 327.359 429.299 326.71 429.758 325.884L419.263 320.064ZM423.509 312.826C421.715 315.789 420.288 318.217 419.263 320.064L429.758 325.884C430.673 324.234 432.009 321.957 433.774 319.041L423.509 312.826ZM429.071 300.635C428.45 303.404 426.786 307.413 423.509 312.826L433.774 319.041C437.378 313.089 439.759 307.816 440.78 303.261L429.071 300.635ZM427.679 289.178C429.421 291.694 430.303 295.146 429.071 300.635L440.78 303.261C442.577 295.255 441.595 288.197 437.545 282.347L427.679 289.178ZM416.324 282.712C422.5 284.069 425.816 286.487 427.679 289.178L437.545 282.347C433.524 276.539 427.199 272.816 418.9 270.992L416.324 282.712ZM382.721 287.064C392.871 281.516 403.906 279.982 416.324 282.712L418.9 270.992C403.837 267.681 389.819 269.509 376.966 276.535L382.721 287.064ZM362.767 320.701C366.903 302.266 374.093 291.963 382.805 287.017L376.882 276.581C364.072 283.853 355.584 297.902 351.058 318.075L362.767 320.701ZM363.316 339.992C361.461 333.931 361.228 327.561 362.767 320.701L351.058 318.075C349.092 326.84 349.341 335.331 351.841 343.503L363.316 339.992ZM380.407 376.385C371.297 358.963 365.696 346.891 363.251 339.793L351.905 343.702C354.674 351.737 360.658 364.515 369.773 381.946L380.407 376.385ZM380.486 376.535L380.407 376.385L369.773 381.946L369.852 382.096L380.486 376.535ZM380.783 377.191L380.718 377.034L369.62 381.597L369.684 381.754L380.783 377.191ZM389.204 394.324C385.218 386.918 382.449 381.245 380.783 377.191L369.684 381.754C371.583 386.373 374.577 392.468 378.637 400.011L389.204 394.324ZM389.246 394.402L389.204 394.324L378.637 400.011L378.679 400.089L389.246 394.402ZM389.414 394.737L389.375 394.657L378.549 399.833L378.587 399.913L389.414 394.737ZM397.147 407.844C392.99 401.299 390.508 397.027 389.414 394.737L378.587 399.913C380.027 402.925 382.868 407.744 387.018 414.278L397.147 407.844ZM479.967 407.503C446.99 400.255 417.178 399.325 390.778 405.204L393.387 416.917C417.654 411.513 445.636 412.244 477.391 419.223L479.967 407.503ZM545.813 430.259C525.287 420.217 503.33 412.638 479.967 407.503L477.391 419.223C499.868 424.164 520.916 431.437 540.539 441.038L545.813 430.259ZM548.13 431.353C547.326 430.934 546.455 430.527 545.542 430.135L540.81 441.162C541.499 441.458 542.094 441.739 542.588 441.997L548.13 431.353ZM745.747 451.502C647.799 470.411 584.068 449.429 548.055 431.315L542.663 442.035C580.756 461.196 647.171 482.754 748.022 463.285L745.747 451.502ZM924.236 355.247C905.536 374.547 844.196 431.475 745.689 451.514L748.081 463.273C849.944 442.551 913.341 383.737 932.854 363.598L924.236 355.247ZM926.447 353.25C925.675 353.86 924.936 354.526 924.236 355.247L932.855 363.598C933.18 363.262 933.523 362.952 933.883 362.669L926.447 353.25ZM920.586 323.276C919.842 328.658 917.996 344.754 924.648 360.317L935.682 355.601C930.386 343.21 931.784 329.901 932.473 324.919L920.586 323.276ZM924.827 314.205C923.06 316.247 921.129 319.349 920.586 323.276L932.473 324.919C932.606 323.957 933.141 322.935 933.901 322.057L924.827 314.205ZM932.497 308.817C929.249 310.021 926.659 312.088 924.827 314.205L933.901 322.057C934.659 321.181 935.64 320.45 936.666 320.07L932.497 308.817ZM945.707 310.045C940.749 306.836 935.512 307.7 932.497 308.817L936.666 320.07C937.129 319.898 937.645 319.795 938.109 319.806C938.526 319.815 938.864 319.91 939.187 320.119L945.707 310.045ZM951.845 323.857C952.421 319.691 951.299 313.665 945.707 310.045L939.187 320.119C939.549 320.353 939.723 320.61 939.836 320.915C939.974 321.286 940.02 321.765 939.958 322.215L951.845 323.857ZM957.595 351.454C954.016 347.311 952.307 342.018 951.656 336.73C951.007 331.46 951.463 326.622 951.845 323.857L939.958 322.215C939.505 325.496 938.918 331.481 939.746 338.197C940.57 344.894 942.855 352.748 948.515 359.299L957.595 351.454ZM982.912 359.374C980.374 359.576 975.794 359.677 970.89 358.604C965.992 357.532 961.14 355.375 957.507 351.354L948.603 359.398C954.43 365.85 961.862 368.912 968.324 370.326C974.78 371.739 980.636 371.593 983.864 371.337L982.912 359.374ZM996.46 366.654C993.363 360.797 987.434 359.015 982.912 359.374L983.864 371.337C984.318 371.301 984.775 371.383 985.118 371.544C985.403 371.678 985.647 371.875 985.851 372.263L996.46 366.654ZM996.792 379.518C998.012 376.632 999.107 371.66 996.46 366.654L985.851 372.263C986.029 372.599 986.104 372.956 986.086 373.391C986.067 373.865 985.935 374.382 985.738 374.848L996.792 379.518ZM991.148 386.913C993.349 385.144 995.47 382.647 996.792 379.518L985.738 374.848C985.304 375.875 984.531 376.835 983.633 377.557L991.148 386.913ZM981.714 390.802C985.804 390.477 989.055 388.594 991.148 386.913L983.633 377.557C982.732 378.281 981.705 378.765 980.762 378.84L981.714 390.802ZM948.026 384.97C961.968 391.797 976.448 391.221 981.714 390.802L980.762 378.84C976.139 379.208 964.302 379.578 953.304 374.193L948.026 384.97ZM753.372 492.3C863.784 469.865 932.692 406.625 954.962 383.769L946.368 375.394C924.921 397.405 858.063 458.782 750.982 480.54L753.372 492.3ZM753.293 492.316L753.371 492.3L750.982 480.54L750.904 480.556L753.293 492.316ZM753.159 492.342L753.238 492.327L750.959 480.545L750.88 480.56L753.159 492.342ZM529.389 469.481C575.821 492.388 642.883 513.656 753.158 492.342L750.881 480.56C643.451 501.324 579.042 480.596 534.698 458.719L529.389 469.481ZM525.703 467.605C526.871 468.219 528.099 468.845 529.389 469.481L534.698 458.719C533.495 458.126 532.36 457.548 531.291 456.985L525.703 467.605ZM473.47 449.602C492.7 453.829 510.135 459.866 525.826 467.668L531.168 456.922C514.51 448.64 496.132 442.297 476.046 437.882L473.47 449.602ZM437.388 444.864C450.808 445.669 462.823 447.262 473.47 449.602L476.046 437.882C464.679 435.383 452.03 433.721 438.107 432.885L437.388 444.864ZM437.344 444.861L437.385 444.864L438.111 432.886L438.07 432.883L437.344 444.861ZM437.178 444.849L437.218 444.852L438.195 432.892L438.155 432.889L437.178 444.849ZM410.653 444.641C417.783 443.946 426.588 443.979 437.175 444.849L438.158 432.889C427.105 431.981 417.544 431.912 409.488 432.698L410.653 444.641ZM435.311 475.586C430.74 463.431 423.995 450.077 415.202 435.561L404.938 441.778C413.472 455.867 419.841 468.542 424.079 479.81L435.311 475.586ZM438.627 519.162C441.896 504.592 440.728 489.989 435.311 475.586L424.079 479.81C428.717 492.141 429.648 504.365 426.918 516.536L438.627 519.162ZM422.069 551.803C430.357 541.939 435.962 531.044 438.627 519.162L426.918 516.536C424.712 526.368 420.054 535.547 412.882 544.084L422.069 551.803ZM392.057 574.238C403.717 569.239 413.741 561.716 422.069 551.803L412.882 544.084C405.719 552.609 397.206 558.974 387.328 563.209L392.057 574.238ZM392.017 574.255L392.056 574.239L387.33 563.209L387.291 563.225L392.017 574.255ZM391.856 574.322L391.895 574.306L387.413 563.175L387.373 563.191L391.856 574.322ZM355.898 577.616C367.95 580.265 380.019 579.08 391.853 574.323L387.377 563.189C377.623 567.11 368.009 567.992 358.475 565.896L355.898 577.616ZM320.455 558.861C330.198 568.357 342.108 574.585 355.899 577.616L358.475 565.896C346.724 563.314 336.865 558.098 328.83 550.267L320.455 558.861ZM320.425 558.832L320.454 558.861L328.83 550.267L328.801 550.239L320.425 558.832ZM396.678 508.914C394.859 517.02 390.686 524.024 383.801 530.075L391.723 539.088C400.396 531.466 405.98 522.271 408.387 511.54L396.678 508.914ZM392.71 484.105C397.232 494.41 398.112 502.52 396.678 508.914L408.387 511.54C410.552 501.892 408.884 491.101 403.699 479.284L392.71 484.105ZM373.622 450.221C381.915 462.641 388.245 473.929 392.71 484.105L403.699 479.284C398.883 468.308 392.176 456.398 383.602 443.557L373.622 450.221ZM355.524 469.365C362.902 462.163 371.366 456.517 380.973 452.405L376.251 441.373C365.297 446.062 355.59 452.532 347.142 460.777L355.524 469.365ZM342.163 491.332C343.754 484.243 347.93 476.895 355.558 469.332L347.108 460.81C338.284 469.56 332.664 478.854 330.454 488.706L342.163 491.332ZM345.018 520.931C340.717 512.994 339.465 503.36 342.163 491.332L330.454 488.706C327.254 502.972 328.521 515.675 334.468 526.648L345.018 520.931ZM365.228 535.666C355.679 533.568 349.23 528.704 345.018 520.931L334.468 526.648C340.435 537.66 349.899 544.584 362.652 547.387L365.228 535.666ZM383.801 530.075C377.484 535.627 371.545 537.055 365.228 535.666L362.652 547.387C373.164 549.697 382.914 546.831 391.723 539.088L383.801 530.075Z" fill="black" mask="url(#path-6-outside-2_31_413)"/>
<mask id="path-8-inside-3_31_413" fill="white">
<path fill-rule="evenodd" clip-rule="evenodd" d="M536 597.663C528.366 608.169 515.981 615 502 615C478.804 615 460 596.196 460 573C460 549.804 478.804 531 502 531C515.981 531 528.366 537.831 536 548.337C543.634 537.831 556.019 531 570 531C585.631 531 599.268 539.539 606.5 552.207C613.732 539.539 627.369 531 643 531C657.29 531 669.913 538.137 677.5 549.04C685.087 538.137 697.71 531 712 531C727.631 531 741.268 539.539 748.5 552.207C755.732 539.539 769.369 531 785 531C799.938 531 813.054 538.798 820.5 550.546C827.946 538.798 841.062 531 856 531C871.278 531 884.651 539.157 892 551.354C899.349 539.157 912.722 531 928 531C942.609 531 955.476 538.459 963 549.775C970.524 538.459 983.391 531 998 531C1021.2 531 1040 549.804 1040 573C1040 596.196 1021.2 615 998 615C983.391 615 970.524 607.541 963 596.225C955.476 607.541 942.609 615 928 615C912.722 615 899.349 606.843 892 594.646C884.651 606.843 871.278 615 856 615C841.062 615 827.946 607.202 820.5 595.454C813.054 607.202 799.938 615 785 615C769.369 615 755.732 606.461 748.5 593.793C741.268 606.461 727.631 615 712 615C697.71 615 685.087 607.863 677.5 596.96C669.913 607.863 657.29 615 643 615C627.369 615 613.732 606.461 606.5 593.793C599.268 606.461 585.631 615 570 615C556.019 615 543.634 608.169 536 597.663Z"/>
</mask>
<path fill-rule="evenodd" clip-rule="evenodd" d="M536 597.663C528.366 608.169 515.981 615 502 615C478.804 615 460 596.196 460 573C460 549.804 478.804 531 502 531C515.981 531 528.366 537.831 536 548.337C543.634 537.831 556.019 531 570 531C585.631 531 599.268 539.539 606.5 552.207C613.732 539.539 627.369 531 643 531C657.29 531 669.913 538.137 677.5 549.04C685.087 538.137 697.71 531 712 531C727.631 531 741.268 539.539 748.5 552.207C755.732 539.539 769.369 531 785 531C799.938 531 813.054 538.798 820.5 550.546C827.946 538.798 841.062 531 856 531C871.278 531 884.651 539.157 892 551.354C899.349 539.157 912.722 531 928 531C942.609 531 955.476 538.459 963 549.775C970.524 538.459 983.391 531 998 531C1021.2 531 1040 549.804 1040 573C1040 596.196 1021.2 615 998 615C983.391 615 970.524 607.541 963 596.225C955.476 607.541 942.609 615 928 615C912.722 615 899.349 606.843 892 594.646C884.651 606.843 871.278 615 856 615C841.062 615 827.946 607.202 820.5 595.454C813.054 607.202 799.938 615 785 615C769.369 615 755.732 606.461 748.5 593.793C741.268 606.461 727.631 615 712 615C697.71 615 685.087 607.863 677.5 596.96C669.913 607.863 657.29 615 643 615C627.369 615 613.732 606.461 606.5 593.793C599.268 606.461 585.631 615 570 615C556.019 615 543.634 608.169 536 597.663Z" fill="#EFF6A5"/>
<path d="M536 597.663L540.045 594.724L536 589.157L531.955 594.724L536 597.663ZM536 548.337L531.955 551.276L536 556.843L540.045 551.276L536 548.337ZM606.5 552.207L602.158 554.686L606.5 562.292L610.842 554.686L606.5 552.207ZM677.5 549.04L673.396 551.896L677.5 557.795L681.604 551.896L677.5 549.04ZM748.5 552.207L744.158 554.686L748.5 562.292L752.842 554.686L748.5 552.207ZM820.5 550.546L816.277 553.222L820.5 559.885L824.723 553.222L820.5 550.546ZM892 551.354L887.717 553.935L892 561.042L896.283 553.935L892 551.354ZM963 549.775L958.836 552.544L963 558.806L967.164 552.544L963 549.775ZM963 596.225L967.164 593.456L963 587.194L958.836 593.456L963 596.225ZM892 594.646L896.283 592.065L892 584.958L887.717 592.065L892 594.646ZM820.5 595.454L824.723 592.778L820.5 586.115L816.277 592.778L820.5 595.454ZM748.5 593.793L752.842 591.314L748.5 583.708L744.158 591.314L748.5 593.793ZM677.5 596.96L681.604 594.104L677.5 588.205L673.396 594.104L677.5 596.96ZM606.5 593.793L610.842 591.314L606.5 583.708L602.158 591.314L606.5 593.793ZM502 620C517.649 620 531.51 612.347 540.045 600.602L531.955 594.724C525.221 603.991 514.313 610 502 610V620ZM455 573C455 598.957 476.043 620 502 620V610C481.565 610 465 593.435 465 573H455ZM502 526C476.043 526 455 547.043 455 573H465C465 552.565 481.565 536 502 536V526ZM540.045 545.398C531.51 533.653 517.649 526 502 526V536C514.313 536 525.221 542.009 531.955 551.276L540.045 545.398ZM570 526C554.351 526 540.49 533.653 531.955 545.398L540.045 551.276C546.779 542.009 557.687 536 570 536V526ZM610.842 549.728C602.757 535.565 587.498 526 570 526V536C583.764 536 595.779 543.513 602.158 554.686L610.842 549.728ZM643 526C625.502 526 610.243 535.565 602.158 549.728L610.842 554.686C617.221 543.513 629.236 536 643 536V526ZM681.604 546.185C673.123 533.995 658.996 526 643 526V536C655.585 536 666.704 542.278 673.396 551.896L681.604 546.185ZM712 526C696.004 526 681.877 533.995 673.396 546.185L681.604 551.896C688.296 542.278 699.415 536 712 536V526ZM752.842 549.728C744.757 535.565 729.498 526 712 526V536C725.764 536 737.779 543.513 744.158 554.686L752.842 549.728ZM785 526C767.502 526 752.243 535.565 744.158 549.728L752.842 554.686C759.221 543.513 771.236 536 785 536V526ZM824.723 547.869C816.399 534.736 801.721 526 785 526V536C798.154 536 809.709 542.861 816.277 553.222L824.723 547.869ZM856 526C839.279 526 824.601 534.736 816.277 547.869L824.723 553.222C831.291 542.861 842.846 536 856 536V526ZM896.283 548.774C888.066 535.138 873.103 526 856 526V536C869.453 536 881.235 543.177 887.717 553.935L896.283 548.774ZM896.283 553.935C902.765 543.177 914.547 536 928 536V526C910.897 526 895.934 535.138 887.717 548.774L896.283 553.935ZM928 536C940.865 536 952.199 542.562 958.836 552.544L967.164 547.007C958.752 534.356 944.353 526 928 526V536ZM998 526C981.647 526 967.248 534.356 958.836 547.007L967.164 552.544C973.801 542.562 985.135 536 998 536V526ZM1045 573C1045 547.043 1023.96 526 998 526V536C1018.43 536 1035 552.565 1035 573H1045ZM998 620C1023.96 620 1045 598.957 1045 573H1035C1035 593.435 1018.43 610 998 610V620ZM958.836 598.993C967.248 611.644 981.647 620 998 620V610C985.135 610 973.801 603.438 967.164 593.456L958.836 598.993ZM958.836 593.456C952.199 603.438 940.865 610 928 610V620C944.353 620 958.752 611.644 967.164 598.993L958.836 593.456ZM928 610C914.547 610 902.765 602.823 896.283 592.065L887.717 597.226C895.934 610.862 910.897 620 928 620V610ZM856 620C873.103 620 888.066 610.862 896.283 597.226L887.717 592.065C881.235 602.823 869.453 610 856 610V620ZM816.277 598.131C824.601 611.264 839.279 620 856 620V610C842.846 610 831.291 603.139 824.723 592.778L816.277 598.131ZM785 620C801.721 620 816.399 611.264 824.723 598.131L816.277 592.778C809.709 603.139 798.154 610 785 610V620ZM744.158 596.272C752.243 610.435 767.502 620 785 620V610C771.236 610 759.221 602.487 752.842 591.314L744.158 596.272ZM712 620C729.498 620 744.757 610.435 752.842 596.272L744.158 591.314C737.779 602.487 725.764 610 712 610V620ZM673.396 599.815C681.877 612.005 696.004 620 712 620V610C699.415 610 688.296 603.722 681.604 594.104L673.396 599.815ZM643 620C658.996 620 673.123 612.005 681.604 599.815L673.396 594.104C666.704 603.722 655.585 610 643 610V620ZM602.158 596.272C610.243 610.435 625.502 620 643 620V610C629.236 610 617.221 602.487 610.842 591.314L602.158 596.272ZM570 620C587.498 620 602.757 610.435 610.842 596.272L602.158 591.314C595.779 602.487 583.764 610 570 610V620ZM531.955 600.602C540.49 612.347 554.351 620 570 620V610C557.687 610 546.779 603.991 540.045 594.724L531.955 600.602Z" fill="black" mask="url(#path-8-inside-3_31_413)"/>
<path d="M504.416 590.32H499.088V560.56H488V556H515.504V560.56H504.416V590.32Z" fill="black"/>
<path d="M787.416 590.32H782.088V560.56H771V556H798.504V560.56H787.416V590.32Z" fill="black"/>
<path d="M642.456 590.664C632.568 590.664 627 583.176 627 572.808C627 562.488 633.288 555 643.08 555C651.96 555 656.664 559.752 657.768 566.28H652.248C651.336 561.96 648.12 559.56 643.032 559.56C635.448 559.56 632.52 566.376 632.52 572.808C632.52 579.288 634.728 586.104 642.744 586.104C648.408 586.104 652.92 582.168 652.968 576.456H642.84V572.04H658.344V589.992H654.696L653.4 585.24H653.304C650.904 588.744 647.688 590.664 642.456 590.664Z" fill="black"/>
<path d="M724.768 590.32H700V556H724.288V560.56H705.28V570.304H721.936V574.864H705.28V585.76H724.768V590.32Z" fill="black"/>
<path d="M940.768 590.32H916V556H940.288V560.56H921.28V570.304H937.936V574.864H921.28V585.76H940.768V590.32Z" fill="black"/>
<path d="M990.28 590.32H985V556H999.304C1006.89 556 1010.97 559.552 1010.97 565.888C1010.97 570.256 1008.33 573.424 1004.54 574.288V574.384C1012.5 575.872 1009.58 589.408 1011.45 589.984V590.32H1005.78C1004.25 588.88 1007.51 576.88 999.112 576.88H990.28V590.32ZM990.28 572.32H998.152C1003 572.32 1005.64 570.208 1005.64 566.272C1005.64 562.576 1003.53 560.56 998.248 560.56H990.28V572.32Z" fill="black"/>
<path d="M847.28 590.32H842V556H847.28V570.352H864.128V556H869.456V590.32H864.128V574.912H847.28V590.32Z" fill="black"/>
<path d="M569.848 590.664C559.576 590.664 553 583.128 553 572.808C553 562.488 559.576 555 569.848 555C580.12 555 586.696 562.488 586.696 572.808C586.696 583.128 580.12 590.664 569.848 590.664ZM569.848 586.104C577.96 586.104 581.176 579.864 581.176 572.808C581.176 565.752 577.96 559.56 569.848 559.56C561.736 559.56 558.52 565.752 558.52 572.808C558.52 579.864 561.736 586.104 569.848 586.104Z" fill="black"/>
<rect x="496" y="157" width="165" height="62" rx="2" fill="#F36362" stroke="black" stroke-width="4"/>
<path d="M553.733 207H528.757V169.166H534.578V201.973H553.733V207ZM580.786 192.925C580.786 193.665 580.786 194.459 580.733 194.882H559.99C560.096 199.38 562.742 203.561 568.086 203.561C572.848 203.561 574.7 200.491 575.177 198.692H580.468C579.039 203.878 575.071 207.794 567.98 207.794C559.408 207.794 554.646 201.708 554.646 193.454C554.646 184.987 559.725 179.167 567.98 179.167C576.182 179.167 580.786 184.564 580.786 192.925ZM559.99 190.808H575.388C575.388 186.575 572.425 183.4 567.821 183.4C563.482 183.4 560.308 186.363 559.99 190.808ZM594.701 203.031C595.6 203.031 596.024 202.978 596.923 202.82V207C595.6 207.265 594.754 207.317 593.642 207.317C589.198 207.317 586.499 205.624 586.499 199.38V184.299H582.583V180.013H586.499V171.335H591.685V180.013H596.87V184.299H591.685V199.539C591.685 202.396 592.478 203.031 594.701 203.031ZM600.709 182.13V179.22C602.614 178.69 603.461 177.632 603.461 174.933H600.709V169.166H606.424V174.933C606.424 178.373 604.942 181.072 600.709 182.13ZM619.624 207.741C611.422 207.741 607.348 203.508 607.189 198.004H612.428C612.639 201.126 614.544 203.561 619.571 203.561C624.122 203.561 625.339 201.55 625.339 199.592C625.339 196.205 621.741 195.835 618.248 195.094C613.539 193.983 608.142 192.607 608.142 186.998C608.142 182.342 611.898 179.22 618.407 179.22C625.815 179.22 629.36 183.188 629.731 187.845H624.492C624.122 185.781 623.011 183.4 618.513 183.4C615.02 183.4 613.539 184.776 613.539 186.786C613.539 189.591 616.555 189.856 620.365 190.702C625.339 191.866 630.736 193.295 630.736 199.327C630.736 204.566 626.715 207.741 619.624 207.741Z" fill="black"/>
<path d="M1032.79 161.55C1034.76 158.486 1039.24 158.486 1041.21 161.55L1051.29 177.246C1051.97 178.3 1053.01 179.061 1054.23 179.379L1072.27 184.117C1075.79 185.042 1077.17 189.301 1074.87 192.119L1063.06 206.558C1062.26 207.527 1061.86 208.759 1061.93 210.01L1063 228.634C1063.21 232.269 1059.59 234.902 1056.2 233.58L1038.82 226.807C1037.65 226.352 1036.35 226.352 1035.18 226.807L1017.8 233.58C1014.41 234.902 1010.79 232.269 1011 228.634L1012.07 210.01C1012.14 208.759 1011.74 207.527 1010.94 206.558L999.132 192.119C996.826 189.301 998.21 185.042 1001.73 184.117L1019.77 179.379C1020.99 179.061 1022.03 178.3 1022.71 177.246L1032.79 161.55Z" fill="#F4F2E3"/>
<path d="M219 188L220.584 200.416L233 202L220.584 203.584L219 216L217.416 203.584L205 202L217.416 200.416L219 188Z" fill="#F4F2E3"/>
<path d="M209.016 546.552C209.313 544.222 212.687 544.222 212.984 546.552L215.895 569.374C216.011 570.278 216.722 570.989 217.626 571.105L240.448 574.016C242.778 574.313 242.778 577.687 240.448 577.984L217.626 580.895C216.722 581.011 216.011 581.722 215.895 582.626L212.984 605.448C212.687 607.778 209.313 607.778 209.016 605.448L206.105 582.626C205.989 581.722 205.278 581.011 204.374 580.895L181.552 577.984C179.222 577.687 179.222 574.313 181.552 574.016L204.374 571.105C205.278 570.989 205.989 570.278 206.105 569.374L209.016 546.552Z" fill="#F4F2E3"/>
<path d="M619.793 737.55C621.761 734.486 626.239 734.486 628.207 737.55L638.288 753.246C638.965 754.3 640.014 755.061 641.225 755.379L659.268 760.117C662.79 761.042 664.174 765.301 661.868 768.119L650.056 782.558C649.263 783.527 648.862 784.759 648.934 786.01L650.004 804.634C650.213 808.269 646.59 810.902 643.197 809.58L625.815 802.807C624.648 802.352 623.352 802.352 622.185 802.807L604.803 809.58C601.41 810.902 597.787 808.269 597.996 804.634L599.066 786.01C599.138 784.759 598.737 783.527 597.944 782.558L586.132 768.119C583.826 765.301 585.21 761.042 588.732 760.117L606.775 755.379C607.986 755.061 609.035 754.3 609.712 753.246L619.793 737.55Z" fill="#F4F2E3"/>
<path d="M111.793 311.55C113.761 308.486 118.239 308.486 120.207 311.55L130.288 327.246C130.965 328.3 132.014 329.061 133.225 329.379L151.268 334.117C154.79 335.042 156.174 339.301 153.868 342.119L142.056 356.558C141.263 357.527 140.862 358.759 140.934 360.01L142.004 378.634C142.213 382.269 138.59 384.902 135.197 383.58L117.815 376.807C116.648 376.352 115.352 376.352 114.185 376.807L96.803 383.58C93.4101 384.902 89.7872 382.269 89.996 378.634L91.0657 360.01C91.1376 358.759 90.7372 357.527 89.9438 356.558L78.1317 342.119C75.8259 339.301 77.2097 335.042 80.7317 334.117L98.7745 329.379C99.9864 329.061 101.035 328.3 101.712 327.246L111.793 311.55Z" fill="#F4F2E3"/>
<path d="M1118.48 376L1119.1 377.925H1121.12L1119.49 379.115L1120.11 381.04L1118.48 379.85L1116.84 381.04L1117.46 379.115L1115.83 377.925H1117.85L1118.48 376Z" fill="#F4F2E3"/>
<path d="M1118.48 403.96L1119.1 405.885H1121.12L1119.49 407.075L1120.11 409L1118.48 407.81L1116.84 409L1117.46 407.075L1115.83 405.885H1117.85L1118.48 403.96Z" fill="#F4F2E3"/>
<path d="M1132.35 389.831L1132.98 391.756H1135L1133.36 392.946L1133.99 394.871L1132.35 393.681L1130.71 394.871L1131.34 392.946L1129.7 391.756H1131.73L1132.35 389.831Z" fill="#F4F2E3"/>
<path d="M1128.57 380.577L1129.2 382.502H1131.22L1129.58 383.692L1130.21 385.617L1128.57 384.427L1126.93 385.617L1127.56 383.692L1125.92 382.502H1127.95L1128.57 380.577Z" fill="#F4F2E3"/>
<path d="M1108.38 380.577L1109 382.502H1111.03L1109.39 383.692L1110.02 385.617L1108.38 384.427L1106.74 385.617L1107.37 383.692L1105.73 382.502H1107.75L1108.38 380.577Z" fill="#F4F2E3"/>
<path d="M1128.57 399.98L1129.2 401.905H1131.22L1129.58 403.095L1130.21 405.02L1128.57 403.83L1126.93 405.02L1127.56 403.095L1125.92 401.905H1127.95L1128.57 399.98Z" fill="#F4F2E3"/>
<path d="M1108.38 399.98L1109 401.905H1111.03L1109.39 403.095L1110.02 405.02L1108.38 403.83L1106.74 405.02L1107.37 403.095L1105.73 401.905H1107.75L1108.38 399.98Z" fill="#F4F2E3"/>
<path d="M1104.65 389.831L1105.27 391.756H1107.3L1105.66 392.946L1106.29 394.871L1104.65 393.681L1103.01 394.871L1103.64 392.946L1102 391.756H1104.02L1104.65 389.831Z" fill="#F4F2E3"/>
<path d="M89.4751 110L90.1004 111.925H92.124L90.4869 113.115L91.1122 115.04L89.4751 113.85L87.8381 115.04L88.4634 113.115L86.8263 111.925H88.8498L89.4751 110Z" fill="#F4F2E3"/>
<path d="M89.4751 137.96L90.1004 139.885H92.124L90.4869 141.075L91.1122 143L89.4751 141.81L87.8381 143L88.4634 141.075L86.8263 139.885H88.8498L89.4751 137.96Z" fill="#F4F2E3"/>
<path d="M103.351 123.831L103.976 125.756H106L104.363 126.946L104.988 128.871L103.351 127.681L101.714 128.871L102.339 126.946L100.702 125.756H102.726L103.351 123.831Z" fill="#F4F2E3"/>
<path d="M99.5713 114.577L100.197 116.502H102.22L100.583 117.692L101.208 119.617L99.5713 118.427L97.9342 119.617L98.5595 117.692L96.9225 116.502H98.946L99.5713 114.577Z" fill="#F4F2E3"/>
<path d="M79.379 114.577L80.0043 116.502H82.0278L80.3907 117.692L81.016 119.617L79.379 118.427L77.7419 119.617L78.3672 117.692L76.7301 116.502H78.7536L79.379 114.577Z" fill="#F4F2E3"/>
<path d="M99.5713 133.98L100.197 135.905H102.22L100.583 137.095L101.208 139.02L99.5713 137.83L97.9342 139.02L98.5595 137.095L96.9225 135.905H98.946L99.5713 133.98Z" fill="#F4F2E3"/>
<path d="M79.379 133.98L80.0043 135.905H82.0278L80.3907 137.095L81.016 139.02L79.379 137.83L77.7419 139.02L78.3672 137.095L76.7301 135.905H78.7536L79.379 133.98Z" fill="#F4F2E3"/>
<path d="M75.6488 123.831L76.2741 125.756H78.2977L76.6606 126.946L77.2859 128.871L75.6488 127.681L74.0118 128.871L74.6371 126.946L73 125.756H75.0235L75.6488 123.831Z" fill="#F4F2E3"/>
<path d="M841.475 27L842.1 28.9251H844.124L842.487 30.1149L843.112 32.04L841.475 30.8502L839.838 32.04L840.463 30.1149L838.826 28.9251H840.85L841.475 27Z" fill="#F4F2E3"/>
<path d="M841.475 54.96L842.1 56.8851H844.124L842.487 58.0749L843.112 60L841.475 58.8102L839.838 60L840.463 58.0749L838.826 56.8851H840.85L841.475 54.96Z" fill="#F4F2E3"/>
<path d="M855.351 40.8307L855.976 42.7559H858L856.363 43.9456L856.988 45.8708L855.351 44.681L853.714 45.8708L854.339 43.9456L852.702 42.7559H854.726L855.351 40.8307Z" fill="#F4F2E3"/>
<path d="M851.571 31.5771L852.197 33.5022H854.22L852.583 34.692L853.208 36.6171L851.571 35.4273L849.934 36.6171L850.56 34.692L848.922 33.5022H850.946L851.571 31.5771Z" fill="#F4F2E3"/>
<path d="M831.379 31.5771L832.004 33.5022H834.028L832.391 34.692L833.016 36.6171L831.379 35.4273L829.742 36.6171L830.367 34.692L828.73 33.5022H830.754L831.379 31.5771Z" fill="#F4F2E3"/>
<path d="M851.571 50.9799L852.197 52.905H854.22L852.583 54.0948L853.208 56.0199L851.571 54.8301L849.934 56.0199L850.56 54.0948L848.922 52.905H850.946L851.571 50.9799Z" fill="#F4F2E3"/>
<path d="M831.379 50.9799L832.004 52.905H834.028L832.391 54.0948L833.016 56.0199L831.379 54.8301L829.742 56.0199L830.367 54.0948L828.73 52.905H830.754L831.379 50.9799Z" fill="#F4F2E3"/>
<path d="M827.649 40.8307L828.274 42.7559H830.298L828.661 43.9456L829.286 45.8708L827.649 44.681L826.012 45.8708L826.637 43.9456L825 42.7559H827.024L827.649 40.8307Z" fill="#F4F2E3"/>
<path d="M277.475 212L278.1 213.925H280.124L278.487 215.115L279.112 217.04L277.475 215.85L275.838 217.04L276.463 215.115L274.826 213.925H276.85L277.475 212Z" fill="#F4F2E3"/>
<path d="M277.475 239.96L278.1 241.885H280.124L278.487 243.075L279.112 245L277.475 243.81L275.838 245L276.463 243.075L274.826 241.885H276.85L277.475 239.96Z" fill="#F4F2E3"/>
<path d="M291.351 225.831L291.976 227.756H294L292.363 228.946L292.988 230.871L291.351 229.681L289.714 230.871L290.339 228.946L288.702 227.756H290.726L291.351 225.831Z" fill="#F4F2E3"/>
<path d="M287.571 216.577L288.197 218.502H290.22L288.583 219.692L289.208 221.617L287.571 220.427L285.934 221.617L286.56 219.692L284.922 218.502H286.946L287.571 216.577Z" fill="#F4F2E3"/>
<path d="M267.379 216.577L268.004 218.502H270.028L268.391 219.692L269.016 221.617L267.379 220.427L265.742 221.617L266.367 219.692L264.73 218.502H266.754L267.379 216.577Z" fill="#F4F2E3"/>
<path d="M287.571 235.98L288.197 237.905H290.22L288.583 239.095L289.208 241.02L287.571 239.83L285.934 241.02L286.56 239.095L284.922 237.905H286.946L287.571 235.98Z" fill="#F4F2E3"/>
<path d="M267.379 235.98L268.004 237.905H270.028L268.391 239.095L269.016 241.02L267.379 239.83L265.742 241.02L266.367 239.095L264.73 237.905H266.754L267.379 235.98Z" fill="#F4F2E3"/>
<path d="M263.649 225.831L264.274 227.756H266.298L264.661 228.946L265.286 230.871L263.649 229.681L262.012 230.871L262.637 228.946L261 227.756H263.024L263.649 225.831Z" fill="#F4F2E3"/>
<path d="M480.475 731L481.1 732.925H483.124L481.487 734.115L482.112 736.04L480.475 734.85L478.838 736.04L479.463 734.115L477.826 732.925H479.85L480.475 731Z" fill="#F4F2E3"/>
<path d="M480.475 758.96L481.1 760.885H483.124L481.487 762.075L482.112 764L480.475 762.81L478.838 764L479.463 762.075L477.826 760.885H479.85L480.475 758.96Z" fill="#F4F2E3"/>
<path d="M494.351 744.831L494.976 746.756H497L495.363 747.946L495.988 749.871L494.351 748.681L492.714 749.871L493.339 747.946L491.702 746.756H493.726L494.351 744.831Z" fill="#F4F2E3"/>
<path d="M490.571 735.577L491.197 737.502H493.22L491.583 738.692L492.208 740.617L490.571 739.427L488.934 740.617L489.56 738.692L487.922 737.502H489.946L490.571 735.577Z" fill="#F4F2E3"/>
<path d="M470.379 735.577L471.004 737.502H473.028L471.391 738.692L472.016 740.617L470.379 739.427L468.742 740.617L469.367 738.692L467.73 737.502H469.754L470.379 735.577Z" fill="#F4F2E3"/>
<path d="M490.571 754.98L491.197 756.905H493.22L491.583 758.095L492.208 760.02L490.571 758.83L488.934 760.02L489.56 758.095L487.922 756.905H489.946L490.571 754.98Z" fill="#F4F2E3"/>
<path d="M470.379 754.98L471.004 756.905H473.028L471.391 758.095L472.016 760.02L470.379 758.83L468.742 760.02L469.367 758.095L467.73 756.905H469.754L470.379 754.98Z" fill="#F4F2E3"/>
<path d="M466.649 744.831L467.274 746.756H469.298L467.661 747.946L468.286 749.871L466.649 748.681L465.012 749.871L465.637 747.946L464 746.756H466.024L466.649 744.831Z" fill="#F4F2E3"/>
<circle cx="209.5" cy="264.5" r="13.5" fill="#F4F2E3"/>
<circle cx="902.5" cy="13.5" r="13.5" fill="#F4F2E3"/>
<path d="M1147 305L1148.58 317.416L1161 319L1148.58 320.584L1147 333L1145.42 320.584L1133 319L1145.42 317.416L1147 305Z" fill="#F4F2E3"/>
<circle cx="1186.5" cy="378.5" r="13.5" fill="#F4F2E3"/>
<path d="M1129 769L1130.58 781.416L1143 783L1130.58 784.584L1129 797L1127.42 784.584L1115 783L1127.42 781.416L1129 769Z" fill="#599CFF"/>
<path d="M310 815L311.584 827.416L324 829L311.584 830.584L310 843L308.416 830.584L296 829L308.416 827.416L310 815Z" fill="#599CFF"/>
</svg>
