<svg viewBox="0 0 1268 777" fill="none" xmlns="http://www.w3.org/2000/svg">
<path d="M0 609V399.165C30.2812 397.085 90.4693 413.847 88.9726 497.532C87.4759 581.216 29.0339 606.712 0 609Z" fill="#F4F2E3"/>
<path d="M1268 268.045V102.045C1237.03 100.669 1206 130.645 1206 186.045C1206 262.474 1238.3 266.531 1268 268.045Z" fill="#F4F2E3"/>
<mask id="path-3-outside-1_33_104" maskUnits="userSpaceOnUse" x="465" y="221" width="411" height="173" fill="black">
<rect fill="white" x="465" y="221" width="411" height="173"/>
<path d="M586.448 276.178C581.797 279.249 577.603 282.505 573.866 285.946C570.129 289.387 566.552 292.977 563.137 296.718C559.843 300.392 556.63 304.14 553.497 307.963C550.364 311.786 547.123 315.63 543.775 319.493C541.669 321.865 539.572 323.313 537.485 323.837C535.52 324.293 532.89 324.04 529.597 323.078C526.895 322.186 524.861 320.923 523.493 319.287C522.126 317.652 521.21 315.685 520.747 313.386C520.101 308.872 519.489 304.419 518.91 300.026C518.453 295.567 518.103 291.087 517.862 286.587C517.595 281.462 517.216 277.798 516.724 275.595C516.355 273.324 515.772 272.329 514.978 272.612C514.21 272.8 513.271 274.123 512.161 276.579C511.171 278.969 510.031 282.241 508.74 286.396C505.822 294.814 503.657 303.452 502.244 312.31C500.952 321.1 499.755 329.917 498.652 338.762C498.432 340.243 498.138 341.805 497.77 343.449C497.429 344.997 497.068 346.437 496.687 347.768C495.819 350.089 494.528 351.927 492.816 353.281C491.103 354.635 488.887 355.43 486.169 355.666C483.356 355.875 481.057 355.358 479.272 354.116C477.459 352.968 476.017 351.414 474.947 349.454C473.849 347.588 473.055 345.554 472.564 343.35C472.073 341.147 471.776 339.155 471.674 337.374C470.941 330.67 470.806 324.193 471.269 317.942C471.853 311.624 472.626 305.36 473.586 299.152C475.38 288.963 477.987 278.961 481.407 269.144C484.921 259.355 489.523 250.399 495.212 242.274C498.793 237.243 502.658 233.531 506.81 231.138C511.082 228.677 515.195 227.664 519.15 228.097C523.104 228.531 526.683 230.452 529.888 233.86C533.188 237.295 535.668 242.346 537.33 249.011C540.023 261.334 541.81 273.083 542.691 284.259C547.644 279.422 552.724 274.673 557.931 270.014C563.166 265.259 568.594 261.076 574.215 257.465C579.958 253.785 585.933 250.895 592.142 248.794C598.351 246.693 604.919 245.83 611.847 246.205C616.756 246.505 620.957 247.681 624.449 249.73C628.035 251.808 630.839 254.48 632.86 257.749C635.003 260.949 636.358 264.59 636.924 268.669C637.49 272.748 637.282 276.859 636.301 281.002C634.489 288.404 632.153 295.499 629.294 302.286C626.529 309.101 623.636 315.827 620.615 322.464C617.716 329.033 614.831 335.555 611.959 342.03C609.181 348.532 606.813 355.205 604.854 362.05C604.283 364.046 603.651 366.076 602.959 368.14C602.267 370.204 601.413 372.117 600.399 373.881C598.64 377.179 596.291 379.686 593.353 381.403C590.481 383.243 586.874 383.734 582.531 382.878C578.376 382.077 575.408 380.335 573.627 377.651C571.819 375.063 570.711 372.165 570.304 368.956C569.923 365.652 569.961 362.315 570.415 358.945C570.99 355.508 571.51 352.622 571.975 350.285C573.203 344.567 574.868 338.924 576.971 333.358C579.167 327.819 581.518 322.274 584.024 316.723C586.624 311.199 589.211 305.723 591.783 300.294C594.478 294.797 597.003 289.355 599.361 283.966C600.973 280.111 601.877 277.13 602.072 275.024C602.267 272.918 601.766 271.638 600.57 271.186C599.495 270.666 597.752 270.878 595.341 271.822C592.957 272.671 589.993 274.123 586.448 276.178Z"/>
<path d="M648.626 306.805C649.178 298.205 649.929 289.411 650.879 280.422C651.49 273.902 653.896 268.306 658.098 263.635C660.198 261.3 662.433 259.66 664.802 258.715C667.27 257.673 669.676 257.372 672.019 257.813C674.362 258.253 676.546 259.334 678.571 261.054C680.598 262.676 682.172 264.982 683.292 267.973C684.602 271.264 685.274 274.641 685.308 278.106C685.341 281.57 685.081 285.029 684.527 288.483C683.059 298.946 681.642 309.311 680.276 319.578C678.91 329.845 677.592 340.162 676.321 350.53C675.775 353.587 675.424 356.649 675.269 359.714C675.214 362.682 675.061 365.648 674.81 368.612C674.685 370.095 674.559 371.577 674.434 373.059C674.31 374.442 674.088 375.823 673.769 377.203C673.219 380.459 671.947 383.008 669.953 384.85C667.958 386.792 665.538 387.835 662.695 387.979C660.145 388.128 657.757 387.489 655.53 386.061C653.401 384.636 651.874 382.479 650.948 379.591C650.21 377.103 649.622 374.518 649.182 371.838C648.742 369.157 648.35 366.527 648.006 363.948C647.403 359.483 647.048 354.824 646.943 349.973C646.837 345.121 646.878 340.273 647.066 335.427C647.256 330.482 647.493 325.587 647.779 320.743C648.163 315.901 648.445 311.255 648.626 306.805Z"/>
<path d="M730.156 349.746C732.778 349.14 735.592 348.427 738.597 347.607C741.602 346.787 744.607 345.967 747.612 345.147C750.613 344.228 753.569 343.41 756.48 342.693C759.388 341.877 762.054 341.17 764.48 340.572C766.234 340.3 767.987 340.028 769.74 339.756C771.591 339.48 773.355 339.455 775.031 339.681C778.464 339.734 781.406 340.947 783.857 343.32C786.406 345.688 787.992 348.493 788.617 351.735C789.461 355.562 789.217 359.138 787.884 362.462C786.649 365.783 784.351 368.306 780.991 370.033C779.365 370.993 777.632 371.759 775.793 372.332C773.954 372.905 772.158 373.327 770.404 373.599C763.379 374.391 756.518 375.621 749.823 377.29C743.124 378.86 736.488 380.775 729.915 383.033C723.134 385.003 717.473 384.4 712.93 381.224C708.387 378.049 705.418 372.628 704.023 364.962C703.88 363.878 703.737 362.795 703.594 361.711C703.447 360.529 703.351 359.394 703.306 358.307C703 350.892 702.724 343.03 702.478 334.721C702.229 326.313 701.932 317.957 701.589 309.652C701.343 301.344 701.01 293.286 700.589 285.48C700.266 277.669 699.874 270.555 699.413 264.137C699.388 261.167 699.969 258.617 701.155 256.487C702.337 254.258 703.882 252.51 705.791 251.241C707.797 249.967 709.972 249.232 712.316 249.034C714.657 248.737 716.926 249.087 719.124 250.084C721.416 250.977 723.491 252.573 725.351 254.872C727.211 257.17 728.61 260.181 729.548 263.905C730.486 267.629 731.112 272.109 731.427 277.345C731.835 282.477 732.009 287.868 731.949 293.515C731.986 299.159 731.88 304.908 731.632 310.761C731.478 316.512 731.262 321.968 730.986 327.13C730.705 332.193 730.451 336.71 730.223 340.681C730.093 344.648 730.07 347.67 730.156 349.746Z"/>
<path d="M820.722 316.402C820.911 317.373 821.167 318.936 821.489 321.09C821.791 323.148 822.151 325.497 822.568 328.137C822.965 330.68 823.391 333.369 823.846 336.204C824.377 338.922 824.977 341.475 825.643 343.863C828.43 343.307 831.063 342.731 833.542 342.135C836.099 341.423 838.568 340.779 840.952 340.202C843.431 339.607 845.929 339.108 848.447 338.706C850.945 338.207 853.625 337.874 856.488 337.706C860.234 337.463 863.238 338.527 865.499 340.9C867.856 343.254 869.291 345.993 869.802 349.119C870.238 351.856 869.954 354.233 868.95 356.249C868.024 358.148 866.685 359.727 864.934 360.984C863.203 362.339 861.212 363.392 858.963 364.143C856.714 364.895 854.532 365.482 852.418 365.904C845.27 367.129 838.207 368.539 831.231 370.133C824.273 371.825 817.316 373.264 810.36 374.451C807.554 374.91 805.135 374.283 803.103 372.571C801.186 370.936 799.991 368.653 799.517 365.722C799.251 364.363 799.034 362.994 798.864 361.616C798.79 360.218 798.545 358.452 798.127 356.316C797.271 352.452 796.273 347.86 795.133 342.54C794.07 337.104 792.95 331.377 791.772 325.358C790.576 319.242 789.352 312.981 788.098 306.574C786.826 300.07 785.602 293.809 784.424 287.79C783.324 281.655 782.252 275.918 781.208 270.579C780.164 265.24 779.262 260.629 778.502 256.746C778.294 255.678 777.989 254.629 777.588 253.6C777.187 252.57 776.834 251.531 776.529 250.483C775.863 247.59 776.109 245.019 777.267 242.771C778.501 240.406 780.503 238.897 783.27 238.244C790.151 236.668 797.127 235.326 804.198 234.217C811.25 233.011 818.313 231.601 825.386 229.988C827.499 229.566 829.738 229.27 832.101 229.101C834.464 228.932 836.702 229.141 838.813 229.728C840.906 230.218 842.748 231.212 844.338 232.71C846.006 234.092 847.154 236.132 847.782 238.831C848.486 241.918 848.191 245.003 846.896 248.086C845.699 251.149 843.321 253.288 839.765 254.502C837.054 255.447 834.459 256.217 831.98 256.813C829.482 257.311 826.974 257.762 824.457 258.163C822.035 258.546 819.518 258.947 816.905 259.368C814.368 259.673 811.707 260.103 808.92 260.659C809.682 263.533 810.281 266.339 810.716 269.076C811.229 271.697 811.655 274.386 811.995 277.142C812.411 279.783 812.837 282.471 813.273 285.209C813.804 287.927 814.518 290.81 815.414 293.859C820.352 293.075 825.205 292.106 829.971 290.953C834.834 289.781 839.763 288.948 844.758 288.455C847.102 288.189 849.041 288.911 850.574 290.623C852.184 292.218 853.216 294.18 853.672 296.51C854.224 298.821 854.093 301.217 853.281 303.699C852.45 306.084 850.783 308.031 848.283 309.538C847.033 310.292 845.187 311.064 842.745 311.854C840.285 312.547 837.671 313.22 834.904 313.874C832.232 314.508 829.599 315.084 827.005 315.602C824.391 316.022 822.297 316.289 820.722 316.402Z"/>
</mask>
<path d="M586.448 276.178C581.797 279.249 577.603 282.505 573.866 285.946C570.129 289.387 566.552 292.977 563.137 296.718C559.843 300.392 556.63 304.14 553.497 307.963C550.364 311.786 547.123 315.63 543.775 319.493C541.669 321.865 539.572 323.313 537.485 323.837C535.52 324.293 532.89 324.04 529.597 323.078C526.895 322.186 524.861 320.923 523.493 319.287C522.126 317.652 521.21 315.685 520.747 313.386C520.101 308.872 519.489 304.419 518.91 300.026C518.453 295.567 518.103 291.087 517.862 286.587C517.595 281.462 517.216 277.798 516.724 275.595C516.355 273.324 515.772 272.329 514.978 272.612C514.21 272.8 513.271 274.123 512.161 276.579C511.171 278.969 510.031 282.241 508.74 286.396C505.822 294.814 503.657 303.452 502.244 312.31C500.952 321.1 499.755 329.917 498.652 338.762C498.432 340.243 498.138 341.805 497.77 343.449C497.429 344.997 497.068 346.437 496.687 347.768C495.819 350.089 494.528 351.927 492.816 353.281C491.103 354.635 488.887 355.43 486.169 355.666C483.356 355.875 481.057 355.358 479.272 354.116C477.459 352.968 476.017 351.414 474.947 349.454C473.849 347.588 473.055 345.554 472.564 343.35C472.073 341.147 471.776 339.155 471.674 337.374C470.941 330.67 470.806 324.193 471.269 317.942C471.853 311.624 472.626 305.36 473.586 299.152C475.38 288.963 477.987 278.961 481.407 269.144C484.921 259.355 489.523 250.399 495.212 242.274C498.793 237.243 502.658 233.531 506.81 231.138C511.082 228.677 515.195 227.664 519.15 228.097C523.104 228.531 526.683 230.452 529.888 233.86C533.188 237.295 535.668 242.346 537.33 249.011C540.023 261.334 541.81 273.083 542.691 284.259C547.644 279.422 552.724 274.673 557.931 270.014C563.166 265.259 568.594 261.076 574.215 257.465C579.958 253.785 585.933 250.895 592.142 248.794C598.351 246.693 604.919 245.83 611.847 246.205C616.756 246.505 620.957 247.681 624.449 249.73C628.035 251.808 630.839 254.48 632.86 257.749C635.003 260.949 636.358 264.59 636.924 268.669C637.49 272.748 637.282 276.859 636.301 281.002C634.489 288.404 632.153 295.499 629.294 302.286C626.529 309.101 623.636 315.827 620.615 322.464C617.716 329.033 614.831 335.555 611.959 342.03C609.181 348.532 606.813 355.205 604.854 362.05C604.283 364.046 603.651 366.076 602.959 368.14C602.267 370.204 601.413 372.117 600.399 373.881C598.64 377.179 596.291 379.686 593.353 381.403C590.481 383.243 586.874 383.734 582.531 382.878C578.376 382.077 575.408 380.335 573.627 377.651C571.819 375.063 570.711 372.165 570.304 368.956C569.923 365.652 569.961 362.315 570.415 358.945C570.99 355.508 571.51 352.622 571.975 350.285C573.203 344.567 574.868 338.924 576.971 333.358C579.167 327.819 581.518 322.274 584.024 316.723C586.624 311.199 589.211 305.723 591.783 300.294C594.478 294.797 597.003 289.355 599.361 283.966C600.973 280.111 601.877 277.13 602.072 275.024C602.267 272.918 601.766 271.638 600.57 271.186C599.495 270.666 597.752 270.878 595.341 271.822C592.957 272.671 589.993 274.123 586.448 276.178Z" fill="#F4F2E3"/>
<path d="M648.626 306.805C649.178 298.205 649.929 289.411 650.879 280.422C651.49 273.902 653.896 268.306 658.098 263.635C660.198 261.3 662.433 259.66 664.802 258.715C667.27 257.673 669.676 257.372 672.019 257.813C674.362 258.253 676.546 259.334 678.571 261.054C680.598 262.676 682.172 264.982 683.292 267.973C684.602 271.264 685.274 274.641 685.308 278.106C685.341 281.57 685.081 285.029 684.527 288.483C683.059 298.946 681.642 309.311 680.276 319.578C678.91 329.845 677.592 340.162 676.321 350.53C675.775 353.587 675.424 356.649 675.269 359.714C675.214 362.682 675.061 365.648 674.81 368.612C674.685 370.095 674.559 371.577 674.434 373.059C674.31 374.442 674.088 375.823 673.769 377.203C673.219 380.459 671.947 383.008 669.953 384.85C667.958 386.792 665.538 387.835 662.695 387.979C660.145 388.128 657.757 387.489 655.53 386.061C653.401 384.636 651.874 382.479 650.948 379.591C650.21 377.103 649.622 374.518 649.182 371.838C648.742 369.157 648.35 366.527 648.006 363.948C647.403 359.483 647.048 354.824 646.943 349.973C646.837 345.121 646.878 340.273 647.066 335.427C647.256 330.482 647.493 325.587 647.779 320.743C648.163 315.901 648.445 311.255 648.626 306.805Z" fill="#F4F2E3"/>
<path d="M730.156 349.746C732.778 349.14 735.592 348.427 738.597 347.607C741.602 346.787 744.607 345.967 747.612 345.147C750.613 344.228 753.569 343.41 756.48 342.693C759.388 341.877 762.054 341.17 764.48 340.572C766.234 340.3 767.987 340.028 769.74 339.756C771.591 339.48 773.355 339.455 775.031 339.681C778.464 339.734 781.406 340.947 783.857 343.32C786.406 345.688 787.992 348.493 788.617 351.735C789.461 355.562 789.217 359.138 787.884 362.462C786.649 365.783 784.351 368.306 780.991 370.033C779.365 370.993 777.632 371.759 775.793 372.332C773.954 372.905 772.158 373.327 770.404 373.599C763.379 374.391 756.518 375.621 749.823 377.29C743.124 378.86 736.488 380.775 729.915 383.033C723.134 385.003 717.473 384.4 712.93 381.224C708.387 378.049 705.418 372.628 704.023 364.962C703.88 363.878 703.737 362.795 703.594 361.711C703.447 360.529 703.351 359.394 703.306 358.307C703 350.892 702.724 343.03 702.478 334.721C702.229 326.313 701.932 317.957 701.589 309.652C701.343 301.344 701.01 293.286 700.589 285.48C700.266 277.669 699.874 270.555 699.413 264.137C699.388 261.167 699.969 258.617 701.155 256.487C702.337 254.258 703.882 252.51 705.791 251.241C707.797 249.967 709.972 249.232 712.316 249.034C714.657 248.737 716.926 249.087 719.124 250.084C721.416 250.977 723.491 252.573 725.351 254.872C727.211 257.17 728.61 260.181 729.548 263.905C730.486 267.629 731.112 272.109 731.427 277.345C731.835 282.477 732.009 287.868 731.949 293.515C731.986 299.159 731.88 304.908 731.632 310.761C731.478 316.512 731.262 321.968 730.986 327.13C730.705 332.193 730.451 336.71 730.223 340.681C730.093 344.648 730.07 347.67 730.156 349.746Z" fill="#F4F2E3"/>
<path d="M820.722 316.402C820.911 317.373 821.167 318.936 821.489 321.09C821.791 323.148 822.151 325.497 822.568 328.137C822.965 330.68 823.391 333.369 823.846 336.204C824.377 338.922 824.977 341.475 825.643 343.863C828.43 343.307 831.063 342.731 833.542 342.135C836.099 341.423 838.568 340.779 840.952 340.202C843.431 339.607 845.929 339.108 848.447 338.706C850.945 338.207 853.625 337.874 856.488 337.706C860.234 337.463 863.238 338.527 865.499 340.9C867.856 343.254 869.291 345.993 869.802 349.119C870.238 351.856 869.954 354.233 868.95 356.249C868.024 358.148 866.685 359.727 864.934 360.984C863.203 362.339 861.212 363.392 858.963 364.143C856.714 364.895 854.532 365.482 852.418 365.904C845.27 367.129 838.207 368.539 831.231 370.133C824.273 371.825 817.316 373.264 810.36 374.451C807.554 374.91 805.135 374.283 803.103 372.571C801.186 370.936 799.991 368.653 799.517 365.722C799.251 364.363 799.034 362.994 798.864 361.616C798.79 360.218 798.545 358.452 798.127 356.316C797.271 352.452 796.273 347.86 795.133 342.54C794.07 337.104 792.95 331.377 791.772 325.358C790.576 319.242 789.352 312.981 788.098 306.574C786.826 300.07 785.602 293.809 784.424 287.79C783.324 281.655 782.252 275.918 781.208 270.579C780.164 265.24 779.262 260.629 778.502 256.746C778.294 255.678 777.989 254.629 777.588 253.6C777.187 252.57 776.834 251.531 776.529 250.483C775.863 247.59 776.109 245.019 777.267 242.771C778.501 240.406 780.503 238.897 783.27 238.244C790.151 236.668 797.127 235.326 804.198 234.217C811.25 233.011 818.313 231.601 825.386 229.988C827.499 229.566 829.738 229.27 832.101 229.101C834.464 228.932 836.702 229.141 838.813 229.728C840.906 230.218 842.748 231.212 844.338 232.71C846.006 234.092 847.154 236.132 847.782 238.831C848.486 241.918 848.191 245.003 846.896 248.086C845.699 251.149 843.321 253.288 839.765 254.502C837.054 255.447 834.459 256.217 831.98 256.813C829.482 257.311 826.974 257.762 824.457 258.163C822.035 258.546 819.518 258.947 816.905 259.368C814.368 259.673 811.707 260.103 808.92 260.659C809.682 263.533 810.281 266.339 810.716 269.076C811.229 271.697 811.655 274.386 811.995 277.142C812.411 279.783 812.837 282.471 813.273 285.209C813.804 287.927 814.518 290.81 815.414 293.859C820.352 293.075 825.205 292.106 829.971 290.953C834.834 289.781 839.763 288.948 844.758 288.455C847.102 288.189 849.041 288.911 850.574 290.623C852.184 292.218 853.216 294.18 853.672 296.51C854.224 298.821 854.093 301.217 853.281 303.699C852.45 306.084 850.783 308.031 848.283 309.538C847.033 310.292 845.187 311.064 842.745 311.854C840.285 312.547 837.671 313.22 834.904 313.874C832.232 314.508 829.599 315.084 827.005 315.602C824.391 316.022 822.297 316.289 820.722 316.402Z" fill="#F4F2E3"/>
<path d="M586.448 276.178C581.797 279.249 577.603 282.505 573.866 285.946C570.129 289.387 566.552 292.977 563.137 296.718C559.843 300.392 556.63 304.14 553.497 307.963C550.364 311.786 547.123 315.63 543.775 319.493C541.669 321.865 539.572 323.313 537.485 323.837C535.52 324.293 532.89 324.04 529.597 323.078C526.895 322.186 524.861 320.923 523.493 319.287C522.126 317.652 521.21 315.685 520.747 313.386C520.101 308.872 519.489 304.419 518.91 300.026C518.453 295.567 518.103 291.087 517.862 286.587C517.595 281.462 517.216 277.798 516.724 275.595C516.355 273.324 515.772 272.329 514.978 272.612C514.21 272.8 513.271 274.123 512.161 276.579C511.171 278.969 510.031 282.241 508.74 286.396C505.822 294.814 503.657 303.452 502.244 312.31C500.952 321.1 499.755 329.917 498.652 338.762C498.432 340.243 498.138 341.805 497.77 343.449C497.429 344.997 497.068 346.437 496.687 347.768C495.819 350.089 494.528 351.927 492.816 353.281C491.103 354.635 488.887 355.43 486.169 355.666C483.356 355.875 481.057 355.358 479.272 354.116C477.459 352.968 476.017 351.414 474.947 349.454C473.849 347.588 473.055 345.554 472.564 343.35C472.073 341.147 471.776 339.155 471.674 337.374C470.941 330.67 470.806 324.193 471.269 317.942C471.853 311.624 472.626 305.36 473.586 299.152C475.38 288.963 477.987 278.961 481.407 269.144C484.921 259.355 489.523 250.399 495.212 242.274C498.793 237.243 502.658 233.531 506.81 231.138C511.082 228.677 515.195 227.664 519.15 228.097C523.104 228.531 526.683 230.452 529.888 233.86C533.188 237.295 535.668 242.346 537.33 249.011C540.023 261.334 541.81 273.083 542.691 284.259C547.644 279.422 552.724 274.673 557.931 270.014C563.166 265.259 568.594 261.076 574.215 257.465C579.958 253.785 585.933 250.895 592.142 248.794C598.351 246.693 604.919 245.83 611.847 246.205C616.756 246.505 620.957 247.681 624.449 249.73C628.035 251.808 630.839 254.48 632.86 257.749C635.003 260.949 636.358 264.59 636.924 268.669C637.49 272.748 637.282 276.859 636.301 281.002C634.489 288.404 632.153 295.499 629.294 302.286C626.529 309.101 623.636 315.827 620.615 322.464C617.716 329.033 614.831 335.555 611.959 342.03C609.181 348.532 606.813 355.205 604.854 362.05C604.283 364.046 603.651 366.076 602.959 368.14C602.267 370.204 601.413 372.117 600.399 373.881C598.64 377.179 596.291 379.686 593.353 381.403C590.481 383.243 586.874 383.734 582.531 382.878C578.376 382.077 575.408 380.335 573.627 377.651C571.819 375.063 570.711 372.165 570.304 368.956C569.923 365.652 569.961 362.315 570.415 358.945C570.99 355.508 571.51 352.622 571.975 350.285C573.203 344.567 574.868 338.924 576.971 333.358C579.167 327.819 581.518 322.274 584.024 316.723C586.624 311.199 589.211 305.723 591.783 300.294C594.478 294.797 597.003 289.355 599.361 283.966C600.973 280.111 601.877 277.13 602.072 275.024C602.267 272.918 601.766 271.638 600.57 271.186C599.495 270.666 597.752 270.878 595.341 271.822C592.957 272.671 589.993 274.123 586.448 276.178Z" stroke="black" stroke-width="12" mask="url(#path-3-outside-1_33_104)"/>
<path d="M648.626 306.805C649.178 298.205 649.929 289.411 650.879 280.422C651.49 273.902 653.896 268.306 658.098 263.635C660.198 261.3 662.433 259.66 664.802 258.715C667.27 257.673 669.676 257.372 672.019 257.813C674.362 258.253 676.546 259.334 678.571 261.054C680.598 262.676 682.172 264.982 683.292 267.973C684.602 271.264 685.274 274.641 685.308 278.106C685.341 281.57 685.081 285.029 684.527 288.483C683.059 298.946 681.642 309.311 680.276 319.578C678.91 329.845 677.592 340.162 676.321 350.53C675.775 353.587 675.424 356.649 675.269 359.714C675.214 362.682 675.061 365.648 674.81 368.612C674.685 370.095 674.559 371.577 674.434 373.059C674.31 374.442 674.088 375.823 673.769 377.203C673.219 380.459 671.947 383.008 669.953 384.85C667.958 386.792 665.538 387.835 662.695 387.979C660.145 388.128 657.757 387.489 655.53 386.061C653.401 384.636 651.874 382.479 650.948 379.591C650.21 377.103 649.622 374.518 649.182 371.838C648.742 369.157 648.35 366.527 648.006 363.948C647.403 359.483 647.048 354.824 646.943 349.973C646.837 345.121 646.878 340.273 647.066 335.427C647.256 330.482 647.493 325.587 647.779 320.743C648.163 315.901 648.445 311.255 648.626 306.805Z" stroke="black" stroke-width="12" mask="url(#path-3-outside-1_33_104)"/>
<path d="M730.156 349.746C732.778 349.14 735.592 348.427 738.597 347.607C741.602 346.787 744.607 345.967 747.612 345.147C750.613 344.228 753.569 343.41 756.48 342.693C759.388 341.877 762.054 341.17 764.48 340.572C766.234 340.3 767.987 340.028 769.74 339.756C771.591 339.48 773.355 339.455 775.031 339.681C778.464 339.734 781.406 340.947 783.857 343.32C786.406 345.688 787.992 348.493 788.617 351.735C789.461 355.562 789.217 359.138 787.884 362.462C786.649 365.783 784.351 368.306 780.991 370.033C779.365 370.993 777.632 371.759 775.793 372.332C773.954 372.905 772.158 373.327 770.404 373.599C763.379 374.391 756.518 375.621 749.823 377.29C743.124 378.86 736.488 380.775 729.915 383.033C723.134 385.003 717.473 384.4 712.93 381.224C708.387 378.049 705.418 372.628 704.023 364.962C703.88 363.878 703.737 362.795 703.594 361.711C703.447 360.529 703.351 359.394 703.306 358.307C703 350.892 702.724 343.03 702.478 334.721C702.229 326.313 701.932 317.957 701.589 309.652C701.343 301.344 701.01 293.286 700.589 285.48C700.266 277.669 699.874 270.555 699.413 264.137C699.388 261.167 699.969 258.617 701.155 256.487C702.337 254.258 703.882 252.51 705.791 251.241C707.797 249.967 709.972 249.232 712.316 249.034C714.657 248.737 716.926 249.087 719.124 250.084C721.416 250.977 723.491 252.573 725.351 254.872C727.211 257.17 728.61 260.181 729.548 263.905C730.486 267.629 731.112 272.109 731.427 277.345C731.835 282.477 732.009 287.868 731.949 293.515C731.986 299.159 731.88 304.908 731.632 310.761C731.478 316.512 731.262 321.968 730.986 327.13C730.705 332.193 730.451 336.71 730.223 340.681C730.093 344.648 730.07 347.67 730.156 349.746Z" stroke="black" stroke-width="12" mask="url(#path-3-outside-1_33_104)"/>
<path d="M820.722 316.402C820.911 317.373 821.167 318.936 821.489 321.09C821.791 323.148 822.151 325.497 822.568 328.137C822.965 330.68 823.391 333.369 823.846 336.204C824.377 338.922 824.977 341.475 825.643 343.863C828.43 343.307 831.063 342.731 833.542 342.135C836.099 341.423 838.568 340.779 840.952 340.202C843.431 339.607 845.929 339.108 848.447 338.706C850.945 338.207 853.625 337.874 856.488 337.706C860.234 337.463 863.238 338.527 865.499 340.9C867.856 343.254 869.291 345.993 869.802 349.119C870.238 351.856 869.954 354.233 868.95 356.249C868.024 358.148 866.685 359.727 864.934 360.984C863.203 362.339 861.212 363.392 858.963 364.143C856.714 364.895 854.532 365.482 852.418 365.904C845.27 367.129 838.207 368.539 831.231 370.133C824.273 371.825 817.316 373.264 810.36 374.451C807.554 374.91 805.135 374.283 803.103 372.571C801.186 370.936 799.991 368.653 799.517 365.722C799.251 364.363 799.034 362.994 798.864 361.616C798.79 360.218 798.545 358.452 798.127 356.316C797.271 352.452 796.273 347.86 795.133 342.54C794.07 337.104 792.95 331.377 791.772 325.358C790.576 319.242 789.352 312.981 788.098 306.574C786.826 300.07 785.602 293.809 784.424 287.79C783.324 281.655 782.252 275.918 781.208 270.579C780.164 265.24 779.262 260.629 778.502 256.746C778.294 255.678 777.989 254.629 777.588 253.6C777.187 252.57 776.834 251.531 776.529 250.483C775.863 247.59 776.109 245.019 777.267 242.771C778.501 240.406 780.503 238.897 783.27 238.244C790.151 236.668 797.127 235.326 804.198 234.217C811.25 233.011 818.313 231.601 825.386 229.988C827.499 229.566 829.738 229.27 832.101 229.101C834.464 228.932 836.702 229.141 838.813 229.728C840.906 230.218 842.748 231.212 844.338 232.71C846.006 234.092 847.154 236.132 847.782 238.831C848.486 241.918 848.191 245.003 846.896 248.086C845.699 251.149 843.321 253.288 839.765 254.502C837.054 255.447 834.459 256.217 831.98 256.813C829.482 257.311 826.974 257.762 824.457 258.163C822.035 258.546 819.518 258.947 816.905 259.368C814.368 259.673 811.707 260.103 808.92 260.659C809.682 263.533 810.281 266.339 810.716 269.076C811.229 271.697 811.655 274.386 811.995 277.142C812.411 279.783 812.837 282.471 813.273 285.209C813.804 287.927 814.518 290.81 815.414 293.859C820.352 293.075 825.205 292.106 829.971 290.953C834.834 289.781 839.763 288.948 844.758 288.455C847.102 288.189 849.041 288.911 850.574 290.623C852.184 292.218 853.216 294.18 853.672 296.51C854.224 298.821 854.093 301.217 853.281 303.699C852.45 306.084 850.783 308.031 848.283 309.538C847.033 310.292 845.187 311.064 842.745 311.854C840.285 312.547 837.671 313.22 834.904 313.874C832.232 314.508 829.599 315.084 827.005 315.602C824.391 316.022 822.297 316.289 820.722 316.402Z" stroke="black" stroke-width="12" mask="url(#path-3-outside-1_33_104)"/>
<mask id="path-4-outside-2_33_104" maskUnits="userSpaceOnUse" x="298" y="212" width="701" height="341" fill="black">
<rect fill="white" x="298" y="212" width="701" height="341"/>
<path fill-rule="evenodd" clip-rule="evenodd" d="M324.613 527.535L324.584 527.506C315.828 518.586 309.815 507.925 306.554 495.594C303.291 483.255 303.164 470.472 306.119 457.302C308.974 444.577 315.343 432.729 325.074 421.766L325.097 421.74L325.121 421.714C335.086 410.909 346.584 402.059 359.601 395.174L359.639 395.155L362.079 393.934L356.828 384.876L351.649 376.207L351.64 376.192C341.77 360.005 334.315 344.913 329.323 330.923C324.172 316.489 323.519 300.951 327.229 284.415C331.184 266.787 338.164 252.466 348.333 241.679C358.401 231 370.229 223.924 383.777 220.562C397.178 217.237 410.994 217.156 425.175 220.273C439.946 223.52 451.119 230.849 458.266 242.403C465.697 253.988 467.646 267.258 464.357 281.919C461.949 292.651 457.32 302.849 450.527 312.5C448.757 315.063 446.481 317.001 443.66 318.052C440.851 319.099 437.813 319.148 434.704 318.465C432.967 318.083 431.154 317.25 429.323 316.167C426.669 314.723 424.629 312.571 423.211 309.846L423.06 309.556L422.962 309.243C422.029 306.257 421.898 303.209 422.581 300.166C422.737 299.47 423.077 298.736 423.326 298.222C423.627 297.601 424.027 296.846 424.511 295.974C425.48 294.226 426.862 291.873 428.641 288.934C432.082 283.251 434.104 278.61 434.926 274.948C436.44 268.201 435.508 262.946 432.612 258.762C429.67 254.513 424.849 251.442 417.612 249.852C403.871 246.831 391.345 248.512 379.843 254.799C369.082 260.908 361.243 273.084 356.913 292.388C355.16 300.201 355.401 307.631 357.578 314.747C360.185 322.314 365.977 334.739 375.09 352.165L375.169 352.316L375.233 352.473C377.016 356.809 379.897 362.693 383.92 370.167L383.962 370.245L384 370.325C385.268 372.976 387.929 377.521 392.083 384.061C417.416 378.419 446.313 379.249 478.679 386.363C501.599 391.401 523.101 398.827 543.176 408.649C543.977 408.992 544.71 409.337 545.359 409.675C582.412 428.313 647.485 449.582 746.885 430.394C847.07 410.013 909.439 352.142 928.545 332.423C929.058 331.894 929.599 331.406 930.165 330.959C924.191 316.982 925.813 302.279 926.53 297.098C926.867 294.653 928.101 292.591 929.364 291.131C930.659 289.634 932.445 288.235 934.581 287.443C936.622 286.687 939.678 286.29 942.447 288.082C945.524 290.073 946.261 293.435 945.902 296.036C945.066 302.082 943.817 317.682 953.055 328.376C962.515 338.849 977.622 338.814 983.388 338.356C986.155 338.135 989.449 339.229 991.156 342.458C992.644 345.273 992.099 348.21 991.265 350.183C990.387 352.261 988.94 353.99 987.39 355.235C985.893 356.437 983.754 357.621 981.238 357.821C976.294 358.215 963.135 358.688 950.665 352.582C928.807 375.015 860.924 437.323 752.177 459.42L752.098 459.436L752.02 459.451C643.167 480.49 577.432 459.492 532.043 437.1C530.797 436.485 529.616 435.884 528.497 435.295C512.323 427.253 494.416 421.063 474.758 416.742C463.751 414.323 451.419 412.695 437.748 411.875L437.707 411.872L437.666 411.869C426.847 410.98 417.663 410.929 410.07 411.67C418.733 425.972 425.29 438.986 429.695 450.698C434.723 464.065 435.772 477.478 432.773 490.849C430.337 501.706 425.206 511.743 417.476 520.943C409.73 530.163 400.462 537.106 389.693 541.724L389.654 541.74L389.615 541.756C378.821 546.095 367.98 547.129 357.187 544.756C344.416 541.95 333.532 536.227 324.642 527.564L324.613 527.535ZM387.762 507.582C395.541 500.745 400.419 492.646 402.532 483.227C404.332 475.206 403.058 465.756 398.204 454.694C393.564 444.119 387.045 432.519 378.612 419.889C368.331 424.289 359.246 430.348 351.333 438.071C343.107 446.227 338.209 454.549 336.309 463.019C333.359 476.166 334.619 487.335 339.743 496.79C344.833 506.182 352.789 512.076 363.94 514.527C372.354 516.376 380.199 514.229 387.762 507.582Z"/>
</mask>
<path fill-rule="evenodd" clip-rule="evenodd" d="M324.613 527.535L324.584 527.506C315.828 518.586 309.815 507.925 306.554 495.594C303.291 483.255 303.164 470.472 306.119 457.302C308.974 444.577 315.343 432.729 325.074 421.766L325.097 421.74L325.121 421.714C335.086 410.909 346.584 402.059 359.601 395.174L359.639 395.155L362.079 393.934L356.828 384.876L351.649 376.207L351.64 376.192C341.77 360.005 334.315 344.913 329.323 330.923C324.172 316.489 323.519 300.951 327.229 284.415C331.184 266.787 338.164 252.466 348.333 241.679C358.401 231 370.229 223.924 383.777 220.562C397.178 217.237 410.994 217.156 425.175 220.273C439.946 223.52 451.119 230.849 458.266 242.403C465.697 253.988 467.646 267.258 464.357 281.919C461.949 292.651 457.32 302.849 450.527 312.5C448.757 315.063 446.481 317.001 443.66 318.052C440.851 319.099 437.813 319.148 434.704 318.465C432.967 318.083 431.154 317.25 429.323 316.167C426.669 314.723 424.629 312.571 423.211 309.846L423.06 309.556L422.962 309.243C422.029 306.257 421.898 303.209 422.581 300.166C422.737 299.47 423.077 298.736 423.326 298.222C423.627 297.601 424.027 296.846 424.511 295.974C425.48 294.226 426.862 291.873 428.641 288.934C432.082 283.251 434.104 278.61 434.926 274.948C436.44 268.201 435.508 262.946 432.612 258.762C429.67 254.513 424.849 251.442 417.612 249.852C403.871 246.831 391.345 248.512 379.843 254.799C369.082 260.908 361.243 273.084 356.913 292.388C355.16 300.201 355.401 307.631 357.578 314.747C360.185 322.314 365.977 334.739 375.09 352.165L375.169 352.316L375.233 352.473C377.016 356.809 379.897 362.693 383.92 370.167L383.962 370.245L384 370.325C385.268 372.976 387.929 377.521 392.083 384.061C417.416 378.419 446.313 379.249 478.679 386.363C501.599 391.401 523.101 398.827 543.176 408.649C543.977 408.992 544.71 409.337 545.359 409.675C582.412 428.313 647.485 449.582 746.885 430.394C847.07 410.013 909.439 352.142 928.545 332.423C929.058 331.894 929.599 331.406 930.165 330.959C924.191 316.982 925.813 302.279 926.53 297.098C926.867 294.653 928.101 292.591 929.364 291.131C930.659 289.634 932.445 288.235 934.581 287.443C936.622 286.687 939.678 286.29 942.447 288.082C945.524 290.073 946.261 293.435 945.902 296.036C945.066 302.082 943.817 317.682 953.055 328.376C962.515 338.849 977.622 338.814 983.388 338.356C986.155 338.135 989.449 339.229 991.156 342.458C992.644 345.273 992.099 348.21 991.265 350.183C990.387 352.261 988.94 353.99 987.39 355.235C985.893 356.437 983.754 357.621 981.238 357.821C976.294 358.215 963.135 358.688 950.665 352.582C928.807 375.015 860.924 437.323 752.177 459.42L752.098 459.436L752.02 459.451C643.167 480.49 577.432 459.492 532.043 437.1C530.797 436.485 529.616 435.884 528.497 435.295C512.323 427.253 494.416 421.063 474.758 416.742C463.751 414.323 451.419 412.695 437.748 411.875L437.707 411.872L437.666 411.869C426.847 410.98 417.663 410.929 410.07 411.67C418.733 425.972 425.29 438.986 429.695 450.698C434.723 464.065 435.772 477.478 432.773 490.849C430.337 501.706 425.206 511.743 417.476 520.943C409.73 530.163 400.462 537.106 389.693 541.724L389.654 541.74L389.615 541.756C378.821 546.095 367.98 547.129 357.187 544.756C344.416 541.95 333.532 536.227 324.642 527.564L324.613 527.535ZM387.762 507.582C395.541 500.745 400.419 492.646 402.532 483.227C404.332 475.206 403.058 465.756 398.204 454.694C393.564 444.119 387.045 432.519 378.612 419.889C368.331 424.289 359.246 430.348 351.333 438.071C343.107 446.227 338.209 454.549 336.309 463.019C333.359 476.166 334.619 487.335 339.743 496.79C344.833 506.182 352.789 512.076 363.94 514.527C372.354 516.376 380.199 514.229 387.762 507.582Z" fill="#F4F2E3"/>
<path d="M324.584 527.506L328.867 523.303L328.866 523.303L324.584 527.506ZM324.613 527.535L320.331 531.738L320.377 531.785L320.425 531.832L324.613 527.535ZM306.554 495.594L312.354 494.06L312.354 494.06L306.554 495.594ZM306.119 457.302L311.974 458.615L311.974 458.615L306.119 457.302ZM325.074 421.766L320.588 417.782L320.587 417.783L325.074 421.766ZM325.097 421.74L320.686 417.673L320.648 417.714L320.611 417.756L325.097 421.74ZM325.121 421.714L320.71 417.647L320.71 417.647L325.121 421.714ZM359.601 395.174L356.797 389.87L356.796 389.87L359.601 395.174ZM359.639 395.155L356.955 389.788L356.895 389.818L356.835 389.85L359.639 395.155ZM362.079 393.934L364.762 399.301L370.47 396.447L367.27 390.926L362.079 393.934ZM356.828 384.876L362.019 381.868L361.999 381.833L361.979 381.799L356.828 384.876ZM351.649 376.207L356.8 373.13L356.785 373.106L356.771 373.082L351.649 376.207ZM351.64 376.192L346.517 379.316L346.518 379.317L351.64 376.192ZM329.323 330.923L323.672 332.94L323.672 332.94L329.323 330.923ZM327.229 284.415L333.083 285.728L333.083 285.728L327.229 284.415ZM348.333 241.679L352.699 245.795L352.699 245.795L348.333 241.679ZM383.777 220.562L385.222 226.386L385.222 226.386L383.777 220.562ZM425.175 220.273L426.463 214.413L426.463 214.413L425.175 220.273ZM458.266 242.403L453.164 245.559L453.189 245.601L453.216 245.642L458.266 242.403ZM464.357 281.919L458.502 280.605L458.502 280.605L464.357 281.919ZM450.527 312.5L445.621 309.046L445.605 309.068L445.59 309.09L450.527 312.5ZM443.66 318.052L445.755 323.675L445.755 323.675L443.66 318.052ZM434.704 318.465L433.416 324.325L433.416 324.325L434.704 318.465ZM429.323 316.167L432.375 311.002L432.284 310.948L432.191 310.897L429.323 316.167ZM423.211 309.846L428.534 307.076L428.534 307.076L423.211 309.846ZM423.06 309.556L417.333 311.346L417.492 311.854L417.738 312.326L423.06 309.556ZM422.962 309.243L428.689 307.453L428.689 307.453L422.962 309.243ZM422.581 300.166L428.435 301.479L428.435 301.479L422.581 300.166ZM423.326 298.222L417.927 295.604L417.927 295.604L423.326 298.222ZM424.511 295.974L419.263 293.064L419.263 293.064L424.511 295.974ZM428.641 288.934L433.774 292.041L433.774 292.041L428.641 288.934ZM434.926 274.948L440.78 276.261L440.78 276.261L434.926 274.948ZM432.612 258.762L437.545 255.347L437.545 255.347L432.612 258.762ZM417.612 249.852L416.324 255.712L416.324 255.712L417.612 249.852ZM379.843 254.799L376.966 249.535L376.923 249.558L376.882 249.581L379.843 254.799ZM356.913 292.388L351.058 291.075L351.058 291.075L356.913 292.388ZM357.578 314.747L351.841 316.503L351.871 316.603L351.905 316.702L357.578 314.747ZM375.09 352.165L380.407 349.385L380.407 349.385L375.09 352.165ZM375.169 352.316L380.718 350.034L380.613 349.779L380.486 349.535L375.169 352.316ZM375.233 352.473L369.684 354.754L369.684 354.754L375.233 352.473ZM383.92 370.167L389.204 367.324L389.204 367.324L383.92 370.167ZM383.962 370.245L389.375 367.657L389.314 367.528L389.246 367.402L383.962 370.245ZM384 370.325L389.414 367.737L389.414 367.737L384 370.325ZM392.083 384.061L387.018 387.278L389.276 390.833L393.387 389.917L392.083 384.061ZM478.679 386.363L479.967 380.503L479.967 380.503L478.679 386.363ZM543.176 408.649L540.539 414.038L540.673 414.104L540.81 414.162L543.176 408.649ZM545.359 409.675L542.588 414.997L542.625 415.016L542.663 415.035L545.359 409.675ZM746.885 430.394L748.022 436.285L748.051 436.279L748.081 436.273L746.885 430.394ZM928.545 332.423L932.854 336.598L932.855 336.598L928.545 332.423ZM930.165 330.959L933.883 335.669L937.487 332.823L935.682 328.601L930.165 330.959ZM926.53 297.098L932.473 297.919L932.473 297.919L926.53 297.098ZM929.364 291.131L933.901 295.057L933.901 295.057L929.364 291.131ZM934.581 287.443L932.497 281.817L932.497 281.817L934.581 287.443ZM942.447 288.082L939.187 293.119L939.187 293.119L942.447 288.082ZM945.902 296.036L939.958 295.215L939.958 295.215L945.902 296.036ZM953.055 328.376L948.515 332.299L948.558 332.349L948.603 332.398L953.055 328.376ZM983.388 338.356L982.912 332.374L982.912 332.374L983.388 338.356ZM991.156 342.458L996.46 339.654L996.46 339.654L991.156 342.458ZM991.265 350.183L985.738 347.848L985.738 347.848L991.265 350.183ZM987.39 355.235L991.148 359.913L991.148 359.913L987.39 355.235ZM981.238 357.821L981.714 363.802L981.714 363.802L981.238 357.821ZM950.665 352.582L953.304 347.193L949.4 345.282L946.368 348.394L950.665 352.582ZM752.177 459.42L753.371 465.3L753.372 465.3L752.177 459.42ZM752.098 459.436L753.238 465.327L753.265 465.321L753.293 465.316L752.098 459.436ZM752.02 459.451L753.158 465.342L753.159 465.342L752.02 459.451ZM532.043 437.1L534.698 431.719L534.698 431.719L532.043 437.1ZM528.497 435.295L531.291 429.985L531.23 429.953L531.168 429.922L528.497 435.295ZM474.758 416.742L473.47 422.602L473.47 422.602L474.758 416.742ZM437.748 411.875L437.385 417.864L437.388 417.864L437.748 411.875ZM437.707 411.872L437.218 417.852L437.281 417.857L437.344 417.861L437.707 411.872ZM437.666 411.869L437.175 417.849L437.178 417.849L437.666 411.869ZM410.07 411.67L409.488 405.698L399.999 406.624L404.938 414.778L410.07 411.67ZM429.695 450.698L424.079 452.81L424.079 452.81L429.695 450.698ZM432.773 490.849L426.918 489.536L426.918 489.536L432.773 490.849ZM417.476 520.943L412.882 517.084L412.882 517.084L417.476 520.943ZM389.693 541.724L392.056 547.239L392.057 547.238L389.693 541.724ZM389.654 541.74L391.895 547.306L391.957 547.281L392.017 547.255L389.654 541.74ZM389.615 541.756L391.853 547.323L391.856 547.322L389.615 541.756ZM357.187 544.756L358.475 538.896L358.475 538.896L357.187 544.756ZM324.642 527.564L320.454 531.861L320.455 531.861L324.642 527.564ZM402.532 483.227L396.678 481.914L396.678 481.914L402.532 483.227ZM387.762 507.582L391.723 512.088L391.723 512.088L387.762 507.582ZM398.204 454.694L403.699 452.284L403.699 452.284L398.204 454.694ZM378.612 419.889L383.602 416.557L380.834 412.411L376.251 414.373L378.612 419.889ZM351.333 438.071L347.142 433.777L347.125 433.794L347.108 433.81L351.333 438.071ZM336.309 463.019L342.163 464.332L342.163 464.332L336.309 463.019ZM339.743 496.79L345.018 493.931L345.018 493.931L339.743 496.79ZM363.94 514.527L365.228 508.666L365.228 508.666L363.94 514.527ZM320.302 531.709L320.331 531.738L328.895 523.333L328.867 523.303L320.302 531.709ZM300.753 497.128C304.274 510.44 310.799 522.027 320.302 531.709L328.866 523.303C320.858 515.144 315.356 505.411 312.354 494.06L300.753 497.128ZM300.265 455.988C297.114 470.034 297.227 483.796 300.753 497.128L312.354 494.06C309.354 482.714 309.215 470.911 311.974 458.615L300.265 455.988ZM320.587 417.783C310.281 429.394 303.372 442.136 300.265 455.988L311.974 458.615C314.575 447.018 320.406 436.064 329.561 425.749L320.587 417.783ZM320.611 417.756L320.588 417.782L329.56 425.751L329.583 425.724L320.611 417.756ZM320.71 417.647L320.686 417.673L329.508 425.807L329.532 425.782L320.71 417.647ZM356.796 389.87C343.179 397.072 331.137 406.34 320.71 417.647L329.532 425.782C339.034 415.477 349.989 407.045 362.406 400.478L356.796 389.87ZM356.835 389.85L356.797 389.87L362.405 400.479L362.443 400.459L356.835 389.85ZM359.395 388.568L356.955 389.788L362.322 400.521L364.762 399.301L359.395 388.568ZM351.637 387.885L356.888 396.943L367.27 390.926L362.019 381.868L351.637 387.885ZM346.498 379.284L351.678 387.954L361.979 381.799L356.8 373.13L346.498 379.284ZM346.518 379.317L346.527 379.331L356.771 373.082L356.762 373.068L346.518 379.317ZM323.672 332.94C328.835 347.408 336.492 362.874 346.517 379.316L356.763 373.069C347.049 357.136 339.796 342.417 334.974 328.907L323.672 332.94ZM321.374 283.102C317.448 300.603 318.094 317.309 323.672 332.94L334.974 328.907C330.25 315.668 329.591 301.298 333.083 285.728L321.374 283.102ZM343.967 237.563C332.893 249.31 325.506 264.687 321.374 283.102L333.083 285.728C336.862 268.887 343.434 255.623 352.699 245.795L343.967 237.563ZM382.332 214.739C367.597 218.395 354.774 226.101 343.967 237.563L352.699 245.795C362.028 235.9 372.86 229.453 385.222 226.386L382.332 214.739ZM426.463 214.413C411.435 211.11 396.682 211.178 382.332 214.739L385.222 226.386C397.674 223.296 410.553 223.202 423.887 226.133L426.463 214.413ZM463.369 239.246C455.238 226.103 442.561 217.951 426.463 214.413L423.887 226.133C437.33 229.088 446.999 235.595 453.164 245.559L463.369 239.246ZM470.211 283.232C473.805 267.213 471.72 252.265 463.316 239.163L453.216 245.642C459.673 255.71 461.487 267.302 458.502 280.605L470.211 283.232ZM455.434 315.953C462.642 305.713 467.617 294.796 470.211 283.232L458.502 280.605C456.281 290.507 451.999 299.985 445.621 309.046L455.434 315.953ZM445.755 323.675C449.915 322.125 453.119 319.305 455.464 315.909L445.59 309.09C444.396 310.82 443.047 311.878 441.566 312.43L445.755 323.675ZM433.416 324.325C437.381 325.196 441.63 325.211 445.755 323.675L441.566 312.43C440.071 312.986 438.246 313.1 435.992 312.605L433.416 324.325ZM426.27 321.333C428.375 322.577 430.809 323.752 433.416 324.325L435.992 312.605C435.125 312.414 433.932 311.922 432.375 311.002L426.27 321.333ZM417.889 312.616C419.818 316.323 422.679 319.383 426.454 321.438L432.191 310.897C430.659 310.064 429.44 308.818 428.534 307.076L417.889 312.616ZM417.738 312.326L417.889 312.616L428.534 307.076L428.382 306.786L417.738 312.326ZM417.236 311.034L417.333 311.346L428.787 307.765L428.689 307.453L417.236 311.034ZM416.726 298.852C415.811 302.933 415.99 307.051 417.236 311.034L428.689 307.453C428.067 305.464 427.985 303.486 428.435 301.479L416.726 298.852ZM417.927 295.604C417.686 296.103 417.052 297.402 416.726 298.852L428.435 301.479C428.423 301.534 428.416 301.551 428.425 301.524C428.433 301.498 428.45 301.451 428.479 301.38C428.54 301.231 428.619 301.059 428.725 300.84L417.927 295.604ZM419.263 293.064C418.755 293.981 418.296 294.843 417.927 295.604L428.725 300.84C428.958 300.359 429.299 299.71 429.758 298.884L419.263 293.064ZM423.509 285.826C421.715 288.789 420.288 291.217 419.263 293.064L429.758 298.884C430.673 297.234 432.009 294.957 433.774 292.041L423.509 285.826ZM429.071 273.635C428.45 276.404 426.786 280.413 423.509 285.826L433.774 292.041C437.378 286.089 439.759 280.816 440.78 276.261L429.071 273.635ZM427.679 262.178C429.421 264.694 430.303 268.146 429.071 273.635L440.78 276.261C442.577 268.255 441.595 261.197 437.545 255.347L427.679 262.178ZM416.324 255.712C422.5 257.069 425.816 259.487 427.679 262.178L437.545 255.347C433.524 249.539 427.199 245.816 418.9 243.992L416.324 255.712ZM382.721 260.064C392.871 254.516 403.906 252.982 416.324 255.712L418.9 243.992C403.837 240.681 389.819 242.509 376.966 249.535L382.721 260.064ZM362.767 293.701C366.903 275.266 374.093 264.963 382.805 260.017L376.882 249.581C364.072 256.853 355.584 270.902 351.058 291.075L362.767 293.701ZM363.316 312.992C361.461 306.931 361.228 300.561 362.767 293.701L351.058 291.075C349.092 299.84 349.341 308.331 351.841 316.503L363.316 312.992ZM380.407 349.385C371.297 331.963 365.696 319.891 363.251 312.793L351.905 316.702C354.674 324.737 360.658 337.515 369.773 354.946L380.407 349.385ZM380.486 349.535L380.407 349.385L369.773 354.946L369.852 355.096L380.486 349.535ZM380.783 350.191L380.718 350.034L369.62 354.597L369.684 354.754L380.783 350.191ZM389.204 367.324C385.218 359.918 382.449 354.245 380.783 350.191L369.684 354.754C371.583 359.373 374.577 365.468 378.637 373.011L389.204 367.324ZM389.246 367.402L389.204 367.324L378.637 373.011L378.679 373.089L389.246 367.402ZM389.414 367.737L389.375 367.657L378.549 372.833L378.587 372.913L389.414 367.737ZM397.147 380.844C392.99 374.299 390.508 370.027 389.414 367.737L378.587 372.913C380.027 375.925 382.868 380.744 387.018 387.278L397.147 380.844ZM479.967 380.503C446.99 373.255 417.178 372.325 390.778 378.204L393.387 389.917C417.654 384.513 445.636 385.244 477.391 392.223L479.967 380.503ZM545.813 403.259C525.287 393.217 503.33 385.638 479.967 380.503L477.391 392.223C499.868 397.164 520.916 404.437 540.539 414.038L545.813 403.259ZM548.13 404.353C547.326 403.934 546.455 403.527 545.542 403.135L540.81 414.162C541.499 414.458 542.094 414.739 542.588 414.997L548.13 404.353ZM745.747 424.502C647.799 443.411 584.068 422.429 548.055 404.315L542.663 415.035C580.756 434.196 647.171 455.754 748.022 436.285L745.747 424.502ZM924.236 328.247C905.536 347.547 844.196 404.475 745.689 424.514L748.081 436.273C849.944 415.551 913.341 356.737 932.854 336.598L924.236 328.247ZM926.447 326.25C925.675 326.86 924.936 327.526 924.236 328.247L932.855 336.598C933.18 336.262 933.523 335.952 933.883 335.669L926.447 326.25ZM920.586 296.276C919.842 301.658 917.996 317.754 924.648 333.317L935.682 328.601C930.386 316.21 931.784 302.901 932.473 297.919L920.586 296.276ZM924.827 287.205C923.06 289.247 921.129 292.349 920.586 296.276L932.473 297.919C932.606 296.957 933.141 295.935 933.901 295.057L924.827 287.205ZM932.497 281.817C929.249 283.021 926.659 285.088 924.827 287.205L933.901 295.057C934.659 294.181 935.64 293.45 936.666 293.07L932.497 281.817ZM945.707 283.045C940.749 279.836 935.512 280.7 932.497 281.817L936.666 293.07C937.129 292.898 937.645 292.795 938.109 292.806C938.526 292.815 938.864 292.91 939.187 293.119L945.707 283.045ZM951.845 296.857C952.421 292.691 951.299 286.665 945.707 283.045L939.187 293.119C939.549 293.353 939.723 293.61 939.836 293.915C939.974 294.286 940.02 294.765 939.958 295.215L951.845 296.857ZM957.595 324.454C954.016 320.311 952.307 315.018 951.656 309.73C951.007 304.46 951.463 299.622 951.845 296.857L939.958 295.215C939.505 298.496 938.918 304.481 939.746 311.197C940.57 317.894 942.855 325.748 948.515 332.299L957.595 324.454ZM982.912 332.374C980.374 332.576 975.794 332.677 970.89 331.604C965.992 330.532 961.14 328.375 957.507 324.354L948.603 332.398C954.43 338.85 961.862 341.912 968.324 343.326C974.78 344.739 980.636 344.593 983.864 344.337L982.912 332.374ZM996.46 339.654C993.363 333.797 987.434 332.015 982.912 332.374L983.864 344.337C984.318 344.301 984.775 344.383 985.118 344.544C985.403 344.678 985.647 344.875 985.851 345.263L996.46 339.654ZM996.792 352.518C998.012 349.632 999.107 344.66 996.46 339.654L985.851 345.263C986.029 345.599 986.104 345.956 986.086 346.391C986.067 346.865 985.935 347.382 985.738 347.848L996.792 352.518ZM991.148 359.913C993.349 358.144 995.47 355.647 996.792 352.518L985.738 347.848C985.304 348.875 984.531 349.835 983.633 350.557L991.148 359.913ZM981.714 363.802C985.804 363.477 989.055 361.594 991.148 359.913L983.633 350.557C982.732 351.281 981.705 351.765 980.762 351.84L981.714 363.802ZM948.026 357.97C961.968 364.797 976.448 364.221 981.714 363.802L980.762 351.84C976.139 352.208 964.302 352.578 953.304 347.193L948.026 357.97ZM753.372 465.3C863.784 442.865 932.692 379.625 954.962 356.769L946.368 348.394C924.921 370.405 858.063 431.782 750.982 453.54L753.372 465.3ZM753.293 465.316L753.371 465.3L750.982 453.54L750.904 453.556L753.293 465.316ZM753.159 465.342L753.238 465.327L750.959 453.545L750.88 453.56L753.159 465.342ZM529.389 442.481C575.821 465.388 642.883 486.656 753.158 465.342L750.881 453.56C643.451 474.324 579.042 453.596 534.698 431.719L529.389 442.481ZM525.703 440.605C526.871 441.219 528.099 441.845 529.389 442.481L534.698 431.719C533.495 431.126 532.36 430.548 531.291 429.985L525.703 440.605ZM473.47 422.602C492.7 426.829 510.135 432.866 525.826 440.668L531.168 429.922C514.51 421.64 496.132 415.297 476.046 410.882L473.47 422.602ZM437.388 417.864C450.808 418.669 462.823 420.262 473.47 422.602L476.046 410.882C464.679 408.383 452.03 406.721 438.107 405.885L437.388 417.864ZM437.344 417.861L437.385 417.864L438.111 405.886L438.07 405.883L437.344 417.861ZM437.178 417.849L437.218 417.852L438.195 405.892L438.155 405.889L437.178 417.849ZM410.653 417.641C417.783 416.946 426.588 416.979 437.175 417.849L438.158 405.889C427.105 404.981 417.544 404.912 409.488 405.698L410.653 417.641ZM435.311 448.586C430.74 436.431 423.995 423.077 415.202 408.561L404.938 414.778C413.472 428.867 419.841 441.542 424.079 452.81L435.311 448.586ZM438.627 492.162C441.896 477.592 440.728 462.989 435.311 448.586L424.079 452.81C428.717 465.141 429.648 477.365 426.918 489.536L438.627 492.162ZM422.069 524.803C430.357 514.939 435.962 504.044 438.627 492.162L426.918 489.536C424.712 499.368 420.054 508.547 412.882 517.084L422.069 524.803ZM392.057 547.238C403.717 542.239 413.741 534.716 422.069 524.803L412.882 517.084C405.719 525.609 397.206 531.974 387.328 536.209L392.057 547.238ZM392.017 547.255L392.056 547.239L387.33 536.209L387.291 536.225L392.017 547.255ZM391.856 547.322L391.895 547.306L387.413 536.175L387.373 536.191L391.856 547.322ZM355.898 550.616C367.95 553.265 380.019 552.08 391.853 547.323L387.377 536.189C377.623 540.11 368.009 540.992 358.475 538.896L355.898 550.616ZM320.455 531.861C330.198 541.357 342.108 547.585 355.899 550.616L358.475 538.896C346.724 536.314 336.865 531.098 328.83 523.267L320.455 531.861ZM320.425 531.832L320.454 531.861L328.83 523.267L328.801 523.239L320.425 531.832ZM396.678 481.914C394.859 490.02 390.686 497.024 383.801 503.075L391.723 512.088C400.396 504.466 405.98 495.271 408.387 484.54L396.678 481.914ZM392.71 457.105C397.232 467.41 398.112 475.52 396.678 481.914L408.387 484.54C410.552 474.892 408.884 464.101 403.699 452.284L392.71 457.105ZM373.622 423.221C381.915 435.641 388.245 446.929 392.71 457.105L403.699 452.284C398.883 441.308 392.176 429.398 383.602 416.557L373.622 423.221ZM355.524 442.365C362.902 435.163 371.366 429.517 380.973 425.405L376.251 414.373C365.297 419.062 355.59 425.532 347.142 433.777L355.524 442.365ZM342.163 464.332C343.754 457.243 347.93 449.895 355.558 442.332L347.108 433.81C338.284 442.56 332.664 451.854 330.454 461.706L342.163 464.332ZM345.018 493.931C340.717 485.994 339.465 476.36 342.163 464.332L330.454 461.706C327.254 475.972 328.521 488.675 334.468 499.648L345.018 493.931ZM365.228 508.666C355.679 506.568 349.23 501.704 345.018 493.931L334.468 499.648C340.435 510.66 349.899 517.584 362.652 520.387L365.228 508.666ZM383.801 503.075C377.484 508.627 371.545 510.055 365.228 508.666L362.652 520.387C373.164 522.697 382.914 519.831 391.723 512.088L383.801 503.075Z" fill="black" mask="url(#path-4-outside-2_33_104)"/>
<mask id="path-6-inside-3_33_104" fill="white">
<path fill-rule="evenodd" clip-rule="evenodd" d="M536 570.663C528.366 581.169 515.981 588 502 588C478.804 588 460 569.196 460 546C460 522.804 478.804 504 502 504C515.981 504 528.366 510.831 536 521.337C543.634 510.831 556.019 504 570 504C585.631 504 599.268 512.539 606.5 525.207C613.732 512.539 627.369 504 643 504C657.29 504 669.913 511.137 677.5 522.04C685.087 511.137 697.71 504 712 504C727.631 504 741.268 512.539 748.5 525.207C755.732 512.539 769.369 504 785 504C799.938 504 813.054 511.798 820.5 523.546C827.946 511.798 841.062 504 856 504C871.278 504 884.651 512.157 892 524.354C899.349 512.157 912.722 504 928 504C942.609 504 955.476 511.459 963 522.775C970.524 511.459 983.391 504 998 504C1021.2 504 1040 522.804 1040 546C1040 569.196 1021.2 588 998 588C983.391 588 970.524 580.541 963 569.225C955.476 580.541 942.609 588 928 588C912.722 588 899.349 579.843 892 567.646C884.651 579.843 871.278 588 856 588C841.062 588 827.946 580.202 820.5 568.454C813.054 580.202 799.938 588 785 588C769.369 588 755.732 579.461 748.5 566.793C741.268 579.461 727.631 588 712 588C697.71 588 685.087 580.863 677.5 569.96C669.913 580.863 657.29 588 643 588C627.369 588 613.732 579.461 606.5 566.793C599.268 579.461 585.631 588 570 588C556.019 588 543.634 581.169 536 570.663Z"/>
</mask>
<path fill-rule="evenodd" clip-rule="evenodd" d="M536 570.663C528.366 581.169 515.981 588 502 588C478.804 588 460 569.196 460 546C460 522.804 478.804 504 502 504C515.981 504 528.366 510.831 536 521.337C543.634 510.831 556.019 504 570 504C585.631 504 599.268 512.539 606.5 525.207C613.732 512.539 627.369 504 643 504C657.29 504 669.913 511.137 677.5 522.04C685.087 511.137 697.71 504 712 504C727.631 504 741.268 512.539 748.5 525.207C755.732 512.539 769.369 504 785 504C799.938 504 813.054 511.798 820.5 523.546C827.946 511.798 841.062 504 856 504C871.278 504 884.651 512.157 892 524.354C899.349 512.157 912.722 504 928 504C942.609 504 955.476 511.459 963 522.775C970.524 511.459 983.391 504 998 504C1021.2 504 1040 522.804 1040 546C1040 569.196 1021.2 588 998 588C983.391 588 970.524 580.541 963 569.225C955.476 580.541 942.609 588 928 588C912.722 588 899.349 579.843 892 567.646C884.651 579.843 871.278 588 856 588C841.062 588 827.946 580.202 820.5 568.454C813.054 580.202 799.938 588 785 588C769.369 588 755.732 579.461 748.5 566.793C741.268 579.461 727.631 588 712 588C697.71 588 685.087 580.863 677.5 569.96C669.913 580.863 657.29 588 643 588C627.369 588 613.732 579.461 606.5 566.793C599.268 579.461 585.631 588 570 588C556.019 588 543.634 581.169 536 570.663Z" fill="#EFF6A5"/>
<path d="M536 570.663L540.045 567.724L536 562.157L531.955 567.724L536 570.663ZM536 521.337L531.955 524.276L536 529.843L540.045 524.276L536 521.337ZM606.5 525.207L602.158 527.686L606.5 535.292L610.842 527.686L606.5 525.207ZM677.5 522.04L673.396 524.896L677.5 530.795L681.604 524.896L677.5 522.04ZM748.5 525.207L744.158 527.686L748.5 535.292L752.842 527.686L748.5 525.207ZM820.5 523.546L816.277 526.222L820.5 532.885L824.723 526.222L820.5 523.546ZM892 524.354L887.717 526.935L892 534.042L896.283 526.935L892 524.354ZM963 522.775L958.836 525.544L963 531.806L967.164 525.544L963 522.775ZM963 569.225L967.164 566.456L963 560.194L958.836 566.456L963 569.225ZM892 567.646L896.283 565.065L892 557.958L887.717 565.065L892 567.646ZM820.5 568.454L824.723 565.778L820.5 559.115L816.277 565.778L820.5 568.454ZM748.5 566.793L752.842 564.314L748.5 556.708L744.158 564.314L748.5 566.793ZM677.5 569.96L681.604 567.104L677.5 561.205L673.396 567.104L677.5 569.96ZM606.5 566.793L610.842 564.314L606.5 556.708L602.158 564.314L606.5 566.793ZM502 593C517.649 593 531.51 585.347 540.045 573.602L531.955 567.724C525.221 576.991 514.313 583 502 583V593ZM455 546C455 571.957 476.043 593 502 593V583C481.565 583 465 566.435 465 546H455ZM502 499C476.043 499 455 520.043 455 546H465C465 525.565 481.565 509 502 509V499ZM540.045 518.398C531.51 506.653 517.649 499 502 499V509C514.313 509 525.221 515.009 531.955 524.276L540.045 518.398ZM570 499C554.351 499 540.49 506.653 531.955 518.398L540.045 524.276C546.779 515.009 557.687 509 570 509V499ZM610.842 522.728C602.757 508.565 587.498 499 570 499V509C583.764 509 595.779 516.513 602.158 527.686L610.842 522.728ZM643 499C625.502 499 610.243 508.565 602.158 522.728L610.842 527.686C617.221 516.513 629.236 509 643 509V499ZM681.604 519.185C673.123 506.995 658.996 499 643 499V509C655.585 509 666.704 515.278 673.396 524.896L681.604 519.185ZM712 499C696.004 499 681.877 506.995 673.396 519.185L681.604 524.896C688.296 515.278 699.415 509 712 509V499ZM752.842 522.728C744.757 508.565 729.498 499 712 499V509C725.764 509 737.779 516.513 744.158 527.686L752.842 522.728ZM785 499C767.502 499 752.243 508.565 744.158 522.728L752.842 527.686C759.221 516.513 771.236 509 785 509V499ZM824.723 520.869C816.399 507.736 801.721 499 785 499V509C798.154 509 809.709 515.861 816.277 526.222L824.723 520.869ZM856 499C839.279 499 824.601 507.736 816.277 520.869L824.723 526.222C831.291 515.861 842.846 509 856 509V499ZM896.283 521.774C888.066 508.138 873.103 499 856 499V509C869.453 509 881.235 516.177 887.717 526.935L896.283 521.774ZM896.283 526.935C902.765 516.177 914.547 509 928 509V499C910.897 499 895.934 508.138 887.717 521.774L896.283 526.935ZM928 509C940.865 509 952.199 515.562 958.836 525.544L967.164 520.007C958.752 507.356 944.353 499 928 499V509ZM998 499C981.647 499 967.248 507.356 958.836 520.007L967.164 525.544C973.801 515.562 985.135 509 998 509V499ZM1045 546C1045 520.043 1023.96 499 998 499V509C1018.43 509 1035 525.565 1035 546H1045ZM998 593C1023.96 593 1045 571.957 1045 546H1035C1035 566.435 1018.43 583 998 583V593ZM958.836 571.993C967.248 584.644 981.647 593 998 593V583C985.135 583 973.801 576.438 967.164 566.456L958.836 571.993ZM958.836 566.456C952.199 576.438 940.865 583 928 583V593C944.353 593 958.752 584.644 967.164 571.993L958.836 566.456ZM928 583C914.547 583 902.765 575.823 896.283 565.065L887.717 570.226C895.934 583.862 910.897 593 928 593V583ZM856 593C873.103 593 888.066 583.862 896.283 570.226L887.717 565.065C881.235 575.823 869.453 583 856 583V593ZM816.277 571.131C824.601 584.264 839.279 593 856 593V583C842.846 583 831.291 576.139 824.723 565.778L816.277 571.131ZM785 593C801.721 593 816.399 584.264 824.723 571.131L816.277 565.778C809.709 576.139 798.154 583 785 583V593ZM744.158 569.272C752.243 583.435 767.502 593 785 593V583C771.236 583 759.221 575.487 752.842 564.314L744.158 569.272ZM712 593C729.498 593 744.757 583.435 752.842 569.272L744.158 564.314C737.779 575.487 725.764 583 712 583V593ZM673.396 572.815C681.877 585.005 696.004 593 712 593V583C699.415 583 688.296 576.722 681.604 567.104L673.396 572.815ZM643 593C658.996 593 673.123 585.005 681.604 572.815L673.396 567.104C666.704 576.722 655.585 583 643 583V593ZM602.158 569.272C610.243 583.435 625.502 593 643 593V583C629.236 583 617.221 575.487 610.842 564.314L602.158 569.272ZM570 593C587.498 593 602.757 583.435 610.842 569.272L602.158 564.314C595.779 575.487 583.764 583 570 583V593ZM531.955 573.602C540.49 585.347 554.351 593 570 593V583C557.687 583 546.779 576.991 540.045 567.724L531.955 573.602Z" fill="black" mask="url(#path-6-inside-3_33_104)"/>
<path d="M504.416 563.32H499.088V533.56H488V529H515.504V533.56H504.416V563.32Z" fill="black"/>
<path d="M787.416 563.32H782.088V533.56H771V529H798.504V533.56H787.416V563.32Z" fill="black"/>
<path d="M642.456 563.664C632.568 563.664 627 556.176 627 545.808C627 535.488 633.288 528 643.08 528C651.96 528 656.664 532.752 657.768 539.28H652.248C651.336 534.96 648.12 532.56 643.032 532.56C635.448 532.56 632.52 539.376 632.52 545.808C632.52 552.288 634.728 559.104 642.744 559.104C648.408 559.104 652.92 555.168 652.968 549.456H642.84V545.04H658.344V562.992H654.696L653.4 558.24H653.304C650.904 561.744 647.688 563.664 642.456 563.664Z" fill="black"/>
<path d="M724.768 563.32H700V529H724.288V533.56H705.28V543.304H721.936V547.864H705.28V558.76H724.768V563.32Z" fill="black"/>
<path d="M940.768 563.32H916V529H940.288V533.56H921.28V543.304H937.936V547.864H921.28V558.76H940.768V563.32Z" fill="black"/>
<path d="M990.28 563.32H985V529H999.304C1006.89 529 1010.97 532.552 1010.97 538.888C1010.97 543.256 1008.33 546.424 1004.54 547.288V547.384C1012.5 548.872 1009.58 562.408 1011.45 562.984V563.32H1005.78C1004.25 561.88 1007.51 549.88 999.112 549.88H990.28V563.32ZM990.28 545.32H998.152C1003 545.32 1005.64 543.208 1005.64 539.272C1005.64 535.576 1003.53 533.56 998.248 533.56H990.28V545.32Z" fill="black"/>
<path d="M847.28 563.32H842V529H847.28V543.352H864.128V529H869.456V563.32H864.128V547.912H847.28V563.32Z" fill="black"/>
<path d="M569.848 563.664C559.576 563.664 553 556.128 553 545.808C553 535.488 559.576 528 569.848 528C580.12 528 586.696 535.488 586.696 545.808C586.696 556.128 580.12 563.664 569.848 563.664ZM569.848 559.104C577.96 559.104 581.176 552.864 581.176 545.808C581.176 538.752 577.96 532.56 569.848 532.56C561.736 532.56 558.52 538.752 558.52 545.808C558.52 552.864 561.736 559.104 569.848 559.104Z" fill="black"/>
<rect x="496" y="130" width="165" height="62" rx="2" fill="#F36362" stroke="black" stroke-width="4"/>
<path d="M553.733 180H528.757V142.166H534.578V174.973H553.733V180ZM580.786 165.925C580.786 166.665 580.786 167.459 580.733 167.882H559.99C560.096 172.38 562.742 176.561 568.086 176.561C572.848 176.561 574.7 173.491 575.177 171.692H580.468C579.039 176.878 575.071 180.794 567.98 180.794C559.408 180.794 554.646 174.708 554.646 166.454C554.646 157.987 559.725 152.167 567.98 152.167C576.182 152.167 580.786 157.564 580.786 165.925ZM559.99 163.808H575.388C575.388 159.575 572.425 156.4 567.821 156.4C563.482 156.4 560.308 159.363 559.99 163.808ZM594.701 176.031C595.6 176.031 596.024 175.978 596.923 175.82V180C595.6 180.265 594.754 180.317 593.642 180.317C589.198 180.317 586.499 178.624 586.499 172.38V157.299H582.583V153.013H586.499V144.335H591.685V153.013H596.87V157.299H591.685V172.539C591.685 175.396 592.478 176.031 594.701 176.031ZM600.709 155.13V152.22C602.614 151.69 603.461 150.632 603.461 147.933H600.709V142.166H606.424V147.933C606.424 151.373 604.942 154.072 600.709 155.13ZM619.624 180.741C611.422 180.741 607.348 176.508 607.189 171.004H612.428C612.639 174.126 614.544 176.561 619.571 176.561C624.122 176.561 625.339 174.55 625.339 172.592C625.339 169.205 621.741 168.835 618.248 168.094C613.539 166.983 608.142 165.607 608.142 159.998C608.142 155.342 611.898 152.22 618.407 152.22C625.815 152.22 629.36 156.188 629.731 160.845H624.492C624.122 158.781 623.011 156.4 618.513 156.4C615.02 156.4 613.539 157.776 613.539 159.786C613.539 162.591 616.555 162.856 620.365 163.702C625.339 164.866 630.736 166.295 630.736 172.327C630.736 177.566 626.715 180.741 619.624 180.741Z" fill="black"/>
<path d="M1032.79 134.55C1034.76 131.486 1039.24 131.486 1041.21 134.55L1051.29 150.246C1051.97 151.3 1053.01 152.061 1054.23 152.379L1072.27 157.117C1075.79 158.042 1077.17 162.301 1074.87 165.119L1063.06 179.558C1062.26 180.527 1061.86 181.759 1061.93 183.01L1063 201.634C1063.21 205.269 1059.59 207.902 1056.2 206.58L1038.82 199.807C1037.65 199.352 1036.35 199.352 1035.18 199.807L1017.8 206.58C1014.41 207.902 1010.79 205.269 1011 201.634L1012.07 183.01C1012.14 181.759 1011.74 180.527 1010.94 179.558L999.132 165.119C996.826 162.301 998.21 158.042 1001.73 157.117L1019.77 152.379C1020.99 152.061 1022.03 151.3 1022.71 150.246L1032.79 134.55Z" fill="#F4F2E3"/>
<path d="M219 161L220.584 173.416L233 175L220.584 176.584L219 189L217.416 176.584L205 175L217.416 173.416L219 161Z" fill="#F4F2E3"/>
<path d="M209.016 519.552C209.313 517.222 212.687 517.222 212.984 519.552L215.895 542.374C216.011 543.278 216.722 543.989 217.626 544.105L240.448 547.016C242.778 547.313 242.778 550.687 240.448 550.984L217.626 553.895C216.722 554.011 216.011 554.722 215.895 555.626L212.984 578.448C212.687 580.778 209.313 580.778 209.016 578.448L206.105 555.626C205.989 554.722 205.278 554.011 204.374 553.895L181.552 550.984C179.222 550.687 179.222 547.313 181.552 547.016L204.374 544.105C205.278 543.989 205.989 543.278 206.105 542.374L209.016 519.552Z" fill="#F4F2E3"/>
<path d="M1156.79 570.55C1158.76 567.486 1163.24 567.486 1165.21 570.55L1175.29 586.246C1175.97 587.3 1177.01 588.061 1178.23 588.379L1196.27 593.117C1199.79 594.042 1201.17 598.301 1198.87 601.119L1187.06 615.558C1186.26 616.527 1185.86 617.759 1185.93 619.01L1187 637.634C1187.21 641.269 1183.59 643.902 1180.2 642.58L1162.82 635.807C1161.65 635.352 1160.35 635.352 1159.18 635.807L1141.8 642.58C1138.41 643.902 1134.79 641.269 1135 637.634L1136.07 619.01C1136.14 617.759 1135.74 616.527 1134.94 615.558L1123.13 601.119C1120.83 598.301 1122.21 594.042 1125.73 593.117L1143.77 588.379C1144.99 588.061 1146.03 587.3 1146.71 586.246L1156.79 570.55Z" fill="#F4F2E3"/>
<path d="M111.793 284.55C113.761 281.486 118.239 281.486 120.207 284.55L130.288 300.246C130.965 301.3 132.014 302.061 133.225 302.379L151.268 307.117C154.79 308.042 156.174 312.301 153.868 315.119L142.056 329.558C141.263 330.527 140.862 331.759 140.934 333.01L142.004 351.634C142.213 355.269 138.59 357.902 135.197 356.58L117.815 349.807C116.648 349.352 115.352 349.352 114.185 349.807L96.803 356.58C93.4101 357.902 89.7872 355.269 89.996 351.634L91.0657 333.01C91.1376 331.759 90.7372 330.527 89.9438 329.558L78.1317 315.119C75.8259 312.301 77.2097 308.042 80.7317 307.117L98.7745 302.379C99.9864 302.061 101.035 301.3 101.712 300.246L111.793 284.55Z" fill="#F4F2E3"/>
<path d="M1118.48 349L1119.1 350.925H1121.12L1119.49 352.115L1120.11 354.04L1118.48 352.85L1116.84 354.04L1117.46 352.115L1115.83 350.925H1117.85L1118.48 349Z" fill="#F4F2E3"/>
<path d="M1118.48 376.96L1119.1 378.885H1121.12L1119.49 380.075L1120.11 382L1118.48 380.81L1116.84 382L1117.46 380.075L1115.83 378.885H1117.85L1118.48 376.96Z" fill="#F4F2E3"/>
<path d="M1132.35 362.831L1132.98 364.756H1135L1133.36 365.946L1133.99 367.871L1132.35 366.681L1130.71 367.871L1131.34 365.946L1129.7 364.756H1131.73L1132.35 362.831Z" fill="#F4F2E3"/>
<path d="M1128.57 353.577L1129.2 355.502H1131.22L1129.58 356.692L1130.21 358.617L1128.57 357.427L1126.93 358.617L1127.56 356.692L1125.92 355.502H1127.95L1128.57 353.577Z" fill="#F4F2E3"/>
<path d="M1108.38 353.577L1109 355.502H1111.03L1109.39 356.692L1110.02 358.617L1108.38 357.427L1106.74 358.617L1107.37 356.692L1105.73 355.502H1107.75L1108.38 353.577Z" fill="#F4F2E3"/>
<path d="M1128.57 372.98L1129.2 374.905H1131.22L1129.58 376.095L1130.21 378.02L1128.57 376.83L1126.93 378.02L1127.56 376.095L1125.92 374.905H1127.95L1128.57 372.98Z" fill="#F4F2E3"/>
<path d="M1108.38 372.98L1109 374.905H1111.03L1109.39 376.095L1110.02 378.02L1108.38 376.83L1106.74 378.02L1107.37 376.095L1105.73 374.905H1107.75L1108.38 372.98Z" fill="#F4F2E3"/>
<path d="M1104.65 362.831L1105.27 364.756H1107.3L1105.66 365.946L1106.29 367.871L1104.65 366.681L1103.01 367.871L1103.64 365.946L1102 364.756H1104.02L1104.65 362.831Z" fill="#F4F2E3"/>
<path d="M89.4751 83L90.1004 84.9251H92.124L90.4869 86.1149L91.1122 88.04L89.4751 86.8502L87.8381 88.04L88.4634 86.1149L86.8263 84.9251H88.8498L89.4751 83Z" fill="#F4F2E3"/>
<path d="M89.4751 110.96L90.1004 112.885H92.124L90.4869 114.075L91.1122 116L89.4751 114.81L87.8381 116L88.4634 114.075L86.8263 112.885H88.8498L89.4751 110.96Z" fill="#F4F2E3"/>
<path d="M103.351 96.8307L103.976 98.7559H106L104.363 99.9456L104.988 101.871L103.351 100.681L101.714 101.871L102.339 99.9456L100.702 98.7559H102.726L103.351 96.8307Z" fill="#F4F2E3"/>
<path d="M99.5713 87.5771L100.197 89.5022H102.22L100.583 90.692L101.208 92.6171L99.5713 91.4273L97.9342 92.6171L98.5595 90.692L96.9225 89.5022H98.946L99.5713 87.5771Z" fill="#F4F2E3"/>
<path d="M79.379 87.5771L80.0043 89.5022H82.0278L80.3907 90.692L81.016 92.6171L79.379 91.4273L77.7419 92.6171L78.3672 90.692L76.7301 89.5022H78.7536L79.379 87.5771Z" fill="#F4F2E3"/>
<path d="M99.5713 106.98L100.197 108.905H102.22L100.583 110.095L101.208 112.02L99.5713 110.83L97.9342 112.02L98.5595 110.095L96.9225 108.905H98.946L99.5713 106.98Z" fill="#F4F2E3"/>
<path d="M79.379 106.98L80.0043 108.905H82.0278L80.3907 110.095L81.016 112.02L79.379 110.83L77.7419 112.02L78.3672 110.095L76.7301 108.905H78.7536L79.379 106.98Z" fill="#F4F2E3"/>
<path d="M75.6488 96.8307L76.2741 98.7559H78.2977L76.6606 99.9456L77.2859 101.871L75.6488 100.681L74.0118 101.871L74.6371 99.9456L73 98.7559H75.0235L75.6488 96.8307Z" fill="#F4F2E3"/>
<path d="M840.475 27L841.1 28.9251H843.124L841.487 30.1149L842.112 32.04L840.475 30.8502L838.838 32.04L839.463 30.1149L837.826 28.9251H839.85L840.475 27Z" fill="#F4F2E3"/>
<path d="M840.475 54.96L841.1 56.8851H843.124L841.487 58.0749L842.112 60L840.475 58.8102L838.838 60L839.463 58.0749L837.826 56.8851H839.85L840.475 54.96Z" fill="#F4F2E3"/>
<path d="M854.351 40.8307L854.976 42.7559H857L855.363 43.9456L855.988 45.8708L854.351 44.681L852.714 45.8708L853.339 43.9456L851.702 42.7559H853.726L854.351 40.8307Z" fill="#F4F2E3"/>
<path d="M850.571 31.5771L851.197 33.5022H853.22L851.583 34.692L852.208 36.6171L850.571 35.4273L848.934 36.6171L849.56 34.692L847.922 33.5022H849.946L850.571 31.5771Z" fill="#F4F2E3"/>
<path d="M830.379 31.5771L831.004 33.5022H833.028L831.391 34.692L832.016 36.6171L830.379 35.4273L828.742 36.6171L829.367 34.692L827.73 33.5022H829.754L830.379 31.5771Z" fill="#F4F2E3"/>
<path d="M850.571 50.9799L851.197 52.905H853.22L851.583 54.0948L852.208 56.0199L850.571 54.8301L848.934 56.0199L849.56 54.0948L847.922 52.905H849.946L850.571 50.9799Z" fill="#F4F2E3"/>
<path d="M830.379 50.9799L831.004 52.905H833.028L831.391 54.0948L832.016 56.0199L830.379 54.8301L828.742 56.0199L829.367 54.0948L827.73 52.905H829.754L830.379 50.9799Z" fill="#F4F2E3"/>
<path d="M826.649 40.8307L827.274 42.7559H829.298L827.661 43.9456L828.286 45.8708L826.649 44.681L825.012 45.8708L825.637 43.9456L824 42.7559H826.024L826.649 40.8307Z" fill="#F4F2E3"/>
<path d="M277.475 185L278.1 186.925H280.124L278.487 188.115L279.112 190.04L277.475 188.85L275.838 190.04L276.463 188.115L274.826 186.925H276.85L277.475 185Z" fill="#F4F2E3"/>
<path d="M277.475 212.96L278.1 214.885H280.124L278.487 216.075L279.112 218L277.475 216.81L275.838 218L276.463 216.075L274.826 214.885H276.85L277.475 212.96Z" fill="#F4F2E3"/>
<path d="M291.351 198.831L291.976 200.756H294L292.363 201.946L292.988 203.871L291.351 202.681L289.714 203.871L290.339 201.946L288.702 200.756H290.726L291.351 198.831Z" fill="#F4F2E3"/>
<path d="M287.571 189.577L288.197 191.502H290.22L288.583 192.692L289.208 194.617L287.571 193.427L285.934 194.617L286.56 192.692L284.922 191.502H286.946L287.571 189.577Z" fill="#F4F2E3"/>
<path d="M267.379 189.577L268.004 191.502H270.028L268.391 192.692L269.016 194.617L267.379 193.427L265.742 194.617L266.367 192.692L264.73 191.502H266.754L267.379 189.577Z" fill="#F4F2E3"/>
<path d="M287.571 208.98L288.197 210.905H290.22L288.583 212.095L289.208 214.02L287.571 212.83L285.934 214.02L286.56 212.095L284.922 210.905H286.946L287.571 208.98Z" fill="#F4F2E3"/>
<path d="M267.379 208.98L268.004 210.905H270.028L268.391 212.095L269.016 214.02L267.379 212.83L265.742 214.02L266.367 212.095L264.73 210.905H266.754L267.379 208.98Z" fill="#F4F2E3"/>
<path d="M263.649 198.831L264.274 200.756H266.298L264.661 201.946L265.286 203.871L263.649 202.681L262.012 203.871L262.637 201.946L261 200.756H263.024L263.649 198.831Z" fill="#F4F2E3"/>
<path d="M1053.48 684L1054.1 685.925H1056.12L1054.49 687.115L1055.11 689.04L1053.48 687.85L1051.84 689.04L1052.46 687.115L1050.83 685.925H1052.85L1053.48 684Z" fill="#F4F2E3"/>
<path d="M1053.48 711.96L1054.1 713.885H1056.12L1054.49 715.075L1055.11 717L1053.48 715.81L1051.84 717L1052.46 715.075L1050.83 713.885H1052.85L1053.48 711.96Z" fill="#F4F2E3"/>
<path d="M1067.35 697.831L1067.98 699.756H1070L1068.36 700.946L1068.99 702.871L1067.35 701.681L1065.71 702.871L1066.34 700.946L1064.7 699.756H1066.73L1067.35 697.831Z" fill="#F4F2E3"/>
<path d="M1063.57 688.577L1064.2 690.502H1066.22L1064.58 691.692L1065.21 693.617L1063.57 692.427L1061.93 693.617L1062.56 691.692L1060.92 690.502H1062.95L1063.57 688.577Z" fill="#F4F2E3"/>
<path d="M1043.38 688.577L1044 690.502H1046.03L1044.39 691.692L1045.02 693.617L1043.38 692.427L1041.74 693.617L1042.37 691.692L1040.73 690.502H1042.75L1043.38 688.577Z" fill="#F4F2E3"/>
<path d="M1063.57 707.98L1064.2 709.905H1066.22L1064.58 711.095L1065.21 713.02L1063.57 711.83L1061.93 713.02L1062.56 711.095L1060.92 709.905H1062.95L1063.57 707.98Z" fill="#F4F2E3"/>
<path d="M1043.38 707.98L1044 709.905H1046.03L1044.39 711.095L1045.02 713.02L1043.38 711.83L1041.74 713.02L1042.37 711.095L1040.73 709.905H1042.75L1043.38 707.98Z" fill="#F4F2E3"/>
<path d="M1039.65 697.831L1040.27 699.756H1042.3L1040.66 700.946L1041.29 702.871L1039.65 701.681L1038.01 702.871L1038.64 700.946L1037 699.756H1039.02L1039.65 697.831Z" fill="#F4F2E3"/>
<circle cx="209.5" cy="237.5" r="13.5" fill="#F4F2E3"/>
<circle cx="901.5" cy="13.5" r="13.5" fill="#F4F2E3"/>
<path d="M733.525 744L732.9 745.925H730.876L732.513 747.115L731.888 749.04L733.525 747.85L735.162 749.04L734.537 747.115L736.174 745.925H734.15L733.525 744Z" fill="#F4F2E3"/>
<path d="M733.525 771.96L732.9 773.885H730.876L732.513 775.075L731.888 777L733.525 775.81L735.162 777L734.537 775.075L736.174 773.885H734.15L733.525 771.96Z" fill="#F4F2E3"/>
<path d="M719.649 757.831L719.024 759.756H717L718.637 760.946L718.012 762.871L719.649 761.681L721.286 762.871L720.661 760.946L722.298 759.756H720.274L719.649 757.831Z" fill="#F4F2E3"/>
<path d="M723.429 748.577L722.803 750.502H720.78L722.417 751.692L721.792 753.617L723.429 752.427L725.066 753.617L724.44 751.692L726.078 750.502H724.054L723.429 748.577Z" fill="#F4F2E3"/>
<path d="M743.621 748.577L742.996 750.502H740.972L742.609 751.692L741.984 753.617L743.621 752.427L745.258 753.617L744.633 751.692L746.27 750.502H744.246L743.621 748.577Z" fill="#F4F2E3"/>
<path d="M723.429 767.98L722.803 769.905H720.78L722.417 771.095L721.792 773.02L723.429 771.83L725.066 773.02L724.44 771.095L726.078 769.905H724.054L723.429 767.98Z" fill="#F4F2E3"/>
<path d="M743.621 767.98L742.996 769.905H740.972L742.609 771.095L741.984 773.02L743.621 771.83L745.258 773.02L744.633 771.095L746.27 769.905H744.246L743.621 767.98Z" fill="#F4F2E3"/>
<path d="M747.351 757.831L746.726 759.756H744.702L746.339 760.946L745.714 762.871L747.351 761.681L748.988 762.871L748.363 760.946L750 759.756H747.976L747.351 757.831Z" fill="#F4F2E3"/>
<circle cx="13.5" cy="13.5" r="13.5" transform="matrix(-1 0 0 1 686 717)" fill="#F4F2E3"/>
<path d="M1147 278L1148.58 290.416L1161 292L1148.58 293.584L1147 306L1145.42 293.584L1133 292L1145.42 290.416L1147 278Z" fill="#F4F2E3"/>
<path d="M734 684L735.584 696.416L748 698L735.584 699.584L734 712L732.416 699.584L720 698L732.416 696.416L734 684Z" fill="#F4F2E3"/>
<path d="M446 730L447.584 742.416L460 744L447.584 745.584L446 758L444.416 745.584L432 744L444.416 742.416L446 730Z" fill="#F4F2E3"/>
<path d="M432 16L433.584 28.4161L446 30L433.584 31.5839L432 44L430.416 31.5839L418 30L430.416 28.4161L432 16Z" fill="#F4F2E3"/>
<circle cx="1186.5" cy="351.5" r="13.5" fill="#F4F2E3"/>
<circle cx="1069.5" cy="622.5" r="13.5" fill="#F4F2E3"/>
<path d="M250.459 602L251.501 605.209H254.873L252.145 607.191L253.187 610.4L250.459 608.417L247.73 610.4L248.772 607.191L246.044 605.209H249.416L250.459 602Z" fill="#F4F2E3"/>
<path d="M250.459 648.6L251.501 651.809H254.873L252.145 653.791L253.187 657L250.459 655.017L247.73 657L248.772 653.791L246.044 651.809H249.416L250.459 648.6Z" fill="#F4F2E3"/>
<path d="M273.585 625.051L274.627 628.26H278L275.272 630.243L276.314 633.451L273.585 631.468L270.857 633.451L271.899 630.243L269.171 628.26H272.543L273.585 625.051Z" fill="#F4F2E3"/>
<path d="M267.286 609.628L268.328 612.837H271.7L268.972 614.82L270.014 618.028L267.286 616.046L264.557 618.028L265.599 614.82L262.871 612.837H266.243L267.286 609.628Z" fill="#F4F2E3"/>
<path d="M233.632 609.628L234.674 612.837H238.046L235.318 614.82L236.36 618.028L233.632 616.046L230.903 618.028L231.945 614.82L229.217 612.837H232.589L233.632 609.628Z" fill="#F4F2E3"/>
<path d="M267.286 641.967L268.328 645.175H271.7L268.972 647.158L270.014 650.367L267.286 648.384L264.557 650.367L265.599 647.158L262.871 645.175H266.243L267.286 641.967Z" fill="#F4F2E3"/>
<path d="M233.632 641.967L234.674 645.175H238.046L235.318 647.158L236.36 650.367L233.632 648.384L230.903 650.367L231.945 647.158L229.217 645.175H232.589L233.632 641.967Z" fill="#F4F2E3"/>
<path d="M227.415 625.051L228.457 628.26H231.829L229.101 630.243L230.143 633.451L227.415 631.468L224.686 633.451L225.728 630.243L223 628.26H226.373L227.415 625.051Z" fill="#F4F2E3"/>
<circle cx="352.5" cy="624.5" r="13.5" fill="#F4F2E3"/>
</svg>
