<svg  viewBox="0 0 216 216" fill="none" xmlns="http://www.w3.org/2000/svg">
<circle cx="108" cy="108" r="105.5" fill="#CCDFA4" stroke="black" stroke-width="4"/>
<path d="M43.6015 74.2721L41.6645 77.2112L22.5605 64.6202L24.4975 61.6812L43.6015 74.2721Z" fill="black"/>
<path d="M48.4058 65.695L46.0903 68.3462L28.8573 53.2958L31.5095 50.2589L51.7542 53.8342L51.7963 53.786L38.5401 42.2088L40.8766 39.5334L58.1096 54.5839L55.4574 57.6207L35.1917 54.0695L35.1496 54.1177L48.4058 65.695Z" fill="black"/>
<path d="M69.721 47.0422C64.8656 50.2 59.8187 49.894 56.7952 45.7147L59.8534 43.7258C61.7428 46.1615 64.4059 46.9107 68.0006 44.5729C71.0856 42.5665 71.1521 40.6146 70.0181 38.871C68.4305 36.4298 66.3259 37.3023 62.2628 38.6851C58.7349 39.8343 54.8073 41.0145 52.4346 37.3662C50.2712 34.0398 51.6078 30.4603 55.739 27.7736C60.1116 24.9298 64.4032 25.307 67.2105 28.978L64.1524 30.9669C62.3301 28.8693 60.1956 28.4633 57.4058 30.2778C54.9914 31.8479 54.3332 33.5357 55.4149 35.1989C56.8106 37.345 59.1191 36.4925 61.9883 35.5045C66.3009 34.0358 70.364 32.653 72.9984 36.7037C75.1443 40.0032 74.5228 43.9193 69.721 47.0422Z" fill="black"/>
<path d="M86.8095 39.1397L83.4626 40.3291L76.8195 21.6343L69.8542 24.1094L68.8363 21.2448L86.1139 15.1053L87.1318 17.9699L80.1665 20.445L86.8095 39.1397Z" fill="black"/>
<path d="M95.2186 37.5989L91.5264 37.9811L97.6369 14.3462L101.425 13.954L112.311 35.8292L108.492 36.2247L106.047 30.9444L96.5298 31.9297L95.2186 37.5989ZM99.8191 17.4017L97.2737 28.8608L104.754 28.0863L99.8828 17.3951L99.8191 17.4017Z" fill="black"/>
<path d="M122.599 37.9516C116.102 36.8375 113.287 31.2899 114.456 24.4773C115.618 17.6963 120.594 13.4846 127.028 14.588C132.863 15.5885 135.418 19.241 135.408 23.6548L131.781 23.0328C131.669 20.0915 129.826 18.1521 126.483 17.5788C121.499 16.7243 118.807 20.873 118.083 25.0993C117.353 29.3572 118.035 34.0846 123.302 34.9878C127.024 35.626 130.432 33.5481 131.108 29.8003L124.453 28.6591L124.95 25.7575L135.138 27.5044L133.115 39.3003L130.718 38.8892L130.402 35.6208L130.339 35.6099C128.367 37.6419 126.037 38.5411 122.599 37.9516Z" fill="black"/>
<path d="M139.728 41.8015L136.679 40.0426L148.112 20.2236L156.372 24.9885C160.751 27.5148 161.924 30.9251 159.814 34.584C158.359 37.1064 155.779 38.0564 153.301 37.2922L153.269 37.3477C157.375 40.8612 151.175 47.7026 152.064 48.6588L151.952 48.8528L148.681 46.9661C148.274 45.6228 154.156 39.7804 149.306 36.9822L144.205 34.0402L139.728 41.8015ZM145.724 31.4069L150.27 34.0291C153.07 35.6441 155.298 35.3039 156.609 33.0309C157.84 30.8966 157.292 29.0288 154.243 27.27L149.642 24.6157L145.724 31.4069Z" fill="black"/>
<path d="M156.918 52.4562L154.26 49.8644L176.329 39.428L179.055 42.0868L169.22 64.4543L166.471 61.7731L168.962 56.5146L162.112 49.8341L156.918 52.4562ZM175.379 43.0606L164.946 48.441L170.33 53.6915L175.425 43.1053L175.379 43.0606Z" fill="black"/>
<path d="M171.791 69.9352L170.066 66.9403L189.894 55.5221L192.209 59.543L179.914 74.2303L179.946 74.2858L198.836 71.0511L201.152 75.072L181.325 86.4902L179.6 83.4954L194.991 74.6322L194.959 74.5768L176.422 77.977L174.969 75.4536L187.213 61.1276L187.181 61.0721L171.791 69.9352Z" fill="black"/>
</svg>
