<svg viewBox="0 0 140 159" fill="none" xmlns="http://www.w3.org/2000/svg">
<mask id="path-1-outside-1_40_1354" maskUnits="userSpaceOnUse" x="-1.06229" y="-2.07671" width="142.348" height="163.881" fill="black">
<rect fill="white" x="-1.06229" y="-2.07671" width="142.348" height="163.881"/>
<path d="M116.653 155.718C115.161 155.178 113.924 154.394 113.197 153.122C112.469 151.851 112.251 150.092 112.771 149.104C114.092 145.383 116.159 141.932 118.226 138.481C119.519 136.262 120.567 133.785 121.614 131.309C121.114 131.296 120.604 131.783 119.849 132.013C117.073 133.192 114.051 134.114 111.03 135.035C108.008 135.957 104.741 136.622 101.729 137.043C98.7164 137.464 95.7042 137.885 92.692 138.306C80.6523 139.489 68.395 138.914 56.1751 136.337C50.1879 135.177 44.21 133.516 38.4963 131.111C36.0125 130.044 33.5287 128.976 31.2998 127.665C27.3332 125.557 23.8764 122.961 20.4196 120.365C14.507 115.201 9.86884 108.818 7.2513 101.486C4.63376 94.155 3.0265 86.3497 3.92169 78.6107C4.24183 74.863 4.80756 71.3722 5.87377 67.8947C6.67576 65.1614 7.73265 62.1845 9.03513 59.4644C11.121 55.0123 13.6979 51.074 16.7754 47.1489C16.7754 47.1489 16.7754 47.1489 17.0303 46.9052C16.7941 46.1477 16.5578 45.3902 16.3215 44.6327C15.3672 42.1033 14.9226 39.0866 14.4687 36.5705C14.0334 33.0532 13.5982 29.5359 13.6634 26.0319C13.4645 23.2721 13.5204 20.2687 13.8219 17.5221C13.8778 14.5187 14.1793 11.7721 14.2352 8.7687C14.2911 5.76524 16.8402 3.32864 19.8431 3.40817C22.846 3.48769 25.3018 6.05684 25.2459 9.06029C25.1714 13.0649 24.5963 17.0563 24.5218 21.0609C24.4565 24.5649 24.6369 28.3258 24.8172 32.0868C25.2804 34.1023 25.2431 36.1046 25.7064 38.1202L25.697 38.6208C29.247 36.2107 33.0333 34.5581 37.0652 33.1624C40.8421 32.0103 44.6004 31.8595 48.3587 31.7086C52.3626 31.8146 56.093 33.1655 59.814 35.0169C60.7963 36.0446 62.0336 36.8286 62.7703 37.5993C63.0159 37.8562 63.2615 38.1131 63.5071 38.37C63.9982 38.8839 64.4894 39.3977 64.9806 39.9115C66.1992 41.6967 67.1629 43.7255 67.8717 45.998C68.5805 48.2704 68.2883 50.5164 67.4956 52.7491C67.2314 53.4933 67.2221 53.9939 66.9578 54.7382C66.4387 55.7261 66.1652 56.9709 65.3911 58.2024C63.5789 61.4098 60.5293 63.8331 57.4891 65.7559C55.969 66.7173 54.2034 67.4218 52.4377 68.1262C50.672 68.8307 48.6607 69.2783 46.9044 69.4822C43.3916 69.8899 39.8882 69.7972 36.4035 68.7032C32.4182 67.596 29.207 65.2573 26.26 62.1743C25.0321 60.8897 24.059 59.3615 22.8311 58.0769C21.8022 59.5521 21.0188 61.2843 19.735 63.0032C19.2159 63.9911 18.6968 64.9789 18.4232 66.2238C17.1114 69.4444 16.2908 73.1788 15.4702 76.9132C15.1593 80.1603 15.0941 83.6644 15.2838 86.9247C15.719 90.442 16.6548 93.9726 17.8454 97.2594C19.2909 100.303 20.7365 103.346 22.6918 105.902C24.8928 108.715 27.103 111.027 29.8138 113.352C33.2706 115.948 36.7367 118.043 40.4577 119.894C41.9499 120.435 43.442 120.975 44.6792 121.759C46.417 122.556 48.164 122.853 49.9017 123.65C51.1483 123.934 53.1409 124.487 55.1335 125.041C57.1262 125.595 58.8732 125.891 60.8658 126.445C63.359 127.012 65.8614 127.078 68.1089 127.388C71.3574 127.724 74.3603 127.804 77.3633 127.883C80.1113 128.207 82.8686 128.029 85.626 127.852C88.3833 127.674 90.6401 127.484 93.3975 127.306C96.9102 126.899 100.678 126.247 104.2 125.339C106.211 124.891 108.222 124.444 109.988 123.739C111.754 123.035 113.265 122.574 114.775 122.113C116.541 121.409 118.316 120.204 120.082 119.499C119.836 119.242 119.09 118.972 118.844 118.715C116.124 116.89 113.404 115.065 110.429 113.484C109.683 113.214 109.183 113.201 108.692 112.687C107.946 112.417 107.445 112.403 106.954 111.889C105.717 111.105 104.734 110.078 104.517 108.319C104.044 106.804 104.318 105.559 105.092 104.328C105.875 102.596 107.896 101.648 109.898 101.701C111.399 101.74 112.891 102.281 114.383 102.821C115.876 103.361 117.358 104.402 118.851 104.943C121.079 106.254 123.053 107.808 125.282 109.12C126.756 110.661 128.985 111.972 130.959 113.527C132.196 114.311 133.679 115.352 134.661 116.379C134.661 116.379 134.661 116.379 134.907 116.636C137.117 118.949 137.052 122.453 136.495 125.443C135.703 127.676 134.655 130.152 133.617 132.128C132.569 134.604 131.267 137.324 130.219 139.8C128.926 142.02 127.633 144.239 126.585 146.716C125.556 148.191 124.518 150.167 123.735 151.899C123.206 153.387 122.432 154.619 121.167 155.337C119.656 155.797 118.145 156.258 116.653 155.718ZM31.4512 52.2953C32.6792 53.5799 33.4066 54.8512 34.8894 55.8922C35.8811 56.4192 36.6178 57.19 37.6095 57.7171C38.3555 57.9873 39.1016 58.2574 40.3482 58.5408C41.5947 58.8243 42.5957 58.8508 43.8516 58.6336C45.6079 58.4297 46.8638 58.2126 48.3746 57.7518C49.6398 57.034 51.1506 56.5732 52.1702 55.5986C52.9349 54.8676 53.9545 53.893 54.7192 53.162C55.229 52.6747 55.7481 51.6868 56.0124 50.9425C56.0217 50.4419 56.5315 49.9546 56.5408 49.4541C56.5501 48.9535 56.5595 48.4529 56.5688 47.9523L56.5781 47.4518C56.3325 47.1948 56.3325 47.1948 56.3418 46.6943C56.0962 46.4373 55.6051 45.9235 55.3595 45.6666C54.8683 45.1528 54.1223 44.8826 53.3762 44.6124C52.3845 44.0853 51.138 43.8019 49.8914 43.5185C48.1444 43.2218 46.6429 43.1821 44.8866 43.386C42.6297 43.5766 40.3635 44.2678 38.0974 44.959C35.5763 45.8939 33.5464 47.3426 31.2709 48.5344C30.7611 49.0217 30.5062 49.2654 29.9964 49.7527C30.2326 50.5102 30.7145 51.5246 31.4512 52.2953Z"/>
</mask>
<path d="M116.653 155.718C115.161 155.178 113.924 154.394 113.197 153.122C112.469 151.851 112.251 150.092 112.771 149.104C114.092 145.383 116.159 141.932 118.226 138.481C119.519 136.262 120.567 133.785 121.614 131.309C121.114 131.296 120.604 131.783 119.849 132.013C117.073 133.192 114.051 134.114 111.03 135.035C108.008 135.957 104.741 136.622 101.729 137.043C98.7164 137.464 95.7042 137.885 92.692 138.306C80.6523 139.489 68.395 138.914 56.1751 136.337C50.1879 135.177 44.21 133.516 38.4963 131.111C36.0125 130.044 33.5287 128.976 31.2998 127.665C27.3332 125.557 23.8764 122.961 20.4196 120.365C14.507 115.201 9.86884 108.818 7.2513 101.486C4.63376 94.155 3.0265 86.3497 3.92169 78.6107C4.24183 74.863 4.80756 71.3722 5.87377 67.8947C6.67576 65.1614 7.73265 62.1845 9.03513 59.4644C11.121 55.0123 13.6979 51.074 16.7754 47.1489C16.7754 47.1489 16.7754 47.1489 17.0303 46.9052C16.7941 46.1477 16.5578 45.3902 16.3215 44.6327C15.3672 42.1033 14.9226 39.0866 14.4687 36.5705C14.0334 33.0532 13.5982 29.5359 13.6634 26.0319C13.4645 23.2721 13.5204 20.2687 13.8219 17.5221C13.8778 14.5187 14.1793 11.7721 14.2352 8.7687C14.2911 5.76524 16.8402 3.32864 19.8431 3.40817C22.846 3.48769 25.3018 6.05684 25.2459 9.06029C25.1714 13.0649 24.5963 17.0563 24.5218 21.0609C24.4565 24.5649 24.6369 28.3258 24.8172 32.0868C25.2804 34.1023 25.2431 36.1046 25.7064 38.1202L25.697 38.6208C29.247 36.2107 33.0333 34.5581 37.0652 33.1624C40.8421 32.0103 44.6004 31.8595 48.3587 31.7086C52.3626 31.8146 56.093 33.1655 59.814 35.0169C60.7963 36.0446 62.0336 36.8286 62.7703 37.5993C63.0159 37.8562 63.2615 38.1131 63.5071 38.37C63.9982 38.8839 64.4894 39.3977 64.9806 39.9115C66.1992 41.6967 67.1629 43.7255 67.8717 45.998C68.5805 48.2704 68.2883 50.5164 67.4956 52.7491C67.2314 53.4933 67.2221 53.9939 66.9578 54.7382C66.4387 55.7261 66.1652 56.9709 65.3911 58.2024C63.5789 61.4098 60.5293 63.8331 57.4891 65.7559C55.969 66.7173 54.2034 67.4218 52.4377 68.1262C50.672 68.8307 48.6607 69.2783 46.9044 69.4822C43.3916 69.8899 39.8882 69.7972 36.4035 68.7032C32.4182 67.596 29.207 65.2573 26.26 62.1743C25.0321 60.8897 24.059 59.3615 22.8311 58.0769C21.8022 59.5521 21.0188 61.2843 19.735 63.0032C19.2159 63.9911 18.6968 64.9789 18.4232 66.2238C17.1114 69.4444 16.2908 73.1788 15.4702 76.9132C15.1593 80.1603 15.0941 83.6644 15.2838 86.9247C15.719 90.442 16.6548 93.9726 17.8454 97.2594C19.2909 100.303 20.7365 103.346 22.6918 105.902C24.8928 108.715 27.103 111.027 29.8138 113.352C33.2706 115.948 36.7367 118.043 40.4577 119.894C41.9499 120.435 43.442 120.975 44.6792 121.759C46.417 122.556 48.164 122.853 49.9017 123.65C51.1483 123.934 53.1409 124.487 55.1335 125.041C57.1262 125.595 58.8732 125.891 60.8658 126.445C63.359 127.012 65.8614 127.078 68.1089 127.388C71.3574 127.724 74.3603 127.804 77.3633 127.883C80.1113 128.207 82.8686 128.029 85.626 127.852C88.3833 127.674 90.6401 127.484 93.3975 127.306C96.9102 126.899 100.678 126.247 104.2 125.339C106.211 124.891 108.222 124.444 109.988 123.739C111.754 123.035 113.265 122.574 114.775 122.113C116.541 121.409 118.316 120.204 120.082 119.499C119.836 119.242 119.09 118.972 118.844 118.715C116.124 116.89 113.404 115.065 110.429 113.484C109.683 113.214 109.183 113.201 108.692 112.687C107.946 112.417 107.445 112.403 106.954 111.889C105.717 111.105 104.734 110.078 104.517 108.319C104.044 106.804 104.318 105.559 105.092 104.328C105.875 102.596 107.896 101.648 109.898 101.701C111.399 101.74 112.891 102.281 114.383 102.821C115.876 103.361 117.358 104.402 118.851 104.943C121.079 106.254 123.053 107.808 125.282 109.12C126.756 110.661 128.985 111.972 130.959 113.527C132.196 114.311 133.679 115.352 134.661 116.379C134.661 116.379 134.661 116.379 134.907 116.636C137.117 118.949 137.052 122.453 136.495 125.443C135.703 127.676 134.655 130.152 133.617 132.128C132.569 134.604 131.267 137.324 130.219 139.8C128.926 142.02 127.633 144.239 126.585 146.716C125.556 148.191 124.518 150.167 123.735 151.899C123.206 153.387 122.432 154.619 121.167 155.337C119.656 155.797 118.145 156.258 116.653 155.718ZM31.4512 52.2953C32.6792 53.5799 33.4066 54.8512 34.8894 55.8922C35.8811 56.4192 36.6178 57.19 37.6095 57.7171C38.3555 57.9873 39.1016 58.2574 40.3482 58.5408C41.5947 58.8243 42.5957 58.8508 43.8516 58.6336C45.6079 58.4297 46.8638 58.2126 48.3746 57.7518C49.6398 57.034 51.1506 56.5732 52.1702 55.5986C52.9349 54.8676 53.9545 53.893 54.7192 53.162C55.229 52.6747 55.7481 51.6868 56.0124 50.9425C56.0217 50.4419 56.5315 49.9546 56.5408 49.4541C56.5501 48.9535 56.5595 48.4529 56.5688 47.9523L56.5781 47.4518C56.3325 47.1948 56.3325 47.1948 56.3418 46.6943C56.0962 46.4373 55.6051 45.9235 55.3595 45.6666C54.8683 45.1528 54.1223 44.8826 53.3762 44.6124C52.3845 44.0853 51.138 43.8019 49.8914 43.5185C48.1444 43.2218 46.6429 43.1821 44.8866 43.386C42.6297 43.5766 40.3635 44.2678 38.0974 44.959C35.5763 45.8939 33.5464 47.3426 31.2709 48.5344C30.7611 49.0217 30.5062 49.2654 29.9964 49.7527C30.2326 50.5102 30.7145 51.5246 31.4512 52.2953Z" fill="url(#paint0_linear_40_1354)"/>
<path d="M116.653 155.718C115.161 155.178 113.924 154.394 113.197 153.122C112.469 151.851 112.251 150.092 112.771 149.104C114.092 145.383 116.159 141.932 118.226 138.481C119.519 136.262 120.567 133.785 121.614 131.309C121.114 131.296 120.604 131.783 119.849 132.013C117.073 133.192 114.051 134.114 111.03 135.035C108.008 135.957 104.741 136.622 101.729 137.043C98.7164 137.464 95.7042 137.885 92.692 138.306C80.6523 139.489 68.395 138.914 56.1751 136.337C50.1879 135.177 44.21 133.516 38.4963 131.111C36.0125 130.044 33.5287 128.976 31.2998 127.665C27.3332 125.557 23.8764 122.961 20.4196 120.365C14.507 115.201 9.86884 108.818 7.2513 101.486C4.63376 94.155 3.0265 86.3497 3.92169 78.6107C4.24183 74.863 4.80756 71.3722 5.87377 67.8947C6.67576 65.1614 7.73265 62.1845 9.03513 59.4644C11.121 55.0123 13.6979 51.074 16.7754 47.1489C16.7754 47.1489 16.7754 47.1489 17.0303 46.9052C16.7941 46.1477 16.5578 45.3902 16.3215 44.6327C15.3672 42.1033 14.9226 39.0866 14.4687 36.5705C14.0334 33.0532 13.5982 29.5359 13.6634 26.0319C13.4645 23.2721 13.5204 20.2687 13.8219 17.5221C13.8778 14.5187 14.1793 11.7721 14.2352 8.7687C14.2911 5.76524 16.8402 3.32864 19.8431 3.40817C22.846 3.48769 25.3018 6.05684 25.2459 9.06029C25.1714 13.0649 24.5963 17.0563 24.5218 21.0609C24.4565 24.5649 24.6369 28.3258 24.8172 32.0868C25.2804 34.1023 25.2431 36.1046 25.7064 38.1202L25.697 38.6208C29.247 36.2107 33.0333 34.5581 37.0652 33.1624C40.8421 32.0103 44.6004 31.8595 48.3587 31.7086C52.3626 31.8146 56.093 33.1655 59.814 35.0169C60.7963 36.0446 62.0336 36.8286 62.7703 37.5993C63.0159 37.8562 63.2615 38.1131 63.5071 38.37C63.9982 38.8839 64.4894 39.3977 64.9806 39.9115C66.1992 41.6967 67.1629 43.7255 67.8717 45.998C68.5805 48.2704 68.2883 50.5164 67.4956 52.7491C67.2314 53.4933 67.2221 53.9939 66.9578 54.7382C66.4387 55.7261 66.1652 56.9709 65.3911 58.2024C63.5789 61.4098 60.5293 63.8331 57.4891 65.7559C55.969 66.7173 54.2034 67.4218 52.4377 68.1262C50.672 68.8307 48.6607 69.2783 46.9044 69.4822C43.3916 69.8899 39.8882 69.7972 36.4035 68.7032C32.4182 67.596 29.207 65.2573 26.26 62.1743C25.0321 60.8897 24.059 59.3615 22.8311 58.0769C21.8022 59.5521 21.0188 61.2843 19.735 63.0032C19.2159 63.9911 18.6968 64.9789 18.4232 66.2238C17.1114 69.4444 16.2908 73.1788 15.4702 76.9132C15.1593 80.1603 15.0941 83.6644 15.2838 86.9247C15.719 90.442 16.6548 93.9726 17.8454 97.2594C19.2909 100.303 20.7365 103.346 22.6918 105.902C24.8928 108.715 27.103 111.027 29.8138 113.352C33.2706 115.948 36.7367 118.043 40.4577 119.894C41.9499 120.435 43.442 120.975 44.6792 121.759C46.417 122.556 48.164 122.853 49.9017 123.65C51.1483 123.934 53.1409 124.487 55.1335 125.041C57.1262 125.595 58.8732 125.891 60.8658 126.445C63.359 127.012 65.8614 127.078 68.1089 127.388C71.3574 127.724 74.3603 127.804 77.3633 127.883C80.1113 128.207 82.8686 128.029 85.626 127.852C88.3833 127.674 90.6401 127.484 93.3975 127.306C96.9102 126.899 100.678 126.247 104.2 125.339C106.211 124.891 108.222 124.444 109.988 123.739C111.754 123.035 113.265 122.574 114.775 122.113C116.541 121.409 118.316 120.204 120.082 119.499C119.836 119.242 119.09 118.972 118.844 118.715C116.124 116.89 113.404 115.065 110.429 113.484C109.683 113.214 109.183 113.201 108.692 112.687C107.946 112.417 107.445 112.403 106.954 111.889C105.717 111.105 104.734 110.078 104.517 108.319C104.044 106.804 104.318 105.559 105.092 104.328C105.875 102.596 107.896 101.648 109.898 101.701C111.399 101.74 112.891 102.281 114.383 102.821C115.876 103.361 117.358 104.402 118.851 104.943C121.079 106.254 123.053 107.808 125.282 109.12C126.756 110.661 128.985 111.972 130.959 113.527C132.196 114.311 133.679 115.352 134.661 116.379C134.661 116.379 134.661 116.379 134.907 116.636C137.117 118.949 137.052 122.453 136.495 125.443C135.703 127.676 134.655 130.152 133.617 132.128C132.569 134.604 131.267 137.324 130.219 139.8C128.926 142.02 127.633 144.239 126.585 146.716C125.556 148.191 124.518 150.167 123.735 151.899C123.206 153.387 122.432 154.619 121.167 155.337C119.656 155.797 118.145 156.258 116.653 155.718ZM31.4512 52.2953C32.6792 53.5799 33.4066 54.8512 34.8894 55.8922C35.8811 56.4192 36.6178 57.19 37.6095 57.7171C38.3555 57.9873 39.1016 58.2574 40.3482 58.5408C41.5947 58.8243 42.5957 58.8508 43.8516 58.6336C45.6079 58.4297 46.8638 58.2126 48.3746 57.7518C49.6398 57.034 51.1506 56.5732 52.1702 55.5986C52.9349 54.8676 53.9545 53.893 54.7192 53.162C55.229 52.6747 55.7481 51.6868 56.0124 50.9425C56.0217 50.4419 56.5315 49.9546 56.5408 49.4541C56.5501 48.9535 56.5595 48.4529 56.5688 47.9523L56.5781 47.4518C56.3325 47.1948 56.3325 47.1948 56.3418 46.6943C56.0962 46.4373 55.6051 45.9235 55.3595 45.6666C54.8683 45.1528 54.1223 44.8826 53.3762 44.6124C52.3845 44.0853 51.138 43.8019 49.8914 43.5185C48.1444 43.2218 46.6429 43.1821 44.8866 43.386C42.6297 43.5766 40.3635 44.2678 38.0974 44.959C35.5763 45.8939 33.5464 47.3426 31.2709 48.5344C30.7611 49.0217 30.5062 49.2654 29.9964 49.7527C30.2326 50.5102 30.7145 51.5246 31.4512 52.2953Z" stroke="black" stroke-width="6" mask="url(#path-1-outside-1_40_1354)"/>
<defs>
<linearGradient id="paint0_linear_40_1354" x1="9" y1="-40" x2="218" y2="50.5" gradientUnits="userSpaceOnUse">
<stop offset="0.03" stop-color="#F770DC"/>
<stop offset="0.15141" stop-color="#F9686B"/>
<stop offset="0.315" stop-color="#F9A15C"/>
<stop offset="0.488892" stop-color="#F5CB94"/>
<stop offset="0.654032" stop-color="#C9D6AD"/>
<stop offset="0.826352" stop-color="#B6ACE5"/>
<stop offset="1" stop-color="#C96FEF"/>
</linearGradient>
</defs>
</svg>
