<svg width="152" height="43" viewBox="0 0 152 43" fill="none" xmlns="http://www.w3.org/2000/svg">
<mask id="path-1-outside-1_40_1341" maskUnits="userSpaceOnUse" x="-1" y="-1" width="153" height="44" fill="black">
<rect fill="white" x="-1" y="-1" width="153" height="44"/>
<path fill-rule="evenodd" clip-rule="evenodd" d="M137.291 7.05253C137.651 5.83121 137.755 3.5475 134.291 3.05252C130.79 2.55252 128.673 5.75487 128.291 7.05253C127.849 8.54865 127.603 11.5393 127.911 14.7683C119.786 19.4833 99.0279 29.6712 70.777 28.9635C40.831 27.9329 20.3258 15.1884 13.7952 10.7693C11.7569 9.39002 7.7215 9.21293 4.79084 12.5468C0.618385 17.2936 4.75518 20.0468 6.92947 21.4938C7.04587 21.5713 7.15664 21.645 7.26021 21.7151C20.9483 30.9775 41.0766 38.8846 70.777 39.6349C98.7439 40.3415 120.583 30.3502 131.224 24.4591C133.648 27.7511 137.604 30.8151 141.29 31.0525L141.348 31.0562C142.682 31.143 148.298 31.5079 148.79 28.5525C149.29 25.5525 147.79 24.5525 146.79 24.0525C145.962 23.6381 145.037 23.4293 144.081 23.2134C141.888 22.7183 139.531 22.1861 137.791 19.0525C137.558 18.6337 137.358 18.2098 137.188 17.7835C137.083 17.1925 136.898 16.6068 136.654 16.0734C135.77 12.2474 136.85 8.54786 137.291 7.05253Z"/>
</mask>
<path fill-rule="evenodd" clip-rule="evenodd" d="M137.291 7.05253C137.651 5.83121 137.755 3.5475 134.291 3.05252C130.79 2.55252 128.673 5.75487 128.291 7.05253C127.849 8.54865 127.603 11.5393 127.911 14.7683C119.786 19.4833 99.0279 29.6712 70.777 28.9635C40.831 27.9329 20.3258 15.1884 13.7952 10.7693C11.7569 9.39002 7.7215 9.21293 4.79084 12.5468C0.618385 17.2936 4.75518 20.0468 6.92947 21.4938C7.04587 21.5713 7.15664 21.645 7.26021 21.7151C20.9483 30.9775 41.0766 38.8846 70.777 39.6349C98.7439 40.3415 120.583 30.3502 131.224 24.4591C133.648 27.7511 137.604 30.8151 141.29 31.0525L141.348 31.0562C142.682 31.143 148.298 31.5079 148.79 28.5525C149.29 25.5525 147.79 24.5525 146.79 24.0525C145.962 23.6381 145.037 23.4293 144.081 23.2134C141.888 22.7183 139.531 22.1861 137.791 19.0525C137.558 18.6337 137.358 18.2098 137.188 17.7835C137.083 17.1925 136.898 16.6068 136.654 16.0734C135.77 12.2474 136.85 8.54786 137.291 7.05253Z" fill="url(#paint0_linear_40_1341)"/>
<path d="M134.291 3.05252L133.866 6.02237L133.866 6.02237L134.291 3.05252ZM137.291 7.05253L134.413 6.20395L134.413 6.20397L137.291 7.05253ZM128.291 7.05253L131.168 7.90111L131.168 7.90111L128.291 7.05253ZM127.911 14.7683L129.417 17.3631L131.08 16.398L130.898 14.4837L127.911 14.7683ZM70.777 28.9635L70.6738 31.9618L70.6878 31.9622L70.7019 31.9626L70.777 28.9635ZM13.7952 10.7693L15.4764 8.28468L15.4764 8.28467L13.7952 10.7693ZM4.79084 12.5468L2.53763 10.5662L2.5376 10.5662L4.79084 12.5468ZM6.92947 21.4938L5.26733 23.9913L5.26734 23.9913L6.92947 21.4938ZM7.26021 21.7151L5.57892 24.1997L5.57894 24.1997L7.26021 21.7151ZM70.777 39.6349L70.8528 36.6359L70.8528 36.6359L70.777 39.6349ZM131.224 24.4591L133.64 22.6803L132.077 20.5579L129.771 21.8344L131.224 24.4591ZM141.29 31.0525L141.484 28.0588L141.483 28.0587L141.29 31.0525ZM141.348 31.0562L141.542 28.0626L141.542 28.0625L141.348 31.0562ZM148.79 28.5525L145.831 28.0593L145.831 28.0593L148.79 28.5525ZM144.081 23.2134L144.742 20.2871L144.742 20.2871L144.081 23.2134ZM137.791 19.0525L140.413 17.5957L140.413 17.5957L137.791 19.0525ZM137.188 17.7835L134.234 18.3065L134.288 18.6105L134.402 18.8971L137.188 17.7835ZM136.654 16.0734L133.731 16.7488L133.8 17.0455L133.926 17.3223L136.654 16.0734ZM133.866 6.02237C134.421 6.10164 134.628 6.22434 134.651 6.23938C134.661 6.24532 134.636 6.23053 134.598 6.18701C134.56 6.14329 134.526 6.09056 134.5 6.03556C134.451 5.92872 134.462 5.87731 134.461 5.93365C134.46 5.99356 134.446 6.09086 134.413 6.20395L140.168 7.9011C140.434 6.99905 140.755 5.27268 139.95 3.52473C139.037 1.54404 137.12 0.426292 134.715 0.0826689L133.866 6.02237ZM131.168 7.90111C131.163 7.9176 131.224 7.73628 131.417 7.43845C131.596 7.16068 131.834 6.86938 132.113 6.62241C132.652 6.14381 133.206 5.92808 133.866 6.02237L134.715 0.082669C131.875 -0.323043 129.62 0.812404 128.13 2.1344C126.721 3.38533 125.773 4.98478 125.413 6.20394L131.168 7.90111ZM130.898 14.4837C130.61 11.469 130.874 8.89753 131.168 7.90111L125.413 6.20394C124.824 8.19978 124.596 11.6097 124.925 15.053L130.898 14.4837ZM70.7019 31.9626C99.7064 32.6892 121.021 22.2354 129.417 17.3631L126.405 12.1736C118.551 16.7311 98.3494 26.6533 70.8521 25.9645L70.7019 31.9626ZM12.1139 13.2539C18.8616 17.8199 39.9235 30.9035 70.6738 31.9618L70.8802 25.9653C41.7384 24.9624 21.79 12.5569 15.4764 8.28468L12.1139 13.2539ZM7.04405 14.5275C8.95875 12.3494 11.3036 12.7056 12.1139 13.2539L15.4764 8.28467C12.2102 6.07447 6.48426 6.0765 2.53763 10.5662L7.04405 14.5275ZM8.59161 18.9964C8.03371 18.6251 7.51109 18.2737 7.03768 17.87C6.56071 17.4634 6.27243 17.1167 6.12386 16.8398C6.00407 16.6164 5.97979 16.4581 6.0146 16.258C6.0582 16.0074 6.24692 15.4344 7.04409 14.5275L2.5376 10.5662C1.24853 12.0327 0.389681 13.5839 0.103376 15.2297C-0.191719 16.9261 0.171752 18.4365 0.836392 19.6757C2.03832 21.9166 4.31346 23.3565 5.26733 23.9913L8.59161 18.9964ZM8.9415 19.2305C8.82661 19.1528 8.70585 19.0724 8.5916 18.9964L5.26734 23.9913C5.38588 24.0702 5.48667 24.1373 5.57892 24.1997L8.9415 19.2305ZM70.8528 36.6359C41.6808 35.8989 22.1186 28.1471 8.94149 19.2305L5.57894 24.1997C19.7779 33.8078 40.4725 41.8703 70.7012 42.634L70.8528 36.6359ZM129.771 21.8344C119.37 27.5924 98.0757 37.3236 70.8528 36.6359L70.7012 42.634C99.4121 43.3593 121.795 33.108 132.677 27.0837L129.771 21.8344ZM141.483 28.0587C140.362 27.9865 138.97 27.4528 137.486 26.4305C136.026 25.4254 134.668 24.0763 133.64 22.6803L128.808 26.2378C130.204 28.1339 132.036 29.9627 134.082 31.372C136.104 32.7641 138.532 33.8811 141.097 34.0463L141.483 28.0587ZM141.542 28.0625L141.484 28.0588L141.096 34.0462L141.154 34.05L141.542 28.0625ZM145.831 28.0593C145.884 27.7433 146.105 27.6049 146.033 27.6489C145.889 27.7375 145.534 27.8808 144.9 27.9846C143.645 28.1901 142.222 28.1067 141.542 28.0626L141.153 34.0499C141.808 34.0925 143.86 34.2349 145.87 33.9057C146.868 33.7422 148.092 33.4279 149.181 32.7566C150.343 32.0405 151.451 30.8394 151.75 29.0457L145.831 28.0593ZM145.449 26.7358C145.614 26.8184 145.705 26.8753 145.763 26.9201C145.789 26.9405 145.804 26.9548 145.811 26.9626C145.818 26.9699 145.821 26.9737 145.822 26.9756C145.823 26.9772 145.828 26.9854 145.836 27.0054C145.843 27.0257 145.857 27.0681 145.869 27.1401C145.893 27.2847 145.912 27.5739 145.831 28.0593L151.75 29.0457C152.093 26.9844 151.802 25.197 150.884 23.7544C150.007 22.3768 148.794 21.7003 148.132 21.3692L145.449 26.7358ZM143.42 26.1397C144.447 26.3716 145.003 26.5128 145.449 26.7358L148.132 21.3692C146.92 20.7634 145.627 20.487 144.742 20.2871L143.42 26.1397ZM135.168 20.5093C136.309 22.563 137.741 23.8941 139.335 24.7591C140.836 25.5736 142.375 25.9037 143.42 26.1397L144.742 20.2871C143.594 20.028 142.858 19.8445 142.197 19.4857C141.629 19.1774 141.013 18.6756 140.413 17.5957L135.168 20.5093ZM134.402 18.8971C134.618 19.4372 134.872 19.976 135.168 20.5093L140.413 17.5957C140.244 17.2914 140.098 16.9824 139.974 16.6699L134.402 18.8971ZM133.926 17.3223C134.067 17.6286 134.174 17.9707 134.234 18.3065L140.142 17.2605C139.992 16.4144 139.73 15.585 139.382 14.8246L133.926 17.3223ZM134.413 6.20397C133.972 7.70015 132.653 12.0833 133.731 16.7488L139.577 15.3981C138.887 12.4115 139.727 9.39557 140.168 7.90108L134.413 6.20397Z" fill="black" mask="url(#path-1-outside-1_40_1341)"/>
<defs>
<linearGradient id="paint0_linear_40_1341" x1="289.534" y1="-31.233" x2="22.4658" y2="23.233" gradientUnits="userSpaceOnUse">
<stop offset="0.03" stop-color="#F770DC"/>
<stop offset="0.15141" stop-color="#F9686B"/>
<stop offset="0.315" stop-color="#F9A15C"/>
<stop offset="0.488892" stop-color="#F5CB94"/>
<stop offset="0.654032" stop-color="#C9D6AD"/>
<stop offset="0.826352" stop-color="#B6ACE5"/>
<stop offset="1" stop-color="#C96FEF"/>
</linearGradient>
</defs>
</svg>
