<svg  viewBox="0 0 1256 668" fill="none" xmlns="http://www.w3.org/2000/svg">
<path d="M354 548H724.057H801C797.336 498.321 740.912 498.321 710.867 498.321C724.057 446.45 652.977 427.455 633.925 461.061C629.235 403.2 575.302 391.657 548.921 393.118C476.229 399.547 468.315 459.113 473.444 488.093C388.441 446.596 358.397 510.741 354 548Z" fill="white" stroke="black" stroke-width="4"/>
<path d="M0 539L1256 539" stroke="black" stroke-width="4"/>
<rect y="541" width="1256" height="127" fill="#599CFF"/>
<path d="M854.78 439C728.794 439 656.031 554.329 633.381 615.829C618.943 655.029 1019.77 651.501 1068.77 605.501C1049.75 554.334 978 439 854.78 439Z" fill="#F6E19D" stroke="black" stroke-width="4"/>
<path d="M929.302 482.956C931.617 293.41 996.946 213.417 1039.9 134.863C1042.63 129.875 1036.61 125.733 1032.76 129.915C965.407 203.093 893.023 291.75 877.427 482.556C877.19 485.456 879.481 488 882.391 488H924.286C927.036 488 929.268 485.705 929.302 482.956Z" fill="#CE543E" stroke="black" stroke-width="4"/>
<path d="M1053.96 132.603L1124.43 277.002C1124.8 277.777 1125.91 277.747 1126.22 276.943C1133.75 257.451 1143.54 215.003 1127.8 185.361C1109.16 150.26 1081.5 129.19 1064.97 124.9C1097.57 130.781 1167.61 147.111 1222.27 172.095C1223.14 172.495 1224.01 171.564 1223.53 170.731C1205.92 140.402 1155.32 90.4575 1077.96 106.128L1108.33 71.7757C1108.9 71.1302 1108.44 70.1134 1107.58 70.1134H1101.2C1100.34 70.1134 1099.9 69.1181 1100.51 68.51C1103.86 65.1496 1109.83 60.3168 1115.47 59.3603C1115.68 59.3241 1115.88 59.2262 1116.04 59.0731L1158.71 16.3769C1159.31 15.7813 1158.96 14.7709 1158.12 14.7151C1130.04 12.8511 1072.27 28.6527 1049.8 107.329C1052.6 87.7207 1046.44 41.7817 999.4 14.8905C987.692 8.6434 958.162 -2.09898 931.766 3.62725C930.957 3.80266 930.703 4.80949 931.348 5.32811C960.175 28.5176 1014.57 75.4816 1035.2 104.316C1035.92 105.314 1034.6 106.198 1033.75 105.311C1019.35 90.2514 990.812 69.58 950.2 64.1108C916.57 59.5818 894.071 74.2752 879.541 82.0033C878.705 82.448 878.878 83.7143 879.805 83.9095L1024.77 114.441C1025.97 114.694 1025.75 116.909 1024.52 116.959C1003.63 117.801 973.186 122.787 959.8 138.542C944.37 156.702 932.731 189.885 928.126 206.641C927.876 207.551 928.916 208.238 929.672 207.673L1038.35 126.415C1039.18 125.799 1040.28 126.678 1039.87 127.619L1010.2 194.965C1005.47 203.649 996.995 231.644 1000.45 274.802C1000.51 275.582 1001.41 275.997 1002.02 275.517C1016.5 264.293 1044.23 236.153 1049.8 204.569C1054.72 176.681 1053.57 148.559 1051.88 133.217C1051.76 132.073 1053.46 131.569 1053.96 132.603Z" fill="#EFFA78"/>
<path d="M1077.96 106.128C1155.32 90.4575 1205.92 140.402 1223.53 170.731C1224.01 171.564 1223.14 172.495 1222.27 172.095C1165.02 145.929 1090.92 129.256 1060.6 124.136C1076.2 125.336 1107.4 146.945 1127.8 185.361C1143.54 215.003 1133.75 257.451 1126.22 276.943C1125.91 277.747 1124.8 277.777 1124.43 277.002L1053.96 132.603C1053.46 131.569 1051.76 132.073 1051.88 133.217C1053.57 148.559 1054.72 176.681 1049.8 204.569C1044.23 236.153 1016.5 264.293 1002.02 275.517C1001.41 275.997 1000.51 275.582 1000.45 274.802C996.995 231.644 1005.47 203.649 1010.2 194.965L1039.87 127.619C1040.28 126.678 1039.18 125.799 1038.35 126.415L929.672 207.673C928.916 208.238 927.876 207.551 928.126 206.641C932.731 189.885 944.37 156.702 959.8 138.542C973.186 122.787 1003.63 117.801 1024.52 116.959C1025.75 116.909 1025.97 114.694 1024.77 114.441L879.805 83.9095C878.878 83.7143 878.705 82.448 879.541 82.0033C894.071 74.2752 916.57 59.5818 950.2 64.1108C990.812 69.58 1019.35 90.2514 1033.75 105.311C1034.6 106.198 1035.92 105.314 1035.2 104.316C1014.57 75.4816 960.175 28.5176 931.348 5.32811C930.703 4.80949 930.957 3.80266 931.766 3.62725C958.162 -2.09898 987.692 8.6434 999.4 14.8905C1046.44 41.7817 1052.6 87.7207 1049.8 107.329C1072.27 28.6527 1130.04 12.8511 1158.12 14.7151C1158.96 14.7709 1159.31 15.7813 1158.71 16.3769L1116.04 59.0731C1115.88 59.2262 1115.68 59.3241 1115.47 59.3603C1109.83 60.3168 1103.86 65.1496 1100.51 68.51C1099.9 69.1181 1100.34 70.1134 1101.2 70.1134H1107.58C1108.44 70.1134 1108.9 71.1302 1108.33 71.7757L1077.96 106.128ZM1077.96 106.128C1074.62 106.804 1071.24 107.602 1067.8 108.529L1077.96 106.128Z" stroke="black" stroke-width="4"/>
<path d="M769.058 464.158C767.645 455.839 780.508 447.108 787.116 443.782L818.641 442.974C824.774 460.974 820.015 466.269 816.869 466.667C801.52 469.297 770.47 472.477 769.058 464.158Z" fill="#CE543E" stroke="black" stroke-width="4"/>
<path d="M745.707 473.891C744.295 465.572 757.157 456.842 763.765 453.516L795.29 452.708C801.423 470.708 796.665 476.003 793.519 476.401C778.17 479.031 747.119 482.21 745.707 473.891Z" fill="#CE543E" stroke="black" stroke-width="4"/>
<path d="M713.921 287.047C707.089 275.917 694.758 269.568 689.447 267.785C689.551 260.09 690.251 244.564 692.216 244.019C694.181 243.474 703.664 238.333 708.16 235.831C715.385 231.81 737.432 230.275 747.009 246.017C756.586 261.758 756.904 279.315 756.916 285.397C756.943 299.434 757.961 310.588 769.961 326.553C781.961 342.519 797.318 344.1 816.559 346.699C880.361 355.316 882.928 378.931 878.862 382.739C885.333 382.097 898.286 383.72 898.337 395.348C898.387 406.975 882.775 411.028 874.963 411.601C858.184 445.319 814.405 456.317 794.612 457.601C785.519 458.937 761.698 458.612 739.161 446.628C691.933 421.515 705.56 377.76 713.273 339.735C716.336 326.81 720.754 298.177 713.921 287.047Z" fill="#777165"/>
<path d="M713.921 287.047C707.089 275.917 694.758 269.568 689.447 267.785C689.551 260.09 690.251 244.564 692.216 244.019C694.181 243.474 703.664 238.333 708.16 235.831C715.385 231.81 737.432 230.275 747.009 246.017C756.586 261.758 756.904 279.315 756.916 285.397C756.943 299.434 756.125 312.898 768.125 328.863C719.711 343.84 719.928 348.441 704.633 379.142C705.457 363.039 720.616 316.806 713.921 287.047Z" fill="#3B3B3B"/>
<circle cx="719.574" cy="261.904" r="4.5" transform="rotate(-4.19458 719.574 261.904)" fill="black"/>
<path d="M715.455 308.661C721.155 298.277 708.867 283.456 708.012 281.633L723.066 275.016C732.922 269.62 732.476 252.934 741.16 255.139C747.858 256.839 755.661 275.131 742.806 277.578C722.859 279.041 719.315 305.162 715.455 308.661Z" fill="#D9D9D9"/>
<path fill-rule="evenodd" clip-rule="evenodd" d="M725.001 231.847C733.002 232.984 741.542 236.756 746.735 245.292C756.616 261.534 756.921 279.574 756.933 285.708C756.946 292.693 757.21 298.773 758.897 305.047C760.578 311.298 763.702 317.851 769.577 325.666C780.679 340.437 794.648 342.315 813.224 344.813C813.76 344.885 814.3 344.958 814.844 345.032C846.918 349.364 863.986 357.506 872.532 365.365C876.817 369.305 879.006 373.221 879.781 376.577C880.135 378.112 880.203 379.612 879.986 380.939C883.034 380.997 886.627 381.52 889.828 382.925C892.086 383.916 894.225 385.38 895.804 387.503C897.4 389.647 898.34 392.351 898.354 395.654C898.384 402.551 893.715 407.013 888.54 409.708C883.816 412.169 878.296 413.385 874.261 413.809C865.505 430.658 850.223 441.8 834.77 448.896C819.051 456.113 802.959 459.239 792.84 459.906C783.354 461.277 759.158 460.895 736.24 448.708C724.177 442.294 715.894 434.63 710.438 426.068C704.983 417.509 702.425 408.166 701.638 398.5C700.313 382.221 704.022 364.764 707.509 348.356C708.133 345.416 708.751 342.511 709.331 339.652L709.337 339.62L709.345 339.588C710.856 333.211 712.704 322.936 713.329 312.908C713.641 307.894 713.644 302.992 713.163 298.694C712.677 294.361 711.718 290.824 710.234 288.407C703.734 277.818 691.882 271.692 686.828 269.996L685.445 269.531L685.464 268.073C685.517 264.197 685.719 258.338 686.158 253.36C686.377 250.88 686.66 248.556 687.028 246.788C687.209 245.915 687.43 245.086 687.711 244.418C687.852 244.086 688.04 243.714 688.3 243.378C688.548 243.059 688.996 242.601 689.699 242.406C689.983 242.327 690.775 241.992 692.05 241.375C693.258 240.791 694.747 240.031 696.328 239.202C699.487 237.546 702.966 235.643 705.204 234.398C709.293 232.123 717.078 230.722 725.001 231.847ZM869.693 413.843C869.033 413.776 868.346 413.675 867.659 413.532C865.646 413.112 863.248 412.246 861.712 410.398L864.788 407.841C865.451 408.64 866.755 409.257 868.476 409.616C870.133 409.962 871.827 409.995 872.834 409.921C876.559 409.648 882.129 408.537 886.692 406.161C891.263 403.78 894.375 400.401 894.354 395.671C894.343 393.16 893.645 391.301 892.595 389.891C891.53 388.459 890.016 387.376 888.22 386.588C884.582 384.991 880.099 384.744 877.077 385.043L877.051 385.046L865.557 385.889L865.264 381.9L875.802 381.127C876.07 380.506 876.307 379.312 875.883 377.477C875.326 375.065 873.648 371.825 869.824 368.309C862.153 361.254 846.036 353.281 814.309 348.996C813.619 348.902 812.933 348.81 812.25 348.719C794.044 346.28 778.502 344.198 766.38 328.07C760.254 319.92 756.87 312.913 755.034 306.086C753.205 299.283 752.946 292.767 752.933 285.716C752.922 279.686 752.59 262.612 743.317 247.371C738.933 240.164 731.661 236.833 724.438 235.807C717.137 234.77 710.286 236.147 707.15 237.893M869.693 413.843C861.346 428.6 847.478 438.659 833.101 445.261C817.828 452.273 802.178 455.292 792.5 455.92L792.419 455.925L792.339 455.937C783.581 457.223 760.207 456.922 738.117 445.177C726.566 439.034 718.842 431.812 713.811 423.918C708.779 416.022 706.371 407.341 705.625 398.176C704.352 382.535 707.911 365.754 711.397 349.317C712.024 346.357 712.65 343.408 713.244 340.479C714.795 333.929 716.681 323.442 717.321 313.156C717.642 308.005 717.654 302.854 717.138 298.249C716.626 293.679 715.576 289.463 713.643 286.315C707.022 275.53 695.581 269.1 689.488 266.711C689.565 262.974 689.765 257.989 690.143 253.711C690.358 251.279 690.625 249.139 690.944 247.602C691.092 246.892 691.236 246.385 691.361 246.062C692.03 245.809 692.892 245.412 693.792 244.976C695.056 244.365 696.587 243.582 698.185 242.745C701.382 241.069 704.892 239.149 707.15 237.893" fill="black"/>
<path d="M667.199 251.538C675.946 250.496 685.892 246.658 689.772 244.869C694.785 258.539 691.178 266.324 688.499 268.526C683.901 267.359 673.445 263.781 668.04 263.008C665.523 262.858 660.514 261.554 660.62 257.536C660.726 253.517 665.05 251.863 667.199 251.538Z" fill="#CE543E" stroke="black" stroke-width="4"/>
<path d="M705.667 378.565C702.188 397.203 705.275 435.747 747.871 449.167C749.55 433.335 743.033 395.878 705.667 378.565Z" fill="#D9D9D9"/>
<circle cx="354" cy="338" r="105.5" fill="#FF8A00" stroke="black" stroke-width="5"/>
<path d="M308 372H145.738H112C113.606 350.205 138.347 350.205 151.521 350.205C145.738 327.449 176.905 319.116 185.259 333.859C187.315 308.475 210.964 303.411 222.531 304.052C254.405 306.872 257.875 333.004 255.626 345.718C292.898 327.513 306.072 355.654 308 372Z" fill="white" stroke="black" stroke-width="4"/>
</svg>
