<svg viewBox="0 0 116 133" fill="none" xmlns="http://www.w3.org/2000/svg">
<rect x="3" y="14" width="110" height="90" fill="white"/>
<rect x="20" y="22" width="10" height="15" fill="#8CFF90"/>
<rect x="23" y="25" width="15" height="21" fill="#8CFF90"/>
<rect x="32" y="38" width="16" height="12" fill="#8CFF90"/>
<rect x="38" y="32" width="6" height="6" fill="#8CFF90"/>
<rect x="38" y="29" width="3" height="3" fill="#8CFF90"/>
<rect x="44" y="49" width="7" height="4" fill="#8CFF90"/>
<rect x="51" y="55" width="6" height="7" fill="#8CFF90"/>
<rect x="48" y="50" width="6" height="8" fill="#8CFF90"/>
<rect y="14" width="3" height="90" fill="black"/>
<rect y="14" width="3" height="90" fill="black"/>
<rect x="14" width="90" height="3" fill="black"/>
<rect x="14" y="3" width="90" height="3" fill="white"/>
<rect x="11" y="6" width="96" height="5" fill="white"/>
<rect x="6" y="11" width="104" height="3" fill="white"/>
<rect x="14" y="3" width="90" height="3" fill="white"/>
<rect x="11" y="6" width="96" height="5" fill="white"/>
<rect x="6" y="11" width="104" height="3" fill="white"/>
<rect width="90" height="3" transform="matrix(-1 0 0 1 104 110)" fill="white"/>
<rect width="34" height="3" transform="matrix(-1 0 0 1 75 113)" fill="white"/>
<rect width="28" height="3" transform="matrix(-1 0 0 1 72 116)" fill="white"/>
<rect width="21" height="5" transform="matrix(-1 0 0 1 69 119)" fill="white"/>
<rect width="15" height="3" transform="matrix(-1 0 0 1 66 124)" fill="white"/>
<rect width="10" height="3" transform="matrix(-1 0 0 1 63 127)" fill="white"/>
<rect width="96" height="3" transform="matrix(-1 0 0 1 107 107)" fill="white"/>
<rect width="104" height="3" transform="matrix(-1 0 0 1 110 104)" fill="white"/>
<rect x="14" y="113" width="27" height="3" fill="black"/>
<rect x="75" y="113" width="29" height="3" fill="black"/>
<rect x="3" y="11" width="3" height="3" fill="black"/>
<rect x="6" y="6" width="5" height="5" fill="black"/>
<rect width="5" height="3" transform="matrix(-1 0 0 1 11 107)" fill="black"/>
<rect width="3" height="3" transform="matrix(-1 0 0 1 14 110)" fill="black"/>
<rect width="3" height="3" transform="matrix(-1 0 0 1 6 104)" fill="black"/>
<rect width="5" height="3" transform="matrix(-1 0 0 1 11 104)" fill="#CACACA"/>
<rect width="3" height="3" transform="matrix(-1 0 0 1 14 107)" fill="#CACACA"/>
<rect width="3" height="4" transform="matrix(-1 0 0 1 6 100)" fill="#CACACA"/>
<rect x="107" y="104" width="3" height="3" fill="#CACACA"/>
<rect x="104" y="107" width="3" height="3" fill="#CACACA"/>
<rect x="110" y="100" width="3" height="4" fill="#CACACA"/>
<rect x="72" y="113" width="3" height="3" fill="#CACACA"/>
<rect x="69" y="116" width="3" height="3" fill="#CACACA"/>
<rect x="75" y="110" width="29" height="3" fill="#CACACA"/>
<rect x="62" y="124" width="4" height="3" fill="#CACACA"/>
<rect x="57" y="127" width="5" height="3" fill="#CACACA"/>
<rect x="66" y="119" width="3" height="5" fill="#CACACA"/>
<rect width="3" height="3" transform="matrix(-1 0 0 1 44 113)" fill="#CACACA"/>
<rect width="4" height="3" transform="matrix(-1 0 0 1 48 116)" fill="#CACACA"/>
<rect width="27" height="3" transform="matrix(-1 0 0 1 41 110)" fill="#CACACA"/>
<rect width="3" height="3" transform="matrix(-1 0 0 1 54 124)" fill="#CACACA"/>
<rect width="3" height="3" transform="matrix(-1 0 0 1 57 127)" fill="#CACACA"/>
<rect width="3" height="5" transform="matrix(-1 0 0 1 51 119)" fill="#CACACA"/>
<rect width="4" height="5" transform="matrix(-1 0 0 1 48 119)" fill="black"/>
<rect width="3" height="3" transform="matrix(-1 0 0 1 51 124)" fill="black"/>
<rect width="3" height="3" transform="matrix(-1 0 0 1 54 127)" fill="black"/>
<rect width="8" height="3" transform="matrix(-1 0 0 1 62 130)" fill="black"/>
<rect width="4" height="3" transform="matrix(-1 0 0 1 66 127)" fill="black"/>
<rect width="3" height="3" transform="matrix(-1 0 0 1 44 116)" fill="black"/>
<rect x="69" y="119" width="3" height="5" fill="black"/>
<rect x="66" y="124" width="3" height="3" fill="black"/>
<rect x="72" y="116" width="3" height="3" fill="black"/>
<rect x="107" y="107" width="3" height="3" fill="black"/>
<rect x="104" y="110" width="3" height="3" fill="black"/>
<rect x="110" y="104" width="3" height="3" fill="black"/>
<rect x="11" y="3" width="3" height="3" fill="black"/>
<rect x="30" y="22" width="8" height="3" fill="#288896"/>
<rect x="44" y="53" width="4" height="3" fill="#288896"/>
<rect x="54" y="92" width="3" height="3" fill="#288896"/>
<rect x="48" y="56" width="3" height="3" fill="#288896"/>
<rect x="23" y="46" width="9" height="4" fill="#288896"/>
<rect x="48" y="95" width="6" height="3" fill="#288896"/>
<rect x="32" y="50" width="12" height="3" fill="#288896"/>
<rect x="60" y="62" width="11" height="5" fill="#288896"/>
<rect x="71" y="59" width="16" height="3" fill="#288896"/>
<rect x="87" y="56" width="9" height="3" fill="#288896"/>
<rect x="96" y="52" width="3" height="4" fill="#288896"/>
<rect x="87" y="41" width="3" height="3" fill="#288896"/>
<rect x="87" y="41" width="3" height="3" fill="#288896"/>
<rect x="87" y="41" width="3" height="3" fill="#288896"/>
<rect x="87" y="41" width="3" height="3" fill="#288896"/>
<rect x="90" y="44" width="3" height="5" fill="#288896"/>
<rect x="93" y="49" width="3" height="3" fill="#288896"/>
<rect width="3" height="3" transform="matrix(-1 0 0 1 74 41)" fill="#288896"/>
<rect width="3" height="5" transform="matrix(-1 0 0 1 71 44)" fill="#288896"/>
<rect width="5" height="3" transform="matrix(-1 0 0 1 68 49)" fill="#288896"/>
<rect x="38" y="25" width="3" height="4" fill="#288896"/>
<rect x="41" y="29" width="3" height="3" fill="#288896"/>
<rect x="44" y="32" width="4" height="6" fill="#288896"/>
<rect x="26" y="31" width="4" height="3" fill="#288896"/>
<rect x="30" y="34" width="3" height="3" fill="#288896"/>
<rect x="33" y="37" width="3" height="3" fill="#288896"/>
<rect x="36" y="40" width="3" height="3" fill="#288896"/>
<rect x="51" y="49" width="3" height="3" fill="#288896"/>
<rect x="48" y="38" width="3" height="11" fill="#288896"/>
<rect x="54" y="52" width="3" height="3" fill="#288896"/>
<rect x="57" y="55" width="3" height="7" fill="#288896"/>
<rect x="60" y="55" width="11" height="7" fill="#54CEC9"/>
<rect x="60" y="55" width="11" height="7" fill="#54CEC9"/>
<rect x="60" y="55" width="11" height="7" fill="#54CEC9"/>
<rect x="60" y="55" width="11" height="7" fill="#54CEC9"/>
<rect x="51" y="74" width="6" height="18" fill="#8CFF90"/>
<rect x="48" y="88" width="6" height="7" fill="#8CFF90"/>
<rect x="54" y="62" width="6" height="15" fill="#8CFF90"/>
<rect x="74" y="41" width="13" height="3" fill="#54CEC9"/>
<rect x="74" y="41" width="13" height="3" fill="#54CEC9"/>
<rect x="74" y="41" width="13" height="3" fill="#54CEC9"/>
<rect x="74" y="41" width="13" height="3" fill="#54CEC9"/>
<rect x="71" y="44" width="19" height="5" fill="#54CEC9"/>
<rect x="71" y="44" width="19" height="5" fill="#54CEC9"/>
<rect x="71" y="44" width="19" height="5" fill="#54CEC9"/>
<rect x="71" y="44" width="19" height="5" fill="#54CEC9"/>
<rect x="68" y="49" width="25" height="3" fill="#54CEC9"/>
<rect x="68" y="49" width="25" height="3" fill="#54CEC9"/>
<rect x="68" y="49" width="25" height="3" fill="#54CEC9"/>
<rect x="68" y="49" width="25" height="3" fill="#54CEC9"/>
<rect x="63" y="52" width="33" height="4" fill="#54CEC9"/>
<rect x="63" y="52" width="33" height="4" fill="#54CEC9"/>
<rect x="63" y="52" width="33" height="4" fill="#54CEC9"/>
<rect x="63" y="52" width="33" height="4" fill="#54CEC9"/>
<rect x="71" y="55" width="16" height="4" fill="#54CEC9"/>
<rect x="71" y="55" width="16" height="4" fill="#54CEC9"/>
<rect x="71" y="55" width="16" height="4" fill="#54CEC9"/>
<rect x="71" y="55" width="16" height="4" fill="#54CEC9"/>
<rect x="60" y="52" width="3" height="3" fill="#288896"/>
<rect width="4" height="3" transform="matrix(-1 0 0 1 84 49)" fill="#288896"/>
<rect width="9" height="3" transform="matrix(-1 0 0 1 80 52)" fill="#288896"/>
<rect x="68" y="55" width="3" height="3" fill="#288896"/>
<rect x="74" y="38" width="13" height="3" fill="#288896"/>
<rect x="17" y="19" width="13" height="3" fill="#288896"/>
<rect x="17" y="19" width="3" height="18" fill="#288896"/>
<rect x="20" y="37" width="3" height="9" fill="#288896"/>
<rect x="48" y="74" width="3" height="14" fill="#288896"/>
<rect x="57" y="76" width="3" height="16" fill="#288896"/>
<rect x="44" y="88" width="4" height="7" fill="#288896"/>
<rect x="51" y="59" width="3" height="15" fill="#288896"/>
<rect x="60" y="62" width="3" height="14" fill="#288896"/>
<rect width="3" height="3" transform="matrix(1 0 0 -1 104 6)" fill="black"/>
<rect width="3" height="5" transform="matrix(1 0 0 -1 107 11)" fill="black"/>
<rect width="3" height="3" transform="matrix(1 0 0 -1 110 14)" fill="black"/>
<rect x="113" y="14" width="3" height="90" fill="black"/>
</svg>
