<svg  viewBox="0 0 135 140" fill="none" xmlns="http://www.w3.org/2000/svg">
<path d="M9.24218 8.10664C10.2359 14.1014 8.82812 28.9218 8 35.5826L21.4156 91.5336L125.014 130L129.237 114.014C135.796 85.439 129.154 55.9814 125.014 44.8245C119.382 30.587 100.667 2.61142 70.8545 4.60968C41.0421 6.60793 23.9828 4.77622 19.1796 3.61058C15.4531 2.61145 8.24844 2.11189 9.24218 8.10664Z" fill="#3A7851" stroke="black" stroke-width="5"/>
<path d="M117.5 70.5C117.5 96.8509 93.6128 118.5 66.871 118.5C40.5985 118.5 19.5 92.8358 19.5 66C19.5 39.6802 40.0957 21.5 66.871 21.5C93.5476 21.5 117.5 44.0873 117.5 70.5Z" fill="#B8D68A" stroke="black" stroke-width="5"/>
<path d="M62 51.8571C62 54.6975 60.25 56.4857 58 57C55.2386 57 54 56.4975 54 53.6571C54 50.8168 55.4887 48 58.2501 48C61.0115 48 62 49.0168 62 51.8571Z" fill="black"/>
<path d="M94 52C94 53.2535 92.1056 56 89.6364 56C88.5454 56 84.9999 54.2535 85 52C85 49.2386 86.3513 47 89.3638 47C92.3763 47 94 49.2386 94 52Z" fill="black"/>
<path d="M64 61C65.5833 63.1719 71.3224 67.3635 77.25 65.5611C82.25 64.0407 84 62.086 85 61" stroke="black" stroke-width="6" stroke-linecap="round"/>
<path d="M32.6669 125.562C-6.51461 104.986 2.71926 58.2851 7.46096 35C10.855 56.5553 26.4278 72.4224 33.4155 76.6636C47.1415 83.3997 46.5426 83.5993 82.0804 83.3997C117.618 83.2001 127.501 109.928 128 123.317C127.917 126.893 126.902 133.745 123.508 132.548C118.558 130.801 113.276 130.639 108.035 132.548C95.4736 137.122 64.2117 142.128 32.6669 125.562Z" fill="#62AE72" stroke="black" stroke-width="5"/>
</svg>
