<svg viewBox="0 0 152 132" fill="none" xmlns="http://www.w3.org/2000/svg">
<path d="M152 71C152 98.6142 138.5 130 76 131.5C9.5 131.5 0 98.6142 0 71C0 43.3858 34.0264 0 76 0C117.974 0 152 43.3858 152 71Z" fill="#A0A2AC"/>
<path d="M77 127.044V59.0444C80.9999 59.0444 88.6666 55.7111 92 54.0444C98 51.0445 108 40.6444 124 47.0444C140 53.4444 147.333 70.3778 149 78.0444C150.2 122.444 101.5 129.211 77 127.044Z" fill="#BEBFCD"/>
<path d="M77.0218 127.044V59.0444C73.0218 59.0444 65.3551 55.7111 62.0217 54.0444C56.0217 51.0445 46.0217 40.6444 30.0217 47.0444C14.0217 53.4444 6.68843 70.3778 5.02177 78.0444C3.82177 122.444 52.5218 129.211 77.0218 127.044Z" fill="#BEBFCD"/>
<path d="M77 80V92C72.6 93.6 68.5 90.6667 67 89C68.6 83 74.3333 80.5 77 80Z" fill="#FBDD00"/>
<circle cx="31.5" cy="92.5" r="14.5" fill="#DF7F3E"/>
<ellipse cx="51" cy="69.5" rx="9" ry="11.5" fill="black"/>
<path d="M77 97V92.2353L67.768 88.3253C67.4203 88.178 67.0481 88.4554 67.1399 88.8217C68.1979 93.0438 74.1961 96.0046 77 97Z" fill="#868043"/>
<path d="M77 80V92C81.4 93.6 85.5 90.6667 87 89C85.4 83 79.6667 80.5 77 80Z" fill="#FBDD00"/>
<circle cx="14.5" cy="14.5" r="14.5" transform="matrix(-1 0 0 1 137 78)" fill="#DF7F3E"/>
<ellipse cx="9" cy="11.5" rx="9" ry="11.5" transform="matrix(-1 0 0 1 112 58)" fill="black"/>
<path d="M77 97V92.2353L86.232 88.3253C86.5797 88.178 86.9519 88.4554 86.8601 88.8217C85.8021 93.0438 79.8039 96.0046 77 97Z" fill="#868043"/>
<path d="M73.5 90.5C73.5 90.5 75.5793 91.4526 77 91.5C78.6093 91.5536 81 90.5 81 90.5" stroke="black" stroke-width="2" stroke-linecap="round"/>
<path fill-rule="evenodd" clip-rule="evenodd" d="M133.856 107.554C143.814 97.3305 147 84.0484 147 71C147 58.9298 139.358 42.3565 126.137 28.6109C113.02 14.9749 95.2416 5 76 5C56.7584 5 38.9797 14.9749 25.8634 28.6109C12.6416 42.3565 5 58.9298 5 71C5 84.3672 7.32853 97.9382 16.7503 108.229C26.1109 118.453 43.4603 126.49 75.9401 126.5C106.383 125.759 123.903 117.772 133.856 107.554ZM76 131.5C138.5 130 152 98.6142 152 71C152 43.3858 117.974 0 76 0C34.0264 0 0 43.3858 0 71C0 98.6142 9.5 131.5 76 131.5Z" fill="black"/>
</svg>
