<svg viewBox="0 0 126 126" fill="none" xmlns="http://www.w3.org/2000/svg">
<path d="M23.642 108.695C-6.94664 84.9345 1.06011 50.646 10.5181 33.049C11.0294 32.0977 12.4554 32.604 12.3886 33.6819C10.9759 56.4482 25.3574 77.3603 50.4971 82.6408C82.2145 89.3029 91.5951 101.355 94.8286 111.947C94.9375 112.303 94.839 112.681 94.563 112.932C84.2203 122.325 56.3172 134.076 23.642 108.695Z" fill="#F9A15C" stroke="black" stroke-width="3"/>
<path d="M78.3543 42.881C70.5236 53.7552 69.5514 70.1403 70.1427 78.1303C70.1778 78.6046 70.5531 78.9794 71.0247 79.0408C87.1277 81.135 99.4516 93.9185 104.296 101.005C104.648 101.52 105.389 101.597 105.841 101.167C136.367 72.1219 121.926 37.4092 109.255 21.3812C108.652 20.6185 107.467 21.1378 107.531 22.1079C109.351 49.3265 97.2657 64.0535 90.1856 68.5476C89.7954 68.7953 89.2862 68.7163 88.9795 68.3705C82.0655 60.5746 80.2374 49.959 80.1464 43.5412C80.1328 42.5774 78.9175 42.0988 78.3543 42.881Z" fill="#5CA4D8" stroke="black" stroke-width="3"/>
<path d="M72.5 23C72.5 34.8439 62.6808 44.5 50.5 44.5C38.3192 44.5 28.5 34.8439 28.5 23C28.5 11.1561 38.3192 1.5 50.5 1.5C62.6808 1.5 72.5 11.1561 72.5 23Z" fill="#F9A15C" stroke="black" stroke-width="3"/>
</svg>
