<svg viewBox="0 0 138 135" fill="none" xmlns="http://www.w3.org/2000/svg">
<path d="M122.599 69.0304C122.599 97.3483 99.6432 120.305 71.3253 120.305C43.0074 120.305 20.0513 97.3483 20.0513 69.0304C20.0513 40.7125 43.0074 17.7563 71.3253 17.7563C99.6432 17.7563 122.599 40.7125 122.599 69.0304ZM71.3253 132.913C106.607 132.913 135.208 104.312 135.208 69.0304C135.208 33.7491 106.607 5.1479 71.3253 5.1479C36.044 5.1479 7.44282 33.7491 7.44282 69.0304C7.44282 104.312 36.044 132.913 71.3253 132.913Z" stroke="black" stroke-width="3.8253"/>
<path d="M55.2741 72.1376L56.4618 70.8744L53.5403 68.1278V72.1376H55.2741ZM64.706 81.0047L63.5184 82.268L64.706 81.0047ZM53.6023 45.8162L52.4146 47.0795L53.6023 45.8162ZM70.9554 62.1303L69.7678 63.3935L70.9554 64.51L72.143 63.3935L70.9554 62.1303ZM88.3085 45.8162L89.4962 47.0795V47.0795L88.3085 45.8162ZM86.6367 72.1376H88.3705V68.1278L85.449 70.8744L86.6367 72.1376ZM77.2048 81.0047L78.3924 82.268L77.2048 81.0047ZM70.9554 83.4515L70.9698 81.7177L70.9554 81.7176L70.941 81.7177L70.9554 83.4515ZM54.0865 73.4009L63.5184 82.268L65.8936 79.7414L56.4618 70.8744L54.0865 73.4009ZM57.008 89.3278V72.1376H53.5403V89.3278H57.008ZM46.258 100.078C52.1951 100.078 57.008 95.2649 57.008 89.3278H53.5403C53.5403 93.3497 50.2799 96.6101 46.258 96.6101V100.078ZM35.5081 89.3278C35.5081 95.2649 40.321 100.078 46.258 100.078V96.6101C42.2362 96.6101 38.9758 93.3497 38.9758 89.3278H35.5081ZM35.5081 52.8905V89.3278H38.9758V52.8905H35.5081ZM54.7899 44.553C47.4854 37.6859 35.5081 42.8647 35.5081 52.8905H38.9758C38.9758 45.9029 47.3236 42.2933 52.4146 47.0795L54.7899 44.553ZM72.143 60.867L54.7899 44.553L52.4146 47.0795L69.7678 63.3935L72.143 60.867ZM72.143 63.3935L89.4962 47.0795L87.1209 44.553L69.7678 60.867L72.143 63.3935ZM89.4962 47.0795C94.5872 42.2933 102.935 45.9029 102.935 52.8905H106.403C106.403 42.8647 94.4254 37.6859 87.1209 44.553L89.4962 47.0795ZM102.935 52.8905V89.3278H106.403V52.8905H102.935ZM102.935 89.3278C102.935 93.3497 99.6746 96.6101 95.6528 96.6101V100.078C101.59 100.078 106.403 95.2649 106.403 89.3278H102.935ZM95.6528 96.6101C91.6309 96.6101 88.3705 93.3497 88.3705 89.3278H84.9028C84.9028 95.2649 89.7157 100.078 95.6528 100.078V96.6101ZM88.3705 89.3278V72.1376H84.9028V89.3278H88.3705ZM85.449 70.8744L76.0172 79.7414L78.3924 82.268L87.8243 73.4009L85.449 70.8744ZM76.0172 79.7414C74.5948 81.0787 72.7807 81.7328 70.9698 81.7177L70.941 85.1853C73.6087 85.2075 76.294 84.2407 78.3924 82.268L76.0172 79.7414ZM63.5184 82.268C65.6168 84.2407 68.3021 85.2075 70.9698 85.1853L70.941 81.7177C69.1301 81.7328 67.316 81.0787 65.8936 79.7414L63.5184 82.268Z" fill="black"/>
<path d="M117.244 65.9699C117.244 94.2878 94.2878 117.244 65.9699 117.244C37.652 117.244 14.6958 94.2878 14.6958 65.9699C14.6958 37.652 37.652 14.6958 65.9699 14.6958C94.2878 14.6958 117.244 37.652 117.244 65.9699ZM65.9699 129.852C101.251 129.852 129.852 101.251 129.852 65.9699C129.852 30.6885 101.251 2.08735 65.9699 2.08735C30.6885 2.08735 2.08735 30.6885 2.08735 65.9699C2.08735 101.251 30.6885 129.852 65.9699 129.852Z" fill="#F4F8FF" stroke="black" stroke-width="3.8253"/>
<path fill-rule="evenodd" clip-rule="evenodd" d="M58.4641 76.8431L49.0322 67.976V85.1662C49.0322 90.1457 44.9955 94.1823 40.0161 94.1823C35.0366 94.1823 31 90.1457 31 85.1662V48.7289C31 40.2222 41.1625 35.828 47.3603 41.6546L64.7135 57.9686L82.0666 41.6546C88.2644 35.828 98.4269 40.2222 98.4269 48.7289V85.1662C98.4269 90.1457 94.3903 94.1823 89.4108 94.1823C84.4314 94.1823 80.3947 90.1457 80.3947 85.1662V67.976L70.9629 76.8431C69.2024 78.4981 66.9528 79.3086 64.7135 79.2899C62.4742 79.3086 60.2245 78.4981 58.4641 76.8431Z" fill="#F4F8FF"/>
<path d="M49.0322 67.976L50.2198 66.7127L47.2983 63.9662V67.976H49.0322ZM58.4641 76.8431L57.2764 78.1064L58.4641 76.8431ZM47.3603 41.6546L46.1727 42.9179L47.3603 41.6546ZM64.7135 57.9686L63.5258 59.2319L64.7135 60.3484L65.9011 59.2319L64.7135 57.9686ZM82.0666 41.6546L83.2542 42.9179V42.9179L82.0666 41.6546ZM80.3947 67.976H82.1286V63.9662L79.2071 66.7127L80.3947 67.976ZM70.9629 76.8431L72.1505 78.1064L70.9629 76.8431ZM64.7135 79.2899L64.7279 77.5561L64.7135 77.556L64.699 77.5561L64.7135 79.2899ZM47.8446 69.2393L57.2764 78.1064L59.6517 75.5798L50.2198 66.7127L47.8446 69.2393ZM50.7661 85.1662V67.976H47.2983V85.1662H50.7661ZM40.0161 95.9162C45.9531 95.9162 50.7661 91.1033 50.7661 85.1662H47.2983C47.2983 89.1881 44.038 92.4485 40.0161 92.4485V95.9162ZM29.2661 85.1662C29.2661 91.1033 34.0791 95.9162 40.0161 95.9162V92.4485C35.9942 92.4485 32.7339 89.1881 32.7339 85.1662H29.2661ZM29.2661 48.7289V85.1662H32.7339V48.7289H29.2661ZM48.5479 40.3913C41.2434 33.5242 29.2661 38.7031 29.2661 48.7289H32.7339C32.7339 41.7413 41.0817 38.1317 46.1727 42.9179L48.5479 40.3913ZM65.9011 56.7054L48.5479 40.3913L46.1727 42.9179L63.5258 59.2319L65.9011 56.7054ZM65.9011 59.2319L83.2542 42.9179L80.879 40.3913L63.5258 56.7054L65.9011 59.2319ZM83.2542 42.9179C88.3453 38.1317 96.6931 41.7413 96.6931 48.7289H100.161C100.161 38.7031 88.1835 33.5242 80.879 40.3913L83.2542 42.9179ZM96.6931 48.7289V85.1662H100.161V48.7289H96.6931ZM96.6931 85.1662C96.6931 89.1881 93.4327 92.4485 89.4108 92.4485V95.9162C95.3479 95.9162 100.161 91.1033 100.161 85.1662H96.6931ZM89.4108 92.4485C85.389 92.4485 82.1286 89.1881 82.1286 85.1662H78.6609C78.6609 91.1033 83.4738 95.9162 89.4108 95.9162V92.4485ZM82.1286 85.1662V67.976H78.6609V85.1662H82.1286ZM79.2071 66.7127L69.7752 75.5798L72.1505 78.1064L81.5824 69.2393L79.2071 66.7127ZM69.7752 75.5798C68.3528 76.9171 66.5388 77.5712 64.7279 77.5561L64.699 81.0237C67.3667 81.0459 70.0521 80.0791 72.1505 78.1064L69.7752 75.5798ZM57.2764 78.1064C59.3749 80.0791 62.0602 81.0459 64.7279 81.0237L64.699 77.5561C62.8881 77.5712 61.0741 76.9171 59.6517 75.5798L57.2764 78.1064Z" fill="black"/>
</svg>
