<svg viewBox="0 0 164 143" fill="none" xmlns="http://www.w3.org/2000/svg">
<path d="M141 68.0735C141 108.091 114.573 141 74.094 141C53.7656 141 36.1403 132.45 23.3923 120.524C10.6078 108.563 2.89648 93.37 2.16524 80.2972C0.600039 52.3154 10.3259 32.8009 23.9107 20.2582C37.5583 7.65742 55.2036 2 69.5307 2C89.3598 2 107.242 10.5443 120.181 23.1347C133.138 35.7429 141 52.2688 141 68.0735Z" fill="#EDEFA4" stroke="black" stroke-width="4"/>
<path fill-rule="evenodd" clip-rule="evenodd" d="M51.4843 23.9551C53.0121 27.9381 51.0304 32.4088 47.0581 33.9407C36.6551 37.9526 33.6047 47.7121 33.4024 51.6687C33.1844 55.9305 29.5621 59.2082 25.3117 58.9897C21.0613 58.7711 17.7923 55.1391 18.0103 50.8773C18.4123 43.0164 23.6424 26.4137 41.5254 19.5171C45.4977 17.9852 49.9565 19.9722 51.4843 23.9551Z" fill="white" stroke="black" stroke-linecap="round"/>
<path d="M134.745 70C137.28 96.0839 120.353 115.831 108.043 124.648C95.7323 133.465 75.909 137.506 59.1632 133.373C54.6373 131.995 44.9519 127.127 42.4174 118.678C39.8829 110.228 49.508 108.728 54.6373 109.034C62.7839 109.52 71.3831 116.657 76.8141 104.901C82.2452 93.1449 91.1461 93.8797 94.9176 95.7166C102.159 99.2373 117.275 103.064 119.81 90.2059C122.344 77.3476 130.823 71.3777 134.745 70Z" fill="black"/>
<path d="M45.96 64.36H50.136L51.168 82H47.112L46.68 74.8L44.232 82H40.176L37.584 74.512L37.104 82H33.024L34.152 64.36H38.328L42.192 75.4L45.96 64.36ZM56.4435 82H52.3875V64.36H56.4435V82ZM73.1608 72.136V82H69.0808V81.568C68.6328 81.728 68.1688 81.848 67.6888 81.928C67.2248 81.992 66.7608 82.024 66.2968 82.024C65.1448 82.024 64.0248 81.808 62.9368 81.376C61.8648 80.944 60.8968 80.296 60.0328 79.432C59.1848 78.584 58.5448 77.616 58.1128 76.528C57.6808 75.44 57.4648 74.328 57.4648 73.192C57.4648 72.056 57.6728 70.944 58.0888 69.856C58.5208 68.768 59.1688 67.792 60.0328 66.928C60.8968 66.064 61.8728 65.416 62.9608 64.984C64.0488 64.552 65.1608 64.336 66.2968 64.336C67.4328 64.336 68.5448 64.552 69.6328 64.984C70.7208 65.416 71.6968 66.064 72.5608 66.928L69.6808 69.808C69.2168 69.344 68.6888 69 68.0968 68.776C67.5048 68.536 66.9048 68.416 66.2968 68.416C65.6888 68.416 65.0888 68.536 64.4968 68.776C63.9048 69 63.3768 69.344 62.9128 69.808C62.4488 70.272 62.0968 70.8 61.8568 71.392C61.6168 71.984 61.4968 72.584 61.4968 73.192C61.4968 73.8 61.6168 74.4 61.8568 74.992C62.0968 75.584 62.4488 76.112 62.9128 76.576C63.3288 76.992 63.7928 77.32 64.3048 77.56C64.8328 77.784 65.3688 77.92 65.9128 77.968C66.4728 78 67.0248 77.944 67.5688 77.8C68.1128 77.656 68.6168 77.416 69.0808 77.08V76.192H65.5528V72.136H73.1608ZM83.6331 64.384H87.6891V82H83.6331V75.352H78.5451V82H74.4891V64.384H78.5451V71.296H83.6331V64.384ZM99.9624 64.312V68.392H96.5784V82H92.5224V68.392H89.1624V64.312H99.9624ZM104.155 82L106.195 77.008L100.171 64.24H104.659L108.283 71.896L111.379 64.24H115.771L108.547 82H104.155Z" fill="black"/>
</svg>
