<svg viewBox="0 0 142 128" fill="none" xmlns="http://www.w3.org/2000/svg">
<path d="M30.7659 67.4992L24.1067 60.8259C22.5326 59.2485 19.8371 60.3633 19.8371 62.5918V114.057H12.9045V39.7553L69.2435 95.0071C70.2217 95.9664 71.7898 95.9597 72.7598 94.9919L128.841 39.0334V114.312H121.653V61.9762C121.653 59.74 118.942 58.6287 117.372 60.2216L109.44 68.2725L110.509 69.3252L109.44 68.2725C108.979 68.7402 108.721 69.3704 108.721 70.027V123.991C108.721 125.38 109.854 126.503 111.243 126.491L138.022 126.254C139.394 126.241 140.5 125.126 140.5 123.754V18.1451C140.5 15.9303 137.833 14.8093 136.251 16.3592L71.006 80.2725L5.75963 15.6228C4.18142 14.059 1.5 15.1769 1.5 17.3986V124C1.5 125.381 2.61928 126.5 4 126.5H28.9963C30.377 126.5 31.4963 125.381 31.4963 124V69.2651C31.4963 68.603 31.2336 67.9679 30.7659 67.4992Z" fill="white" stroke="black" stroke-width="3"/>
<path d="M69.1184 67.3783L70.1707 66.3093L69.1184 67.3783C70.0915 68.3362 71.6531 68.3362 72.6262 67.3782L124.754 16.058C125.231 15.5881 125.5 14.9463 125.5 14.2765V4.62547C125.5 2.41347 122.839 1.29126 121.255 2.83542L70.8774 51.9509L20.7539 2.60618C19.1734 1.05027 16.5 2.16989 16.5 4.38773V14.5304C16.5 15.2002 16.7688 15.842 17.2461 16.312L69.1184 67.3783Z" fill="#F3E90F" stroke="black" stroke-width="3"/>
</svg>
