<svg  viewBox="0 0 135 169" fill="none" xmlns="http://www.w3.org/2000/svg">
<path d="M131.033 104.16C131.033 138.659 114.605 167.029 63.9691 168.966C36.7498 170.008 0.0332031 146.786 0.0332031 104.16C0.0332031 69.6616 31.3646 40 65.5332 40C99.7018 40 131.033 69.6616 131.033 104.16Z" fill="#F5F5F3"/>
<path d="M82.0332 41.5C83.543 36.4485 87.6842 27.0227 93.0332 22" stroke="black" stroke-width="6" stroke-linecap="round"/>
<path d="M57.0332 1.58804C69.2473 -0.208748 93.5453 1.07056 93.025 20.5621C83.3404 28.3242 62.5837 35.3964 57.0332 1.58804Z" fill="#7CEF69"/>
<path d="M130.832 40.587C128.53 25.6995 111.21 11.6056 94.9068 22.0588C93.2558 34.2334 104.972 49.8997 130.832 40.587Z" fill="#7CEF69"/>
<path fill-rule="evenodd" clip-rule="evenodd" d="M56.0063 159.561C106.153 157.659 122.422 129.818 122.422 95.9617C122.422 84.5961 118.925 73.7656 113 64.3916C122.694 75.3997 128.761 89.4424 128.761 104.413C128.761 138.269 112.492 166.111 62.3451 168.013C43.8587 168.714 20.9486 158.216 8.37683 138.057C21.4157 152.674 40.3063 160.156 56.0063 159.561Z" fill="#A6BAC2"/>
<path d="M32.5386 108.005C31.4118 120.582 31.6688 124.805 38.6271 124.996C46.6729 125.216 46.0205 117.272 46.0205 109.329C46.0205 99.3991 46.6021 93 38.6271 93C34.6426 94.4368 33.6654 95.4272 32.5386 108.005Z" fill="black"/>
<path d="M84.0332 110.718C84.0332 127.864 79.3161 125.935 77.5328 125.935C74.3811 125.935 71.5097 125.28 72.1144 110.098C72.7376 94.453 75.5612 94.0873 78.5177 94C81.3781 94.3008 84.0332 95.0716 84.0332 110.718Z" fill="black"/>
<path d="M55.3624 144.969C51.7017 144.539 48.4709 138.74 49.1158 130.363C49.3309 129.79 48.4708 128 52.7769 128C56.6772 128 64.6239 128 66.7768 129.718C67.0177 129.911 67.2068 130.148 66.7768 131.437C66.1319 133.37 61.6083 145.702 55.3624 144.969Z" stroke="black" stroke-width="6" stroke-linecap="round"/>
<path d="M106.947 24.797C101.682 22.8536 97.8865 24.797 96.0332 27.0664C96.5274 39.1151 108.457 40.5456 114.978 39.8578C115.596 35.7316 110.86 26.2412 106.947 24.797Z" fill="#3CAD27"/>
<path d="M75.6165 12.1071C67.9499 11.0636 66.0332 17.9039 66.0332 21.4545C72.3369 30.3236 83.9931 26.5992 89.0332 23.6283C87.7554 20.2226 83.2832 13.1505 75.6165 12.1071Z" fill="#3CAD27"/>
<path fill-rule="evenodd" clip-rule="evenodd" d="M58.0564 2.92437C60.9244 18.295 67.1614 23.901 73.339 25.1634C79.6808 26.4593 86.667 23.3673 91.4178 19.8065C91.4136 15.6122 90.1007 12.4455 88.0106 10.0373C85.8032 7.49395 82.6505 5.70822 79.0093 4.51641C72.2203 2.29425 64.0168 2.23018 58.0564 2.92437ZM90.0123 8.40622C92.642 11.4362 94.1631 15.4025 94.0245 20.4604L94.0084 21.0458L93.5379 21.4133C88.5545 25.305 80.502 29.217 72.7993 27.643C64.885 26.0257 58.0723 18.8143 55.2471 2.04717L55.0332 0.77778L56.3463 0.589563C62.6003 -0.306843 72.0038 -0.45144 79.8463 2.11554C83.7807 3.40332 87.4034 5.40035 90.0123 8.40622Z" fill="black"/>
<path fill-rule="evenodd" clip-rule="evenodd" d="M129.373 39.7357C117.258 43.845 108.669 42.1886 103.302 38.3366C97.9427 34.4899 95.5817 28.3152 96.1117 22.8212C103.634 18.2522 111.297 19.1467 117.449 22.9157C123.481 26.6115 128.003 33.0488 129.373 39.7357ZM118.791 20.7244C111.771 16.4233 102.832 15.4511 94.2133 20.977L93.7133 21.2975L93.6335 21.886C92.7469 28.4238 95.4453 35.8608 101.803 40.4244C108.197 45.0136 118.064 46.5508 131.267 41.7959L132.263 41.4371L132.101 40.3906C130.891 32.5588 125.756 24.9914 118.791 20.7244Z" fill="black"/>
<path fill-rule="evenodd" clip-rule="evenodd" d="M114.907 147.33C124.867 136.214 128.9 121.093 128.9 104.16C128.9 70.9324 98.6061 42.153 65.5332 42.153C32.4603 42.153 2.16675 70.9324 2.16675 104.16C2.16675 145.354 37.6583 167.819 63.8883 166.815C88.8252 165.861 104.969 158.42 114.907 147.33ZM63.9691 168.966C114.605 167.029 131.033 138.659 131.033 104.16C131.033 69.6616 99.7018 40 65.5332 40C31.3646 40 0.0332031 69.6616 0.0332031 104.16C0.0332031 146.786 36.7498 170.008 63.9691 168.966Z" fill="black"/>
</svg>
