<svg  viewBox="0 0 172 98" fill="none" xmlns="http://www.w3.org/2000/svg">
<path d="M26.4127 66.6017C26.8127 73.8017 19.9127 74.6017 16.4127 74.1017C15.9126 74.6019 15.4126 75.6019 15.4126 78.1019C15.4126 84.9136 23.9126 84.9352 27.9126 84.1019C30.4126 83.6019 35.7126 81.1018 36.9126 75.1017C38.1126 69.1016 35.7459 57.9351 34.4126 53.1019C28.0126 36.7019 32.9126 23.6019 37.9126 17.6019C42.0793 12.6019 53.6126 2.90185 66.4126 4.10185C79.2126 5.30185 81.4126 15.6019 80.9126 20.6019C80.5793 23.6019 77.9126 29.9019 69.9126 31.1019C61.9126 32.3019 61.5793 27.2685 62.4126 24.6019C63.2459 22.7685 63.4126 19.0018 57.4126 18.6018C51.4126 18.2018 50.2459 28.1018 50.4126 33.1018C50.8126 45.9018 55.2459 48.4351 57.4126 48.1017C60.4126 48.1017 62.9126 42.1018 73.4126 39.1017C83.9736 36.0842 87.5793 42.9351 87.9126 46.1017C88.0793 48.1017 87.2126 52.5018 82.4126 54.1017C77.6126 55.7017 73.4126 52.1017 71.9126 50.1017C70.2459 48.7684 66.1126 48.4017 62.9126 57.6017C59.7126 66.8018 66.5793 68.7684 70.4126 68.6018C72.7459 68.4351 78.7126 67.3018 83.9126 64.1017C90.4126 60.1017 92.4126 56.6017 93.9126 49.6017C95.4126 42.6017 96.4126 40.6017 105.413 39.6017C112.613 38.8017 110.746 44.9351 108.913 48.1017C106.579 51.9351 102.713 60.1017 105.913 62.1017C109.913 64.6017 109.413 60.1017 112.413 61.1017C114.813 61.9017 113.079 65.1017 111.913 66.6017C101.513 80.6017 92.9126 75.1017 89.9126 70.6017C89.0793 69.2684 86.9126 67.2017 84.9126 69.6017C82.4126 72.6017 80.4126 74.6019 69.9126 75.6019C63.4419 76.2181 58.9126 73.1017 56.4126 72.6017C54.4126 72.2017 53.2459 74.1017 52.9126 75.1017C46.9126 91.6017 33.9542 95.6017 21.9126 95.6017C12.4126 95.6017 6.57935 89.2684 4.91273 85.6017C3.91273 83.2684 2.21273 76.7017 3.41273 69.1017C4.61273 61.5017 12.5794 58.9351 16.4127 58.6017C19.5794 58.2684 26.0127 59.4017 26.4127 66.6017Z" stroke="black" stroke-width="2"/>
<path d="M59.9806 93.8576C56.9886 93.8576 54.7326 92.3376 54.7326 89.7136H57.6446C57.6446 91.0416 58.6526 91.5376 59.9486 91.5376C61.0206 91.5376 61.5646 91.1056 61.5646 90.5136C61.5646 89.5376 60.4286 89.2816 58.8446 88.8016C56.8606 88.1936 55.0846 87.4256 55.0846 85.3776C55.0846 82.8816 57.0366 81.9056 59.5006 81.9056C62.1726 81.9056 64.2686 83.3136 64.3486 85.6336H61.4366C61.3086 84.7536 60.6046 84.2256 59.5006 84.2256C58.6366 84.2256 58.0286 84.5136 58.0286 85.1696C58.0286 85.9376 58.6686 86.1936 60.1246 86.6256C62.2846 87.2656 64.5086 87.8736 64.5086 90.2416C64.5086 92.4336 62.8446 93.8576 59.9806 93.8576ZM68.7682 93.6016H65.8882V82.1616H68.7682V86.6416H72.6882V82.1616H75.5682V93.6016H72.6882V88.9936H68.7682V93.6016ZM82.666 93.8576C79.034 93.8576 77.002 91.3296 77.002 87.8736C77.002 84.4336 79.034 81.9056 82.666 81.9056C86.266 81.9056 88.33 84.4336 88.33 87.8736C88.33 91.3296 86.266 93.8576 82.666 93.8576ZM82.666 91.5056C84.746 91.5056 85.386 89.8736 85.386 87.8736C85.386 85.8896 84.746 84.2576 82.666 84.2576C80.57 84.2576 79.946 85.8896 79.946 87.8736C79.946 89.8736 80.57 91.5056 82.666 91.5056ZM94.4732 93.6016H91.5932L88.6812 82.1616H91.5612L93.0332 89.9216H93.0652L94.8412 82.1616H97.5612L99.3372 89.9216H99.3692L100.841 82.1616H103.721L100.809 93.6016H97.9292L96.2172 86.4656H96.1852L94.4732 93.6016Z" fill="black"/>
<circle cx="103.5" cy="27.5" r="7.5" stroke="black" stroke-width="2"/>
<path d="M24.4127 63.6017C24.8127 70.8017 17.9127 71.6017 14.4127 71.1017C13.9126 71.6019 13.4126 72.6019 13.4126 75.1019C13.4126 81.9136 21.9126 81.9352 25.9126 81.1019C28.4126 80.6019 33.7126 78.1018 34.9126 72.1017C36.1126 66.1016 33.7459 54.9351 32.4126 50.1019C26.0126 33.7019 30.9126 20.6019 35.9126 14.6019C40.0793 9.60185 51.6126 -0.0981485 64.4126 1.10185C77.2126 2.30185 79.4126 12.6019 78.9126 17.6019C78.5793 20.6019 75.9126 26.9019 67.9126 28.1019C59.9126 29.3019 59.5793 24.2685 60.4126 21.6019C61.2459 19.7685 61.4126 16.0018 55.4126 15.6018C49.4126 15.2018 48.2459 25.1018 48.4126 30.1018C48.8126 42.9018 53.2459 45.4351 55.4126 45.1017C58.4126 45.1017 60.9126 39.1018 71.4126 36.1017C81.9736 33.0842 85.5793 39.9351 85.9126 43.1017C86.0793 45.1017 85.2126 49.5018 80.4126 51.1017C75.6126 52.7017 71.4126 49.1017 69.9126 47.1017C68.2459 45.7684 64.1126 45.4017 60.9126 54.6017C57.7126 63.8018 64.5793 65.7684 68.4126 65.6018C70.7459 65.4351 76.7126 64.3018 81.9126 61.1017C88.4126 57.1017 90.4126 53.6017 91.9126 46.6017C93.4126 39.6017 94.4126 37.6017 103.413 36.6017C110.613 35.8017 108.746 41.9351 106.913 45.1017C104.579 48.9351 100.713 57.1017 103.913 59.1017C107.913 61.6017 107.413 57.1017 110.413 58.1017C112.813 58.9017 111.079 62.1017 109.913 63.6017C99.5126 77.6017 90.9126 72.1017 87.9126 67.6017C87.0793 66.2684 84.9126 64.2017 82.9126 66.6017C80.4126 69.6017 78.4126 71.6019 67.9126 72.6019C61.4419 73.2181 56.9126 70.1017 54.4126 69.6017C52.4126 69.2017 51.2459 71.1017 50.9126 72.1017C44.9126 88.6017 31.9542 92.6017 19.9126 92.6017C10.4126 92.6017 4.57935 86.2684 2.91273 82.6017C1.91273 80.2684 0.212734 73.7017 1.41273 66.1017C2.61273 58.5017 10.5794 55.9351 14.4127 55.6017C17.5794 55.2684 24.0127 56.4017 24.4127 63.6017Z" fill="#54CEC9" stroke="black" stroke-width="2"/>
<circle cx="101.5" cy="24.5" r="7.5" fill="#54CEC9" stroke="black" stroke-width="2"/>
</svg>
