<svg  viewBox="0 0 116 116" fill="none" xmlns="http://www.w3.org/2000/svg">
<circle cx="58" cy="58" r="56.5" fill="#FFA0C2" stroke="black" stroke-width="3"/>
<path d="M102.5 42C102.5 59.9703 88.1522 74.5 70.5 74.5C52.8478 74.5 38.5 59.9703 38.5 42C38.5 24.0297 52.8478 9.5 70.5 9.5C88.1522 9.5 102.5 24.0297 102.5 42Z" fill="white" stroke="black" stroke-width="3"/>
<path d="M79.1254 46.3903C73.9278 50.1985 69.4863 50.2614 66.8734 46.6952L70.0854 44.3418C71.6565 46.486 73.8498 47.0296 77.383 44.4409C80.5659 42.1089 80.9186 40.3242 79.6949 38.6539C78.1238 36.5097 75.7579 37.4454 73.7138 38.943L71.8158 40.3336L70.344 38.3248L72.1252 37.0198C74.14 35.5436 75.0582 33.7955 73.8179 32.1027C72.9249 30.8839 71.1675 30.5065 68.6855 32.325C65.269 34.8282 65.4475 36.848 66.5555 38.3602L63.3435 40.7136C61.2267 37.8246 62.2127 33.8416 67.1767 30.2045C70.7683 27.573 74.9881 26.84 77.0057 29.5937C78.2294 31.2639 77.8805 33.1152 76.4163 35.1592L76.4494 35.2043C79.5862 33.912 81.6589 34.4747 82.9984 36.3029C85.2144 39.3274 83.5639 43.1383 79.1254 46.3903Z" fill="black"/>
</svg>
