<svg viewBox="0 0 110 168" fill="none" xmlns="http://www.w3.org/2000/svg">
<path d="M55 162V40H5.00031C5.00031 40 4.99966 40.7012 5.00031 77.1609C5.00115 124.278 38.3334 153.352 55 162Z" fill="#FAD357"/>
<path d="M55 162V40H105C105 40 105 40.7012 105 77.1609C104.999 124.278 71.6666 153.352 55 162Z" fill="#FAD357"/>
<path d="M18 130L54 100L90 130" stroke="black" stroke-width="3"/>
<path d="M12 116L54.6504 81L98 116" stroke="black" stroke-width="3"/>
<path d="M15 123L54.3451 91L93 122.304" stroke="white" stroke-width="8"/>
<path d="M104 40.4365H6.00002C5.44774 40.4365 5.00003 40.8823 5.00002 41.4346L5.00004 82.3551C5.00004 125.552 37.7277 153.11 54.5396 161.766C54.8346 161.918 55.1786 161.901 55.4674 161.737C95.078 139.331 105 99.5209 105 82.3551V41.4365C105 40.8842 104.552 40.4365 104 40.4365Z" stroke="black" stroke-width="8"/>
<path d="M108 36H2.00003C1.44775 36 1.00003 36.4471 1.00003 36.9994L1.00004 81.1724C1.00004 127.755 36.3952 157.461 54.5406 166.767C54.8353 166.918 55.1782 166.901 55.4667 166.738C98.2778 142.597 109 99.6762 109 81.1724V37C109 36.4477 108.552 36 108 36Z" stroke="white" stroke-width="2"/>
<path d="M95.9227 86.1759C101.149 83.7554 98.6599 78.8995 96.7623 76.774C92.2647 72.7393 87.5023 70.4416 85.6832 69.7971C81.681 75.6566 75.0348 87.748 80.4682 89.2372C85.9016 90.7263 86.4467 86.984 86.04 84.9267C85.1334 81.8567 84.1258 75.7624 87.3481 75.9451C90.5705 76.1278 90.6748 79.7757 90.3242 81.5768C90.0129 84.1184 90.6968 88.5964 95.9227 86.1759Z" fill="#FC2C2C" stroke="black" stroke-width="2"/>
<path d="M63.1228 67.7091C62.405 61.957 67.8102 61.5258 70.6025 62.0292C76.3757 63.7516 80.8248 66.6172 82.3277 67.8348C79.5019 74.3537 72.8196 86.4248 68.6977 82.558C64.5759 78.6911 67.4419 76.2498 69.3901 75.5124C72.4555 74.6689 78.1227 72.316 76.2685 69.6531C74.4143 66.9902 71.2852 68.8257 69.9524 70.0763C67.975 71.6839 63.8405 73.4612 63.1228 67.7091Z" fill="#FC2C2C" stroke="black" stroke-width="2"/>
<path d="M87 57.5C87 58.0503 86.857 59.4947 86.1727 60.7625C85.5231 61.9658 84.407 63 82.3158 63C80.1474 63 78.8653 62.0491 78.0878 60.9156C77.2744 59.7296 77 58.311 77 57.5C77 54.4029 79.1363 52 82.3158 52C83.701 52 84.8513 52.6722 85.6827 53.7197C86.525 54.7809 87 56.186 87 57.5Z" fill="#FC2C2C" stroke="black" stroke-width="2"/>
<path d="M43.1449 81.9757C48.3708 79.5552 45.8821 74.6993 43.9845 72.5738C39.4868 68.5391 34.7244 66.2414 32.9054 65.5969C28.9031 71.4564 22.2569 83.5478 27.6904 85.037C33.1238 86.5262 33.6688 82.7838 33.2622 80.7265C32.3556 77.6565 31.348 71.5622 34.5703 71.7449C37.7926 71.9276 37.897 75.5755 37.5464 77.3766C37.2351 79.9182 37.9189 84.3962 43.1449 81.9757Z" fill="#FC2C2C" stroke="black" stroke-width="2"/>
<path d="M10.3452 63.5089C9.62741 57.7568 15.0326 57.3256 17.8249 57.829C23.5981 59.5514 28.0472 62.417 29.5502 63.6346C26.7243 70.1535 20.042 82.2246 15.9202 78.3578C11.7983 74.4909 14.6643 72.0496 16.6125 71.3122C19.6779 70.4687 25.3451 68.1158 23.4909 65.4529C21.6367 62.7901 18.5076 64.6255 17.1749 65.8761C15.1974 67.4837 11.063 69.261 10.3452 63.5089Z" fill="#FC2C2C" stroke="black" stroke-width="2"/>
<path d="M34 53C34 53.4897 33.8606 54.7974 33.1894 55.9452C32.5585 57.024 31.4475 58 29.3158 58C27.1131 58 25.8289 57.1055 25.0658 56.0786C24.2655 55.0014 24 53.7191 24 53C24 50.2553 26.0618 48 29.3158 48C32.1153 48 34 50.5696 34 53Z" fill="#FC2C2C" stroke="black" stroke-width="2"/>
<path d="M47 60.5C47 61.0397 46.8474 62.4724 46.1105 63.7327C45.4138 64.924 44.1844 66 41.8421 66C39.4288 66 38.0131 65.018 37.1711 63.8848C36.2918 62.7014 36 61.2941 36 60.5C36 57.4791 38.2723 55 41.8421 55C44.9323 55 47 57.8333 47 60.5Z" fill="#FC2C2C" stroke="black" stroke-width="2"/>
<path d="M98 64.5C98 65.0605 97.867 66.5173 97.2353 67.794C96.6302 69.0168 95.624 70 93.7895 70C91.8716 70 90.7206 69.0881 90.0045 67.949C89.256 66.7584 89 65.3274 89 64.5C89 61.3171 91.003 59 93.7895 59C94.9923 59 96.0207 59.6357 96.7852 60.6863C97.5575 61.7478 98 63.1645 98 64.5Z" fill="#FC2C2C" stroke="black" stroke-width="2"/>
<path d="M69.6113 124C69.6113 124.49 69.4719 125.797 68.8007 126.945C68.1698 128.024 67.0588 129 64.9271 129C62.7244 129 61.4402 128.106 60.6772 127.079C59.8768 126.001 59.6113 124.719 59.6113 124C59.6113 121.255 61.6731 119 64.9271 119C67.7266 119 69.6113 121.57 69.6113 124Z" fill="#FC2C2C" stroke="black" stroke-width="2"/>
<path d="M65.7562 145.379C70.9821 142.958 68.4934 138.102 66.5958 135.977C62.0982 131.942 57.3358 129.644 55.5167 129C51.5145 134.859 44.8683 146.951 50.3017 148.44C55.7351 149.929 56.2802 146.187 55.8735 144.129C54.9669 141.059 53.9593 134.965 57.1816 135.148C60.4039 135.33 60.5083 138.978 60.1577 140.779C59.8464 143.321 60.5303 147.799 65.7562 145.379Z" fill="#FC2C2C" stroke="black" stroke-width="2"/>
<path d="M32.9563 126.912C32.2385 121.16 37.6437 120.729 40.436 121.232C46.2092 122.955 50.6583 125.82 52.1612 127.038C49.3354 133.557 42.6531 145.628 38.5312 141.761C34.4094 137.894 37.2754 135.453 39.2236 134.716C42.289 133.872 47.9562 131.519 46.102 128.856C44.2478 126.193 41.1187 128.029 39.7859 129.279C37.8085 130.887 33.674 132.664 32.9563 126.912Z" fill="#FC2C2C" stroke="black" stroke-width="2"/>
<path d="M58.6113 116.5C58.6113 117.04 58.4588 118.472 57.7218 119.733C57.0251 120.924 55.7957 122 53.4534 122C51.0402 122 49.6244 121.018 48.7824 119.885C47.9031 118.701 47.6113 117.294 47.6113 116.5C47.6113 113.479 49.8836 111 53.4534 111C56.5436 111 58.6113 113.833 58.6113 116.5Z" fill="#FC2C2C" stroke="black" stroke-width="2"/>
<path d="M15.5921 13C14.9841 13 14.4135 12.8933 13.8801 12.68C13.3575 12.456 12.8881 12.1413 12.4721 11.736C12.0455 11.3093 11.7148 10.8293 11.4801 10.296C11.2561 9.76267 11.1388 9.192 11.1281 8.584V1.24H13.8321V8.568C13.8321 9.03733 14.0081 9.448 14.3601 9.8C14.7015 10.1307 15.1175 10.296 15.6081 10.296C15.8535 10.296 16.0775 10.248 16.2801 10.152C16.4935 10.056 16.6748 9.928 16.8241 9.768C16.9841 9.608 17.1068 9.42133 17.1921 9.208C17.2881 8.99467 17.3361 8.76533 17.3361 8.52V1.24H20.0401V8.504C20.0508 9.112 19.9388 9.688 19.7041 10.232C19.4801 10.776 19.1655 11.2507 18.7601 11.656C18.3655 12.0613 17.8961 12.3867 17.3521 12.632C16.8188 12.8667 16.2481 12.9893 15.6401 13H15.5921ZM31.0491 1.256V13H28.1211L24.2811 6.152V13H21.5771V1.288H24.5211L28.3451 8.12V1.256H31.0491ZM34.7934 13H32.0894V1.24H34.7934V13ZM44.9616 1.16L40.9616 13H38.4016L34.6096 1.16H37.4576L39.7136 8.424L42.0976 1.16H44.9616ZM47.8321 3.96V5.736H51.7521V8.44H47.8321V10.296H52.6641V13H45.1281V1.272L52.6641 1.256V3.96H47.8321ZM57.0529 9.96C56.9142 9.98133 56.7755 9.99733 56.6369 10.008C56.4982 10.0187 56.3542 10.0293 56.2049 10.04V13H53.5009V1.288H56.2049C56.8769 1.29867 57.5062 1.42133 58.0929 1.656C58.6795 1.89067 59.1915 2.20533 59.6289 2.6C60.0769 2.99467 60.4235 3.45867 60.6689 3.992C60.9249 4.51467 61.0529 5.06933 61.0529 5.656C61.0529 6.296 60.9195 6.88267 60.6529 7.416C60.3862 7.94933 60.0129 8.41333 59.5329 8.808L62.1249 13H58.9409L57.0529 9.96ZM56.2049 7.32C56.4929 7.30933 56.7649 7.26133 57.0209 7.176C57.2875 7.08 57.5169 6.95733 57.7089 6.808C57.9115 6.65867 58.0662 6.488 58.1729 6.296C58.2902 6.09333 58.3489 5.88 58.3489 5.656C58.3489 5.432 58.2902 5.224 58.1729 5.032C58.0662 4.84 57.9115 4.66933 57.7089 4.52C57.5169 4.37067 57.2875 4.25333 57.0209 4.168C56.7649 4.072 56.4929 4.01867 56.2049 4.008V7.32ZM65.8818 13.224C65.5084 13.224 65.1351 13.1707 64.7618 13.064C64.3991 12.968 64.0524 12.8133 63.7218 12.6C63.1458 12.2267 62.6978 11.7467 62.3778 11.16C62.0578 10.5627 61.8978 9.912 61.8978 9.208H64.6018C64.6018 9.528 64.6711 9.77867 64.8098 9.96C64.9484 10.1307 65.0711 10.248 65.1778 10.312C65.3698 10.44 65.5778 10.5093 65.8018 10.52C66.0258 10.5307 66.2444 10.488 66.4578 10.392C66.6071 10.328 66.7244 10.2533 66.8098 10.168C66.9058 10.072 66.9751 9.976 67.0178 9.88C67.0711 9.784 67.1031 9.69333 67.1138 9.608C67.1244 9.52267 67.1298 9.45333 67.1298 9.4C67.1298 9.34667 67.1244 9.27733 67.1138 9.192C67.1031 9.10667 67.0711 9.02133 67.0178 8.936C66.9751 8.84 66.9058 8.744 66.8098 8.648C66.7244 8.552 66.6071 8.46667 66.4578 8.392C66.3404 8.33867 66.2124 8.29067 66.0738 8.248C65.9458 8.20533 65.8071 8.15733 65.6578 8.104C65.3911 8.01867 65.1138 7.92267 64.8258 7.816C64.5378 7.70933 64.2498 7.56533 63.9618 7.384C63.5884 7.14933 63.2738 6.856 63.0178 6.504C62.7618 6.152 62.5751 5.77333 62.4578 5.368C62.3511 4.96267 62.3138 4.54667 62.3458 4.12C62.3884 3.68267 62.5111 3.26667 62.7138 2.872C62.9058 2.50933 63.1458 2.19467 63.4338 1.928C63.7218 1.66133 64.0418 1.45333 64.3938 1.304C64.7458 1.144 65.1244 1.048 65.5298 1.016C65.9351 0.984 66.3458 1.02133 66.7618 1.128C67.1671 1.224 67.5351 1.37867 67.8658 1.592C68.1964 1.79467 68.4791 2.04533 68.7138 2.344C68.9591 2.632 69.1458 2.95733 69.2738 3.32C69.4018 3.68267 69.4658 4.06133 69.4658 4.456H66.7618C66.7618 4.21067 66.6818 4.04 66.5218 3.944C66.3724 3.848 66.2391 3.784 66.1218 3.752C66.1004 3.752 66.0471 3.74667 65.9618 3.736C65.8871 3.72533 65.7964 3.72533 65.6898 3.736C65.5938 3.74667 65.4924 3.77867 65.3858 3.832C65.2791 3.88533 65.1938 3.98133 65.1298 4.12C65.0444 4.29067 65.0284 4.472 65.0818 4.664C65.1351 4.84533 65.2418 4.98933 65.4018 5.096C65.5511 5.18133 65.7164 5.26133 65.8978 5.336C66.0791 5.4 66.2711 5.464 66.4738 5.528C66.6551 5.58133 66.8364 5.64 67.0178 5.704C67.2098 5.768 67.4018 5.84267 67.5938 5.928C68.2978 6.248 68.8471 6.71733 69.2418 7.336C69.6471 7.944 69.8498 8.632 69.8498 9.4C69.8498 10.1467 69.6471 10.8293 69.2418 11.448C68.8471 12.0667 68.2978 12.536 67.5938 12.856C67.3164 12.984 67.0338 13.0747 66.7458 13.128C66.4578 13.192 66.1698 13.224 65.8818 13.224ZM73.3403 13H70.6363V1.24H73.3403V13ZM81.2525 3.928H78.9965V13H76.2925V3.928H74.0525V1.208H81.2525V3.928ZM85.4996 9.672L81.4836 1.16H84.4756L86.8916 6.264L88.9556 1.16H91.8836L87.0676 13H84.1396L85.4996 9.672ZM7.95794 17.24C8.7686 17.24 9.53127 17.3947 10.2459 17.704C10.9606 18.0133 11.5846 18.4347 12.1179 18.968C12.6513 19.4907 13.0726 20.1093 13.3819 20.824C13.6913 21.5387 13.8459 22.3013 13.8459 23.112C13.8459 23.9227 13.6913 24.6853 13.3819 25.4C13.0726 26.1147 12.6513 26.7387 12.1179 27.272C11.5846 27.7947 10.9606 28.2107 10.2459 28.52C9.53127 28.8293 8.7686 28.984 7.95794 28.984C7.14727 28.984 6.3846 28.8293 5.66994 28.52C4.95527 28.2107 4.33127 27.7947 3.79794 27.272C3.27527 26.7387 2.85927 26.1147 2.54994 25.4C2.2406 24.6853 2.08594 23.9227 2.08594 23.112C2.08594 22.3013 2.2406 21.5387 2.54994 20.824C2.85927 20.1093 3.27527 19.4907 3.79794 18.968C4.33127 18.4347 4.95527 18.0133 5.66994 17.704C6.3846 17.3947 7.14727 17.24 7.95794 17.24ZM7.95794 26.28C8.39527 26.28 8.80594 26.2 9.18994 26.04C9.57394 25.8693 9.90994 25.64 10.1979 25.352C10.4859 25.064 10.7099 24.728 10.8699 24.344C11.0406 23.96 11.1259 23.5493 11.1259 23.112C11.1259 22.6747 11.0406 22.264 10.8699 21.88C10.7099 21.496 10.4859 21.16 10.1979 20.872C9.90994 20.584 9.57394 20.36 9.18994 20.2C8.80594 20.0293 8.39527 19.944 7.95794 19.944C7.5206 19.944 7.10994 20.0293 6.72594 20.2C6.34194 20.36 6.00594 20.584 5.71794 20.872C5.42994 21.16 5.2006 21.496 5.02994 21.88C4.86994 22.264 4.78994 22.6747 4.78994 23.112C4.78994 23.5493 4.86994 23.96 5.02994 24.344C5.2006 24.728 5.42994 25.064 5.71794 25.352C6.00594 25.64 6.34194 25.8693 6.72594 26.04C7.10994 26.2 7.5206 26.28 7.95794 26.28ZM17.3556 19.96V21.736H20.8276V24.44H17.3556V29H14.6516V17.256H21.7396V19.96H17.3556ZM41.2822 17.176L37.8102 29H35.1382L33.5862 23.112L32.2422 29H29.5542L25.6502 17.176H28.4982L30.6742 23.72L32.1622 17.176H34.8182L36.5462 23.688L38.4502 17.176H41.2822ZM46.0794 27.576H42.3834L41.9034 29H39.0394L43.0394 17.256H45.5994L49.3914 29H46.5434L46.0794 27.576ZM45.2154 24.872L44.2874 22.024L43.3114 24.872H45.2154ZM55.3697 19.928H53.1137V29H50.4097V19.928H48.1697V17.208H55.3697V19.928ZM59.1368 19.96V21.736H63.0568V24.44H59.1368V26.296H63.9688V29H56.4328V17.272L63.9688 17.256V19.96H59.1368ZM68.3576 25.96C68.2189 25.9813 68.0802 25.9973 67.9416 26.008C67.8029 26.0187 67.6589 26.0293 67.5096 26.04V29H64.8056V17.288H67.5096C68.1816 17.2987 68.8109 17.4213 69.3976 17.656C69.9842 17.8907 70.4962 18.2053 70.9336 18.6C71.3816 18.9947 71.7282 19.4587 71.9736 19.992C72.2296 20.5147 72.3576 21.0693 72.3576 21.656C72.3576 22.296 72.2242 22.8827 71.9576 23.416C71.6909 23.9493 71.3176 24.4133 70.8376 24.808L73.4296 29H70.2456L68.3576 25.96ZM67.5096 23.32C67.7976 23.3093 68.0696 23.2613 68.3256 23.176C68.5922 23.08 68.8216 22.9573 69.0136 22.808C69.2162 22.6587 69.3709 22.488 69.4776 22.296C69.5949 22.0933 69.6536 21.88 69.6536 21.656C69.6536 21.432 69.5949 21.224 69.4776 21.032C69.3709 20.84 69.2162 20.6693 69.0136 20.52C68.8216 20.3707 68.5922 20.2533 68.3256 20.168C68.0696 20.072 67.7976 20.0187 67.5096 20.008V23.32ZM81.7336 29H74.7416V17.24H77.4456V26.296H81.7336V29ZM87.2548 17.24C88.0655 17.24 88.8281 17.3947 89.5428 17.704C90.2575 18.0133 90.8815 18.4347 91.4148 18.968C91.9481 19.4907 92.3695 20.1093 92.6788 20.824C92.9881 21.5387 93.1428 22.3013 93.1428 23.112C93.1428 23.9227 92.9881 24.6853 92.6788 25.4C92.3695 26.1147 91.9481 26.7387 91.4148 27.272C90.8815 27.7947 90.2575 28.2107 89.5428 28.52C88.8281 28.8293 88.0655 28.984 87.2548 28.984C86.4441 28.984 85.6815 28.8293 84.9668 28.52C84.2521 28.2107 83.6281 27.7947 83.0948 27.272C82.5721 26.7387 82.1561 26.1147 81.8468 25.4C81.5375 24.6853 81.3828 23.9227 81.3828 23.112C81.3828 22.3013 81.5375 21.5387 81.8468 20.824C82.1561 20.1093 82.5721 19.4907 83.0948 18.968C83.6281 18.4347 84.2521 18.0133 84.9668 17.704C85.6815 17.3947 86.4441 17.24 87.2548 17.24ZM87.2548 26.28C87.6921 26.28 88.1028 26.2 88.4868 26.04C88.8708 25.8693 89.2068 25.64 89.4948 25.352C89.7828 25.064 90.0068 24.728 90.1668 24.344C90.3375 23.96 90.4228 23.5493 90.4228 23.112C90.4228 22.6747 90.3375 22.264 90.1668 21.88C90.0068 21.496 89.7828 21.16 89.4948 20.872C89.2068 20.584 88.8708 20.36 88.4868 20.2C88.1028 20.0293 87.6921 19.944 87.2548 19.944C86.8175 19.944 86.4068 20.0293 86.0228 20.2C85.6388 20.36 85.3028 20.584 85.0148 20.872C84.7268 21.16 84.4975 21.496 84.3268 21.88C84.1668 22.264 84.0868 22.6747 84.0868 23.112C84.0868 23.5493 84.1668 23.96 84.3268 24.344C84.4975 24.728 84.7268 25.064 85.0148 25.352C85.3028 25.64 85.6388 25.8693 86.0228 26.04C86.4068 26.2 86.8175 26.28 87.2548 26.28ZM99.0204 17.24C99.8311 17.24 100.594 17.3947 101.308 17.704C102.023 18.0133 102.647 18.4347 103.18 18.968C103.714 19.4907 104.135 20.1093 104.444 20.824C104.754 21.5387 104.908 22.3013 104.908 23.112C104.908 23.9227 104.754 24.6853 104.444 25.4C104.135 26.1147 103.714 26.7387 103.18 27.272C102.647 27.7947 102.023 28.2107 101.308 28.52C100.594 28.8293 99.8311 28.984 99.0204 28.984C98.2098 28.984 97.4471 28.8293 96.7324 28.52C96.0178 28.2107 95.3938 27.7947 94.8604 27.272C94.3378 26.7387 93.9218 26.1147 93.6124 25.4C93.3031 24.6853 93.1484 23.9227 93.1484 23.112C93.1484 22.3013 93.3031 21.5387 93.6124 20.824C93.9218 20.1093 94.3378 19.4907 94.8604 18.968C95.3938 18.4347 96.0178 18.0133 96.7324 17.704C97.4471 17.3947 98.2098 17.24 99.0204 17.24ZM99.0204 26.28C99.4578 26.28 99.8684 26.2 100.252 26.04C100.636 25.8693 100.972 25.64 101.26 25.352C101.548 25.064 101.772 24.728 101.932 24.344C102.103 23.96 102.188 23.5493 102.188 23.112C102.188 22.6747 102.103 22.264 101.932 21.88C101.772 21.496 101.548 21.16 101.26 20.872C100.972 20.584 100.636 20.36 100.252 20.2C99.8684 20.0293 99.4578 19.944 99.0204 19.944C98.5831 19.944 98.1724 20.0293 97.7884 20.2C97.4044 20.36 97.0684 20.584 96.7804 20.872C96.4924 21.16 96.2631 21.496 96.0924 21.88C95.9324 22.264 95.8524 22.6747 95.8524 23.112C95.8524 23.5493 95.9324 23.96 96.0924 24.344C96.2631 24.728 96.4924 25.064 96.7804 25.352C97.0684 25.64 97.4044 25.8693 97.7884 26.04C98.1724 26.2 98.5831 26.28 99.0204 26.28Z" fill="black"/>
</svg>
