<svg viewBox="0 0 98 107" fill="none" xmlns="http://www.w3.org/2000/svg">
<path d="M49 102V4H5.00027C5.00027 4 4.9997 4.56329 5.00027 33.8506C5.00101 71.6989 34.3334 95.0536 49 102Z" fill="#FAD357"/>
<path d="M49 102V4H92.9997C92.9997 4 93.0003 4.56329 92.9997 33.8506C92.999 71.6989 63.6666 95.0536 49 102Z" fill="#FAD357"/>
<path d="M16 75.5894L48 51.5894L80.2148 75.3093" stroke="black" stroke-width="3"/>
<path d="M10.5828 66.2783L48.2738 38.2783L86.5828 66.2783" stroke="black" stroke-width="3"/>
<path d="M13 71L48.3097 45L83 70.4348" stroke="white" stroke-width="8"/>
<path d="M92 5H6.00002C5.44774 5 5.00002 5.44655 5.00002 5.99882L5.00003 38.4483C5.00003 72.9009 33.7734 94.8857 48.574 101.803C48.8495 101.932 49.1632 101.918 49.4337 101.779C84.2723 83.8979 93 52.1426 93 38.4483V6C93 5.44772 92.5523 5 92 5Z" stroke="black" stroke-width="6"/>
<path d="M96 1H2.00002C1.44774 1 1.00003 1.44519 1.00002 1.99747L1.00004 37.2069C1.00004 74.5331 32.4434 98.3401 48.5771 105.806C48.8511 105.933 49.1621 105.919 49.4312 105.782C87.4719 86.4302 97 52.0361 97 37.2069V2C97 1.44772 96.5523 1 96 1Z" stroke="white" stroke-width="2"/>
<path d="M85.3758 41.2175C90.021 39.2774 87.8088 35.3852 86.1221 33.6816C82.1242 30.4477 77.8909 28.606 76.274 28.0894C72.7165 32.786 66.8087 42.4775 71.6384 43.6711C76.4681 44.8648 76.9526 41.8652 76.5912 40.2162C75.7853 37.7555 74.8896 32.8708 77.7539 33.0172C80.6182 33.1636 80.711 36.0875 80.3993 37.5311C80.1226 39.5683 80.7305 43.1576 85.3758 41.2175Z" fill="#FC2C2C" stroke="black" stroke-width="2"/>
<path d="M56.2203 26.4159C55.5823 21.8055 60.3869 21.4598 62.869 21.8633C68.0007 23.2438 71.9555 25.5407 73.2914 26.5166C70.7795 31.7417 64.8397 41.417 61.1758 38.3177C57.5119 35.2183 60.0595 33.2615 61.7913 32.6705C64.516 31.9943 69.5535 30.1085 67.9054 27.9741C66.2572 25.8397 63.4758 27.3109 62.2911 28.3133C60.5334 29.6019 56.8583 31.0264 56.2203 26.4159Z" fill="#FC2C2C" stroke="black" stroke-width="2"/>
<path d="M77 18C77 18.3897 76.8869 19.4474 76.3473 20.3702C75.848 21.224 74.9738 22 73.2632 22C71.4815 22 70.4605 21.2805 69.8553 20.4661C69.2129 19.6014 69 18.5691 69 18C69 15.8075 70.6407 14 73.2632 14C75.4813 14 77 16.0422 77 18Z" fill="#FC2C2C" stroke="black" stroke-width="2"/>
<path d="M38.4621 37.8508C43.1073 35.9107 40.8951 32.0185 39.2084 30.3149C35.2105 27.081 30.9772 25.2393 29.3603 24.7227C25.8028 29.4193 19.895 39.1108 24.7247 40.3044C29.5544 41.4981 30.0389 38.4985 29.6775 36.8495C28.8716 34.3888 27.976 29.5041 30.8402 29.6505C33.7045 29.7969 33.7973 32.7208 33.4856 34.1644C33.2089 36.2016 33.8168 39.7909 38.4621 37.8508Z" fill="#FC2C2C" stroke="black" stroke-width="2"/>
<path d="M9.30684 23.0492C8.66882 18.4388 13.4735 18.0931 15.9555 18.4966C21.0872 19.8771 25.042 22.174 26.3779 23.1499C23.866 28.375 17.9263 38.0503 14.2624 34.951C10.5985 31.8516 13.146 29.8948 14.8778 29.3038C17.6026 28.6276 22.6401 26.7418 20.9919 24.6074C19.3437 22.473 16.5623 23.9442 15.3777 24.9466C13.6199 26.2352 9.94487 27.6597 9.30684 23.0492Z" fill="#FC2C2C" stroke="black" stroke-width="2"/>
<path d="M30 14.5C30 14.8238 29.8931 15.7407 29.372 16.5426C28.8952 17.2765 28.0237 18 26.2632 18C24.4402 18 23.4133 17.3336 22.8238 16.6196C22.1983 15.8619 22 14.9691 22 14.5C22 12.6792 23.5383 11 26.2632 11C28.5752 11 30 12.8821 30 14.5Z" fill="#FC2C2C" stroke="black" stroke-width="2"/>
<path d="M42 20.5C42 20.9267 41.8655 22.0964 41.2096 23.1247C40.5975 24.0842 39.489 25 37.3158 25C35.0786 25 33.7898 24.1641 33.04 23.2391C32.2537 22.269 32 21.1237 32 20.5C32 18.1107 33.9775 16 37.3158 16C40.1923 16 42 18.3917 42 20.5Z" fill="#FC2C2C" stroke="black" stroke-width="2"/>
<path d="M87 24C87 24.3897 86.8869 25.4474 86.3473 26.3702C85.848 27.224 84.9738 28 83.2632 28C81.4815 28 80.4605 27.2805 79.8553 26.4661C79.2129 25.6014 79 24.5691 79 24C79 21.8075 80.6407 20 83.2632 20C85.4813 20 87 22.0422 87 24Z" fill="#FC2C2C" stroke="black" stroke-width="2"/>
<path d="M62 71.5C62 71.8238 61.8931 72.7407 61.372 73.5426C60.8952 74.2765 60.0237 75 58.2632 75C56.4402 75 55.4133 74.3336 54.8238 73.6196C54.1983 72.8619 54 71.9691 54 71.5C54 69.6792 55.5383 68 58.2632 68C60.5752 68 62 69.8821 62 71.5Z" fill="#FC2C2C" stroke="black" stroke-width="2"/>
<path d="M58.5611 88.6696C63.2063 86.7295 60.9941 82.8373 59.3074 81.1338C55.3095 77.8998 51.0762 76.0582 49.4593 75.5416C45.9018 80.2381 39.994 89.9297 44.8237 91.1233C49.6534 92.3169 50.1379 89.3173 49.7765 87.6683C48.9706 85.2077 48.0749 80.3229 50.9392 80.4693C53.8035 80.6158 53.8963 83.5396 53.5846 84.9833C53.3079 87.0204 53.9158 90.6097 58.5611 88.6696Z" fill="#FC2C2C" stroke="black" stroke-width="2"/>
<path d="M29.4056 73.8685C28.7676 69.2581 33.5722 68.9125 36.0543 69.316C41.186 70.6965 45.1408 72.9934 46.4767 73.9693C43.9648 79.1943 38.025 88.8697 34.3611 85.7703C30.6972 82.6709 33.2448 80.7141 34.9766 80.1231C37.7013 79.447 42.7389 77.5611 41.0907 75.4267C39.4425 73.2924 36.6611 74.7635 35.4764 75.7659C33.7187 77.0545 30.0436 78.479 29.4056 73.8685Z" fill="#FC2C2C" stroke="black" stroke-width="2"/>
<path d="M52 65.5C52 65.9397 51.8738 67.1224 51.2683 68.1577C50.7032 69.124 49.7107 70 47.7895 70C45.7973 70 44.6447 69.193 43.9606 68.2723C43.2392 67.3014 43 66.1441 43 65.5C43 63.0314 44.8512 61 47.7895 61C50.2983 61 52 63.3059 52 65.5Z" fill="#FC2C2C" stroke="black" stroke-width="2"/>
</svg>
